<?xml version="1.0" encoding="utf-8"?>
<!-- Generator: Adobe Illustrator 24.0.1, SVG Export Plug-In . SVG Version: 6.00 Build 0)  -->
<svg version="1.1" id="Poster" xmlns="http://www.w3.org/2000/svg" xmlns:xlink="http://www.w3.org/1999/xlink" x="0px" y="0px"
	 viewBox="0 0 715.3 324.2" style="enable-background:new 0 0 715.3 324.2;" xml:space="preserve">
<style type="text/css">
	.st0{fill:#AAAAAA;}
	.st1{fill:none;}
	.st2{fill:#D63369;}
	.st3{fill:#222222;}
	.st4{fill:#111111;}
	.st5{fill:#61DAFB;}
	.st6{fill:none;stroke:#61DAFB;}
</style>
<g id="Dots">
	<rect x="391.2" y="221.1" class="st0" width="1" height="1"/>
	<rect x="663.3" y="221.1" class="st0" width="1" height="1"/>
	<rect x="527.2" y="221.1" class="st0" width="1" height="1"/>
	<rect x="459.2" y="221.1" class="st0" width="1" height="1"/>
	<rect x="595.3" y="221.1" class="st0" width="1" height="1"/>
	<rect x="408.2" y="221.1" class="st0" width="1" height="1"/>
	<rect x="680.3" y="221.1" class="st0" width="1" height="1"/>
	<rect x="544.3" y="221.1" class="st0" width="1" height="1"/>
	<rect x="476.2" y="221.1" class="st0" width="1" height="1"/>
	<rect x="612.3" y="221.1" class="st0" width="1" height="1"/>
	<rect x="425.2" y="221.1" class="st0" width="1" height="1"/>
	<rect x="697.3" y="221.1" class="st0" width="1" height="1"/>
	<rect x="561.3" y="221.1" class="st0" width="1" height="1"/>
	<rect x="493.2" y="221.1" class="st0" width="1" height="1"/>
	<rect x="629.3" y="221.1" class="st0" width="1" height="1"/>
	<rect x="442.2" y="221.1" class="st0" width="1" height="1"/>
	<rect x="578.3" y="221.1" class="st0" width="1" height="1"/>
	<rect x="510.2" y="221.1" class="st0" width="1" height="1"/>
	<rect x="646.3" y="221.1" class="st0" width="1" height="1"/>
	<rect x="391.2" y="17" class="st0" width="1" height="1"/>
	<rect x="663.3" y="17" class="st0" width="1" height="1"/>
	<rect x="527.2" y="17" class="st0" width="1" height="1"/>
	<rect x="459.2" y="17" class="st0" width="1" height="1"/>
	<rect x="595.3" y="17" class="st0" width="1" height="1"/>
	<rect x="408.2" y="17" class="st0" width="1" height="1"/>
	<rect x="680.3" y="17" class="st0" width="1" height="1"/>
	<rect x="544.3" y="17" class="st0" width="1" height="1"/>
	<rect x="476.2" y="17" class="st0" width="1" height="1"/>
	<rect x="612.3" y="17" class="st0" width="1" height="1"/>
	<rect x="425.2" y="17" class="st0" width="1" height="1"/>
	<rect x="697.3" y="17" class="st0" width="1" height="1"/>
	<rect x="561.3" y="17" class="st0" width="1" height="1"/>
	<rect x="493.2" y="17" class="st0" width="1" height="1"/>
	<rect x="629.3" y="17" class="st0" width="1" height="1"/>
	<rect x="442.2" y="17" class="st0" width="1" height="1"/>
	<rect x="578.3" y="17" class="st0" width="1" height="1"/>
	<rect x="510.2" y="17" class="st0" width="1" height="1"/>
	<rect x="646.3" y="17" class="st0" width="1" height="1"/>
	<rect x="391.2" y="289.1" class="st0" width="1" height="1"/>
	<rect x="663.3" y="289.1" class="st0" width="1" height="1"/>
	<rect x="527.2" y="289.1" class="st0" width="1" height="1"/>
	<rect x="459.2" y="289.1" class="st0" width="1" height="1"/>
	<rect x="595.3" y="289.1" class="st0" width="1" height="1"/>
	<rect x="408.2" y="289.1" class="st0" width="1" height="1"/>
	<rect x="680.3" y="289.1" class="st0" width="1" height="1"/>
	<rect x="544.3" y="289.1" class="st0" width="1" height="1"/>
	<rect x="476.2" y="289.1" class="st0" width="1" height="1"/>
	<rect x="612.3" y="289.1" class="st0" width="1" height="1"/>
	<rect x="425.2" y="289.1" class="st0" width="1" height="1"/>
	<rect x="697.3" y="289.1" class="st0" width="1" height="1"/>
	<rect x="561.3" y="289.1" class="st0" width="1" height="1"/>
	<rect x="493.2" y="289.1" class="st0" width="1" height="1"/>
	<rect x="629.3" y="289.1" class="st0" width="1" height="1"/>
	<rect x="442.2" y="289.1" class="st0" width="1" height="1"/>
	<rect x="578.3" y="289.1" class="st0" width="1" height="1"/>
	<rect x="510.2" y="289.1" class="st0" width="1" height="1"/>
	<rect x="646.3" y="289.1" class="st0" width="1" height="1"/>
	<rect x="391.2" y="85" class="st0" width="1" height="1"/>
	<rect x="663.3" y="85" class="st0" width="1" height="1"/>
	<rect x="527.2" y="85" class="st0" width="1" height="1"/>
	<rect x="459.2" y="85" class="st0" width="1" height="1"/>
	<rect x="595.3" y="85" class="st0" width="1" height="1"/>
	<rect x="408.2" y="85" class="st0" width="1" height="1"/>
	<rect x="680.3" y="85" class="st0" width="1" height="1"/>
	<rect x="544.3" y="85" class="st0" width="1" height="1"/>
	<rect x="476.2" y="85" class="st0" width="1" height="1"/>
	<rect x="612.3" y="85" class="st0" width="1" height="1"/>
	<rect x="425.2" y="85" class="st0" width="1" height="1"/>
	<rect x="697.3" y="85" class="st0" width="1" height="1"/>
	<rect x="561.3" y="85" class="st0" width="1" height="1"/>
	<rect x="493.2" y="85" class="st0" width="1" height="1"/>
	<rect x="629.3" y="85" class="st0" width="1" height="1"/>
	<rect x="442.2" y="85" class="st0" width="1" height="1"/>
	<rect x="578.3" y="85" class="st0" width="1" height="1"/>
	<rect x="510.2" y="85" class="st0" width="1" height="1"/>
	<rect x="646.3" y="85" class="st0" width="1" height="1"/>
	<rect x="391.2" y="153.1" class="st0" width="1" height="1"/>
	<rect x="374.7" y="153.1" class="st0" width="1" height="1"/>
	<rect x="374.7" y="136.1" class="st0" width="1" height="1"/>
	<rect x="340.2" y="136.1" class="st0" width="1" height="1"/>
	<rect x="340.2" y="153.1" class="st0" width="1" height="1"/>
	<rect x="323.2" y="170.1" class="st0" width="1" height="1"/>
	<rect x="663.3" y="153.1" class="st0" width="1" height="1"/>
	<rect x="527.2" y="153.1" class="st0" width="1" height="1"/>
	<rect x="459.2" y="153.1" class="st0" width="1" height="1"/>
	<rect x="595.3" y="153.1" class="st0" width="1" height="1"/>
	<rect x="408.2" y="153.1" class="st0" width="1" height="1"/>
	<rect x="680.3" y="153.1" class="st0" width="1" height="1"/>
	<rect x="544.3" y="153.1" class="st0" width="1" height="1"/>
	<rect x="476.2" y="153.1" class="st0" width="1" height="1"/>
	<rect x="612.3" y="153.1" class="st0" width="1" height="1"/>
	<rect x="425.2" y="153.1" class="st0" width="1" height="1"/>
	<rect x="697.3" y="153.1" class="st0" width="1" height="1"/>
	<rect x="561.3" y="153.1" class="st0" width="1" height="1"/>
	<rect x="493.2" y="153.1" class="st0" width="1" height="1"/>
	<rect x="629.3" y="153.1" class="st0" width="1" height="1"/>
	<rect x="442.2" y="153.1" class="st0" width="1" height="1"/>
	<rect x="578.3" y="153.1" class="st0" width="1" height="1"/>
	<rect x="510.2" y="153.1" class="st0" width="1" height="1"/>
	<rect x="646.3" y="153.1" class="st0" width="1" height="1"/>
	<rect x="391.2" y="238.1" class="st0" width="1" height="1"/>
	<rect x="663.3" y="238.1" class="st0" width="1" height="1"/>
	<rect x="527.2" y="238.1" class="st0" width="1" height="1"/>
	<rect x="459.2" y="238.1" class="st0" width="1" height="1"/>
	<rect x="595.3" y="238.1" class="st0" width="1" height="1"/>
	<rect x="408.2" y="238.1" class="st0" width="1" height="1"/>
	<rect x="680.3" y="238.1" class="st0" width="1" height="1"/>
	<rect x="544.3" y="238.1" class="st0" width="1" height="1"/>
	<rect x="476.2" y="238.1" class="st0" width="1" height="1"/>
	<rect x="612.3" y="238.1" class="st0" width="1" height="1"/>
	<rect x="425.2" y="238.1" class="st0" width="1" height="1"/>
	<rect x="697.3" y="238.1" class="st0" width="1" height="1"/>
	<rect x="561.3" y="238.1" class="st0" width="1" height="1"/>
	<rect x="493.2" y="238.1" class="st0" width="1" height="1"/>
	<rect x="629.3" y="238.1" class="st0" width="1" height="1"/>
	<rect x="442.2" y="238.1" class="st0" width="1" height="1"/>
	<rect x="578.3" y="238.1" class="st0" width="1" height="1"/>
	<rect x="510.2" y="238.1" class="st0" width="1" height="1"/>
	<rect x="646.3" y="238.1" class="st0" width="1" height="1"/>
	<rect x="391.2" y="34" class="st0" width="1" height="1"/>
	<rect x="663.3" y="34" class="st0" width="1" height="1"/>
	<rect x="527.2" y="34" class="st0" width="1" height="1"/>
	<rect x="459.2" y="34" class="st0" width="1" height="1"/>
	<rect x="595.3" y="34" class="st0" width="1" height="1"/>
	<rect x="408.2" y="34" class="st0" width="1" height="1"/>
	<rect x="680.3" y="34" class="st0" width="1" height="1"/>
	<rect x="544.3" y="34" class="st0" width="1" height="1"/>
	<rect x="476.2" y="34" class="st0" width="1" height="1"/>
	<rect x="612.3" y="34" class="st0" width="1" height="1"/>
	<rect x="425.2" y="34" class="st0" width="1" height="1"/>
	<rect x="697.3" y="34" class="st0" width="1" height="1"/>
	<rect x="561.3" y="34" class="st0" width="1" height="1"/>
	<rect x="493.2" y="34" class="st0" width="1" height="1"/>
	<rect x="629.3" y="34" class="st0" width="1" height="1"/>
	<rect x="442.2" y="34" class="st0" width="1" height="1"/>
	<rect x="578.3" y="34" class="st0" width="1" height="1"/>
	<rect x="510.2" y="34" class="st0" width="1" height="1"/>
	<rect x="646.3" y="34" class="st0" width="1" height="1"/>
	<rect x="391.2" y="306.2" class="st0" width="1" height="1"/>
	<rect x="663.3" y="306.2" class="st0" width="1" height="1"/>
	<rect x="527.2" y="306.2" class="st0" width="1" height="1"/>
	<rect x="459.2" y="306.2" class="st0" width="1" height="1"/>
	<rect x="595.3" y="306.2" class="st0" width="1" height="1"/>
	<rect x="408.2" y="306.2" class="st0" width="1" height="1"/>
	<rect x="680.3" y="306.2" class="st0" width="1" height="1"/>
	<rect x="544.3" y="306.2" class="st0" width="1" height="1"/>
	<rect x="476.2" y="306.2" class="st0" width="1" height="1"/>
	<rect x="612.3" y="306.2" class="st0" width="1" height="1"/>
	<rect x="425.2" y="306.2" class="st0" width="1" height="1"/>
	<rect x="697.3" y="306.2" class="st0" width="1" height="1"/>
	<rect x="561.3" y="306.2" class="st0" width="1" height="1"/>
	<rect x="493.2" y="306.2" class="st0" width="1" height="1"/>
	<rect x="629.3" y="306.2" class="st0" width="1" height="1"/>
	<rect x="442.2" y="306.2" class="st0" width="1" height="1"/>
	<rect x="578.3" y="306.2" class="st0" width="1" height="1"/>
	<rect x="510.2" y="306.2" class="st0" width="1" height="1"/>
	<rect x="646.3" y="306.2" class="st0" width="1" height="1"/>
	<rect x="391.2" y="102.1" class="st0" width="1" height="1"/>
	<rect x="663.3" y="102.1" class="st0" width="1" height="1"/>
	<rect x="527.2" y="102.1" class="st0" width="1" height="1"/>
	<rect x="459.2" y="102.1" class="st0" width="1" height="1"/>
	<rect x="595.3" y="102.1" class="st0" width="1" height="1"/>
	<rect x="408.2" y="102.1" class="st0" width="1" height="1"/>
	<rect x="680.3" y="102.1" class="st0" width="1" height="1"/>
	<rect x="544.3" y="102.1" class="st0" width="1" height="1"/>
	<rect x="476.2" y="102.1" class="st0" width="1" height="1"/>
	<rect x="612.3" y="102.1" class="st0" width="1" height="1"/>
	<rect x="425.2" y="102.1" class="st0" width="1" height="1"/>
	<rect x="697.3" y="102.1" class="st0" width="1" height="1"/>
	<rect x="561.3" y="102.1" class="st0" width="1" height="1"/>
	<rect x="493.2" y="102.1" class="st0" width="1" height="1"/>
	<rect x="629.3" y="102.1" class="st0" width="1" height="1"/>
	<rect x="442.2" y="102.1" class="st0" width="1" height="1"/>
	<rect x="578.3" y="102.1" class="st0" width="1" height="1"/>
	<rect x="510.2" y="102.1" class="st0" width="1" height="1"/>
	<rect x="646.3" y="102.1" class="st0" width="1" height="1"/>
	<rect x="391.2" y="170.1" class="st0" width="1" height="1"/>
	<rect x="663.3" y="170.1" class="st0" width="1" height="1"/>
	<rect x="527.2" y="170.1" class="st0" width="1" height="1"/>
	<rect x="459.2" y="170.1" class="st0" width="1" height="1"/>
	<rect x="595.3" y="170.1" class="st0" width="1" height="1"/>
	<rect x="408.2" y="170.1" class="st0" width="1" height="1"/>
	<rect x="680.3" y="170.1" class="st0" width="1" height="1"/>
	<rect x="544.3" y="170.1" class="st0" width="1" height="1"/>
	<rect x="476.2" y="170.1" class="st0" width="1" height="1"/>
	<rect x="612.3" y="170.1" class="st0" width="1" height="1"/>
	<rect x="425.2" y="170.1" class="st0" width="1" height="1"/>
	<rect x="697.3" y="170.1" class="st0" width="1" height="1"/>
	<rect x="561.3" y="170.1" class="st0" width="1" height="1"/>
	<rect x="493.2" y="170.1" class="st0" width="1" height="1"/>
	<rect x="629.3" y="170.1" class="st0" width="1" height="1"/>
	<rect x="442.2" y="170.1" class="st0" width="1" height="1"/>
	<rect x="578.3" y="170.1" class="st0" width="1" height="1"/>
	<rect x="510.2" y="170.1" class="st0" width="1" height="1"/>
	<rect x="646.3" y="170.1" class="st0" width="1" height="1"/>
	<rect x="391.2" y="255.1" class="st0" width="1" height="1"/>
	<rect x="663.3" y="255.1" class="st0" width="1" height="1"/>
	<rect x="527.2" y="255.1" class="st0" width="1" height="1"/>
	<rect x="459.2" y="255.1" class="st0" width="1" height="1"/>
	<rect x="595.3" y="255.1" class="st0" width="1" height="1"/>
	<rect x="408.2" y="255.1" class="st0" width="1" height="1"/>
	<rect x="680.3" y="255.1" class="st0" width="1" height="1"/>
	<rect x="544.3" y="255.1" class="st0" width="1" height="1"/>
	<rect x="476.2" y="255.1" class="st0" width="1" height="1"/>
	<rect x="612.3" y="255.1" class="st0" width="1" height="1"/>
	<rect x="425.2" y="255.1" class="st0" width="1" height="1"/>
	<rect x="697.3" y="255.1" class="st0" width="1" height="1"/>
	<rect x="561.3" y="255.1" class="st0" width="1" height="1"/>
	<rect x="493.2" y="255.1" class="st0" width="1" height="1"/>
	<rect x="629.3" y="255.1" class="st0" width="1" height="1"/>
	<rect x="442.2" y="255.1" class="st0" width="1" height="1"/>
	<rect x="578.3" y="255.1" class="st0" width="1" height="1"/>
	<rect x="510.2" y="255.1" class="st0" width="1" height="1"/>
	<rect x="646.3" y="255.1" class="st0" width="1" height="1"/>
	<rect x="391.2" y="51" class="st0" width="1" height="1"/>
	<rect x="663.3" y="51" class="st0" width="1" height="1"/>
	<rect x="527.2" y="51" class="st0" width="1" height="1"/>
	<rect x="459.2" y="51" class="st0" width="1" height="1"/>
	<rect x="595.3" y="51" class="st0" width="1" height="1"/>
	<rect x="408.2" y="51" class="st0" width="1" height="1"/>
	<rect x="680.3" y="51" class="st0" width="1" height="1"/>
	<rect x="544.3" y="51" class="st0" width="1" height="1"/>
	<rect x="476.2" y="51" class="st0" width="1" height="1"/>
	<rect x="612.3" y="51" class="st0" width="1" height="1"/>
	<rect x="425.2" y="51" class="st0" width="1" height="1"/>
	<rect x="697.3" y="51" class="st0" width="1" height="1"/>
	<rect x="561.3" y="51" class="st0" width="1" height="1"/>
	<rect x="493.2" y="51" class="st0" width="1" height="1"/>
	<rect x="629.3" y="51" class="st0" width="1" height="1"/>
	<rect x="442.2" y="51" class="st0" width="1" height="1"/>
	<rect x="578.3" y="51" class="st0" width="1" height="1"/>
	<rect x="510.2" y="51" class="st0" width="1" height="1"/>
	<rect x="646.3" y="51" class="st0" width="1" height="1"/>
	<rect x="391.2" y="119.1" class="st0" width="1" height="1"/>
	<rect x="663.3" y="119.1" class="st0" width="1" height="1"/>
	<rect x="527.2" y="119.1" class="st0" width="1" height="1"/>
	<rect x="459.2" y="119.1" class="st0" width="1" height="1"/>
	<rect x="595.3" y="119.1" class="st0" width="1" height="1"/>
	<rect x="408.2" y="119.1" class="st0" width="1" height="1"/>
	<rect x="680.3" y="119.1" class="st0" width="1" height="1"/>
	<rect x="544.3" y="119.1" class="st0" width="1" height="1"/>
	<rect x="476.2" y="119.1" class="st0" width="1" height="1"/>
	<rect x="612.3" y="119.1" class="st0" width="1" height="1"/>
	<rect x="425.2" y="119.1" class="st0" width="1" height="1"/>
	<rect x="697.3" y="119.1" class="st0" width="1" height="1"/>
	<rect x="561.3" y="119.1" class="st0" width="1" height="1"/>
	<rect x="493.2" y="119.1" class="st0" width="1" height="1"/>
	<rect x="629.3" y="119.1" class="st0" width="1" height="1"/>
	<rect x="442.2" y="119.1" class="st0" width="1" height="1"/>
	<rect x="578.3" y="119.1" class="st0" width="1" height="1"/>
	<rect x="510.2" y="119.1" class="st0" width="1" height="1"/>
	<rect x="646.3" y="119.1" class="st0" width="1" height="1"/>
	<rect x="391.2" y="187.1" class="st0" width="1" height="1"/>
	<rect x="663.3" y="187.1" class="st0" width="1" height="1"/>
	<rect x="527.2" y="187.1" class="st0" width="1" height="1"/>
	<rect x="459.2" y="187.1" class="st0" width="1" height="1"/>
	<rect x="595.3" y="187.1" class="st0" width="1" height="1"/>
	<rect x="408.2" y="187.1" class="st0" width="1" height="1"/>
	<rect x="680.3" y="187.1" class="st0" width="1" height="1"/>
	<rect x="544.3" y="187.1" class="st0" width="1" height="1"/>
	<rect x="476.2" y="187.1" class="st0" width="1" height="1"/>
	<rect x="612.3" y="187.1" class="st0" width="1" height="1"/>
	<rect x="425.2" y="187.1" class="st0" width="1" height="1"/>
	<rect x="697.3" y="187.1" class="st0" width="1" height="1"/>
	<rect x="561.3" y="187.1" class="st0" width="1" height="1"/>
	<rect x="493.2" y="187.1" class="st0" width="1" height="1"/>
	<rect x="629.3" y="187.1" class="st0" width="1" height="1"/>
	<rect x="442.2" y="187.1" class="st0" width="1" height="1"/>
	<rect x="578.3" y="187.1" class="st0" width="1" height="1"/>
	<rect x="510.2" y="187.1" class="st0" width="1" height="1"/>
	<rect x="646.3" y="187.1" class="st0" width="1" height="1"/>
	<rect x="391.2" y="272.1" class="st0" width="1" height="1"/>
	<rect x="663.3" y="272.1" class="st0" width="1" height="1"/>
	<rect x="527.2" y="272.1" class="st0" width="1" height="1"/>
	<rect x="459.2" y="272.1" class="st0" width="1" height="1"/>
	<rect x="595.3" y="272.1" class="st0" width="1" height="1"/>
	<rect x="408.2" y="272.1" class="st0" width="1" height="1"/>
	<rect x="680.3" y="272.1" class="st0" width="1" height="1"/>
	<rect x="544.3" y="272.1" class="st0" width="1" height="1"/>
	<rect x="476.2" y="272.1" class="st0" width="1" height="1"/>
	<rect x="612.3" y="272.1" class="st0" width="1" height="1"/>
	<rect x="425.2" y="272.1" class="st0" width="1" height="1"/>
	<rect x="697.3" y="272.1" class="st0" width="1" height="1"/>
	<rect x="561.3" y="272.1" class="st0" width="1" height="1"/>
	<rect x="493.2" y="272.1" class="st0" width="1" height="1"/>
	<rect x="629.3" y="272.1" class="st0" width="1" height="1"/>
	<rect x="442.2" y="272.1" class="st0" width="1" height="1"/>
	<rect x="578.3" y="272.1" class="st0" width="1" height="1"/>
	<rect x="510.2" y="272.1" class="st0" width="1" height="1"/>
	<rect x="646.3" y="272.1" class="st0" width="1" height="1"/>
	<rect x="391.2" y="68" class="st0" width="1" height="1"/>
	<rect x="663.3" y="68" class="st0" width="1" height="1"/>
	<rect x="527.2" y="68" class="st0" width="1" height="1"/>
	<rect x="459.2" y="68" class="st0" width="1" height="1"/>
	<rect x="595.3" y="68" class="st0" width="1" height="1"/>
	<rect x="408.2" y="68" class="st0" width="1" height="1"/>
	<rect x="680.3" y="68" class="st0" width="1" height="1"/>
	<rect x="544.3" y="68" class="st0" width="1" height="1"/>
	<rect x="476.2" y="68" class="st0" width="1" height="1"/>
	<rect x="612.3" y="68" class="st0" width="1" height="1"/>
	<rect x="425.2" y="68" class="st0" width="1" height="1"/>
	<rect x="697.3" y="68" class="st0" width="1" height="1"/>
	<rect x="561.3" y="68" class="st0" width="1" height="1"/>
	<rect x="493.2" y="68" class="st0" width="1" height="1"/>
	<rect x="629.3" y="68" class="st0" width="1" height="1"/>
	<rect x="442.2" y="68" class="st0" width="1" height="1"/>
	<rect x="578.3" y="68" class="st0" width="1" height="1"/>
	<rect x="510.2" y="68" class="st0" width="1" height="1"/>
	<rect x="646.3" y="68" class="st0" width="1" height="1"/>
	<rect x="391.2" y="136.1" class="st0" width="1" height="1"/>
	<rect x="663.3" y="136.1" class="st0" width="1" height="1"/>
	<rect x="527.2" y="136.1" class="st0" width="1" height="1"/>
	<rect x="459.2" y="136.1" class="st0" width="1" height="1"/>
	<rect x="595.3" y="136.1" class="st0" width="1" height="1"/>
	<rect x="408.2" y="136.1" class="st0" width="1" height="1"/>
	<rect x="680.3" y="136.1" class="st0" width="1" height="1"/>
	<rect x="544.3" y="136.1" class="st0" width="1" height="1"/>
	<rect x="476.2" y="136.1" class="st0" width="1" height="1"/>
	<rect x="612.3" y="136.1" class="st0" width="1" height="1"/>
	<rect x="425.2" y="136.1" class="st0" width="1" height="1"/>
	<rect x="697.3" y="136.1" class="st0" width="1" height="1"/>
	<rect x="561.3" y="136.1" class="st0" width="1" height="1"/>
	<rect x="493.2" y="136.1" class="st0" width="1" height="1"/>
	<rect x="629.3" y="136.1" class="st0" width="1" height="1"/>
	<rect x="442.2" y="136.1" class="st0" width="1" height="1"/>
	<rect x="578.3" y="136.1" class="st0" width="1" height="1"/>
	<rect x="510.2" y="136.1" class="st0" width="1" height="1"/>
	<rect x="646.3" y="136.1" class="st0" width="1" height="1"/>
	<rect x="391.2" y="204.1" class="st0" width="1" height="1"/>
	<rect x="663.3" y="204.1" class="st0" width="1" height="1"/>
	<rect x="527.2" y="204.1" class="st0" width="1" height="1"/>
	<rect x="459.2" y="204.1" class="st0" width="1" height="1"/>
	<rect x="595.3" y="204.1" class="st0" width="1" height="1"/>
	<rect x="408.2" y="204.1" class="st0" width="1" height="1"/>
	<rect x="680.3" y="204.1" class="st0" width="1" height="1"/>
	<rect x="544.3" y="204.1" class="st0" width="1" height="1"/>
	<rect x="476.2" y="204.1" class="st0" width="1" height="1"/>
	<rect x="612.3" y="204.1" class="st0" width="1" height="1"/>
	<rect x="425.2" y="204.1" class="st0" width="1" height="1"/>
	<rect x="697.3" y="204.1" class="st0" width="1" height="1"/>
	<rect x="561.3" y="204.1" class="st0" width="1" height="1"/>
	<rect x="493.2" y="204.1" class="st0" width="1" height="1"/>
	<rect x="629.3" y="204.1" class="st0" width="1" height="1"/>
	<rect x="442.2" y="204.1" class="st0" width="1" height="1"/>
	<rect x="578.3" y="204.1" class="st0" width="1" height="1"/>
	<rect x="510.2" y="204.1" class="st0" width="1" height="1"/>
	<rect x="646.3" y="204.1" class="st0" width="1" height="1"/>
	<rect x="255.1" y="221.1" class="st0" width="1" height="1"/>
	<rect x="119.1" y="221.1" class="st0" width="1" height="1"/>
	<rect x="51" y="221.1" class="st0" width="1" height="1"/>
	<rect x="323.2" y="221.1" class="st0" width="1" height="1"/>
	<rect x="187.1" y="221.1" class="st0" width="1" height="1"/>
	<rect x="272.1" y="221.1" class="st0" width="1" height="1"/>
	<rect x="136.1" y="221.1" class="st0" width="1" height="1"/>
	<rect x="68" y="221.1" class="st0" width="1" height="1"/>
	<rect x="340.2" y="221.1" class="st0" width="1" height="1"/>
	<rect x="204.1" y="221.1" class="st0" width="1" height="1"/>
	<rect x="17" y="221.1" class="st0" width="1" height="1"/>
	<rect x="289.1" y="221.1" class="st0" width="1" height="1"/>
	<rect x="153.1" y="221.1" class="st0" width="1" height="1"/>
	<rect x="85" y="221.1" class="st0" width="1" height="1"/>
	<rect x="357.2" y="221.1" class="st0" width="1" height="1"/>
	<rect x="221.1" y="221.1" class="st0" width="1" height="1"/>
	<rect x="34" y="221.1" class="st0" width="1" height="1"/>
	<rect x="306.1" y="221.1" class="st0" width="1" height="1"/>
	<rect x="170.1" y="221.1" class="st0" width="1" height="1"/>
	<rect x="102.1" y="221.1" class="st0" width="1" height="1"/>
	<rect x="374.2" y="221.1" class="st0" width="1" height="1"/>
	<rect x="238.1" y="221.1" class="st0" width="1" height="1"/>
	<rect x="255.1" y="17" class="st0" width="1" height="1"/>
	<rect x="119.1" y="17" class="st0" width="1" height="1"/>
	<rect x="51" y="17" class="st0" width="1" height="1"/>
	<rect x="323.2" y="17" class="st0" width="1" height="1"/>
	<rect x="187.1" y="17" class="st0" width="1" height="1"/>
	<rect x="272.1" y="17" class="st0" width="1" height="1"/>
	<rect x="136.1" y="17" class="st0" width="1" height="1"/>
	<rect x="68" y="17" class="st0" width="1" height="1"/>
	<rect x="340.2" y="17" class="st0" width="1" height="1"/>
	<rect x="204.1" y="17" class="st0" width="1" height="1"/>
	<rect x="17" y="17" class="st0" width="1" height="1"/>
	<rect x="289.1" y="17" class="st0" width="1" height="1"/>
	<rect x="153.1" y="17" class="st0" width="1" height="1"/>
	<rect x="85" y="17" class="st0" width="1" height="1"/>
	<rect x="357.2" y="17" class="st0" width="1" height="1"/>
	<rect x="221.1" y="17" class="st0" width="1" height="1"/>
	<rect x="34" y="17" class="st0" width="1" height="1"/>
	<rect x="306.1" y="17" class="st0" width="1" height="1"/>
	<rect x="170.1" y="17" class="st0" width="1" height="1"/>
	<rect x="102.1" y="17" class="st0" width="1" height="1"/>
	<rect x="374.2" y="17" class="st0" width="1" height="1"/>
	<rect x="238.1" y="17" class="st0" width="1" height="1"/>
	<rect x="255.1" y="289.1" class="st0" width="1" height="1"/>
	<rect x="119.1" y="289.1" class="st0" width="1" height="1"/>
	<rect x="51" y="289.1" class="st0" width="1" height="1"/>
	<rect x="323.2" y="289.1" class="st0" width="1" height="1"/>
	<rect x="187.1" y="289.1" class="st0" width="1" height="1"/>
	<rect x="272.1" y="289.1" class="st0" width="1" height="1"/>
	<rect x="136.1" y="289.1" class="st0" width="1" height="1"/>
	<rect x="68" y="289.1" class="st0" width="1" height="1"/>
	<rect x="340.2" y="289.1" class="st0" width="1" height="1"/>
	<rect x="204.1" y="289.1" class="st0" width="1" height="1"/>
	<rect x="17" y="289.1" class="st0" width="1" height="1"/>
	<rect x="289.1" y="289.1" class="st0" width="1" height="1"/>
	<rect x="153.1" y="289.1" class="st0" width="1" height="1"/>
	<rect x="85" y="289.1" class="st0" width="1" height="1"/>
	<rect x="357.2" y="289.1" class="st0" width="1" height="1"/>
	<rect x="221.1" y="289.1" class="st0" width="1" height="1"/>
	<rect x="34" y="289.1" class="st0" width="1" height="1"/>
	<rect x="306.1" y="289.1" class="st0" width="1" height="1"/>
	<rect x="170.1" y="289.1" class="st0" width="1" height="1"/>
	<rect x="102.1" y="289.1" class="st0" width="1" height="1"/>
	<rect x="374.2" y="289.1" class="st0" width="1" height="1"/>
	<rect x="238.1" y="289.1" class="st0" width="1" height="1"/>
	<rect x="255.1" y="85" class="st0" width="1" height="1"/>
	<rect x="119.1" y="85" class="st0" width="1" height="1"/>
	<rect x="51" y="85" class="st0" width="1" height="1"/>
	<rect x="323.2" y="85" class="st0" width="1" height="1"/>
	<rect x="187.1" y="85" class="st0" width="1" height="1"/>
	<rect x="272.1" y="85" class="st0" width="1" height="1"/>
	<rect x="136.1" y="85" class="st0" width="1" height="1"/>
	<rect x="68" y="85" class="st0" width="1" height="1"/>
	<rect x="340.2" y="85" class="st0" width="1" height="1"/>
	<rect x="204.1" y="85" class="st0" width="1" height="1"/>
	<rect x="17" y="85" class="st0" width="1" height="1"/>
	<rect x="289.1" y="85" class="st0" width="1" height="1"/>
	<rect x="153.1" y="85" class="st0" width="1" height="1"/>
	<rect x="85" y="85" class="st0" width="1" height="1"/>
	<rect x="357.2" y="85" class="st0" width="1" height="1"/>
	<rect x="221.1" y="85" class="st0" width="1" height="1"/>
	<rect x="34" y="85" class="st0" width="1" height="1"/>
	<rect x="306.1" y="85" class="st0" width="1" height="1"/>
	<rect x="170.1" y="85" class="st0" width="1" height="1"/>
	<rect x="102.1" y="85" class="st0" width="1" height="1"/>
	<rect x="374.2" y="85" class="st0" width="1" height="1"/>
	<rect x="238.1" y="85" class="st0" width="1" height="1"/>
	<rect x="255.1" y="153.1" class="st0" width="1" height="1"/>
	<rect x="119.1" y="153.1" class="st0" width="1" height="1"/>
	<rect x="51" y="153.1" class="st0" width="1" height="1"/>
	<rect x="323.2" y="153.1" class="st0" width="1" height="1"/>
	<rect x="187.1" y="153.1" class="st0" width="1" height="1"/>
	<rect x="272.1" y="153.1" class="st0" width="1" height="1"/>
	<rect x="136.1" y="153.1" class="st0" width="1" height="1"/>
	<rect x="68" y="153.1" class="st0" width="1" height="1"/>
	<rect x="204.1" y="153.1" class="st0" width="1" height="1"/>
	<rect x="17" y="153.1" class="st0" width="1" height="1"/>
	<rect x="289.1" y="153.1" class="st0" width="1" height="1"/>
	<rect x="153.1" y="153.1" class="st0" width="1" height="1"/>
	<rect x="85" y="153.1" class="st0" width="1" height="1"/>
	<rect x="357.2" y="153.1" class="st0" width="1" height="1"/>
	<rect x="221.1" y="153.1" class="st0" width="1" height="1"/>
	<rect x="34" y="153.1" class="st0" width="1" height="1"/>
	<rect x="306.1" y="153.1" class="st0" width="1" height="1"/>
	<rect x="170.1" y="153.1" class="st0" width="1" height="1"/>
	<rect x="102.1" y="153.1" class="st0" width="1" height="1"/>
	<rect x="238.1" y="153.1" class="st0" width="1" height="1"/>
	<rect x="255.1" y="238.1" class="st0" width="1" height="1"/>
	<rect x="119.1" y="238.1" class="st0" width="1" height="1"/>
	<rect x="51" y="238.1" class="st0" width="1" height="1"/>
	<rect x="323.2" y="238.1" class="st0" width="1" height="1"/>
	<rect x="187.1" y="238.1" class="st0" width="1" height="1"/>
	<rect x="272.1" y="238.1" class="st0" width="1" height="1"/>
	<rect x="136.1" y="238.1" class="st0" width="1" height="1"/>
	<rect x="68" y="238.1" class="st0" width="1" height="1"/>
	<rect x="340.2" y="238.1" class="st0" width="1" height="1"/>
	<rect x="204.1" y="238.1" class="st0" width="1" height="1"/>
	<rect x="17" y="238.1" class="st0" width="1" height="1"/>
	<rect x="289.1" y="238.1" class="st0" width="1" height="1"/>
	<rect x="153.1" y="238.1" class="st0" width="1" height="1"/>
	<rect x="85" y="238.1" class="st0" width="1" height="1"/>
	<rect x="357.2" y="238.1" class="st0" width="1" height="1"/>
	<rect x="221.1" y="238.1" class="st0" width="1" height="1"/>
	<rect x="34" y="238.1" class="st0" width="1" height="1"/>
	<rect x="306.1" y="238.1" class="st0" width="1" height="1"/>
	<rect x="170.1" y="238.1" class="st0" width="1" height="1"/>
	<rect x="102.1" y="238.1" class="st0" width="1" height="1"/>
	<rect x="374.2" y="238.1" class="st0" width="1" height="1"/>
	<rect x="238.1" y="238.1" class="st0" width="1" height="1"/>
	<rect x="255.1" y="34" class="st0" width="1" height="1"/>
	<rect x="119.1" y="34" class="st0" width="1" height="1"/>
	<rect x="51" y="34" class="st0" width="1" height="1"/>
	<rect x="323.2" y="34" class="st0" width="1" height="1"/>
	<rect x="187.1" y="34" class="st0" width="1" height="1"/>
	<rect x="272.1" y="34" class="st0" width="1" height="1"/>
	<rect x="136.1" y="34" class="st0" width="1" height="1"/>
	<rect x="68" y="34" class="st0" width="1" height="1"/>
	<rect x="340.2" y="34" class="st0" width="1" height="1"/>
	<rect x="204.1" y="34" class="st0" width="1" height="1"/>
	<rect x="17" y="34" class="st0" width="1" height="1"/>
	<rect x="289.1" y="34" class="st0" width="1" height="1"/>
	<rect x="153.1" y="34" class="st0" width="1" height="1"/>
	<rect x="85" y="34" class="st0" width="1" height="1"/>
	<rect x="357.2" y="34" class="st0" width="1" height="1"/>
	<rect x="221.1" y="34" class="st0" width="1" height="1"/>
	<rect x="34" y="34" class="st0" width="1" height="1"/>
	<rect x="306.1" y="34" class="st0" width="1" height="1"/>
	<rect x="170.1" y="34" class="st0" width="1" height="1"/>
	<rect x="102.1" y="34" class="st0" width="1" height="1"/>
	<rect x="374.2" y="34" class="st0" width="1" height="1"/>
	<rect x="238.1" y="34" class="st0" width="1" height="1"/>
	<rect x="255.1" y="306.2" class="st0" width="1" height="1"/>
	<rect x="119.1" y="306.2" class="st0" width="1" height="1"/>
	<rect x="51" y="306.2" class="st0" width="1" height="1"/>
	<rect x="323.2" y="306.2" class="st0" width="1" height="1"/>
	<rect x="187.1" y="306.2" class="st0" width="1" height="1"/>
	<rect x="272.1" y="306.2" class="st0" width="1" height="1"/>
	<rect x="136.1" y="306.2" class="st0" width="1" height="1"/>
	<rect x="68" y="306.2" class="st0" width="1" height="1"/>
	<rect x="340.2" y="306.2" class="st0" width="1" height="1"/>
	<rect x="204.1" y="306.2" class="st0" width="1" height="1"/>
	<rect x="17" y="306.2" class="st0" width="1" height="1"/>
	<rect x="289.1" y="306.2" class="st0" width="1" height="1"/>
	<rect x="153.1" y="306.2" class="st0" width="1" height="1"/>
	<rect x="85" y="306.2" class="st0" width="1" height="1"/>
	<rect x="357.2" y="306.2" class="st0" width="1" height="1"/>
	<rect x="221.1" y="306.2" class="st0" width="1" height="1"/>
	<rect x="34" y="306.2" class="st0" width="1" height="1"/>
	<rect x="306.1" y="306.2" class="st0" width="1" height="1"/>
	<rect x="170.1" y="306.2" class="st0" width="1" height="1"/>
	<rect x="102.1" y="306.2" class="st0" width="1" height="1"/>
	<rect x="374.2" y="306.2" class="st0" width="1" height="1"/>
	<rect x="238.1" y="306.2" class="st0" width="1" height="1"/>
	<rect x="255.1" y="102.1" class="st0" width="1" height="1"/>
	<rect x="119.1" y="102.1" class="st0" width="1" height="1"/>
	<rect x="51" y="102.1" class="st0" width="1" height="1"/>
	<rect x="323.2" y="102.1" class="st0" width="1" height="1"/>
	<rect x="187.1" y="102.1" class="st0" width="1" height="1"/>
	<rect x="272.1" y="102.1" class="st0" width="1" height="1"/>
	<rect x="136.1" y="102.1" class="st0" width="1" height="1"/>
	<rect x="68" y="102.1" class="st0" width="1" height="1"/>
	<rect x="340.2" y="102.1" class="st0" width="1" height="1"/>
	<rect x="204.1" y="102.1" class="st0" width="1" height="1"/>
	<rect x="17" y="102.1" class="st0" width="1" height="1"/>
	<rect x="289.1" y="102.1" class="st0" width="1" height="1"/>
	<rect x="153.1" y="102.1" class="st0" width="1" height="1"/>
	<rect x="85" y="102.1" class="st0" width="1" height="1"/>
	<rect x="357.2" y="102.1" class="st0" width="1" height="1"/>
	<rect x="221.1" y="102.1" class="st0" width="1" height="1"/>
	<rect x="34" y="102.1" class="st0" width="1" height="1"/>
	<rect x="306.1" y="102.1" class="st0" width="1" height="1"/>
	<rect x="170.1" y="102.1" class="st0" width="1" height="1"/>
	<rect x="102.1" y="102.1" class="st0" width="1" height="1"/>
	<rect x="374.2" y="102.1" class="st0" width="1" height="1"/>
	<rect x="238.1" y="102.1" class="st0" width="1" height="1"/>
	<rect x="255.1" y="170.1" class="st0" width="1" height="1"/>
	<rect x="119.1" y="170.1" class="st0" width="1" height="1"/>
	<rect x="51" y="170.1" class="st0" width="1" height="1"/>
	<rect x="187.1" y="170.1" class="st0" width="1" height="1"/>
	<rect x="272.1" y="170.1" class="st0" width="1" height="1"/>
	<rect x="136.1" y="170.1" class="st0" width="1" height="1"/>
	<rect x="68" y="170.1" class="st0" width="1" height="1"/>
	<rect x="340.2" y="170.1" class="st0" width="1" height="1"/>
	<rect x="204.1" y="170.1" class="st0" width="1" height="1"/>
	<rect x="17" y="170.1" class="st0" width="1" height="1"/>
	<rect x="289.1" y="170.1" class="st0" width="1" height="1"/>
	<rect x="153.1" y="170.1" class="st0" width="1" height="1"/>
	<rect x="85" y="170.1" class="st0" width="1" height="1"/>
	<rect x="357.2" y="170.1" class="st0" width="1" height="1"/>
	<rect x="221.1" y="170.1" class="st0" width="1" height="1"/>
	<rect x="34" y="170.1" class="st0" width="1" height="1"/>
	<rect x="306.1" y="170.1" class="st0" width="1" height="1"/>
	<rect x="170.1" y="170.1" class="st0" width="1" height="1"/>
	<rect x="102.1" y="170.1" class="st0" width="1" height="1"/>
	<rect x="374.2" y="170.1" class="st0" width="1" height="1"/>
	<rect x="238.1" y="170.1" class="st0" width="1" height="1"/>
	<rect x="255.1" y="255.1" class="st0" width="1" height="1"/>
	<rect x="119.1" y="255.1" class="st0" width="1" height="1"/>
	<rect x="51" y="255.1" class="st0" width="1" height="1"/>
	<rect x="187.1" y="255.1" class="st0" width="1" height="1"/>
	<rect x="272.1" y="255.1" class="st0" width="1" height="1"/>
	<rect x="136.1" y="255.1" class="st0" width="1" height="1"/>
	<rect x="68" y="255.1" class="st1" width="1" height="1"/>
	<rect x="340.2" y="255.1" class="st0" width="1" height="1"/>
	<rect x="323.2" y="255.1" class="st0" width="1" height="1"/>
	<rect x="204.1" y="255.1" class="st0" width="1" height="1"/>
	<rect x="17" y="255.1" class="st0" width="1" height="1"/>
	<rect x="289.1" y="255.1" class="st0" width="1" height="1"/>
	<rect x="153.1" y="255.1" class="st0" width="1" height="1"/>
	<rect x="85" y="255.1" class="st0" width="1" height="1"/>
	<rect x="357.2" y="255.1" class="st0" width="1" height="1"/>
	<rect x="221.1" y="255.1" class="st0" width="1" height="1"/>
	<rect x="34" y="255.1" class="st0" width="1" height="1"/>
	<rect x="306.1" y="255.1" class="st0" width="1" height="1"/>
	<rect x="170.1" y="255.1" class="st0" width="1" height="1"/>
	<rect x="102.1" y="255.1" class="st0" width="1" height="1"/>
	<rect x="374.2" y="255.1" class="st0" width="1" height="1"/>
	<rect x="238.1" y="255.1" class="st0" width="1" height="1"/>
	<rect x="255.1" y="51" class="st0" width="1" height="1"/>
	<rect x="119.1" y="51" class="st1" width="1" height="1"/>
	<rect x="51" y="51" class="st1" width="1" height="1"/>
	<rect x="323.2" y="51" class="st0" width="1" height="1"/>
	<rect x="187.1" y="51" class="st0" width="1" height="1"/>
	<rect x="272.1" y="51" class="st0" width="1" height="1"/>
	<rect x="136.1" y="51" class="st1" width="1" height="1"/>
	<rect x="68" y="51" class="st1" width="1" height="1"/>
	<rect x="340.2" y="51" class="st0" width="1" height="1"/>
	<rect x="204.1" y="51" class="st0" width="1" height="1"/>
	<rect x="17" y="51" class="st0" width="1" height="1"/>
	<rect x="289.1" y="51" class="st0" width="1" height="1"/>
	<rect x="153.1" y="51" class="st1" width="1" height="1"/>
	<rect x="85" y="51" class="st1" width="1" height="1"/>
	<rect x="357.2" y="51" class="st0" width="1" height="1"/>
	<rect x="221.1" y="51" class="st0" width="1" height="1"/>
	<rect x="34" y="51" class="st0" width="1" height="1"/>
	<rect x="306.1" y="51" class="st0" width="1" height="1"/>
	<rect x="170.1" y="51" class="st0" width="1" height="1"/>
	<rect x="102.1" y="51" class="st1" width="1" height="1"/>
	<rect x="374.2" y="51" class="st0" width="1" height="1"/>
	<rect x="238.1" y="51" class="st0" width="1" height="1"/>
	<rect x="255.1" y="119.1" class="st0" width="1" height="1"/>
	<rect x="119.1" y="119.1" class="st0" width="1" height="1"/>
	<rect x="51" y="119.1" class="st0" width="1" height="1"/>
	<rect x="323.2" y="119.1" class="st0" width="1" height="1"/>
	<rect x="187.1" y="119.1" class="st0" width="1" height="1"/>
	<rect x="272.1" y="119.1" class="st0" width="1" height="1"/>
	<rect x="136.1" y="119.1" class="st0" width="1" height="1"/>
	<rect x="68" y="119.1" class="st0" width="1" height="1"/>
	<rect x="340.2" y="119.1" class="st0" width="1" height="1"/>
	<rect x="204.1" y="119.1" class="st0" width="1" height="1"/>
	<rect x="17" y="119.1" class="st0" width="1" height="1"/>
	<rect x="289.1" y="119.1" class="st0" width="1" height="1"/>
	<rect x="153.1" y="119.1" class="st0" width="1" height="1"/>
	<rect x="85" y="119.1" class="st0" width="1" height="1"/>
	<rect x="357.2" y="119.1" class="st0" width="1" height="1"/>
	<rect x="221.1" y="119.1" class="st0" width="1" height="1"/>
	<rect x="34" y="119.1" class="st0" width="1" height="1"/>
	<rect x="306.1" y="119.1" class="st0" width="1" height="1"/>
	<rect x="170.1" y="119.1" class="st0" width="1" height="1"/>
	<rect x="102.1" y="119.1" class="st0" width="1" height="1"/>
	<rect x="374.2" y="119.1" class="st0" width="1" height="1"/>
	<rect x="238.1" y="119.1" class="st0" width="1" height="1"/>
	<rect x="255.1" y="187.1" class="st0" width="1" height="1"/>
	<rect x="119.1" y="187.1" class="st0" width="1" height="1"/>
	<rect x="51" y="187.1" class="st0" width="1" height="1"/>
	<rect x="323.2" y="187.1" class="st0" width="1" height="1"/>
	<rect x="187.1" y="187.1" class="st0" width="1" height="1"/>
	<rect x="272.1" y="187.1" class="st0" width="1" height="1"/>
	<rect x="136.1" y="187.1" class="st0" width="1" height="1"/>
	<rect x="68" y="187.1" class="st0" width="1" height="1"/>
	<rect x="340.2" y="187.1" class="st0" width="1" height="1"/>
	<rect x="204.1" y="187.1" class="st0" width="1" height="1"/>
	<rect x="17" y="187.1" class="st0" width="1" height="1"/>
	<rect x="289.1" y="187.1" class="st0" width="1" height="1"/>
	<rect x="153.1" y="187.1" class="st0" width="1" height="1"/>
	<rect x="85" y="187.1" class="st0" width="1" height="1"/>
	<rect x="357.2" y="187.1" class="st0" width="1" height="1"/>
	<rect x="221.1" y="187.1" class="st0" width="1" height="1"/>
	<rect x="34" y="187.1" class="st0" width="1" height="1"/>
	<rect x="306.1" y="187.1" class="st0" width="1" height="1"/>
	<rect x="170.1" y="187.1" class="st0" width="1" height="1"/>
	<rect x="102.1" y="187.1" class="st0" width="1" height="1"/>
	<rect x="374.2" y="187.1" class="st0" width="1" height="1"/>
	<rect x="238.1" y="187.1" class="st0" width="1" height="1"/>
	<rect x="255.1" y="272.1" class="st0" width="1" height="1"/>
	<rect x="119.1" y="272.1" class="st0" width="1" height="1"/>
	<rect x="51" y="272.1" class="st0" width="1" height="1"/>
	<rect x="323.2" y="272.1" class="st0" width="1" height="1"/>
	<rect x="187.1" y="272.1" class="st0" width="1" height="1"/>
	<rect x="272.1" y="272.1" class="st0" width="1" height="1"/>
	<rect x="136.1" y="272.1" class="st0" width="1" height="1"/>
	<rect x="68" y="272.1" class="st1" width="1" height="1"/>
	<rect x="340.2" y="272.1" class="st0" width="1" height="1"/>
	<rect x="204.1" y="272.1" class="st0" width="1" height="1"/>
	<rect x="17" y="272.1" class="st0" width="1" height="1"/>
	<rect x="289.1" y="272.1" class="st0" width="1" height="1"/>
	<rect x="153.1" y="272.1" class="st0" width="1" height="1"/>
	<rect x="85" y="272.1" class="st0" width="1" height="1"/>
	<rect x="357.2" y="272.1" class="st0" width="1" height="1"/>
	<rect x="221.1" y="272.1" class="st0" width="1" height="1"/>
	<rect x="34" y="272.1" class="st0" width="1" height="1"/>
	<rect x="306.1" y="272.1" class="st0" width="1" height="1"/>
	<rect x="170.1" y="272.1" class="st0" width="1" height="1"/>
	<rect x="102.1" y="272.1" class="st0" width="1" height="1"/>
	<rect x="374.2" y="272.1" class="st0" width="1" height="1"/>
	<rect x="238.1" y="272.1" class="st0" width="1" height="1"/>
	<rect x="255.1" y="68" class="st1" width="1" height="1"/>
	<rect x="119.1" y="68" class="st1" width="1" height="1"/>
	<rect x="51" y="68" class="st1" width="1" height="1"/>
	<rect x="323.2" y="68" class="st0" width="1" height="1"/>
	<rect x="187.1" y="68" class="st1" width="1" height="1"/>
	<rect x="272.1" y="68" class="st1" width="1" height="1"/>
	<rect x="136.1" y="68" class="st1" width="1" height="1"/>
	<rect x="68" y="68" class="st1" width="1" height="1"/>
	<rect x="340.2" y="68" class="st0" width="1" height="1"/>
	<rect x="204.1" y="68" class="st1" width="1" height="1"/>
	<rect x="17" y="68" class="st0" width="1" height="1"/>
	<rect x="289.1" y="68" class="st0" width="1" height="1"/>
	<rect x="153.1" y="68" class="st1" width="1" height="1"/>
	<rect x="85" y="68" class="st1" width="1" height="1"/>
	<rect x="357.2" y="68" class="st0" width="1" height="1"/>
	<rect x="221.1" y="68" class="st1" width="1" height="1"/>
	<rect x="34" y="68" class="st0" width="1" height="1"/>
	<rect x="306.1" y="68" class="st0" width="1" height="1"/>
	<rect x="170.1" y="68" class="st1" width="1" height="1"/>
	<rect x="102.1" y="68" class="st1" width="1" height="1"/>
	<rect x="374.2" y="68" class="st0" width="1" height="1"/>
	<rect x="238.1" y="68" class="st1" width="1" height="1"/>
	<rect x="255.1" y="136.1" class="st0" width="1" height="1"/>
	<rect x="119.1" y="136.1" class="st0" width="1" height="1"/>
	<rect x="51" y="136.1" class="st0" width="1" height="1"/>
	<rect x="323.2" y="136.1" class="st0" width="1" height="1"/>
	<rect x="187.1" y="136.1" class="st0" width="1" height="1"/>
	<rect x="272.1" y="136.1" class="st0" width="1" height="1"/>
	<rect x="136.1" y="136.1" class="st0" width="1" height="1"/>
	<rect x="68" y="136.1" class="st0" width="1" height="1"/>
	<rect x="204.1" y="136.1" class="st0" width="1" height="1"/>
	<rect x="17" y="136.1" class="st0" width="1" height="1"/>
	<rect x="289.1" y="136.1" class="st0" width="1" height="1"/>
	<rect x="153.1" y="136.1" class="st0" width="1" height="1"/>
	<rect x="85" y="136.1" class="st0" width="1" height="1"/>
	<rect x="357.2" y="136.1" class="st0" width="1" height="1"/>
	<rect x="221.1" y="136.1" class="st0" width="1" height="1"/>
	<rect x="34" y="136.1" class="st0" width="1" height="1"/>
	<rect x="306.1" y="136.1" class="st0" width="1" height="1"/>
	<rect x="170.1" y="136.1" class="st0" width="1" height="1"/>
	<rect x="102.1" y="136.1" class="st0" width="1" height="1"/>
	<rect x="238.1" y="136.1" class="st0" width="1" height="1"/>
	<rect x="255.1" y="204.1" class="st0" width="1" height="1"/>
	<rect x="119.1" y="204.1" class="st0" width="1" height="1"/>
	<rect x="51" y="204.1" class="st0" width="1" height="1"/>
	<rect x="323.2" y="204.1" class="st0" width="1" height="1"/>
	<rect x="187.1" y="204.1" class="st0" width="1" height="1"/>
	<rect x="272.1" y="204.1" class="st0" width="1" height="1"/>
	<rect x="136.1" y="204.1" class="st0" width="1" height="1"/>
	<rect x="68" y="204.1" class="st0" width="1" height="1"/>
	<rect x="340.2" y="204.1" class="st0" width="1" height="1"/>
	<rect x="204.1" y="204.1" class="st0" width="1" height="1"/>
	<rect x="17" y="204.1" class="st0" width="1" height="1"/>
	<rect x="289.1" y="204.1" class="st0" width="1" height="1"/>
	<rect x="153.1" y="204.1" class="st0" width="1" height="1"/>
	<rect x="85" y="204.1" class="st0" width="1" height="1"/>
	<rect x="357.2" y="204.1" class="st0" width="1" height="1"/>
	<rect x="221.1" y="204.1" class="st0" width="1" height="1"/>
	<rect x="34" y="204.1" class="st0" width="1" height="1"/>
	<rect x="306.1" y="204.1" class="st0" width="1" height="1"/>
	<rect x="170.1" y="204.1" class="st0" width="1" height="1"/>
	<rect x="102.1" y="204.1" class="st0" width="1" height="1"/>
	<rect x="374.2" y="204.1" class="st0" width="1" height="1"/>
	<rect x="238.1" y="204.1" class="st0" width="1" height="1"/>
</g>
<path id="Logo" class="st2" d="M86.3,272.6c-5-8.6-10.4-17.9-15.6-27h-4.4c-5,8.7-10.5,18.2-15.8,27.4c0.4,0.8,1.2,2.2,2.1,3.8h31.6
	l2.3-3.8L86.3,272.6z M77.5,259.9c2.4,4.1,4.8,8.3,7.1,12.4H59.5l1-1.7h21l-13.7-23.6H70C72.5,251.2,75,255.5,77.5,259.9z
	 M75.6,269.2H61.3l7.2-12.4L75.6,269.2z M59.5,259.9c2.4-4.1,4.7-8.2,7.1-12.3l12.5,21.6h-2l-10.5-18.1L53,274.7
	c-0.3-0.6-0.7-1.2-1-1.8C54.5,268.6,57,264.2,59.5,259.9z M83.5,275.4H54.1l12.5-21.7l1,1.8l-10.5,18.1h27.4L83.5,275.4z"/>
<g id="Aleph.js">
	<path d="M61.1,51.6c0,0.1,0.1,0.3,0.1,0.5c0,0.2,0.1,0.5,0.1,0.7c0.1,0.3,0.1,0.6,0.1,0.9c0,0.4,0,0.7,0,1v2.9h-2.7v-3.2l0,0h-5.1
		l0,0v3.2H51v-2.9c0-0.5,0-1.1,0.1-1.6c0.1-0.6,0.2-1,0.2-1.3c0.1-0.3,0.1-0.5,0.1-0.5l1.9-7c0.2-0.6,0.5-1.1,1-1.5
		c0.5-0.4,1.1-0.6,1.7-0.6c0.6,0,1.2,0.2,1.7,0.6c0.5,0.4,0.9,0.9,1,1.5l1.9,7L61.1,51.6z M54.2,51.9h4.3l-1.8-6.7
		c0-0.1-0.1-0.2-0.3-0.2c-0.2,0-0.2,0.1-0.3,0.2L54.2,51.9z"/>
	<path d="M74.4,57.1c-0.7,0.6-1.6,0.9-2.6,0.9c-1.2,0-2.1-0.4-3.1-1.2C68,56,67.5,55,67.5,53.7v-8.6h-3.4v-2.7h6v11.2
		c0,0.4,0.2,0.8,0.5,1.1c0.3,0.3,0.7,0.5,1.1,0.5s0.7-0.1,1-0.4c0.3-0.3,0.5-0.5,0.5-0.9l2.6,0.8C75.7,55.8,75.2,56.5,74.4,57.1z"/>
	<path d="M83.4,46.1c1.2,0,2.2,0.4,3.1,1.2c0.8,0.8,1.2,1.8,1.2,3.1V53h-6.7v0.5c0,0.4,0.2,0.8,0.5,1.1c0.3,0.3,0.7,0.5,1.1,0.5h0.9
		c0.4,0,0.7-0.1,1-0.4c0.3-0.3,0.5-0.5,0.6-0.9l2.6,0.8c-0.3,0.9-0.7,1.7-1.5,2.2c-0.7,0.6-1.6,0.9-2.7,0.9h-0.9
		c-1.2,0-2.2-0.4-3.1-1.2c-0.8-0.8-1.2-1.8-1.2-3.1v-3.3c0-1.2,0.4-2.2,1.2-3.1c0.8-0.8,1.8-1.2,3.1-1.2h0.8V46.1z M85,50.8v-0.4
		c0-0.4-0.2-0.8-0.5-1.1c-0.3-0.3-0.7-0.5-1.1-0.5h-0.8c-0.4,0-0.8,0.2-1.1,0.5c-0.3,0.3-0.5,0.7-0.5,1.1v0.4H85z"/>
	<path d="M99.8,47.4c0.8,0.8,1.2,1.8,1.2,3.1v3.3c0,1.2-0.4,2.2-1.2,3.1C99,57.6,98,58,96.8,58h-0.1c-0.8,0-1.6-0.2-2.2-0.7v4.4
		h-2.7V46.4h2.7v0.5c0.7-0.5,1.4-0.7,2.2-0.7h0.1C98,46.1,99,46.5,99.8,47.4z M98.4,50.5c0-0.4-0.2-0.8-0.5-1.1
		c-0.3-0.3-0.7-0.5-1.1-0.5h-0.8c-0.4,0-0.8,0.2-1.1,0.5c-0.3,0.3-0.5,0.7-0.5,1.1v3.3c0,0.4,0.2,0.8,0.5,1.1
		c0.3,0.3,0.7,0.5,1.1,0.5h0.8c0.4,0,0.8-0.2,1.1-0.5c0.3-0.3,0.5-0.7,0.5-1.1V50.5z"/>
	<path d="M113.1,47.4c0.8,0.8,1.2,1.8,1.2,3.1v7.4h-2.7v-7.4c0-0.4-0.2-0.8-0.5-1.1c-0.3-0.3-0.7-0.5-1.1-0.5h-0.8
		c-0.4,0-0.8,0.2-1.1,0.5c-0.3,0.3-0.5,0.7-0.5,1.1v7.4h-2.7V42.5h2.7v4.4c0.7-0.5,1.4-0.7,2.2-0.7h0.1
		C111.3,46.1,112.3,46.5,113.1,47.4z"/>
	<path d="M121.6,54h2.7v3.9h-2.7V54z"/>
	<path d="M139.1,56.6v1.3c0,1.1-0.4,2-1.1,2.9c-0.8,0.8-1.7,1.1-2.9,1.1c-1.1,0-2-0.4-2.9-1.2c-0.8-0.8-1.2-1.7-1.2-2.9
		c0-1.1,0.4-2,1.1-2.9c0.8-0.8,1.7-1.1,2.9-1.1h1.3v-4.9h-4.4v-2.7h7v7.6h2.5v2.7h-2.3V56.6z M135.1,56.6c-0.4,0-0.7,0.1-0.9,0.4
		c-0.3,0.3-0.4,0.6-0.4,0.9s0.1,0.7,0.4,0.9c0.3,0.3,0.6,0.4,0.9,0.4s0.7-0.1,0.9-0.4c0.3-0.3,0.4-0.6,0.4-0.9v-1.3H135.1z
		 M136.4,41.1h2.7V45h-2.7V41.1z"/>
	<path d="M147.4,54.6c0,0.2,0.1,0.4,0.3,0.5c0.2,0.1,0.4,0.2,0.6,0.2h2.5c0.2,0,0.4-0.1,0.6-0.3c0.2-0.2,0.3-0.4,0.3-0.6
		c0-0.6-0.4-0.9-1.1-0.9l-1.9-0.2c-1-0.1-1.8-0.5-2.5-1.1c-0.6-0.7-1-1.4-1-2.5c0-1,0.3-1.8,1-2.6c0.7-0.7,1.5-1,2.6-1h2
		c0.8,0,1.5,0.2,2.1,0.7c0.6,0.5,1,1.1,1.2,1.9l-2.6,0.7c0-0.2-0.1-0.4-0.3-0.5c-0.2-0.1-0.3-0.2-0.6-0.2h-2c-0.2,0-0.4,0.1-0.6,0.3
		c-0.2,0.2-0.3,0.4-0.3,0.6c0,0.5,0.4,0.8,1.1,0.9l2,0.2c1,0.1,1.8,0.5,2.5,1.2c0.6,0.7,1,1.5,1,2.5c0,1-0.3,1.8-1,2.6
		c-0.7,0.7-1.5,1-2.6,1h-2.5c-0.8,0-1.5-0.2-2.1-0.7c-0.6-0.5-1-1.1-1.2-1.9L147.4,54.6z"/>
</g>
<g id="The_Full-stack_Framework_in_Deno.">
	<path class="st3" d="M54.2,68.3H51v-1.1h7.8v1.1h-3.2v9.5h-1.4V68.3z"/>
	<path class="st3" d="M60.6,66.3h1.3v3.2l0,1.6c0.7-0.7,1.5-1.3,2.6-1.3c1.7,0,2.4,1.1,2.4,3.1v5h-1.3V73c0-1.5-0.5-2.1-1.5-2.1
		c-0.8,0-1.4,0.4-2.2,1.2v5.7h-1.3V66.3z"/>
	<path class="st3" d="M68.8,73.9c0-2.6,1.7-4.2,3.6-4.2c2,0,3.1,1.5,3.1,3.7c0,0.3,0,0.6-0.1,0.8h-5.3c0.1,1.7,1.1,2.8,2.6,2.8
		c0.8,0,1.4-0.2,2-0.6l0.5,0.9c-0.7,0.5-1.5,0.8-2.6,0.8C70.5,78,68.8,76.5,68.8,73.9z M74.4,73.2c0-1.6-0.7-2.4-2-2.4
		c-1.1,0-2.1,0.9-2.3,2.4H74.4z"/>
	<path class="st3" d="M80.9,67.2H87v1.1h-4.8v3.6h4.1v1.1h-4.1v4.8h-1.4V67.2z"/>
	<path class="st3" d="M88.4,75v-5h1.3v4.8c0,1.5,0.4,2.1,1.5,2.1c0.8,0,1.4-0.4,2.1-1.3v-5.6h1.3v7.9h-1.1l-0.1-1.2h0
		c-0.7,0.9-1.5,1.4-2.6,1.4C89.2,78,88.4,77,88.4,75z"/>
	<path class="st3" d="M97.4,76.3v-10h1.3v10.1c0,0.4,0.2,0.6,0.4,0.6c0.1,0,0.1,0,0.3,0l0.2,1C99.3,78,99.1,78,98.8,78
		C97.8,78,97.4,77.4,97.4,76.3z"/>
	<path class="st3" d="M101.5,76.3v-10h1.3v10.1c0,0.4,0.2,0.6,0.4,0.6c0.1,0,0.1,0,0.3,0l0.2,1c-0.2,0.1-0.4,0.1-0.8,0.1
		C101.9,78,101.5,77.4,101.5,76.3z"/>
	<path class="st3" d="M105,73.3h3.7v1H105V73.3z"/>
	<path class="st3" d="M109.8,76.9l0.7-0.9c0.7,0.6,1.4,0.9,2.3,0.9c1,0,1.6-0.6,1.6-1.2c0-0.8-0.9-1.2-1.8-1.5
		c-1.1-0.4-2.3-0.9-2.3-2.3c0-1.3,1-2.2,2.7-2.2c1,0,1.8,0.4,2.4,0.9l-0.6,0.9c-0.5-0.4-1.1-0.7-1.8-0.7c-1,0-1.5,0.5-1.5,1.1
		c0,0.8,0.8,1,1.7,1.4c1.1,0.4,2.4,0.9,2.4,2.4c0,1.3-1,2.3-2.9,2.3C111.7,78,110.6,77.6,109.8,76.9z"/>
	<path class="st3" d="M117.4,75.4V71h-1.2v-1l1.2-0.1l0.2-2.2h1.1v2.2h2.1V71h-2.1v4.4c0,1,0.3,1.5,1.2,1.5c0.3,0,0.6-0.1,0.9-0.2
		l0.3,1c-0.5,0.1-1,0.3-1.5,0.3C118,78,117.4,77,117.4,75.4z"/>
	<path class="st3" d="M121.8,75.8c0-1.7,1.5-2.6,4.9-3c0-1-0.3-2-1.6-2c-0.9,0-1.7,0.4-2.4,0.8l-0.5-0.9c0.7-0.5,1.8-1,3.1-1
		c1.9,0,2.7,1.3,2.7,3.2v4.9h-1.1l-0.1-0.9h0c-0.8,0.6-1.6,1.1-2.6,1.1C122.8,78,121.8,77.2,121.8,75.8z M126.7,75.9v-2.2
		c-2.7,0.3-3.6,1-3.6,2c0,0.9,0.6,1.3,1.4,1.3C125.3,77,125.9,76.6,126.7,75.9z"/>
	<path class="st3" d="M129.9,73.9c0-2.6,1.8-4.2,3.8-4.2c1,0,1.7,0.4,2.3,0.9l-0.7,0.9c-0.5-0.4-0.9-0.7-1.6-0.7
		c-1.4,0-2.5,1.2-2.5,3.1c0,1.8,1,3,2.4,3c0.7,0,1.4-0.3,1.9-0.8l0.6,0.9c-0.7,0.6-1.6,1-2.6,1C131.6,78,129.9,76.5,129.9,73.9z"/>
	<path class="st3" d="M137.9,66.3h1.3v7.9h0l3.4-4.2h1.5l-2.6,3.2l3,4.7h-1.4l-2.3-3.8l-1.5,1.7v2.1h-1.3V66.3z"/>
	<path class="st3" d="M149.4,67.2h6.2v1.1h-4.8v3.6h4.1v1.1h-4.1v4.8h-1.4V67.2z"/>
	<path class="st3" d="M157,69.9h1.1l0.1,1.4h0c0.6-1,1.4-1.6,2.2-1.6c0.3,0,0.6,0,0.8,0.2l-0.2,1.2c-0.3-0.1-0.5-0.1-0.8-0.1
		c-0.7,0-1.5,0.5-2,1.8v5.1H157V69.9z"/>
	<path class="st3" d="M161.7,75.8c0-1.7,1.5-2.6,4.9-3c0-1-0.3-2-1.6-2c-0.9,0-1.7,0.4-2.4,0.8l-0.5-0.9c0.7-0.5,1.8-1,3.1-1
		c1.9,0,2.7,1.3,2.7,3.2v4.9h-1.1l-0.1-0.9h0c-0.8,0.6-1.6,1.1-2.6,1.1C162.7,78,161.7,77.2,161.7,75.8z M166.6,75.9v-2.2
		c-2.7,0.3-3.6,1-3.6,2c0,0.9,0.6,1.3,1.4,1.3C165.2,77,165.8,76.6,166.6,75.9z"/>
	<path class="st3" d="M170.4,69.9h1.1l0.1,1.1h0c0.7-0.8,1.5-1.4,2.5-1.4c1.2,0,1.9,0.6,2.2,1.5c0.8-0.9,1.6-1.5,2.6-1.5
		c1.6,0,2.4,1.1,2.4,3.1v5H180V73c0-1.5-0.5-2.1-1.5-2.1c-0.6,0-1.3,0.4-2,1.2v5.7h-1.3V73c0-1.5-0.5-2.1-1.5-2.1
		c-0.6,0-1.3,0.4-2,1.2v5.7h-1.3V69.9z"/>
	<path class="st3" d="M183.3,73.9c0-2.6,1.7-4.2,3.6-4.2c2,0,3.1,1.5,3.1,3.7c0,0.3,0,0.6-0.1,0.8h-5.3c0.1,1.7,1.1,2.8,2.6,2.8
		c0.8,0,1.4-0.2,2-0.6l0.5,0.9c-0.7,0.5-1.5,0.8-2.6,0.8C185,78,183.3,76.5,183.3,73.9z M188.8,73.2c0-1.6-0.7-2.4-2-2.4
		c-1.1,0-2.1,0.9-2.3,2.4H188.8z"/>
	<path class="st3" d="M191.1,69.9h1.4l1.2,4.6c0.2,0.8,0.3,1.5,0.5,2.2h0.1c0.2-0.7,0.3-1.5,0.5-2.2l1.2-4.6h1.3l1.2,4.6
		c0.2,0.8,0.4,1.5,0.6,2.2h0.1c0.2-0.7,0.3-1.5,0.5-2.2l1.2-4.6h1.3l-2.1,7.9h-1.6l-1.1-4.3c-0.2-0.7-0.3-1.5-0.5-2.3h-0.1
		c-0.2,0.8-0.3,1.5-0.5,2.3l-1.1,4.2h-1.6L191.1,69.9z"/>
	<path class="st3" d="M203,73.9c0-2.6,1.7-4.2,3.7-4.2s3.7,1.5,3.7,4.2c0,2.6-1.7,4.1-3.7,4.1S203,76.5,203,73.9z M209,73.9
		c0-1.8-0.9-3.1-2.3-3.1c-1.4,0-2.3,1.2-2.3,3.1c0,1.8,0.9,3,2.3,3C208.1,76.9,209,75.7,209,73.9z"/>
	<path class="st3" d="M212.5,69.9h1.1l0.1,1.4h0c0.6-1,1.4-1.6,2.2-1.6c0.3,0,0.6,0,0.8,0.2l-0.2,1.2c-0.3-0.1-0.5-0.1-0.8-0.1
		c-0.7,0-1.5,0.5-2,1.8v5.1h-1.3V69.9z"/>
	<path class="st3" d="M218.1,66.3h1.3v7.9h0l3.4-4.2h1.5l-2.6,3.2l3,4.7h-1.4l-2.3-3.8l-1.5,1.7v2.1h-1.3V66.3z"/>
	<path class="st3" d="M229.2,67.4c0-0.5,0.4-0.9,0.9-0.9s0.9,0.3,0.9,0.9c0,0.5-0.4,0.9-0.9,0.9S229.2,68,229.2,67.4z M229.4,69.9
		h1.3v7.9h-1.3V69.9z"/>
	<path class="st3" d="M233.4,69.9h1.1l0.1,1.1h0c0.8-0.7,1.6-1.3,2.6-1.3c1.7,0,2.4,1.1,2.4,3.1v5h-1.3V73c0-1.5-0.5-2.1-1.5-2.1
		c-0.8,0-1.4,0.4-2.2,1.2v5.7h-1.3V69.9z"/>
	<path class="st3" d="M245.6,67.1h2.8c3.3,0,5.2,1.8,5.2,5.3c0,3.5-1.9,5.4-5.1,5.4h-2.9V67.1z M248.3,76.5c2.3,0,3.5-1.4,3.5-4
		c0-2.7-1.2-3.9-3.5-3.9h-1v8H248.3z"/>
	<path class="st3" d="M255.1,73.8c0-2.6,1.8-4.2,3.7-4.2c2.1,0,3.3,1.5,3.3,3.8c0,0.3,0,0.7-0.1,0.9h-5.2c0.1,1.5,1.1,2.4,2.5,2.4
		c0.7,0,1.3-0.2,1.9-0.6l0.6,1.1c-0.7,0.5-1.7,0.8-2.7,0.8C256.8,78,255.1,76.5,255.1,73.8z M260.6,73.1c0-1.4-0.6-2.2-1.8-2.2
		c-1,0-1.9,0.8-2.1,2.2H260.6z"/>
	<path class="st3" d="M263.9,69.8h1.4l0.1,1.1h0c0.7-0.7,1.6-1.3,2.6-1.3c1.7,0,2.5,1.1,2.5,3.2v5h-1.7V73c0-1.4-0.4-1.9-1.4-1.9
		c-0.7,0-1.3,0.4-2,1.1v5.7h-1.7V69.8z"/>
	<path class="st3" d="M272.4,73.8c0-2.7,1.8-4.2,3.8-4.2c2,0,3.8,1.5,3.8,4.2c0,2.7-1.8,4.2-3.8,4.2C274.2,78,272.4,76.5,272.4,73.8
		z M278.2,73.8c0-1.7-0.8-2.8-2.1-2.8c-1.3,0-2,1.1-2,2.8c0,1.7,0.8,2.8,2,2.8C277.4,76.7,278.2,75.6,278.2,73.8z"/>
	<path class="st3" d="M281.7,77c0-0.6,0.4-1,1-1s1,0.4,1,1c0,0.6-0.4,1-1,1S281.7,77.6,281.7,77z"/>
</g>
<g id="Deno">
	<path class="st4" d="M620.6,51.5c0,0-0.2,0-0.3,0c-1.6,0.2-3.2,0.9-4.6,2c-0.2,0.2-0.8,0.8-1,1c-1.1,1.3-1.7,2.8-2,4.5
		c-0.1,0.4-0.1,1.7,0,2.1c0.2,1.7,0.9,3.2,2,4.5c0.2,0.2,0.8,0.8,1,1c1.3,1.1,2.8,1.7,4.5,2c0.4,0.1,1.7,0.1,2.1,0
		c1.7-0.2,3.2-0.9,4.5-2c0.2-0.2,0.8-0.8,1-1c1.1-1.3,1.7-2.8,2-4.5c0.1-0.4,0.1-1.7,0-2.1c-0.2-1.7-0.9-3.2-2-4.5
		c-0.2-0.2-0.8-0.8-1-1c-1.3-1.1-2.8-1.7-4.5-2c-0.2,0-0.5,0-0.9,0C621,51.5,620.6,51.5,620.6,51.5L620.6,51.5z M620.7,52.5
		c0,0.2,0,0.8,0,1.3c0,0.2,0,0.6,0,0.8c0,0.7,0.1,2.4,0.1,2.5l0,0.2l-0.1,0c-0.1,0-0.1,0-0.1,0c0,0,0-0.2,0-0.3
		c0-0.7-0.2-3.6-0.2-4.1l0-0.5l0.1,0c0,0,0.1,0,0.1,0l0.1,0V52.5z M622.7,52.4c0,0,0,0.6,0,1.4c0,0.8,0,1.5,0,1.5c0,0.1,0,0.1,0,0.1
		c0,0-0.1,0-0.1,0l-0.1,0l0-0.6c0-0.3,0-0.7,0-0.8c0-0.4,0-1.6,0-1.7c0,0,0,0,0.1,0C622.6,52.4,622.7,52.4,622.7,52.4L622.7,52.4z
		 M617.8,53.1c0,0,0.1,1.2,0.2,2.7c0,0.5,0.1,1,0.1,1c0,0.1,0,0.1-0.1,0.2c0,0-0.1,0-0.1,0c0,0,0-0.1,0-0.1c0-0.3-0.1-1.6-0.2-2.5
		c0-0.6-0.1-1.1-0.1-1.1c0-0.1,0-0.1,0-0.1C617.8,53.1,617.8,53.1,617.8,53.1L617.8,53.1z M623.6,53.5c0.1,0,0.1,0,0.1,0.2
		c0,0.2,0,1.2,0,1.2c-0.1,0-0.2-0.1-0.2-0.1c0,0,0-0.3,0-0.7C623.5,53.4,623.5,53.5,623.6,53.5L623.6,53.5z M619.7,53.6
		c0,0.1,0,0.4,0,0.7c0,0.3,0,0.7,0,0.9c0,0.4,0,0.4-0.1,0.4c-0.1,0-0.1,0-0.1-0.1c0-0.1,0-0.2,0-0.4c0-0.2,0-0.5-0.1-0.8
		s0-0.5,0-0.6c0-0.1,0-0.1,0-0.1C619.6,53.5,619.6,53.5,619.7,53.6C619.7,53.5,619.7,53.5,619.7,53.6L619.7,53.6z M625.5,53.9
		L625.5,53.9l0.1,0.3c0,0.2,0,0.5,0,0.7l0,0.5l-0.1,0l-0.1,0l0-0.7C625.4,54.2,625.4,53.9,625.5,53.9
		C625.5,53.9,625.5,53.9,625.5,53.9L625.5,53.9z M621.7,54.2c0,0,0,1,0,1.5l0,0.3l-0.1,0c-0.1,0-0.1,0-0.1,0c0,0-0.1-1.6-0.1-1.7
		v-0.2l0.1,0C621.7,54.2,621.7,54.2,621.7,54.2L621.7,54.2z M626.5,54.3c0,0,0,0.5,0,3c0,2.9,0,3,0,3c0,0-0.1,0-0.1,0
		c0,0,0-0.3,0-2.8c0-1.5,0-2.9,0-3l0-0.3L626.5,54.3C626.5,54.3,626.5,54.3,626.5,54.3L626.5,54.3z M624.7,54.8c0,0,0,0.1,0,0.3
		c0,0.5,0,3.3,0,3.3c0,0,0,0-0.1,0l-0.1,0v-3.6L624.7,54.8C624.6,54.7,624.7,54.7,624.7,54.8L624.7,54.8z M618.9,54.9
		c0,0.1,0,0.2,0,0.3c0,0.1,0,0.3,0,0.5c0,0.4,0,0.4-0.1,0.4c-0.1,0-0.1,0-0.1-0.1c0-0.1-0.1-1.2-0.1-1.2
		C618.7,54.8,618.8,54.8,618.9,54.9C618.9,54.8,618.9,54.8,618.9,54.9L618.9,54.9z M615.4,55.4c0,0.2,0.1,0.7,0.1,1
		c0,0.3,0.1,0.6,0.1,0.7c0,0-0.2,0.1-0.2,0.1c0,0-0.2-1.9-0.2-1.9c0-0.1,0.2-0.3,0.2-0.2C615.4,55,615.4,55.2,615.4,55.4L615.4,55.4
		z M623.6,55.6L623.6,55.6l0.1,0.5c0,0.2,0,0.5,0,0.6c0,0.2,0,0.2-0.1,0.2l-0.1,0v-0.2c0-0.1,0-0.4,0-0.6l0-0.5h0
		C623.5,55.6,623.6,55.6,623.6,55.6L623.6,55.6z M616.4,56.4c0,0.4,0.1,1.1,0.1,1.5l0.1,0.8l-0.1,0.1l-0.1,0.1l0-0.2
		c0-0.1-0.1-0.5-0.1-0.9c0-0.4-0.1-1.1-0.1-1.4l-0.1-0.6l0.1-0.1c0.1-0.1,0.1-0.1,0.1,0C616.3,55.7,616.3,56,616.4,56.4L616.4,56.4z
		 M614.8,56.7c0,0.4,0.2,1.5,0.3,2.4c0.1,0.9,0.2,1.8,0.2,2c0,0.2,0,0.4,0.1,0.6c0,0.2,0,0.3,0,0.3c-0.1,0-0.1,0-0.1,0
		c0,0,0-0.2,0-0.3c0-0.3-0.1-0.8-0.2-1.9c0-0.2-0.1-0.7-0.1-1c0-0.3-0.1-0.8-0.1-1s-0.1-0.7-0.1-1c0-0.3-0.1-0.5-0.1-0.6
		c0-0.1,0.1-0.3,0.2-0.2C614.7,55.9,614.7,56.3,614.8,56.7L614.8,56.7z M614.1,57.6c0,0.3,0.1,0.7,0.1,1c0,0.3,0.1,0.7,0.1,0.9
		l0,0.3l0,0c0,0-0.1,0-0.1,0c0,0,0-0.1,0-0.2c0-0.1-0.1-0.6-0.2-1.2l-0.1-1l0-0.1c0-0.1,0.1-0.1,0.1-0.1
		C614.1,57.1,614.1,57.3,614.1,57.6L614.1,57.6z M625.6,57.3c0,0,0,0.2,0,1.1v1.1h-0.1c-0.1,0-0.1,0-0.1-1.2l0-1.1L625.6,57.3
		C625.6,57.3,625.6,57.3,625.6,57.3L625.6,57.3z M621,57.7c0.5,0.1,0.9,0.2,1.3,0.4c0.3,0.1,0.4,0.2,0.7,0.5c0.4,0.4,0.7,0.8,1,1.3
		c0.4,0.7,0.5,1.4,0.7,3.2c0.1,0.8,0.2,2.2,0.2,2.8c0,0.2,0,0.5,0,0.6c0,0.4,0.1,0.3-0.3,0.5c-0.4,0.2-0.9,0.4-1.5,0.5
		c-0.7,0.2-1.1,0.2-1.8,0.2l-0.5,0l0-0.2c0-0.1,0-0.4,0-0.7c0.1-1.2,0.1-2.6,0-3.4c0-0.5-0.1-1-0.2-1.2c0,0,0-0.1,0.2-0.1
		c0.4-0.1,0.7-0.3,0.8-0.4c0.1-0.2-0.1-0.4-0.3-0.4c0,0-0.1,0-0.2,0.1c-0.5,0.2-1.4,0.5-1.9,0.5c-0.4,0-1,0-1.4-0.1
		c-0.2,0-0.6-0.2-0.9-0.4c-0.4-0.2-0.6-0.5-0.7-0.8c0-0.2,0-0.5,0-0.7c0.1-0.2,0.2-0.5,0.3-0.7c0.6-0.8,1.8-1.5,3.1-1.7
		C620,57.6,620.6,57.6,621,57.7L621,57.7z M627.5,57.8c0.1,0,0.1,0,0.1,0.1c0,0.6,0,1.9,0,1.9c0,0-0.1,0-0.2,0c0,0,0-0.1,0-1
		c0-0.7,0-1,0-1C627.4,57.7,627.4,57.7,627.5,57.8L627.5,57.8z M628.4,58.9L628.4,58.9l0.1,1.8c0,2.2,0,2.3-0.1,2.5
		c-0.1,0.3-0.1,0.4-0.1-1c0-0.7,0-1.4,0-1.5c0-0.2,0-0.6,0-1C628.3,59.1,628.3,58.9,628.4,58.9C628.3,58.9,628.4,58.9,628.4,58.9
		L628.4,58.9z M615.8,59.4c0,0.2,0,0.2-0.1,0.3l-0.1,0.1l0-0.2c0-0.3,0-0.3,0-0.4c0,0,0.1,0,0.1,0C615.8,59.2,615.8,59.3,615.8,59.4
		L615.8,59.4z M614.5,60.7c0,0.2,0.2,1.3,0.2,1.9c0.1,0.9,0.1,1,0.1,0.9c0,0-0.1-0.3-0.1-0.6c-0.3-2.3-0.3-2.2-0.3-2.3
		C614.5,60.5,614.5,60.6,614.5,60.7L614.5,60.7z M616,61.6c0,0.1,0.1,0.6,0.1,0.7c0,0.1-0.1,0.1-0.1,0.1c0,0,0-0.2-0.1-0.4
		c0-0.2,0-0.4-0.1-0.5l0-0.1l0.1,0.1C616,61.6,616,61.6,616,61.6L616,61.6z M617.7,62.4c0,0,0,0.1,0.1,0.3c0,0.4,0,0.4-0.1,0.4
		c-0.1,0-0.1,0-0.1-0.4C617.6,62.4,617.6,62.4,617.7,62.4C617.7,62.4,617.7,62.4,617.7,62.4L617.7,62.4z M619.4,62.5
		c0,0,0,0.1,0,0.3c0,0.1,0,0.4,0,0.7c0.1,0.8,0.1,1,0,1c0,0,0,0-0.1-0.6c0-0.2,0-0.6-0.1-0.9C619.3,62.6,619.3,62.4,619.4,62.5
		C619.3,62.4,619.4,62.4,619.4,62.5z M615.5,62.9c0,0,0.1,0.7,0.2,1.6c0,0.3,0.1,0.5,0.1,0.6l0,0.1l-0.1,0c0,0-0.1-0.1-0.1-0.1
		c0-0.1-0.1-1-0.2-1.5C615.4,63.2,615.4,62.9,615.5,62.9C615.4,62.8,615.4,62.8,615.5,62.9L615.5,62.9z M627.5,63.7l0,0.9l-0.1,0.1
		c-0.1,0.2-0.1,0.2-0.1-0.8l0-0.9l0.1-0.1c0,0,0.1-0.1,0.1-0.1C627.5,62.9,627.5,63.3,627.5,63.7L627.5,63.7z M625.6,65.1
		c0,1.2,0,1.3,0,1.3c0,0,0,0,0,0c0,0,0-2.7,0-2.7c0,0,0,0,0,0C625.6,63.8,625.6,64,625.6,65.1L625.6,65.1z M618.8,64.3
		c0,0.1,0.1,0.8,0.1,1c0,0.2,0,0.2,0,0.2c0,0-0.1,0-0.1,0c0,0-0.1-0.5-0.1-1.2l0-0.2h0.1C618.8,64.2,618.8,64.2,618.8,64.3
		L618.8,64.3z M617.1,65c0,0,0,0.1,0,0.1c0,0.1,0,0.3,0.1,0.6c0.1,0.8,0.1,0.9,0.1,0.9c-0.1,0-0.1-0.1-0.1-0.1c0,0,0-0.1,0-0.2
		c0-0.1,0-0.3,0-0.4c0-0.1,0-0.3,0-0.5C617,65,617,65,617.1,65C617.1,65,617.1,65,617.1,65L617.1,65z M618.1,66.4c0,0,0,0.2,0,0.4
		c0,0.3,0,0.3-0.1,0.3c0,0,0-0.1-0.1-0.3C617.9,66.3,617.9,66.3,618.1,66.4C618.1,66.3,618.1,66.4,618.1,66.4z"/>
	<path class="st4" d="M617.4,58.7c-0.2,0.1-0.2,0.4,0,0.5c0.1,0.1,0.3,0,0.4-0.1C617.9,58.9,617.6,58.6,617.4,58.7L617.4,58.7z
		 M618.8,58.9c-0.2,0.1-0.2,0.4,0,0.5c0.2,0.1,0.5,0,0.5-0.3C619.2,58.9,619,58.8,618.8,58.9L618.8,58.9z"/>
</g>
<path id="PostUI" class="st4" d="M588.8,51h-2.9l-4.9,9l4.9,9h2.9l4.9-9L588.8,51z M587.3,66.8l-3.6-6.7l3.6-6.7l3.6,6.7L587.3,66.8
	z"/>
<g>
	<circle class="st5" cx="655.3" cy="60" r="1.7"/>
	<g>
		<ellipse class="st6" cx="655.3" cy="60" rx="8" ry="3.1"/>
		<ellipse transform="matrix(0.866 -0.5 0.5 0.866 57.8013 335.6837)" class="st6" cx="655.3" cy="60" rx="3.1" ry="8"/>
		<ellipse transform="matrix(0.5 -0.866 0.866 0.5 275.7004 597.4937)" class="st6" cx="655.3" cy="60" rx="8" ry="3.1"/>
	</g>
</g>
</svg>
