<?xml version="1.0" encoding="utf-8"?>
<!-- Generator: Adobe Illustrator 24.0.1, SVG Export Plug-In . SVG Version: 6.00 Build 0)  -->
<svg version="1.1" id="Layer_1" xmlns="http://www.w3.org/2000/svg" xmlns:xlink="http://www.w3.org/1999/xlink" x="0px" y="0px"
	 viewBox="0 0 715.3 324.2" style="enable-background:new 0 0 715.3 324.2;" xml:space="preserve">
<style type="text/css">
	.st0{fill:#AAAAAA;}
	.st1{fill:none;}
	.st2{fill:#D63369;}
</style>
<g id="Grid">
	<rect x="391.2" y="221.1" class="st0" width="1" height="1"/>
	<rect x="663.3" y="221.1" class="st0" width="1" height="1"/>
	<rect x="527.2" y="221.1" class="st0" width="1" height="1"/>
	<rect x="459.2" y="221.1" class="st0" width="1" height="1"/>
	<rect x="595.3" y="221.1" class="st0" width="1" height="1"/>
	<rect x="408.2" y="221.1" class="st0" width="1" height="1"/>
	<rect x="680.3" y="221.1" class="st0" width="1" height="1"/>
	<rect x="544.3" y="221.1" class="st0" width="1" height="1"/>
	<rect x="476.2" y="221.1" class="st0" width="1" height="1"/>
	<rect x="612.3" y="221.1" class="st0" width="1" height="1"/>
	<rect x="425.2" y="221.1" class="st0" width="1" height="1"/>
	<rect x="697.3" y="221.1" class="st0" width="1" height="1"/>
	<rect x="561.3" y="221.1" class="st0" width="1" height="1"/>
	<rect x="493.2" y="221.1" class="st0" width="1" height="1"/>
	<rect x="629.3" y="221.1" class="st0" width="1" height="1"/>
	<rect x="442.2" y="221.1" class="st0" width="1" height="1"/>
	<rect x="578.3" y="221.1" class="st0" width="1" height="1"/>
	<rect x="510.2" y="221.1" class="st0" width="1" height="1"/>
	<rect x="646.3" y="221.1" class="st0" width="1" height="1"/>
	<rect x="391.2" y="17" class="st0" width="1" height="1"/>
	<rect x="663.3" y="17" class="st0" width="1" height="1"/>
	<rect x="527.2" y="17" class="st0" width="1" height="1"/>
	<rect x="459.2" y="17" class="st0" width="1" height="1"/>
	<rect x="595.3" y="17" class="st0" width="1" height="1"/>
	<rect x="408.2" y="17" class="st0" width="1" height="1"/>
	<rect x="680.3" y="17" class="st0" width="1" height="1"/>
	<rect x="544.3" y="17" class="st0" width="1" height="1"/>
	<rect x="476.2" y="17" class="st0" width="1" height="1"/>
	<rect x="612.3" y="17" class="st0" width="1" height="1"/>
	<rect x="425.2" y="17" class="st0" width="1" height="1"/>
	<rect x="697.3" y="17" class="st0" width="1" height="1"/>
	<rect x="561.3" y="17" class="st0" width="1" height="1"/>
	<rect x="493.2" y="17" class="st0" width="1" height="1"/>
	<rect x="629.3" y="17" class="st0" width="1" height="1"/>
	<rect x="442.2" y="17" class="st0" width="1" height="1"/>
	<rect x="578.3" y="17" class="st0" width="1" height="1"/>
	<rect x="510.2" y="17" class="st0" width="1" height="1"/>
	<rect x="646.3" y="17" class="st0" width="1" height="1"/>
	<rect x="391.2" y="289.1" class="st0" width="1" height="1"/>
	<rect x="663.3" y="289.1" class="st0" width="1" height="1"/>
	<rect x="527.2" y="289.1" class="st0" width="1" height="1"/>
	<rect x="459.2" y="289.1" class="st0" width="1" height="1"/>
	<rect x="595.3" y="289.1" class="st0" width="1" height="1"/>
	<rect x="408.2" y="289.1" class="st0" width="1" height="1"/>
	<rect x="680.3" y="289.1" class="st0" width="1" height="1"/>
	<rect x="544.3" y="289.1" class="st0" width="1" height="1"/>
	<rect x="476.2" y="289.1" class="st0" width="1" height="1"/>
	<rect x="612.3" y="289.1" class="st0" width="1" height="1"/>
	<rect x="425.2" y="289.1" class="st0" width="1" height="1"/>
	<rect x="697.3" y="289.1" class="st0" width="1" height="1"/>
	<rect x="561.3" y="289.1" class="st0" width="1" height="1"/>
	<rect x="493.2" y="289.1" class="st0" width="1" height="1"/>
	<rect x="629.3" y="289.1" class="st0" width="1" height="1"/>
	<rect x="442.2" y="289.1" class="st0" width="1" height="1"/>
	<rect x="578.3" y="289.1" class="st0" width="1" height="1"/>
	<rect x="510.2" y="289.1" class="st0" width="1" height="1"/>
	<rect x="646.3" y="289.1" class="st0" width="1" height="1"/>
	<rect x="391.2" y="85" class="st0" width="1" height="1"/>
	<rect x="663.3" y="85" class="st0" width="1" height="1"/>
	<rect x="527.2" y="85" class="st0" width="1" height="1"/>
	<rect x="459.2" y="85" class="st0" width="1" height="1"/>
	<rect x="595.3" y="85" class="st0" width="1" height="1"/>
	<rect x="408.2" y="85" class="st0" width="1" height="1"/>
	<rect x="680.3" y="85" class="st0" width="1" height="1"/>
	<rect x="544.3" y="85" class="st0" width="1" height="1"/>
	<rect x="476.2" y="85" class="st0" width="1" height="1"/>
	<rect x="612.3" y="85" class="st0" width="1" height="1"/>
	<rect x="425.2" y="85" class="st0" width="1" height="1"/>
	<rect x="697.3" y="85" class="st0" width="1" height="1"/>
	<rect x="561.3" y="85" class="st0" width="1" height="1"/>
	<rect x="493.2" y="85" class="st0" width="1" height="1"/>
	<rect x="629.3" y="85" class="st0" width="1" height="1"/>
	<rect x="442.2" y="85" class="st0" width="1" height="1"/>
	<rect x="578.3" y="85" class="st0" width="1" height="1"/>
	<rect x="510.2" y="85" class="st0" width="1" height="1"/>
	<rect x="646.3" y="85" class="st0" width="1" height="1"/>
	<rect x="391.2" y="153.1" class="st0" width="1" height="1"/>
	<rect x="374.7" y="153.1" class="st0" width="1" height="1"/>
	<rect x="374.7" y="136.1" class="st0" width="1" height="1"/>
	<rect x="340.2" y="136.1" class="st0" width="1" height="1"/>
	<rect x="340.2" y="153.1" class="st0" width="1" height="1"/>
	<rect x="323.2" y="170.1" class="st0" width="1" height="1"/>
	<rect x="663.3" y="153.1" class="st0" width="1" height="1"/>
	<rect x="527.2" y="153.1" class="st0" width="1" height="1"/>
	<rect x="459.2" y="153.1" class="st0" width="1" height="1"/>
	<rect x="595.3" y="153.1" class="st0" width="1" height="1"/>
	<rect x="408.2" y="153.1" class="st0" width="1" height="1"/>
	<rect x="680.3" y="153.1" class="st0" width="1" height="1"/>
	<rect x="544.3" y="153.1" class="st0" width="1" height="1"/>
	<rect x="476.2" y="153.1" class="st0" width="1" height="1"/>
	<rect x="612.3" y="153.1" class="st0" width="1" height="1"/>
	<rect x="425.2" y="153.1" class="st0" width="1" height="1"/>
	<rect x="697.3" y="153.1" class="st0" width="1" height="1"/>
	<rect x="561.3" y="153.1" class="st0" width="1" height="1"/>
	<rect x="493.2" y="153.1" class="st0" width="1" height="1"/>
	<rect x="629.3" y="153.1" class="st0" width="1" height="1"/>
	<rect x="442.2" y="153.1" class="st0" width="1" height="1"/>
	<rect x="578.3" y="153.1" class="st0" width="1" height="1"/>
	<rect x="510.2" y="153.1" class="st0" width="1" height="1"/>
	<rect x="646.3" y="153.1" class="st0" width="1" height="1"/>
	<rect x="391.2" y="238.1" class="st0" width="1" height="1"/>
	<rect x="663.3" y="238.1" class="st0" width="1" height="1"/>
	<rect x="527.2" y="238.1" class="st0" width="1" height="1"/>
	<rect x="459.2" y="238.1" class="st0" width="1" height="1"/>
	<rect x="595.3" y="238.1" class="st0" width="1" height="1"/>
	<rect x="408.2" y="238.1" class="st0" width="1" height="1"/>
	<rect x="680.3" y="238.1" class="st0" width="1" height="1"/>
	<rect x="544.3" y="238.1" class="st0" width="1" height="1"/>
	<rect x="476.2" y="238.1" class="st0" width="1" height="1"/>
	<rect x="612.3" y="238.1" class="st0" width="1" height="1"/>
	<rect x="425.2" y="238.1" class="st0" width="1" height="1"/>
	<rect x="697.3" y="238.1" class="st0" width="1" height="1"/>
	<rect x="561.3" y="238.1" class="st0" width="1" height="1"/>
	<rect x="493.2" y="238.1" class="st0" width="1" height="1"/>
	<rect x="629.3" y="238.1" class="st0" width="1" height="1"/>
	<rect x="442.2" y="238.1" class="st0" width="1" height="1"/>
	<rect x="578.3" y="238.1" class="st0" width="1" height="1"/>
	<rect x="510.2" y="238.1" class="st0" width="1" height="1"/>
	<rect x="646.3" y="238.1" class="st0" width="1" height="1"/>
	<rect x="391.2" y="34" class="st0" width="1" height="1"/>
	<rect x="663.3" y="34" class="st0" width="1" height="1"/>
	<rect x="527.2" y="34" class="st0" width="1" height="1"/>
	<rect x="459.2" y="34" class="st0" width="1" height="1"/>
	<rect x="595.3" y="34" class="st0" width="1" height="1"/>
	<rect x="408.2" y="34" class="st0" width="1" height="1"/>
	<rect x="680.3" y="34" class="st0" width="1" height="1"/>
	<rect x="544.3" y="34" class="st0" width="1" height="1"/>
	<rect x="476.2" y="34" class="st0" width="1" height="1"/>
	<rect x="612.3" y="34" class="st0" width="1" height="1"/>
	<rect x="425.2" y="34" class="st0" width="1" height="1"/>
	<rect x="697.3" y="34" class="st0" width="1" height="1"/>
	<rect x="561.3" y="34" class="st0" width="1" height="1"/>
	<rect x="493.2" y="34" class="st0" width="1" height="1"/>
	<rect x="629.3" y="34" class="st0" width="1" height="1"/>
	<rect x="442.2" y="34" class="st0" width="1" height="1"/>
	<rect x="578.3" y="34" class="st0" width="1" height="1"/>
	<rect x="510.2" y="34" class="st0" width="1" height="1"/>
	<rect x="646.3" y="34" class="st0" width="1" height="1"/>
	<rect x="391.2" y="306.2" class="st0" width="1" height="1"/>
	<rect x="663.3" y="306.2" class="st0" width="1" height="1"/>
	<rect x="527.2" y="306.2" class="st0" width="1" height="1"/>
	<rect x="459.2" y="306.2" class="st0" width="1" height="1"/>
	<rect x="595.3" y="306.2" class="st0" width="1" height="1"/>
	<rect x="408.2" y="306.2" class="st0" width="1" height="1"/>
	<rect x="680.3" y="306.2" class="st0" width="1" height="1"/>
	<rect x="544.3" y="306.2" class="st0" width="1" height="1"/>
	<rect x="476.2" y="306.2" class="st0" width="1" height="1"/>
	<rect x="612.3" y="306.2" class="st0" width="1" height="1"/>
	<rect x="425.2" y="306.2" class="st0" width="1" height="1"/>
	<rect x="697.3" y="306.2" class="st0" width="1" height="1"/>
	<rect x="561.3" y="306.2" class="st0" width="1" height="1"/>
	<rect x="493.2" y="306.2" class="st0" width="1" height="1"/>
	<rect x="629.3" y="306.2" class="st0" width="1" height="1"/>
	<rect x="442.2" y="306.2" class="st0" width="1" height="1"/>
	<rect x="578.3" y="306.2" class="st0" width="1" height="1"/>
	<rect x="510.2" y="306.2" class="st0" width="1" height="1"/>
	<rect x="646.3" y="306.2" class="st0" width="1" height="1"/>
	<rect x="391.2" y="102.1" class="st0" width="1" height="1"/>
	<rect x="663.3" y="102.1" class="st0" width="1" height="1"/>
	<rect x="527.2" y="102.1" class="st0" width="1" height="1"/>
	<rect x="459.2" y="102.1" class="st0" width="1" height="1"/>
	<rect x="595.3" y="102.1" class="st0" width="1" height="1"/>
	<rect x="408.2" y="102.1" class="st0" width="1" height="1"/>
	<rect x="680.3" y="102.1" class="st0" width="1" height="1"/>
	<rect x="544.3" y="102.1" class="st0" width="1" height="1"/>
	<rect x="476.2" y="102.1" class="st0" width="1" height="1"/>
	<rect x="612.3" y="102.1" class="st0" width="1" height="1"/>
	<rect x="425.2" y="102.1" class="st0" width="1" height="1"/>
	<rect x="697.3" y="102.1" class="st0" width="1" height="1"/>
	<rect x="561.3" y="102.1" class="st0" width="1" height="1"/>
	<rect x="493.2" y="102.1" class="st0" width="1" height="1"/>
	<rect x="629.3" y="102.1" class="st0" width="1" height="1"/>
	<rect x="442.2" y="102.1" class="st0" width="1" height="1"/>
	<rect x="578.3" y="102.1" class="st0" width="1" height="1"/>
	<rect x="510.2" y="102.1" class="st0" width="1" height="1"/>
	<rect x="646.3" y="102.1" class="st0" width="1" height="1"/>
	<rect x="391.2" y="170.1" class="st0" width="1" height="1"/>
	<rect x="663.3" y="170.1" class="st0" width="1" height="1"/>
	<rect x="527.2" y="170.1" class="st0" width="1" height="1"/>
	<rect x="459.2" y="170.1" class="st0" width="1" height="1"/>
	<rect x="595.3" y="170.1" class="st0" width="1" height="1"/>
	<rect x="408.2" y="170.1" class="st0" width="1" height="1"/>
	<rect x="680.3" y="170.1" class="st0" width="1" height="1"/>
	<rect x="544.3" y="170.1" class="st0" width="1" height="1"/>
	<rect x="476.2" y="170.1" class="st0" width="1" height="1"/>
	<rect x="612.3" y="170.1" class="st0" width="1" height="1"/>
	<rect x="425.2" y="170.1" class="st0" width="1" height="1"/>
	<rect x="697.3" y="170.1" class="st0" width="1" height="1"/>
	<rect x="561.3" y="170.1" class="st0" width="1" height="1"/>
	<rect x="493.2" y="170.1" class="st0" width="1" height="1"/>
	<rect x="629.3" y="170.1" class="st0" width="1" height="1"/>
	<rect x="442.2" y="170.1" class="st0" width="1" height="1"/>
	<rect x="578.3" y="170.1" class="st0" width="1" height="1"/>
	<rect x="510.2" y="170.1" class="st0" width="1" height="1"/>
	<rect x="646.3" y="170.1" class="st0" width="1" height="1"/>
	<rect x="391.2" y="255.1" class="st0" width="1" height="1"/>
	<rect x="663.3" y="255.1" class="st0" width="1" height="1"/>
	<rect x="527.2" y="255.1" class="st0" width="1" height="1"/>
	<rect x="459.2" y="255.1" class="st0" width="1" height="1"/>
	<rect x="595.3" y="255.1" class="st0" width="1" height="1"/>
	<rect x="408.2" y="255.1" class="st0" width="1" height="1"/>
	<rect x="680.3" y="255.1" class="st0" width="1" height="1"/>
	<rect x="544.3" y="255.1" class="st0" width="1" height="1"/>
	<rect x="476.2" y="255.1" class="st0" width="1" height="1"/>
	<rect x="612.3" y="255.1" class="st0" width="1" height="1"/>
	<rect x="425.2" y="255.1" class="st0" width="1" height="1"/>
	<rect x="697.3" y="255.1" class="st0" width="1" height="1"/>
	<rect x="561.3" y="255.1" class="st0" width="1" height="1"/>
	<rect x="493.2" y="255.1" class="st0" width="1" height="1"/>
	<rect x="629.3" y="255.1" class="st0" width="1" height="1"/>
	<rect x="442.2" y="255.1" class="st0" width="1" height="1"/>
	<rect x="578.3" y="255.1" class="st0" width="1" height="1"/>
	<rect x="510.2" y="255.1" class="st0" width="1" height="1"/>
	<rect x="646.3" y="255.1" class="st0" width="1" height="1"/>
	<rect x="391.2" y="51" class="st0" width="1" height="1"/>
	<rect x="663.3" y="51" class="st0" width="1" height="1"/>
	<rect x="527.2" y="51" class="st0" width="1" height="1"/>
	<rect x="459.2" y="51" class="st0" width="1" height="1"/>
	<rect x="595.3" y="51" class="st0" width="1" height="1"/>
	<rect x="408.2" y="51" class="st0" width="1" height="1"/>
	<rect x="680.3" y="51" class="st0" width="1" height="1"/>
	<rect x="544.3" y="51" class="st0" width="1" height="1"/>
	<rect x="476.2" y="51" class="st0" width="1" height="1"/>
	<rect x="612.3" y="51" class="st0" width="1" height="1"/>
	<rect x="425.2" y="51" class="st0" width="1" height="1"/>
	<rect x="697.3" y="51" class="st0" width="1" height="1"/>
	<rect x="561.3" y="51" class="st0" width="1" height="1"/>
	<rect x="493.2" y="51" class="st0" width="1" height="1"/>
	<rect x="629.3" y="51" class="st0" width="1" height="1"/>
	<rect x="442.2" y="51" class="st0" width="1" height="1"/>
	<rect x="578.3" y="51" class="st0" width="1" height="1"/>
	<rect x="510.2" y="51" class="st0" width="1" height="1"/>
	<rect x="646.3" y="51" class="st0" width="1" height="1"/>
	<rect x="391.2" y="119.1" class="st0" width="1" height="1"/>
	<rect x="663.3" y="119.1" class="st0" width="1" height="1"/>
	<rect x="527.2" y="119.1" class="st0" width="1" height="1"/>
	<rect x="459.2" y="119.1" class="st0" width="1" height="1"/>
	<rect x="595.3" y="119.1" class="st0" width="1" height="1"/>
	<rect x="408.2" y="119.1" class="st0" width="1" height="1"/>
	<rect x="680.3" y="119.1" class="st0" width="1" height="1"/>
	<rect x="544.3" y="119.1" class="st0" width="1" height="1"/>
	<rect x="476.2" y="119.1" class="st0" width="1" height="1"/>
	<rect x="612.3" y="119.1" class="st0" width="1" height="1"/>
	<rect x="425.2" y="119.1" class="st0" width="1" height="1"/>
	<rect x="697.3" y="119.1" class="st0" width="1" height="1"/>
	<rect x="561.3" y="119.1" class="st0" width="1" height="1"/>
	<rect x="493.2" y="119.1" class="st0" width="1" height="1"/>
	<rect x="629.3" y="119.1" class="st0" width="1" height="1"/>
	<rect x="442.2" y="119.1" class="st0" width="1" height="1"/>
	<rect x="578.3" y="119.1" class="st0" width="1" height="1"/>
	<rect x="510.2" y="119.1" class="st0" width="1" height="1"/>
	<rect x="646.3" y="119.1" class="st0" width="1" height="1"/>
	<rect x="391.2" y="187.1" class="st0" width="1" height="1"/>
	<rect x="663.3" y="187.1" class="st0" width="1" height="1"/>
	<rect x="527.2" y="187.1" class="st0" width="1" height="1"/>
	<rect x="459.2" y="187.1" class="st0" width="1" height="1"/>
	<rect x="595.3" y="187.1" class="st0" width="1" height="1"/>
	<rect x="408.2" y="187.1" class="st0" width="1" height="1"/>
	<rect x="680.3" y="187.1" class="st0" width="1" height="1"/>
	<rect x="544.3" y="187.1" class="st0" width="1" height="1"/>
	<rect x="476.2" y="187.1" class="st0" width="1" height="1"/>
	<rect x="612.3" y="187.1" class="st0" width="1" height="1"/>
	<rect x="425.2" y="187.1" class="st0" width="1" height="1"/>
	<rect x="697.3" y="187.1" class="st0" width="1" height="1"/>
	<rect x="561.3" y="187.1" class="st0" width="1" height="1"/>
	<rect x="493.2" y="187.1" class="st0" width="1" height="1"/>
	<rect x="629.3" y="187.1" class="st0" width="1" height="1"/>
	<rect x="442.2" y="187.1" class="st0" width="1" height="1"/>
	<rect x="578.3" y="187.1" class="st0" width="1" height="1"/>
	<rect x="510.2" y="187.1" class="st0" width="1" height="1"/>
	<rect x="646.3" y="187.1" class="st0" width="1" height="1"/>
	<rect x="391.2" y="272.1" class="st0" width="1" height="1"/>
	<rect x="663.3" y="272.1" class="st0" width="1" height="1"/>
	<rect x="527.2" y="272.1" class="st0" width="1" height="1"/>
	<rect x="459.2" y="272.1" class="st0" width="1" height="1"/>
	<rect x="595.3" y="272.1" class="st0" width="1" height="1"/>
	<rect x="408.2" y="272.1" class="st0" width="1" height="1"/>
	<rect x="680.3" y="272.1" class="st0" width="1" height="1"/>
	<rect x="544.3" y="272.1" class="st0" width="1" height="1"/>
	<rect x="476.2" y="272.1" class="st0" width="1" height="1"/>
	<rect x="612.3" y="272.1" class="st0" width="1" height="1"/>
	<rect x="425.2" y="272.1" class="st0" width="1" height="1"/>
	<rect x="697.3" y="272.1" class="st0" width="1" height="1"/>
	<rect x="561.3" y="272.1" class="st0" width="1" height="1"/>
	<rect x="493.2" y="272.1" class="st0" width="1" height="1"/>
	<rect x="629.3" y="272.1" class="st0" width="1" height="1"/>
	<rect x="442.2" y="272.1" class="st0" width="1" height="1"/>
	<rect x="578.3" y="272.1" class="st0" width="1" height="1"/>
	<rect x="510.2" y="272.1" class="st0" width="1" height="1"/>
	<rect x="646.3" y="272.1" class="st0" width="1" height="1"/>
	<rect x="391.2" y="68" class="st0" width="1" height="1"/>
	<rect x="663.3" y="68" class="st0" width="1" height="1"/>
	<rect x="527.2" y="68" class="st0" width="1" height="1"/>
	<rect x="459.2" y="68" class="st0" width="1" height="1"/>
	<rect x="595.3" y="68" class="st0" width="1" height="1"/>
	<rect x="408.2" y="68" class="st0" width="1" height="1"/>
	<rect x="680.3" y="68" class="st0" width="1" height="1"/>
	<rect x="544.3" y="68" class="st0" width="1" height="1"/>
	<rect x="476.2" y="68" class="st0" width="1" height="1"/>
	<rect x="612.3" y="68" class="st0" width="1" height="1"/>
	<rect x="425.2" y="68" class="st0" width="1" height="1"/>
	<rect x="697.3" y="68" class="st0" width="1" height="1"/>
	<rect x="561.3" y="68" class="st0" width="1" height="1"/>
	<rect x="493.2" y="68" class="st0" width="1" height="1"/>
	<rect x="629.3" y="68" class="st0" width="1" height="1"/>
	<rect x="442.2" y="68" class="st0" width="1" height="1"/>
	<rect x="578.3" y="68" class="st0" width="1" height="1"/>
	<rect x="510.2" y="68" class="st0" width="1" height="1"/>
	<rect x="646.3" y="68" class="st0" width="1" height="1"/>
	<rect x="391.2" y="136.1" class="st0" width="1" height="1"/>
	<rect x="663.3" y="136.1" class="st0" width="1" height="1"/>
	<rect x="527.2" y="136.1" class="st0" width="1" height="1"/>
	<rect x="459.2" y="136.1" class="st0" width="1" height="1"/>
	<rect x="595.3" y="136.1" class="st0" width="1" height="1"/>
	<rect x="408.2" y="136.1" class="st0" width="1" height="1"/>
	<rect x="680.3" y="136.1" class="st0" width="1" height="1"/>
	<rect x="544.3" y="136.1" class="st0" width="1" height="1"/>
	<rect x="476.2" y="136.1" class="st0" width="1" height="1"/>
	<rect x="612.3" y="136.1" class="st0" width="1" height="1"/>
	<rect x="425.2" y="136.1" class="st0" width="1" height="1"/>
	<rect x="697.3" y="136.1" class="st0" width="1" height="1"/>
	<rect x="561.3" y="136.1" class="st0" width="1" height="1"/>
	<rect x="493.2" y="136.1" class="st0" width="1" height="1"/>
	<rect x="629.3" y="136.1" class="st0" width="1" height="1"/>
	<rect x="442.2" y="136.1" class="st0" width="1" height="1"/>
	<rect x="578.3" y="136.1" class="st0" width="1" height="1"/>
	<rect x="510.2" y="136.1" class="st0" width="1" height="1"/>
	<rect x="646.3" y="136.1" class="st0" width="1" height="1"/>
	<rect x="391.2" y="204.1" class="st0" width="1" height="1"/>
	<rect x="663.3" y="204.1" class="st0" width="1" height="1"/>
	<rect x="527.2" y="204.1" class="st0" width="1" height="1"/>
	<rect x="459.2" y="204.1" class="st0" width="1" height="1"/>
	<rect x="595.3" y="204.1" class="st0" width="1" height="1"/>
	<rect x="408.2" y="204.1" class="st0" width="1" height="1"/>
	<rect x="680.3" y="204.1" class="st0" width="1" height="1"/>
	<rect x="544.3" y="204.1" class="st0" width="1" height="1"/>
	<rect x="476.2" y="204.1" class="st0" width="1" height="1"/>
	<rect x="612.3" y="204.1" class="st0" width="1" height="1"/>
	<rect x="425.2" y="204.1" class="st0" width="1" height="1"/>
	<rect x="697.3" y="204.1" class="st0" width="1" height="1"/>
	<rect x="561.3" y="204.1" class="st0" width="1" height="1"/>
	<rect x="493.2" y="204.1" class="st0" width="1" height="1"/>
	<rect x="629.3" y="204.1" class="st0" width="1" height="1"/>
	<rect x="442.2" y="204.1" class="st0" width="1" height="1"/>
	<rect x="578.3" y="204.1" class="st0" width="1" height="1"/>
	<rect x="510.2" y="204.1" class="st0" width="1" height="1"/>
	<rect x="646.3" y="204.1" class="st0" width="1" height="1"/>
	<rect x="255.1" y="221.1" class="st0" width="1" height="1"/>
	<rect x="119.1" y="221.1" class="st0" width="1" height="1"/>
	<rect x="51" y="221.1" class="st0" width="1" height="1"/>
	<rect x="323.2" y="221.1" class="st0" width="1" height="1"/>
	<rect x="187.1" y="221.1" class="st0" width="1" height="1"/>
	<rect x="272.1" y="221.1" class="st0" width="1" height="1"/>
	<rect x="136.1" y="221.1" class="st0" width="1" height="1"/>
	<rect x="68" y="221.1" class="st0" width="1" height="1"/>
	<rect x="340.2" y="221.1" class="st0" width="1" height="1"/>
	<rect x="204.1" y="221.1" class="st0" width="1" height="1"/>
	<rect x="17" y="221.1" class="st0" width="1" height="1"/>
	<rect x="289.1" y="221.1" class="st0" width="1" height="1"/>
	<rect x="153.1" y="221.1" class="st0" width="1" height="1"/>
	<rect x="85" y="221.1" class="st0" width="1" height="1"/>
	<rect x="357.2" y="221.1" class="st0" width="1" height="1"/>
	<rect x="221.1" y="221.1" class="st0" width="1" height="1"/>
	<rect x="34" y="221.1" class="st0" width="1" height="1"/>
	<rect x="306.1" y="221.1" class="st0" width="1" height="1"/>
	<rect x="170.1" y="221.1" class="st0" width="1" height="1"/>
	<rect x="102.1" y="221.1" class="st0" width="1" height="1"/>
	<rect x="374.2" y="221.1" class="st0" width="1" height="1"/>
	<rect x="238.1" y="221.1" class="st0" width="1" height="1"/>
	<rect x="255.1" y="17" class="st0" width="1" height="1"/>
	<rect x="119.1" y="17" class="st0" width="1" height="1"/>
	<rect x="51" y="17" class="st0" width="1" height="1"/>
	<rect x="323.2" y="17" class="st0" width="1" height="1"/>
	<rect x="187.1" y="17" class="st0" width="1" height="1"/>
	<rect x="272.1" y="17" class="st0" width="1" height="1"/>
	<rect x="136.1" y="17" class="st0" width="1" height="1"/>
	<rect x="68" y="17" class="st0" width="1" height="1"/>
	<rect x="340.2" y="17" class="st0" width="1" height="1"/>
	<rect x="204.1" y="17" class="st0" width="1" height="1"/>
	<rect x="17" y="17" class="st0" width="1" height="1"/>
	<rect x="289.1" y="17" class="st0" width="1" height="1"/>
	<rect x="153.1" y="17" class="st0" width="1" height="1"/>
	<rect x="85" y="17" class="st0" width="1" height="1"/>
	<rect x="357.2" y="17" class="st0" width="1" height="1"/>
	<rect x="221.1" y="17" class="st0" width="1" height="1"/>
	<rect x="34" y="17" class="st0" width="1" height="1"/>
	<rect x="306.1" y="17" class="st0" width="1" height="1"/>
	<rect x="170.1" y="17" class="st0" width="1" height="1"/>
	<rect x="102.1" y="17" class="st0" width="1" height="1"/>
	<rect x="374.2" y="17" class="st0" width="1" height="1"/>
	<rect x="238.1" y="17" class="st0" width="1" height="1"/>
	<rect x="255.1" y="289.1" class="st0" width="1" height="1"/>
	<rect x="119.1" y="289.1" class="st0" width="1" height="1"/>
	<rect x="51" y="289.1" class="st0" width="1" height="1"/>
	<rect x="323.2" y="289.1" class="st0" width="1" height="1"/>
	<rect x="187.1" y="289.1" class="st0" width="1" height="1"/>
	<rect x="272.1" y="289.1" class="st0" width="1" height="1"/>
	<rect x="136.1" y="289.1" class="st0" width="1" height="1"/>
	<rect x="68" y="289.1" class="st0" width="1" height="1"/>
	<rect x="340.2" y="289.1" class="st0" width="1" height="1"/>
	<rect x="204.1" y="289.1" class="st0" width="1" height="1"/>
	<rect x="17" y="289.1" class="st0" width="1" height="1"/>
	<rect x="289.1" y="289.1" class="st0" width="1" height="1"/>
	<rect x="153.1" y="289.1" class="st0" width="1" height="1"/>
	<rect x="85" y="289.1" class="st0" width="1" height="1"/>
	<rect x="357.2" y="289.1" class="st0" width="1" height="1"/>
	<rect x="221.1" y="289.1" class="st0" width="1" height="1"/>
	<rect x="34" y="289.1" class="st0" width="1" height="1"/>
	<rect x="306.1" y="289.1" class="st0" width="1" height="1"/>
	<rect x="170.1" y="289.1" class="st0" width="1" height="1"/>
	<rect x="102.1" y="289.1" class="st0" width="1" height="1"/>
	<rect x="374.2" y="289.1" class="st0" width="1" height="1"/>
	<rect x="238.1" y="289.1" class="st0" width="1" height="1"/>
	<rect x="255.1" y="85" class="st0" width="1" height="1"/>
	<rect x="119.1" y="85" class="st0" width="1" height="1"/>
	<rect x="51" y="85" class="st0" width="1" height="1"/>
	<rect x="323.2" y="85" class="st0" width="1" height="1"/>
	<rect x="187.1" y="85" class="st0" width="1" height="1"/>
	<rect x="272.1" y="85" class="st0" width="1" height="1"/>
	<rect x="136.1" y="85" class="st0" width="1" height="1"/>
	<rect x="68" y="85" class="st0" width="1" height="1"/>
	<rect x="340.2" y="85" class="st0" width="1" height="1"/>
	<rect x="204.1" y="85" class="st0" width="1" height="1"/>
	<rect x="17" y="85" class="st0" width="1" height="1"/>
	<rect x="289.1" y="85" class="st0" width="1" height="1"/>
	<rect x="153.1" y="85" class="st0" width="1" height="1"/>
	<rect x="85" y="85" class="st0" width="1" height="1"/>
	<rect x="357.2" y="85" class="st0" width="1" height="1"/>
	<rect x="221.1" y="85" class="st0" width="1" height="1"/>
	<rect x="34" y="85" class="st0" width="1" height="1"/>
	<rect x="306.1" y="85" class="st0" width="1" height="1"/>
	<rect x="170.1" y="85" class="st0" width="1" height="1"/>
	<rect x="102.1" y="85" class="st0" width="1" height="1"/>
	<rect x="374.2" y="85" class="st0" width="1" height="1"/>
	<rect x="238.1" y="85" class="st0" width="1" height="1"/>
	<rect x="255.1" y="153.1" class="st0" width="1" height="1"/>
	<rect x="119.1" y="153.1" class="st0" width="1" height="1"/>
	<rect x="51" y="153.1" class="st0" width="1" height="1"/>
	<rect x="323.2" y="153.1" class="st0" width="1" height="1"/>
	<rect x="187.1" y="153.1" class="st0" width="1" height="1"/>
	<rect x="272.1" y="153.1" class="st0" width="1" height="1"/>
	<rect x="136.1" y="153.1" class="st0" width="1" height="1"/>
	<rect x="68" y="153.1" class="st0" width="1" height="1"/>
	<rect x="204.1" y="153.1" class="st0" width="1" height="1"/>
	<rect x="17" y="153.1" class="st0" width="1" height="1"/>
	<rect x="289.1" y="153.1" class="st0" width="1" height="1"/>
	<rect x="153.1" y="153.1" class="st0" width="1" height="1"/>
	<rect x="85" y="153.1" class="st0" width="1" height="1"/>
	<rect x="357.2" y="153.1" class="st0" width="1" height="1"/>
	<rect x="221.1" y="153.1" class="st0" width="1" height="1"/>
	<rect x="34" y="153.1" class="st0" width="1" height="1"/>
	<rect x="306.1" y="153.1" class="st0" width="1" height="1"/>
	<rect x="170.1" y="153.1" class="st0" width="1" height="1"/>
	<rect x="102.1" y="153.1" class="st0" width="1" height="1"/>
	<rect x="238.1" y="153.1" class="st0" width="1" height="1"/>
	<rect x="255.1" y="238.1" class="st0" width="1" height="1"/>
	<rect x="119.1" y="238.1" class="st0" width="1" height="1"/>
	<rect x="51" y="238.1" class="st0" width="1" height="1"/>
	<rect x="323.2" y="238.1" class="st0" width="1" height="1"/>
	<rect x="187.1" y="238.1" class="st0" width="1" height="1"/>
	<rect x="272.1" y="238.1" class="st0" width="1" height="1"/>
	<rect x="136.1" y="238.1" class="st0" width="1" height="1"/>
	<rect x="68" y="238.1" class="st0" width="1" height="1"/>
	<rect x="340.2" y="238.1" class="st0" width="1" height="1"/>
	<rect x="204.1" y="238.1" class="st0" width="1" height="1"/>
	<rect x="17" y="238.1" class="st0" width="1" height="1"/>
	<rect x="289.1" y="238.1" class="st0" width="1" height="1"/>
	<rect x="153.1" y="238.1" class="st0" width="1" height="1"/>
	<rect x="85" y="238.1" class="st0" width="1" height="1"/>
	<rect x="357.2" y="238.1" class="st0" width="1" height="1"/>
	<rect x="221.1" y="238.1" class="st0" width="1" height="1"/>
	<rect x="34" y="238.1" class="st0" width="1" height="1"/>
	<rect x="306.1" y="238.1" class="st0" width="1" height="1"/>
	<rect x="170.1" y="238.1" class="st0" width="1" height="1"/>
	<rect x="102.1" y="238.1" class="st0" width="1" height="1"/>
	<rect x="374.2" y="238.1" class="st0" width="1" height="1"/>
	<rect x="238.1" y="238.1" class="st0" width="1" height="1"/>
	<rect x="255.1" y="34" class="st0" width="1" height="1"/>
	<rect x="119.1" y="34" class="st0" width="1" height="1"/>
	<rect x="51" y="34" class="st0" width="1" height="1"/>
	<rect x="323.2" y="34" class="st0" width="1" height="1"/>
	<rect x="187.1" y="34" class="st0" width="1" height="1"/>
	<rect x="272.1" y="34" class="st0" width="1" height="1"/>
	<rect x="136.1" y="34" class="st0" width="1" height="1"/>
	<rect x="68" y="34" class="st0" width="1" height="1"/>
	<rect x="340.2" y="34" class="st0" width="1" height="1"/>
	<rect x="204.1" y="34" class="st0" width="1" height="1"/>
	<rect x="17" y="34" class="st0" width="1" height="1"/>
	<rect x="289.1" y="34" class="st0" width="1" height="1"/>
	<rect x="153.1" y="34" class="st0" width="1" height="1"/>
	<rect x="85" y="34" class="st0" width="1" height="1"/>
	<rect x="357.2" y="34" class="st0" width="1" height="1"/>
	<rect x="221.1" y="34" class="st0" width="1" height="1"/>
	<rect x="34" y="34" class="st0" width="1" height="1"/>
	<rect x="306.1" y="34" class="st0" width="1" height="1"/>
	<rect x="170.1" y="34" class="st0" width="1" height="1"/>
	<rect x="102.1" y="34" class="st0" width="1" height="1"/>
	<rect x="374.2" y="34" class="st0" width="1" height="1"/>
	<rect x="238.1" y="34" class="st0" width="1" height="1"/>
	<rect x="255.1" y="306.2" class="st0" width="1" height="1"/>
	<rect x="119.1" y="306.2" class="st0" width="1" height="1"/>
	<rect x="51" y="306.2" class="st0" width="1" height="1"/>
	<rect x="323.2" y="306.2" class="st0" width="1" height="1"/>
	<rect x="187.1" y="306.2" class="st0" width="1" height="1"/>
	<rect x="272.1" y="306.2" class="st0" width="1" height="1"/>
	<rect x="136.1" y="306.2" class="st0" width="1" height="1"/>
	<rect x="68" y="306.2" class="st0" width="1" height="1"/>
	<rect x="340.2" y="306.2" class="st0" width="1" height="1"/>
	<rect x="204.1" y="306.2" class="st0" width="1" height="1"/>
	<rect x="17" y="306.2" class="st0" width="1" height="1"/>
	<rect x="289.1" y="306.2" class="st0" width="1" height="1"/>
	<rect x="153.1" y="306.2" class="st0" width="1" height="1"/>
	<rect x="85" y="306.2" class="st0" width="1" height="1"/>
	<rect x="357.2" y="306.2" class="st0" width="1" height="1"/>
	<rect x="221.1" y="306.2" class="st0" width="1" height="1"/>
	<rect x="34" y="306.2" class="st0" width="1" height="1"/>
	<rect x="306.1" y="306.2" class="st0" width="1" height="1"/>
	<rect x="170.1" y="306.2" class="st0" width="1" height="1"/>
	<rect x="102.1" y="306.2" class="st0" width="1" height="1"/>
	<rect x="374.2" y="306.2" class="st0" width="1" height="1"/>
	<rect x="238.1" y="306.2" class="st0" width="1" height="1"/>
	<rect x="255.1" y="102.1" class="st0" width="1" height="1"/>
	<rect x="119.1" y="102.1" class="st0" width="1" height="1"/>
	<rect x="51" y="102.1" class="st0" width="1" height="1"/>
	<rect x="323.2" y="102.1" class="st0" width="1" height="1"/>
	<rect x="187.1" y="102.1" class="st0" width="1" height="1"/>
	<rect x="272.1" y="102.1" class="st0" width="1" height="1"/>
	<rect x="136.1" y="102.1" class="st0" width="1" height="1"/>
	<rect x="68" y="102.1" class="st0" width="1" height="1"/>
	<rect x="340.2" y="102.1" class="st0" width="1" height="1"/>
	<rect x="204.1" y="102.1" class="st0" width="1" height="1"/>
	<rect x="17" y="102.1" class="st0" width="1" height="1"/>
	<rect x="289.1" y="102.1" class="st0" width="1" height="1"/>
	<rect x="153.1" y="102.1" class="st0" width="1" height="1"/>
	<rect x="85" y="102.1" class="st0" width="1" height="1"/>
	<rect x="357.2" y="102.1" class="st0" width="1" height="1"/>
	<rect x="221.1" y="102.1" class="st0" width="1" height="1"/>
	<rect x="34" y="102.1" class="st0" width="1" height="1"/>
	<rect x="306.1" y="102.1" class="st0" width="1" height="1"/>
	<rect x="170.1" y="102.1" class="st0" width="1" height="1"/>
	<rect x="102.1" y="102.1" class="st0" width="1" height="1"/>
	<rect x="374.2" y="102.1" class="st0" width="1" height="1"/>
	<rect x="238.1" y="102.1" class="st0" width="1" height="1"/>
	<rect x="255.1" y="170.1" class="st0" width="1" height="1"/>
	<rect x="119.1" y="170.1" class="st0" width="1" height="1"/>
	<rect x="51" y="170.1" class="st0" width="1" height="1"/>
	<rect x="187.1" y="170.1" class="st0" width="1" height="1"/>
	<rect x="272.1" y="170.1" class="st0" width="1" height="1"/>
	<rect x="136.1" y="170.1" class="st0" width="1" height="1"/>
	<rect x="68" y="170.1" class="st0" width="1" height="1"/>
	<rect x="340.2" y="170.1" class="st0" width="1" height="1"/>
	<rect x="204.1" y="170.1" class="st0" width="1" height="1"/>
	<rect x="17" y="170.1" class="st0" width="1" height="1"/>
	<rect x="289.1" y="170.1" class="st0" width="1" height="1"/>
	<rect x="153.1" y="170.1" class="st0" width="1" height="1"/>
	<rect x="85" y="170.1" class="st0" width="1" height="1"/>
	<rect x="357.2" y="170.1" class="st0" width="1" height="1"/>
	<rect x="221.1" y="170.1" class="st0" width="1" height="1"/>
	<rect x="34" y="170.1" class="st0" width="1" height="1"/>
	<rect x="306.1" y="170.1" class="st0" width="1" height="1"/>
	<rect x="170.1" y="170.1" class="st0" width="1" height="1"/>
	<rect x="102.1" y="170.1" class="st0" width="1" height="1"/>
	<rect x="374.2" y="170.1" class="st0" width="1" height="1"/>
	<rect x="238.1" y="170.1" class="st0" width="1" height="1"/>
	<rect x="255.1" y="255.1" class="st0" width="1" height="1"/>
	<rect x="119.1" y="255.1" class="st0" width="1" height="1"/>
	<rect x="51" y="255.1" class="st0" width="1" height="1"/>
	<rect x="187.1" y="255.1" class="st0" width="1" height="1"/>
	<rect x="272.1" y="255.1" class="st0" width="1" height="1"/>
	<rect x="136.1" y="255.1" class="st0" width="1" height="1"/>
	<rect x="68" y="255.1" class="st1" width="1" height="1"/>
	<rect x="340.2" y="255.1" class="st0" width="1" height="1"/>
	<rect x="323.2" y="255.1" class="st0" width="1" height="1"/>
	<rect x="204.1" y="255.1" class="st0" width="1" height="1"/>
	<rect x="17" y="255.1" class="st0" width="1" height="1"/>
	<rect x="289.1" y="255.1" class="st0" width="1" height="1"/>
	<rect x="153.1" y="255.1" class="st0" width="1" height="1"/>
	<rect x="85" y="255.1" class="st0" width="1" height="1"/>
	<rect x="357.2" y="255.1" class="st0" width="1" height="1"/>
	<rect x="221.1" y="255.1" class="st0" width="1" height="1"/>
	<rect x="34" y="255.1" class="st0" width="1" height="1"/>
	<rect x="306.1" y="255.1" class="st0" width="1" height="1"/>
	<rect x="170.1" y="255.1" class="st0" width="1" height="1"/>
	<rect x="102.1" y="255.1" class="st0" width="1" height="1"/>
	<rect x="374.2" y="255.1" class="st0" width="1" height="1"/>
	<rect x="238.1" y="255.1" class="st0" width="1" height="1"/>
	<rect x="255.1" y="51" class="st0" width="1" height="1"/>
	<rect x="119.1" y="51" class="st1" width="1" height="1"/>
	<rect x="51" y="51" class="st1" width="1" height="1"/>
	<rect x="323.2" y="51" class="st0" width="1" height="1"/>
	<rect x="187.1" y="51" class="st0" width="1" height="1"/>
	<rect x="272.1" y="51" class="st0" width="1" height="1"/>
	<rect x="136.1" y="51" class="st1" width="1" height="1"/>
	<rect x="68" y="51" class="st1" width="1" height="1"/>
	<rect x="340.2" y="51" class="st0" width="1" height="1"/>
	<rect x="204.1" y="51" class="st0" width="1" height="1"/>
	<rect x="17" y="51" class="st0" width="1" height="1"/>
	<rect x="289.1" y="51" class="st0" width="1" height="1"/>
	<rect x="153.1" y="51" class="st0" width="1" height="1"/>
	<rect x="85" y="51" class="st1" width="1" height="1"/>
	<rect x="357.2" y="51" class="st0" width="1" height="1"/>
	<rect x="221.1" y="51" class="st0" width="1" height="1"/>
	<rect x="34" y="51" class="st0" width="1" height="1"/>
	<rect x="306.1" y="51" class="st0" width="1" height="1"/>
	<rect x="170.1" y="51" class="st0" width="1" height="1"/>
	<rect x="102.1" y="51" class="st1" width="1" height="1"/>
	<rect x="374.2" y="51" class="st0" width="1" height="1"/>
	<rect x="238.1" y="51" class="st0" width="1" height="1"/>
	<rect x="255.1" y="119.1" class="st0" width="1" height="1"/>
	<rect x="119.1" y="119.1" class="st0" width="1" height="1"/>
	<rect x="51" y="119.1" class="st0" width="1" height="1"/>
	<rect x="323.2" y="119.1" class="st0" width="1" height="1"/>
	<rect x="187.1" y="119.1" class="st0" width="1" height="1"/>
	<rect x="272.1" y="119.1" class="st0" width="1" height="1"/>
	<rect x="136.1" y="119.1" class="st0" width="1" height="1"/>
	<rect x="68" y="119.1" class="st0" width="1" height="1"/>
	<rect x="340.2" y="119.1" class="st0" width="1" height="1"/>
	<rect x="204.1" y="119.1" class="st0" width="1" height="1"/>
	<rect x="17" y="119.1" class="st0" width="1" height="1"/>
	<rect x="289.1" y="119.1" class="st0" width="1" height="1"/>
	<rect x="153.1" y="119.1" class="st0" width="1" height="1"/>
	<rect x="85" y="119.1" class="st0" width="1" height="1"/>
	<rect x="357.2" y="119.1" class="st0" width="1" height="1"/>
	<rect x="221.1" y="119.1" class="st0" width="1" height="1"/>
	<rect x="34" y="119.1" class="st0" width="1" height="1"/>
	<rect x="306.1" y="119.1" class="st0" width="1" height="1"/>
	<rect x="170.1" y="119.1" class="st0" width="1" height="1"/>
	<rect x="102.1" y="119.1" class="st0" width="1" height="1"/>
	<rect x="374.2" y="119.1" class="st0" width="1" height="1"/>
	<rect x="238.1" y="119.1" class="st0" width="1" height="1"/>
	<rect x="255.1" y="187.1" class="st0" width="1" height="1"/>
	<rect x="119.1" y="187.1" class="st0" width="1" height="1"/>
	<rect x="51" y="187.1" class="st0" width="1" height="1"/>
	<rect x="323.2" y="187.1" class="st0" width="1" height="1"/>
	<rect x="187.1" y="187.1" class="st0" width="1" height="1"/>
	<rect x="272.1" y="187.1" class="st0" width="1" height="1"/>
	<rect x="136.1" y="187.1" class="st0" width="1" height="1"/>
	<rect x="68" y="187.1" class="st0" width="1" height="1"/>
	<rect x="340.2" y="187.1" class="st0" width="1" height="1"/>
	<rect x="204.1" y="187.1" class="st0" width="1" height="1"/>
	<rect x="17" y="187.1" class="st0" width="1" height="1"/>
	<rect x="289.1" y="187.1" class="st0" width="1" height="1"/>
	<rect x="153.1" y="187.1" class="st0" width="1" height="1"/>
	<rect x="85" y="187.1" class="st0" width="1" height="1"/>
	<rect x="357.2" y="187.1" class="st0" width="1" height="1"/>
	<rect x="221.1" y="187.1" class="st0" width="1" height="1"/>
	<rect x="34" y="187.1" class="st0" width="1" height="1"/>
	<rect x="306.1" y="187.1" class="st0" width="1" height="1"/>
	<rect x="170.1" y="187.1" class="st0" width="1" height="1"/>
	<rect x="102.1" y="187.1" class="st0" width="1" height="1"/>
	<rect x="374.2" y="187.1" class="st0" width="1" height="1"/>
	<rect x="238.1" y="187.1" class="st0" width="1" height="1"/>
	<rect x="255.1" y="272.1" class="st0" width="1" height="1"/>
	<rect x="119.1" y="272.1" class="st0" width="1" height="1"/>
	<rect x="51" y="272.1" class="st0" width="1" height="1"/>
	<rect x="323.2" y="272.1" class="st0" width="1" height="1"/>
	<rect x="187.1" y="272.1" class="st0" width="1" height="1"/>
	<rect x="272.1" y="272.1" class="st0" width="1" height="1"/>
	<rect x="136.1" y="272.1" class="st0" width="1" height="1"/>
	<rect x="68" y="272.1" class="st0" width="1" height="1"/>
	<rect x="340.2" y="272.1" class="st0" width="1" height="1"/>
	<rect x="204.1" y="272.1" class="st0" width="1" height="1"/>
	<rect x="17" y="272.1" class="st0" width="1" height="1"/>
	<rect x="289.1" y="272.1" class="st0" width="1" height="1"/>
	<rect x="153.1" y="272.1" class="st0" width="1" height="1"/>
	<rect x="85" y="272.1" class="st0" width="1" height="1"/>
	<rect x="357.2" y="272.1" class="st0" width="1" height="1"/>
	<rect x="221.1" y="272.1" class="st0" width="1" height="1"/>
	<rect x="34" y="272.1" class="st0" width="1" height="1"/>
	<rect x="306.1" y="272.1" class="st0" width="1" height="1"/>
	<rect x="170.1" y="272.1" class="st0" width="1" height="1"/>
	<rect x="102.1" y="272.1" class="st0" width="1" height="1"/>
	<rect x="374.2" y="272.1" class="st0" width="1" height="1"/>
	<rect x="238.1" y="272.1" class="st0" width="1" height="1"/>
	<rect x="255.1" y="68" class="st1" width="1" height="1"/>
	<rect x="119.1" y="68" class="st1" width="1" height="1"/>
	<rect x="51" y="68" class="st1" width="1" height="1"/>
	<rect x="323.2" y="68" class="st0" width="1" height="1"/>
	<rect x="187.1" y="68" class="st1" width="1" height="1"/>
	<rect x="272.1" y="68" class="st1" width="1" height="1"/>
	<rect x="136.1" y="68" class="st1" width="1" height="1"/>
	<rect x="68" y="68" class="st1" width="1" height="1"/>
	<rect x="340.2" y="68" class="st0" width="1" height="1"/>
	<rect x="204.1" y="68" class="st1" width="1" height="1"/>
	<rect x="17" y="68" class="st0" width="1" height="1"/>
	<rect x="289.1" y="68" class="st1" width="1" height="1"/>
	<rect x="153.1" y="68" class="st1" width="1" height="1"/>
	<rect x="85" y="68" class="st1" width="1" height="1"/>
	<rect x="357.2" y="68" class="st0" width="1" height="1"/>
	<rect x="221.1" y="68" class="st1" width="1" height="1"/>
	<rect x="34" y="68" class="st0" width="1" height="1"/>
	<rect x="306.1" y="68" class="st0" width="1" height="1"/>
	<rect x="170.1" y="68" class="st1" width="1" height="1"/>
	<rect x="102.1" y="68" class="st1" width="1" height="1"/>
	<rect x="374.2" y="68" class="st0" width="1" height="1"/>
	<rect x="238.1" y="68" class="st1" width="1" height="1"/>
	<rect x="255.1" y="136.1" class="st0" width="1" height="1"/>
	<rect x="119.1" y="136.1" class="st0" width="1" height="1"/>
	<rect x="51" y="136.1" class="st0" width="1" height="1"/>
	<rect x="323.2" y="136.1" class="st0" width="1" height="1"/>
	<rect x="187.1" y="136.1" class="st0" width="1" height="1"/>
	<rect x="272.1" y="136.1" class="st0" width="1" height="1"/>
	<rect x="136.1" y="136.1" class="st0" width="1" height="1"/>
	<rect x="68" y="136.1" class="st0" width="1" height="1"/>
	<rect x="204.1" y="136.1" class="st0" width="1" height="1"/>
	<rect x="17" y="136.1" class="st0" width="1" height="1"/>
	<rect x="289.1" y="136.1" class="st0" width="1" height="1"/>
	<rect x="153.1" y="136.1" class="st0" width="1" height="1"/>
	<rect x="85" y="136.1" class="st0" width="1" height="1"/>
	<rect x="357.2" y="136.1" class="st0" width="1" height="1"/>
	<rect x="221.1" y="136.1" class="st0" width="1" height="1"/>
	<rect x="34" y="136.1" class="st0" width="1" height="1"/>
	<rect x="306.1" y="136.1" class="st0" width="1" height="1"/>
	<rect x="170.1" y="136.1" class="st0" width="1" height="1"/>
	<rect x="102.1" y="136.1" class="st0" width="1" height="1"/>
	<rect x="238.1" y="136.1" class="st0" width="1" height="1"/>
	<rect x="255.1" y="204.1" class="st0" width="1" height="1"/>
	<rect x="119.1" y="204.1" class="st0" width="1" height="1"/>
	<rect x="51" y="204.1" class="st0" width="1" height="1"/>
	<rect x="323.2" y="204.1" class="st0" width="1" height="1"/>
	<rect x="187.1" y="204.1" class="st0" width="1" height="1"/>
	<rect x="272.1" y="204.1" class="st0" width="1" height="1"/>
	<rect x="136.1" y="204.1" class="st0" width="1" height="1"/>
	<rect x="68" y="204.1" class="st0" width="1" height="1"/>
	<rect x="340.2" y="204.1" class="st0" width="1" height="1"/>
	<rect x="204.1" y="204.1" class="st0" width="1" height="1"/>
	<rect x="17" y="204.1" class="st0" width="1" height="1"/>
	<rect x="289.1" y="204.1" class="st0" width="1" height="1"/>
	<rect x="153.1" y="204.1" class="st0" width="1" height="1"/>
	<rect x="85" y="204.1" class="st0" width="1" height="1"/>
	<rect x="357.2" y="204.1" class="st0" width="1" height="1"/>
	<rect x="221.1" y="204.1" class="st0" width="1" height="1"/>
	<rect x="34" y="204.1" class="st0" width="1" height="1"/>
	<rect x="306.1" y="204.1" class="st0" width="1" height="1"/>
	<rect x="170.1" y="204.1" class="st0" width="1" height="1"/>
	<rect x="102.1" y="204.1" class="st0" width="1" height="1"/>
	<rect x="374.2" y="204.1" class="st0" width="1" height="1"/>
	<rect x="238.1" y="204.1" class="st0" width="1" height="1"/>
</g>
<path class="st2" d="M82,269.4c-4.5-7.7-9.3-16.1-14-24.3h-4c-4.5,7.8-9.4,16.3-14.2,24.6c0.4,0.7,1.1,2,1.9,3.4h28.4l2-3.4
	L82,269.4z M74,258c2.1,3.7,4.3,7.4,6.4,11.1H57.9l0.9-1.6h18.8l-12.3-21.2h2C69.5,250.2,71.8,254.1,74,258z M72.4,266.4H59.5
	l6.5-11.2L72.4,266.4z M57.9,258c2.1-3.7,4.3-7.4,6.4-11.1l11.2,19.4h-1.8l-9.4-16.3L52,271.3c-0.3-0.5-0.6-1.1-0.9-1.6
	C53.4,265.8,55.7,261.9,57.9,258z M79.4,271.9H53.1l11.3-19.5l0.9,1.6l-9.5,16.3h24.6L79.4,271.9z"/>
<g id="intro">
	<path d="M56.9,63.5v1.3h-2.4v8.2h-1.3v-8.2h-2.4v-1.3H56.9z"/>
	<path d="M63.6,66.6c0.5,0.5,0.8,1.1,0.8,1.8v4.7H63v-4.7c0-0.3-0.1-0.6-0.4-0.9s-0.5-0.4-0.9-0.4h-0.5c-0.3,0-0.6,0.1-0.9,0.4
		S60,68.1,60,68.4v4.7h-1.3v-9.6H60v2.9c0.5-0.4,1-0.6,1.6-0.6h0.2C62.5,65.8,63.1,66.1,63.6,66.6z"/>
	<path d="M69.3,65.8c0.7,0,1.3,0.3,1.8,0.8c0.5,0.5,0.8,1.1,0.8,1.8v0.3c0,0.4-0.1,0.7-0.3,0.9c-0.2,0.2-0.5,0.4-0.9,0.4h-3.1v0.6
		c0,0.3,0.1,0.6,0.4,0.9s0.5,0.4,0.9,0.4h0.5c0.3,0,0.6-0.1,0.8-0.3s0.4-0.4,0.5-0.7l1.3,0.4c-0.2,0.6-0.5,1-0.9,1.4
		c-0.5,0.4-1,0.6-1.6,0.6h-0.5c-0.7,0-1.3-0.3-1.8-0.8c-0.5-0.5-0.8-1.1-0.8-1.8v-2.2c0-0.7,0.3-1.3,0.8-1.8
		c0.5-0.5,1.1-0.8,1.8-0.8H69.3z M70.6,68.8v-0.3c0-0.3-0.1-0.6-0.4-0.9s-0.5-0.4-0.9-0.4h-0.5c-0.4,0-0.7,0.1-0.9,0.4
		s-0.4,0.5-0.4,0.9v0.3H70.6z"/>
	<path d="M81.9,64.9c0-0.4,0.1-0.7,0.4-1c0.3-0.3,0.6-0.4,1-0.4h4.3v1.3h-4.4v2.9h3.9v1.3h-3.9v4h-1.3V64.9z"/>
	<path d="M90.4,66v4.7c0,0.3,0.1,0.6,0.4,0.9s0.5,0.4,0.9,0.4h0.5c0.3,0,0.6-0.1,0.9-0.4c0.2-0.2,0.4-0.5,0.4-0.9V66h1.3v4.7
		c0,0.7-0.3,1.3-0.8,1.8s-1.1,0.8-1.8,0.8h-0.5c-0.7,0-1.3-0.3-1.8-0.8C89.3,72,89,71.3,89,70.6V66H90.4z"/>
	<path d="M102.5,72.7c-0.5,0.4-1,0.5-1.6,0.5c-0.7,0-1.3-0.3-1.8-0.8c-0.5-0.5-0.8-1.1-0.8-1.8v-5.8h-2.1v-1.3h2.1
		c0.4,0,0.7,0.1,1,0.4c0.3,0.3,0.4,0.6,0.4,1v5.8c0,0.3,0.1,0.6,0.4,0.9s0.5,0.4,0.9,0.4c0.3,0,0.6-0.1,0.8-0.3s0.4-0.4,0.4-0.7
		l1.3,0.4C103.2,71.9,102.9,72.3,102.5,72.7z"/>
	<path d="M110.1,72.7c-0.5,0.4-1,0.5-1.6,0.5c-0.7,0-1.3-0.3-1.8-0.8c-0.5-0.5-0.8-1.1-0.8-1.8v-5.8h-2.1v-1.3h2.1
		c0.4,0,0.7,0.1,1,0.4c0.3,0.3,0.4,0.6,0.4,1v5.8c0,0.3,0.1,0.6,0.4,0.9s0.5,0.4,0.9,0.4c0.3,0,0.6-0.1,0.8-0.3s0.4-0.4,0.4-0.7
		l1.3,0.4C110.8,71.9,110.5,72.3,110.1,72.7z"/>
	<path d="M117,69.7h-4.5v-1.3h4.5V69.7z"/>
	<path d="M120.8,71.3c0,0.2,0.1,0.3,0.3,0.4c0.1,0.1,0.3,0.2,0.5,0.2h1.6c0.2,0,0.4-0.1,0.5-0.2s0.2-0.3,0.2-0.6
		c0-0.2-0.1-0.4-0.2-0.6s-0.4-0.2-0.6-0.3l-1.4-0.2c-0.6-0.1-1-0.3-1.4-0.7c-0.4-0.4-0.6-0.9-0.6-1.4c0-0.6,0.2-1.1,0.6-1.5
		s0.9-0.6,1.5-0.6h1.3c0.5,0,0.9,0.1,1.3,0.4c0.4,0.3,0.6,0.7,0.8,1.1l-1.3,0.4c0-0.2-0.1-0.3-0.3-0.4c-0.1-0.1-0.3-0.2-0.5-0.2
		h-1.3c-0.2,0-0.4,0.1-0.6,0.2c-0.2,0.1-0.2,0.3-0.2,0.5c0,0.2,0.1,0.4,0.2,0.6s0.4,0.2,0.6,0.2l1.4,0.2c0.6,0.1,1.1,0.3,1.4,0.7
		c0.4,0.4,0.6,0.9,0.6,1.4c0,0.6-0.2,1.1-0.6,1.5s-0.9,0.6-1.5,0.6h-1.6c-0.5,0-0.9-0.1-1.3-0.4c-0.4-0.3-0.6-0.7-0.8-1.1
		L120.8,71.3z"/>
	<path d="M126.6,66h1.9V64h1.3V66h3.2v1.3h-3.2v3.3c0,0.3,0.1,0.6,0.4,0.9s0.5,0.4,0.9,0.4c0.3,0,0.6-0.1,0.8-0.3s0.4-0.4,0.4-0.7
		l1.3,0.4c-0.2,0.6-0.5,1-0.9,1.4c-0.5,0.4-1,0.5-1.6,0.5c-0.7,0-1.3-0.3-1.8-0.8c-0.5-0.5-0.8-1.1-0.8-1.8v-3.3h-1.9V66z"/>
	<path d="M139.6,66.6c0.5,0.5,0.8,1.1,0.8,1.8v4.7H139v-0.5c-0.5,0.4-1,0.6-1.6,0.6h-0.2c-0.7,0-1.3-0.3-1.8-0.8
		c-0.5-0.5-0.8-1.1-0.8-1.8v-2.2c0-0.7,0.3-1.3,0.8-1.8c0.5-0.5,1.1-0.8,1.8-0.8h0.5C138.5,65.8,139.1,66.1,139.6,66.6z M138.7,71.5
		c0.2-0.2,0.4-0.5,0.4-0.9v-2.2c0-0.3-0.1-0.6-0.4-0.9s-0.5-0.4-0.9-0.4h-0.5c-0.3,0-0.6,0.1-0.9,0.4s-0.4,0.5-0.4,0.9v2.2
		c0,0.3,0.1,0.6,0.4,0.9s0.5,0.4,0.9,0.4h0.5C138.1,71.9,138.4,71.8,138.7,71.5z"/>
	<path d="M142.4,68.4c0-0.7,0.3-1.3,0.8-1.8c0.5-0.5,1.1-0.8,1.8-0.8h0.5c0.6,0,1.1,0.2,1.6,0.6s0.8,0.8,0.9,1.4l-1.3,0.4
		c-0.1-0.3-0.2-0.5-0.4-0.7s-0.5-0.3-0.8-0.3h-0.5c-0.4,0-0.7,0.1-0.9,0.4s-0.4,0.5-0.4,0.9v2.2c0,0.3,0.1,0.6,0.4,0.9
		s0.5,0.4,0.9,0.4h0.5c0.3,0,0.6-0.1,0.8-0.3s0.4-0.4,0.4-0.7l1.3,0.4c-0.1,0.6-0.4,1-0.9,1.4c-0.5,0.4-1,0.6-1.6,0.6h-0.5
		c-0.7,0-1.3-0.3-1.8-0.8s-0.8-1.1-0.8-1.8V68.4z"/>
	<path d="M155.8,72.2v0.9h-1.3v-0.9c0-0.3-0.1-0.5-0.4-0.8l-1.2-1l-0.5,0.5c-0.3,0.3-0.6,0.4-1,0.4v1.8h-1.3v-9.6h1.3V70
		c0,0,0.1-0.1,0.1-0.1l2.2-2c0.4-0.3,0.5-0.7,0.5-1.1V66h1.3v0.9c0,0.1,0,0.2,0,0.4c0,0.2-0.1,0.4-0.3,0.8c-0.2,0.3-0.4,0.7-0.7,0.9
		l-0.8,0.7l1,0.9C155.6,71,155.8,71.6,155.8,72.2z"/>
	<path d="M165.7,64.9c0-0.4,0.1-0.7,0.4-1c0.3-0.3,0.6-0.4,1-0.4h4.3v1.3H167v2.9h3.9v1.3H167v4h-1.3V64.9z"/>
	<path d="M172.3,71.8h1.4v-3.3c0-0.7,0.3-1.3,0.8-1.8c0.5-0.5,1.1-0.8,1.8-0.8h0.5c0.6,0,1.1,0.2,1.6,0.6s0.8,0.8,0.9,1.4l-1.3,0.4
		c-0.1-0.3-0.2-0.5-0.4-0.7s-0.5-0.3-0.8-0.3h-0.5c-0.3,0-0.6,0.1-0.9,0.4s-0.4,0.5-0.4,0.9v3.3h3.1v1.3h-5.9V71.8z"/>
	<path d="M185.3,66.6c0.5,0.5,0.8,1.1,0.8,1.8v4.7h-1.3v-0.5c-0.5,0.4-1,0.6-1.6,0.6h-0.2c-0.7,0-1.3-0.3-1.8-0.8
		c-0.5-0.5-0.8-1.1-0.8-1.8v-2.2c0-0.7,0.3-1.3,0.8-1.8c0.5-0.5,1.1-0.8,1.8-0.8h0.5C184.2,65.8,184.8,66.1,185.3,66.6z M184.3,71.5
		c0.2-0.2,0.4-0.5,0.4-0.9v-2.2c0-0.3-0.1-0.6-0.4-0.9s-0.5-0.4-0.9-0.4h-0.5c-0.3,0-0.6,0.1-0.9,0.4s-0.4,0.5-0.4,0.9v2.2
		c0,0.3,0.1,0.6,0.4,0.9s0.5,0.4,0.9,0.4h0.5C183.8,71.9,184.1,71.8,184.3,71.5z"/>
	<path d="M193.7,66.4c0.4,0.4,0.6,0.9,0.6,1.4v5.2H193v-5.2c0-0.2-0.1-0.4-0.2-0.5c-0.1-0.1-0.3-0.2-0.5-0.2s-0.4,0.1-0.5,0.2
		c-0.1,0.1-0.2,0.3-0.2,0.5v5.2h-1.3v-5.2c0-0.2-0.1-0.4-0.2-0.5c-0.1-0.1-0.3-0.2-0.5-0.2s-0.4,0.1-0.5,0.2
		c-0.1,0.1-0.2,0.3-0.2,0.5v5.2h-1.3v-5.2c0-0.6,0.2-1.1,0.6-1.4s0.9-0.6,1.4-0.6c0.6,0,1.1,0.2,1.4,0.7c0.4-0.5,0.9-0.7,1.4-0.7
		C192.9,65.8,193.3,66,193.7,66.4z"/>
	<path d="M198.8,65.8c0.7,0,1.3,0.3,1.8,0.8c0.5,0.5,0.8,1.1,0.8,1.8v0.3c0,0.4-0.1,0.7-0.3,0.9c-0.2,0.2-0.5,0.4-0.9,0.4H197v0.6
		c0,0.3,0.1,0.6,0.4,0.9s0.5,0.4,0.9,0.4h0.5c0.3,0,0.6-0.1,0.8-0.3s0.4-0.4,0.5-0.7l1.3,0.4c-0.2,0.6-0.5,1-0.9,1.4
		c-0.5,0.4-1,0.6-1.6,0.6h-0.5c-0.7,0-1.3-0.3-1.8-0.8c-0.5-0.5-0.8-1.1-0.8-1.8v-2.2c0-0.7,0.3-1.3,0.8-1.8
		c0.5-0.5,1.1-0.8,1.8-0.8H198.8z M200,68.8v-0.3c0-0.3-0.1-0.6-0.4-0.9s-0.5-0.4-0.9-0.4h-0.5c-0.4,0-0.7,0.1-0.9,0.4
		s-0.4,0.5-0.4,0.9v0.3H200z"/>
	<path d="M202.6,66h1.3v0.9c0,0.6,0,1.2,0.1,1.8l0.4,3.2l0.5-3.9c0-0.3,0.2-0.5,0.4-0.7c0.2-0.2,0.4-0.3,0.7-0.3
		c0.3,0,0.5,0.1,0.7,0.3s0.3,0.4,0.4,0.7l0.5,3.9l0.4-3.3c0.1-0.6,0.1-1.2,0.1-1.8V66h1.3v0.9c0,0.6-0.1,1.2-0.2,2l-0.4,3.3
		c0,0.3-0.2,0.5-0.4,0.7s-0.5,0.3-0.8,0.3c-0.3,0-0.6-0.1-0.8-0.3s-0.4-0.5-0.4-0.8l-0.5-3.9l-0.5,3.9c0,0.3-0.2,0.6-0.4,0.8
		c-0.2,0.2-0.5,0.3-0.8,0.3c-0.3,0-0.6-0.1-0.8-0.3s-0.4-0.4-0.4-0.7l-0.4-3.3c-0.1-0.9-0.1-1.5-0.1-2.1V66z"/>
	<path d="M213.9,65.8c0.7,0,1.3,0.3,1.8,0.8c0.5,0.5,0.8,1.1,0.8,1.8v2.2c0,0.7-0.3,1.3-0.8,1.8s-1.1,0.8-1.8,0.8h-0.5
		c-0.7,0-1.3-0.3-1.8-0.8c-0.5-0.5-0.8-1.1-0.8-1.8v-2.2c0-0.7,0.3-1.3,0.8-1.8c0.5-0.5,1.1-0.8,1.8-0.8H213.9z M212.5,67.6
		c-0.2,0.2-0.4,0.5-0.4,0.9v2.2c0,0.3,0.1,0.6,0.4,0.9s0.5,0.4,0.9,0.4h0.5c0.3,0,0.6-0.1,0.9-0.4c0.2-0.2,0.4-0.5,0.4-0.9v-2.2
		c0-0.3-0.1-0.6-0.4-0.9s-0.5-0.4-0.9-0.4h-0.5C213.1,67.2,212.8,67.3,212.5,67.6z"/>
	<path d="M217.9,71.8h1.4v-3.3c0-0.7,0.3-1.3,0.8-1.8c0.5-0.5,1.1-0.8,1.8-0.8h0.5c0.6,0,1.1,0.2,1.6,0.6s0.8,0.8,0.9,1.4l-1.3,0.4
		c-0.1-0.3-0.2-0.5-0.4-0.7s-0.5-0.3-0.8-0.3H222c-0.3,0-0.6,0.1-0.9,0.4s-0.4,0.5-0.4,0.9v3.3h3.1v1.3h-5.9V71.8z"/>
	<path d="M232,72.2v0.9h-1.3v-0.9c0-0.3-0.1-0.5-0.4-0.8l-1.2-1l-0.5,0.5c-0.3,0.3-0.6,0.4-1,0.4v1.8h-1.3v-9.6h1.3V70
		c0,0,0.1-0.1,0.1-0.1l2.2-2c0.4-0.3,0.5-0.7,0.5-1.1V66h1.3v0.9c0,0.1,0,0.2,0,0.4c0,0.2-0.1,0.4-0.3,0.8c-0.2,0.3-0.4,0.7-0.7,0.9
		l-0.8,0.7l1,0.9C231.7,71,232,71.6,232,72.2z"/>
	<path d="M240.7,66h2.3c0.4,0,0.7,0.1,1,0.4s0.4,0.6,0.4,1v3.4c0,0.3,0.1,0.6,0.3,0.8s0.5,0.3,0.8,0.3c0.3,0,0.5-0.1,0.7-0.3
		s0.3-0.4,0.4-0.7l1.3,0.4c-0.1,0.5-0.4,1-0.9,1.3c-0.4,0.3-1,0.5-1.5,0.5c-0.7,0-1.3-0.2-1.7-0.7c-0.5-0.5-0.7-1.1-0.7-1.7v-3.5
		h-2.4V66z M243,62.8h1.3V65H243V62.8z"/>
	<path d="M248.9,68.4c0-0.7,0.3-1.3,0.8-1.8c0.5-0.5,1.1-0.8,1.8-0.8h0.5c0.7,0,1.3,0.3,1.8,0.8c0.5,0.5,0.8,1.1,0.8,1.8v4.7h-1.3
		v-4.7c0-0.3-0.1-0.6-0.4-0.9s-0.5-0.4-0.9-0.4h-0.5c-0.3,0-0.6,0.1-0.9,0.4s-0.4,0.5-0.4,0.9v4.7h-1.3V68.4z"/>
	<path d="M264.2,64.9c0-0.4,0.1-0.7,0.4-1c0.3-0.3,0.6-0.4,1-0.4h1.7c0.7,0,1.3,0.3,1.8,0.8c0.5,0.5,0.8,1.1,0.8,1.8v4.4
		c0,0.7-0.3,1.3-0.8,1.8c-0.5,0.5-1.1,0.8-1.8,0.8h-3.1V64.9z M267.3,71.8c0.3,0,0.6-0.1,0.9-0.4s0.4-0.5,0.4-0.9v-4.4
		c0-0.4-0.1-0.7-0.4-0.9s-0.5-0.4-0.9-0.4h-1.8v6.9H267.3z"/>
	<path d="M274.9,65.8c0.7,0,1.3,0.3,1.8,0.8c0.5,0.5,0.8,1.1,0.8,1.8v0.3c0,0.4-0.1,0.7-0.3,0.9c-0.2,0.2-0.5,0.4-0.9,0.4h-3.1v0.6
		c0,0.3,0.1,0.6,0.4,0.9s0.5,0.4,0.9,0.4h0.5c0.3,0,0.6-0.1,0.8-0.3s0.4-0.4,0.5-0.7l1.3,0.4c-0.2,0.6-0.5,1-0.9,1.4
		c-0.5,0.4-1,0.6-1.6,0.6h-0.5c-0.7,0-1.3-0.3-1.8-0.8c-0.5-0.5-0.8-1.1-0.8-1.8v-2.2c0-0.7,0.3-1.3,0.8-1.8
		c0.5-0.5,1.1-0.8,1.8-0.8H274.9z M276.1,68.8v-0.3c0-0.3-0.1-0.6-0.4-0.9s-0.5-0.4-0.9-0.4h-0.5c-0.4,0-0.7,0.1-0.9,0.4
		s-0.4,0.5-0.4,0.9v0.3H276.1z"/>
	<path d="M279.3,68.4c0-0.7,0.3-1.3,0.8-1.8c0.5-0.5,1.1-0.8,1.8-0.8h0.5c0.7,0,1.3,0.3,1.8,0.8c0.5,0.5,0.8,1.1,0.8,1.8v4.7h-1.3
		v-4.7c0-0.3-0.1-0.6-0.4-0.9s-0.5-0.4-0.9-0.4h-0.5c-0.3,0-0.6,0.1-0.9,0.4s-0.4,0.5-0.4,0.9v4.7h-1.3V68.4z"/>
	<path d="M290.1,65.8c0.7,0,1.3,0.3,1.8,0.8c0.5,0.5,0.8,1.1,0.8,1.8v2.2c0,0.7-0.3,1.3-0.8,1.8s-1.1,0.8-1.8,0.8h-0.5
		c-0.7,0-1.3-0.3-1.8-0.8c-0.5-0.5-0.8-1.1-0.8-1.8v-2.2c0-0.7,0.3-1.3,0.8-1.8c0.5-0.5,1.1-0.8,1.8-0.8H290.1z M288.7,67.6
		c-0.2,0.2-0.4,0.5-0.4,0.9v2.2c0,0.3,0.1,0.6,0.4,0.9s0.5,0.4,0.9,0.4h0.5c0.3,0,0.6-0.1,0.9-0.4c0.2-0.2,0.4-0.5,0.4-0.9v-2.2
		c0-0.3-0.1-0.6-0.4-0.9s-0.5-0.4-0.9-0.4h-0.5C289.2,67.2,288.9,67.3,288.7,67.6z"/>
	<path d="M296.8,70.9h1.3v2.2h-1.3V70.9z"/>
</g>
<g id="Aleph.js">
	<path d="M59.5,51.6c0,0.1,0.1,0.3,0.1,0.4c0,0.2,0.1,0.4,0.1,0.6c0.1,0.3,0.1,0.5,0.1,0.8c0,0.4,0,0.6,0,0.9v2.5h-2.3v-2.7l0,0H53
		l0,0v2.7h-2.3v-2.5c0-0.4,0-1,0.1-1.4c0.1-0.5,0.2-0.9,0.2-1.1c0.1-0.3,0.1-0.4,0.1-0.4l1.7-6.1c0.2-0.5,0.4-1,0.9-1.3
		c0.4-0.4,1-0.5,1.5-0.5c0.5,0,1.1,0.2,1.5,0.5c0.4,0.4,0.8,0.8,0.9,1.3l1.7,6.1L59.5,51.6z M53.5,51.9h3.7L55.6,46
		c0-0.1-0.1-0.2-0.3-0.2c-0.2,0-0.2,0.1-0.3,0.2L53.5,51.9z"/>
	<path d="M70.9,56.4c-0.6,0.5-1.4,0.8-2.2,0.8c-1.1,0-1.9-0.4-2.6-1.1c-0.7-0.7-1.1-1.6-1.1-2.6V46h-2.9v-2.3h5.2v9.7
		c0,0.4,0.2,0.7,0.4,1c0.3,0.3,0.6,0.4,1,0.4s0.6-0.1,0.9-0.4s0.4-0.4,0.4-0.8l2.2,0.7C72.1,55.2,71.6,55.8,70.9,56.4z"/>
	<path d="M78.7,46.8c1.1,0,1.9,0.4,2.6,1.1c0.7,0.7,1.1,1.6,1.1,2.6v2.3h-5.8v0.4c0,0.4,0.2,0.7,0.4,1c0.3,0.3,0.6,0.4,1,0.4h0.8
		c0.4,0,0.6-0.1,0.9-0.4c0.3-0.3,0.4-0.4,0.5-0.8l2.2,0.7c-0.3,0.8-0.6,1.5-1.3,1.9c-0.6,0.5-1.4,0.8-2.3,0.8H78
		c-1.1,0-1.9-0.4-2.6-1.1c-0.7-0.7-1.1-1.6-1.1-2.6v-2.8c0-1.1,0.4-1.9,1.1-2.6c0.7-0.7,1.6-1.1,2.6-1.1L78.7,46.8L78.7,46.8z
		 M80.1,50.9v-0.4c0-0.4-0.2-0.7-0.4-1s-0.6-0.4-1-0.4H78c-0.4,0-0.7,0.2-1,0.4c-0.3,0.3-0.4,0.6-0.4,1v0.4H80.1z"/>
	<path d="M92.9,48c0.7,0.7,1.1,1.6,1.1,2.6v2.8c0,1.1-0.4,1.9-1.1,2.6c-0.7,0.7-1.6,1.1-2.6,1.1h-0.1c-0.7,0-1.4-0.2-1.9-0.6v3.8
		h-2.3V47.1h2.3v0.4c0.6-0.4,1.2-0.6,1.9-0.6h0.1C91.3,46.8,92.2,47.2,92.9,48z M91.7,50.6c0-0.4-0.2-0.7-0.4-1
		c-0.3-0.3-0.6-0.4-1-0.4h-0.7c-0.4,0-0.7,0.2-1,0.4c-0.3,0.3-0.4,0.6-0.4,1v2.8c0,0.4,0.2,0.7,0.4,1c0.3,0.3,0.6,0.4,1,0.4h0.7
		c0.4,0,0.7-0.2,1-0.4c0.3-0.3,0.4-0.6,0.4-1V50.6z"/>
	<path d="M104.4,48c0.7,0.7,1.1,1.6,1.1,2.6V57h-2.3v-6.4c0-0.4-0.2-0.7-0.4-1c-0.3-0.3-0.6-0.4-1-0.4H101c-0.4,0-0.7,0.2-1,0.4
		c-0.3,0.3-0.4,0.6-0.4,1V57h-2.3V43.7h2.3v3.8c0.6-0.4,1.2-0.6,1.9-0.6h0.1C102.8,46.8,103.7,47.2,104.4,48z"/>
	<path d="M111.7,53.6h2.3V57h-2.3V53.6z"/>
	<path d="M126.8,55.9v1.1c0,1-0.4,1.8-1,2.5c-0.7,0.7-1.5,1-2.5,1c-1,0-1.8-0.4-2.5-1.1c-0.7-0.7-1.1-1.5-1.1-2.5c0-1,0.4-1.8,1-2.5
		c0.7-0.7,1.5-1,2.5-1h1.1v-4.2h-3.8V47h6.1v6.5h2.1v2.3L126.8,55.9L126.8,55.9z M123.3,55.9c-0.4,0-0.6,0.1-0.8,0.4
		c-0.3,0.3-0.4,0.5-0.4,0.8c0,0.3,0.1,0.6,0.4,0.8c0.3,0.3,0.5,0.4,0.8,0.4s0.6-0.1,0.8-0.4c0.3-0.3,0.4-0.5,0.4-0.8v-1.1H123.3z
		 M124.5,42.5h2.3v3.4h-2.3V42.5z"/>
	<path d="M134,54.1c0,0.2,0.1,0.4,0.3,0.4c0.2,0.1,0.4,0.2,0.5,0.2h2.1c0.2,0,0.4-0.1,0.5-0.3c0.2-0.2,0.3-0.4,0.3-0.5
		c0-0.5-0.4-0.8-1-0.8l-1.7-0.2c-0.9-0.1-1.6-0.4-2.1-1c-0.5-0.6-0.9-1.2-0.9-2.1s0.3-1.6,0.9-2.2c0.6-0.6,1.3-0.9,2.2-0.9h1.8
		c0.7,0,1.3,0.2,1.9,0.6c0.5,0.4,0.9,1,1.1,1.7l-2.2,0.6c0-0.2-0.1-0.4-0.3-0.4c-0.2-0.1-0.3-0.2-0.5-0.2h-1.8
		c-0.2,0-0.4,0.1-0.5,0.3s-0.3,0.4-0.3,0.5c0,0.4,0.4,0.7,1,0.8l1.8,0.2c0.9,0.1,1.6,0.4,2.1,1.1c0.5,0.6,0.9,1.3,0.9,2.1
		c0,0.9-0.3,1.6-0.9,2.2c-0.6,0.6-1.3,0.9-2.2,0.9h-2.1c-0.7,0-1.3-0.2-1.9-0.6s-0.9-1-1.1-1.7L134,54.1z"/>
</g>
<g>
	<path d="M654.6,51c0,0-0.2,0-0.3,0c-1.7,0.2-3.4,0.9-4.8,2.1c-0.3,0.2-0.8,0.8-1.1,1.1c-1.2,1.4-1.8,2.9-2.1,4.7
		c-0.1,0.4-0.1,1.8,0,2.2c0.2,1.8,0.9,3.4,2.1,4.7c0.2,0.3,0.8,0.8,1.1,1.1c1.4,1.2,2.9,1.8,4.7,2.1c0.4,0.1,1.8,0.1,2.2,0
		c1.8-0.2,3.4-0.9,4.7-2.1c0.3-0.2,0.8-0.8,1.1-1.1c1.2-1.4,1.8-2.9,2.1-4.7c0.1-0.4,0.1-1.8,0-2.2c-0.2-1.8-0.9-3.4-2.1-4.7
		c-0.2-0.3-0.8-0.8-1.1-1.1c-1.4-1.1-2.9-1.8-4.7-2.1c-0.2,0-0.5,0-1,0C655,51,654.6,51,654.6,51L654.6,51z M654.7,52
		c0,0.3,0,0.8,0,1.4c0,0.3,0,0.6,0,0.8c0,0.7,0.1,2.5,0.1,2.7l0,0.2l-0.1,0c-0.1,0-0.1,0-0.1,0c0,0,0-0.2,0-0.3
		c0-0.8-0.2-3.8-0.2-4.3l0-0.5l0.1,0c0,0,0.1,0,0.1,0l0.1,0V52z M656.8,51.9c0,0,0,0.7,0,1.5c0,0.8,0,1.5,0,1.6c0,0.1,0,0.2,0,0.2
		c0,0-0.1,0-0.1,0l-0.1,0l0-0.6c0-0.4,0-0.8,0-0.9c0-0.4,0-1.7,0-1.8c0,0,0,0,0.1,0C656.8,51.9,656.8,51.9,656.8,51.9L656.8,51.9z
		 M651.7,52.6c0,0,0.1,1.2,0.2,2.8c0,0.5,0.1,1,0.1,1.1c0,0.1,0,0.1-0.1,0.2c0,0-0.1,0-0.1,0c0,0,0-0.1,0-0.1c0-0.3-0.2-1.7-0.2-2.7
		c0-0.6-0.1-1.1-0.1-1.2c0-0.1,0-0.1,0-0.1C651.6,52.6,651.7,52.6,651.7,52.6L651.7,52.6z M657.8,53.1c0.1,0,0.1,0,0.1,0.2
		c0,0.2,0,1.3,0,1.3c-0.1,0-0.2-0.1-0.2-0.1c0,0,0-0.3,0-0.7C657.6,53,657.6,53,657.8,53.1L657.8,53.1z M653.7,53.2
		c0,0.1,0,0.4,0,0.7s0,0.8,0,1c0,0.4,0,0.4-0.1,0.4c-0.1,0-0.1,0-0.1-0.1c0-0.1,0-0.3,0-0.4c0-0.2,0-0.6-0.1-0.9s0-0.6,0-0.6
		c0-0.1,0-0.1,0-0.1c0,0,0.1,0,0.1,0C653.7,53.1,653.7,53.1,653.7,53.2L653.7,53.2z M659.8,53.5L659.8,53.5l0.1,0.3
		c0,0.2,0,0.5,0,0.8l0,0.5l-0.1,0l-0.1,0l0-0.7C659.7,53.9,659.7,53.5,659.8,53.5C659.8,53.5,659.8,53.5,659.8,53.5L659.8,53.5z
		 M655.8,53.8c0,0,0,1.1,0,1.6l0,0.3l-0.1,0c-0.1,0-0.1,0-0.1,0c0,0-0.1-1.6-0.1-1.8v-0.2l0.1,0C655.7,53.8,655.8,53.8,655.8,53.8
		L655.8,53.8z M660.9,53.9c0,0,0,0.5,0,3.2c0,3.1,0,3.1,0,3.1c0,0-0.1,0-0.1,0c0,0,0-0.3,0-2.9c0-1.6,0-3,0-3.2l0-0.3L660.9,53.9
		C660.8,53.9,660.9,53.9,660.9,53.9L660.9,53.9z M658.9,54.4c0,0,0,0.1,0,0.3c0,0.5,0,3.5,0,3.5c0,0,0,0-0.1,0l-0.1,0v-3.8
		L658.9,54.4C658.9,54.4,658.9,54.4,658.9,54.4L658.9,54.4z M652.8,54.5c0,0.1,0,0.2,0,0.3c0,0.1,0,0.4,0,0.5c0,0.4,0,0.4-0.1,0.4
		c-0.1,0-0.1,0-0.1-0.1c0-0.1-0.1-1.2-0.1-1.2c0,0,0.1-0.1,0.2-0.1C652.8,54.4,652.8,54.5,652.8,54.5L652.8,54.5z M649.1,55.1
		c0,0.2,0.1,0.7,0.1,1.1c0,0.4,0.1,0.7,0.1,0.7c0,0-0.2,0.1-0.2,0.1c0,0-0.2-2-0.2-2.1c0-0.1,0.2-0.3,0.2-0.3
		C649.1,54.7,649.1,54.9,649.1,55.1L649.1,55.1z M657.8,55.3L657.8,55.3l0.1,0.5c0,0.3,0,0.6,0,0.6c0,0.2,0,0.2-0.1,0.2l-0.1,0v-0.2
		c0-0.1,0-0.4,0-0.7l0-0.5h0.1C657.7,55.3,657.8,55.3,657.8,55.3L657.8,55.3z M650.1,56.2c0,0.4,0.1,1.1,0.1,1.6l0.1,0.8l-0.1,0.1
		l-0.1,0.1l0-0.2c0-0.1-0.1-0.5-0.1-1c0-0.5-0.1-1.1-0.1-1.5l-0.1-0.6l0.1-0.1c0.1-0.1,0.1-0.1,0.1,0
		C650,55.4,650.1,55.8,650.1,56.2L650.1,56.2z M648.5,56.4c0,0.4,0.2,1.6,0.3,2.6c0.1,1,0.2,1.9,0.2,2.1c0,0.2,0,0.4,0.1,0.6
		c0,0.3,0,0.3,0,0.3c-0.1,0-0.1,0-0.1,0c0,0,0-0.2,0-0.4c0-0.3-0.1-0.8-0.3-2c0-0.2-0.1-0.7-0.1-1c0-0.3-0.1-0.8-0.1-1.1
		c0-0.3-0.1-0.7-0.1-1c0-0.3-0.1-0.6-0.1-0.6c0-0.1,0.1-0.3,0.2-0.3C648.4,55.7,648.4,56,648.5,56.4L648.5,56.4z M647.8,57.4
		c0,0.3,0.1,0.8,0.1,1.1c0,0.3,0.1,0.7,0.1,0.9l0,0.3l0,0c0,0-0.1,0-0.1,0s0-0.1,0-0.2s-0.1-0.7-0.2-1.3l-0.2-1.1l0.1-0.2
		c0-0.1,0.1-0.1,0.1-0.1C647.7,56.9,647.7,57.1,647.8,57.4L647.8,57.4z M659.9,57.1c0,0,0,0.2,0,1.2v1.1h-0.1c-0.1,0-0.1,0-0.1-1.2
		l0-1.1h0.1C659.9,57.1,659.9,57.1,659.9,57.1L659.9,57.1z M655.1,57.5c0.5,0.1,0.9,0.2,1.4,0.4c0.3,0.1,0.4,0.2,0.7,0.5
		c0.5,0.4,0.7,0.8,1,1.4c0.4,0.8,0.5,1.5,0.7,3.4c0.1,0.8,0.2,2.4,0.2,3c0,0.2,0,0.5,0,0.7c0,0.4,0.1,0.3-0.3,0.5
		c-0.5,0.2-0.9,0.4-1.5,0.5c-0.7,0.2-1.2,0.2-1.9,0.2l-0.5,0l0-0.3c0-0.1,0-0.5,0-0.7c0.1-1.2,0.1-2.8,0-3.7c0-0.5-0.1-1.1-0.2-1.2
		c0,0,0-0.1,0.3-0.1c0.4-0.1,0.7-0.3,0.8-0.4c0.1-0.2-0.1-0.4-0.3-0.4c0,0-0.2,0-0.3,0.1c-0.5,0.2-1.5,0.5-2.1,0.6
		c-0.4,0-1,0-1.4-0.1c-0.2,0-0.6-0.2-1-0.4c-0.4-0.2-0.6-0.5-0.7-0.8c0-0.2,0-0.5,0-0.7c0.1-0.2,0.2-0.5,0.4-0.7
		c0.6-0.8,1.9-1.5,3.3-1.8C654,57.5,654.6,57.4,655.1,57.5L655.1,57.5z M661.9,57.6c0.1,0,0.1,0,0.1,0.1c0,0.6,0,2,0,2
		c0,0-0.1,0-0.2,0c0,0,0-0.1,0-1.1c0-0.7,0-1.1,0-1.1C661.8,57.5,661.9,57.6,661.9,57.6L661.9,57.6z M662.9,58.8L662.9,58.8l0.1,1.9
		c0,2.3,0,2.4-0.1,2.6c-0.1,0.3-0.1,0.4-0.1-1.1c0-0.7,0-1.5,0-1.6c0-0.2,0-0.7,0-1.1c0-0.5,0-0.8,0-0.8
		C662.8,58.8,662.8,58.8,662.9,58.8L662.9,58.8z M649.6,59.3c0,0.2,0,0.2-0.1,0.3l-0.1,0.2l0-0.2c0-0.4,0-0.4,0-0.4c0,0,0.1,0,0.1,0
		C649.6,59.2,649.6,59.2,649.6,59.3L649.6,59.3z M648.2,60.7c0,0.2,0.2,1.4,0.3,2c0.1,0.9,0.1,1,0.1,1c0,0-0.1-0.3-0.1-0.7
		c-0.3-2.4-0.3-2.4-0.3-2.4C648.2,60.5,648.2,60.6,648.2,60.7L648.2,60.7z M649.8,61.7c0,0.1,0.1,0.7,0.1,0.7c0,0.1-0.1,0.1-0.1,0.1
		c0,0,0-0.2-0.1-0.4c0-0.2,0-0.4-0.1-0.5l0-0.1l0.1,0.1C649.8,61.6,649.8,61.7,649.8,61.7L649.8,61.7z M651.6,62.5
		c0,0,0,0.1,0.1,0.3c0,0.4,0,0.4-0.1,0.4c-0.1,0-0.1,0-0.1-0.4C651.4,62.5,651.4,62.5,651.6,62.5C651.5,62.5,651.6,62.5,651.6,62.5
		L651.6,62.5z M653.3,62.6c0,0,0,0.2,0,0.3c0,0.1,0,0.5,0,0.7c0.1,0.9,0.1,1,0,1c0,0,0,0-0.1-0.7c0-0.3-0.1-0.7-0.1-0.9
		C653.2,62.7,653.2,62.5,653.3,62.6C653.3,62.5,653.3,62.5,653.3,62.6z M649.2,63c0,0,0.1,0.7,0.2,1.7c0,0.3,0.1,0.6,0.1,0.6l0,0.1
		l-0.1,0c0,0-0.1-0.1-0.1-0.1c0-0.1-0.1-1.1-0.2-1.6C649.1,63.3,649.1,63,649.2,63C649.1,63,649.2,62.9,649.2,63L649.2,63z
		 M662,63.9l0,0.9l-0.1,0.1c-0.1,0.2-0.1,0.2-0.1-0.8l0-0.9l0.1-0.1c0,0,0.1-0.1,0.1-0.1C662,63,662,63.4,662,63.9L662,63.9z
		 M659.9,65.4c0,1.3,0,1.4,0,1.4c0,0,0,0,0,0c0,0,0-2.8,0-2.8c0,0,0,0,0.1,0C659.9,64,659.9,64.2,659.9,65.4L659.9,65.4z
		 M652.7,64.5c0,0.1,0.1,0.8,0.1,1.1c0,0.2,0,0.2,0,0.2c0,0-0.1,0-0.1,0c0,0-0.1-0.5-0.1-1.3l0-0.2h0.1
		C652.7,64.4,652.7,64.4,652.7,64.5L652.7,64.5z M650.9,65.3c0,0,0,0.1,0,0.1c0,0.1,0,0.4,0.1,0.7c0.1,0.8,0.1,1,0.1,0.9
		c-0.1,0-0.1-0.1-0.1-0.1c0,0,0-0.1,0-0.2c0-0.1,0-0.3,0-0.5c0-0.1,0-0.4,0-0.5C650.8,65.3,650.8,65.2,650.9,65.3
		C650.9,65.2,650.9,65.3,650.9,65.3L650.9,65.3z M652,66.8c0,0,0,0.2,0,0.4c0,0.3,0,0.4-0.1,0.3c0,0,0-0.1-0.1-0.4
		C651.8,66.6,651.8,66.7,652,66.8C652,66.7,652,66.7,652,66.8z"/>
	<path d="M651.2,58.6c-0.2,0.1-0.2,0.4,0,0.5c0.2,0.1,0.3,0,0.4-0.1C651.7,58.7,651.5,58.5,651.2,58.6L651.2,58.6z M652.7,58.8
		c-0.2,0.1-0.2,0.4,0,0.6c0.2,0.1,0.5,0,0.5-0.3C653.2,58.8,652.9,58.7,652.7,58.8L652.7,58.8z"/>
</g>
<path d="M622.7,51h-2.9l-4.9,9l4.9,9h2.9l4.9-9L622.7,51z M621.2,66.7l-3.6-6.7l3.6-6.7l3.6,6.7L621.2,66.7z"/>
</svg>
