<?xml version="1.0" encoding="utf-8"?>
<!-- Generator: Adobe Illustrator 24.0.1, SVG Export Plug-In . SVG Version: 6.00 Build 0)  -->
<svg version="1.1" id="Poster" xmlns="http://www.w3.org/2000/svg" xmlns:xlink="http://www.w3.org/1999/xlink" x="0px" y="0px"
	 viewBox="0 0 715.3 324.2" style="enable-background:new 0 0 715.3 324.2;" xml:space="preserve">
<style type="text/css">
	.st0{fill:#AAAAAA;}
	.st1{fill:none;}
	.st2{fill:#D63369;}
	.st3{fill:#222222;}
	.st4{fill:#111111;}
	.st5{fill:#61DAFB;}
	.st6{fill:none;stroke:#61DAFB;}
</style>
<g id="Dots">
	<rect x="391.2" y="221.1" class="st0" width="1" height="1"/>
	<rect x="663.3" y="221.1" class="st0" width="1" height="1"/>
	<rect x="527.2" y="221.1" class="st0" width="1" height="1"/>
	<rect x="459.2" y="221.1" class="st0" width="1" height="1"/>
	<rect x="595.3" y="221.1" class="st0" width="1" height="1"/>
	<rect x="408.2" y="221.1" class="st0" width="1" height="1"/>
	<rect x="680.3" y="221.1" class="st0" width="1" height="1"/>
	<rect x="544.3" y="221.1" class="st0" width="1" height="1"/>
	<rect x="476.2" y="221.1" class="st0" width="1" height="1"/>
	<rect x="612.3" y="221.1" class="st0" width="1" height="1"/>
	<rect x="425.2" y="221.1" class="st0" width="1" height="1"/>
	<rect x="697.3" y="221.1" class="st0" width="1" height="1"/>
	<rect x="561.3" y="221.1" class="st0" width="1" height="1"/>
	<rect x="493.2" y="221.1" class="st0" width="1" height="1"/>
	<rect x="629.3" y="221.1" class="st0" width="1" height="1"/>
	<rect x="442.2" y="221.1" class="st0" width="1" height="1"/>
	<rect x="578.3" y="221.1" class="st0" width="1" height="1"/>
	<rect x="510.2" y="221.1" class="st0" width="1" height="1"/>
	<rect x="646.3" y="221.1" class="st0" width="1" height="1"/>
	<rect x="391.2" y="17" class="st0" width="1" height="1"/>
	<rect x="663.3" y="17" class="st0" width="1" height="1"/>
	<rect x="527.2" y="17" class="st0" width="1" height="1"/>
	<rect x="459.2" y="17" class="st0" width="1" height="1"/>
	<rect x="595.3" y="17" class="st0" width="1" height="1"/>
	<rect x="408.2" y="17" class="st0" width="1" height="1"/>
	<rect x="680.3" y="17" class="st0" width="1" height="1"/>
	<rect x="544.3" y="17" class="st0" width="1" height="1"/>
	<rect x="476.2" y="17" class="st0" width="1" height="1"/>
	<rect x="612.3" y="17" class="st0" width="1" height="1"/>
	<rect x="425.2" y="17" class="st0" width="1" height="1"/>
	<rect x="697.3" y="17" class="st0" width="1" height="1"/>
	<rect x="561.3" y="17" class="st0" width="1" height="1"/>
	<rect x="493.2" y="17" class="st0" width="1" height="1"/>
	<rect x="629.3" y="17" class="st0" width="1" height="1"/>
	<rect x="442.2" y="17" class="st0" width="1" height="1"/>
	<rect x="578.3" y="17" class="st0" width="1" height="1"/>
	<rect x="510.2" y="17" class="st0" width="1" height="1"/>
	<rect x="646.3" y="17" class="st0" width="1" height="1"/>
	<rect x="391.2" y="289.1" class="st0" width="1" height="1"/>
	<rect x="663.3" y="289.1" class="st0" width="1" height="1"/>
	<rect x="527.2" y="289.1" class="st0" width="1" height="1"/>
	<rect x="459.2" y="289.1" class="st0" width="1" height="1"/>
	<rect x="595.3" y="289.1" class="st0" width="1" height="1"/>
	<rect x="408.2" y="289.1" class="st0" width="1" height="1"/>
	<rect x="680.3" y="289.1" class="st0" width="1" height="1"/>
	<rect x="544.3" y="289.1" class="st0" width="1" height="1"/>
	<rect x="476.2" y="289.1" class="st0" width="1" height="1"/>
	<rect x="612.3" y="289.1" class="st0" width="1" height="1"/>
	<rect x="425.2" y="289.1" class="st0" width="1" height="1"/>
	<rect x="697.3" y="289.1" class="st0" width="1" height="1"/>
	<rect x="561.3" y="289.1" class="st0" width="1" height="1"/>
	<rect x="493.2" y="289.1" class="st0" width="1" height="1"/>
	<rect x="629.3" y="289.1" class="st0" width="1" height="1"/>
	<rect x="442.2" y="289.1" class="st0" width="1" height="1"/>
	<rect x="578.3" y="289.1" class="st0" width="1" height="1"/>
	<rect x="510.2" y="289.1" class="st0" width="1" height="1"/>
	<rect x="646.3" y="289.1" class="st0" width="1" height="1"/>
	<rect x="391.2" y="85" class="st0" width="1" height="1"/>
	<rect x="663.3" y="85" class="st0" width="1" height="1"/>
	<rect x="527.2" y="85" class="st0" width="1" height="1"/>
	<rect x="459.2" y="85" class="st0" width="1" height="1"/>
	<rect x="595.3" y="85" class="st0" width="1" height="1"/>
	<rect x="408.2" y="85" class="st0" width="1" height="1"/>
	<rect x="680.3" y="85" class="st0" width="1" height="1"/>
	<rect x="544.3" y="85" class="st0" width="1" height="1"/>
	<rect x="476.2" y="85" class="st0" width="1" height="1"/>
	<rect x="612.3" y="85" class="st0" width="1" height="1"/>
	<rect x="425.2" y="85" class="st0" width="1" height="1"/>
	<rect x="697.3" y="85" class="st0" width="1" height="1"/>
	<rect x="561.3" y="85" class="st0" width="1" height="1"/>
	<rect x="493.2" y="85" class="st0" width="1" height="1"/>
	<rect x="629.3" y="85" class="st0" width="1" height="1"/>
	<rect x="442.2" y="85" class="st0" width="1" height="1"/>
	<rect x="578.3" y="85" class="st0" width="1" height="1"/>
	<rect x="510.2" y="85" class="st0" width="1" height="1"/>
	<rect x="646.3" y="85" class="st0" width="1" height="1"/>
	<rect x="391.2" y="153.1" class="st0" width="1" height="1"/>
	<rect x="374.7" y="153.1" class="st0" width="1" height="1"/>
	<rect x="374.7" y="136.1" class="st0" width="1" height="1"/>
	<rect x="340.2" y="136.1" class="st0" width="1" height="1"/>
	<rect x="340.2" y="153.1" class="st0" width="1" height="1"/>
	<rect x="323.2" y="170.1" class="st0" width="1" height="1"/>
	<rect x="663.3" y="153.1" class="st0" width="1" height="1"/>
	<rect x="527.2" y="153.1" class="st0" width="1" height="1"/>
	<rect x="459.2" y="153.1" class="st0" width="1" height="1"/>
	<rect x="595.3" y="153.1" class="st0" width="1" height="1"/>
	<rect x="408.2" y="153.1" class="st0" width="1" height="1"/>
	<rect x="680.3" y="153.1" class="st0" width="1" height="1"/>
	<rect x="544.3" y="153.1" class="st0" width="1" height="1"/>
	<rect x="476.2" y="153.1" class="st0" width="1" height="1"/>
	<rect x="612.3" y="153.1" class="st0" width="1" height="1"/>
	<rect x="425.2" y="153.1" class="st0" width="1" height="1"/>
	<rect x="697.3" y="153.1" class="st0" width="1" height="1"/>
	<rect x="561.3" y="153.1" class="st0" width="1" height="1"/>
	<rect x="493.2" y="153.1" class="st0" width="1" height="1"/>
	<rect x="629.3" y="153.1" class="st0" width="1" height="1"/>
	<rect x="442.2" y="153.1" class="st0" width="1" height="1"/>
	<rect x="578.3" y="153.1" class="st0" width="1" height="1"/>
	<rect x="510.2" y="153.1" class="st0" width="1" height="1"/>
	<rect x="646.3" y="153.1" class="st0" width="1" height="1"/>
	<rect x="391.2" y="238.1" class="st0" width="1" height="1"/>
	<rect x="663.3" y="238.1" class="st0" width="1" height="1"/>
	<rect x="527.2" y="238.1" class="st0" width="1" height="1"/>
	<rect x="459.2" y="238.1" class="st0" width="1" height="1"/>
	<rect x="595.3" y="238.1" class="st0" width="1" height="1"/>
	<rect x="408.2" y="238.1" class="st0" width="1" height="1"/>
	<rect x="680.3" y="238.1" class="st0" width="1" height="1"/>
	<rect x="544.3" y="238.1" class="st0" width="1" height="1"/>
	<rect x="476.2" y="238.1" class="st0" width="1" height="1"/>
	<rect x="612.3" y="238.1" class="st0" width="1" height="1"/>
	<rect x="425.2" y="238.1" class="st0" width="1" height="1"/>
	<rect x="697.3" y="238.1" class="st0" width="1" height="1"/>
	<rect x="561.3" y="238.1" class="st0" width="1" height="1"/>
	<rect x="493.2" y="238.1" class="st0" width="1" height="1"/>
	<rect x="629.3" y="238.1" class="st0" width="1" height="1"/>
	<rect x="442.2" y="238.1" class="st0" width="1" height="1"/>
	<rect x="578.3" y="238.1" class="st0" width="1" height="1"/>
	<rect x="510.2" y="238.1" class="st0" width="1" height="1"/>
	<rect x="646.3" y="238.1" class="st0" width="1" height="1"/>
	<rect x="391.2" y="34" class="st0" width="1" height="1"/>
	<rect x="663.3" y="34" class="st0" width="1" height="1"/>
	<rect x="527.2" y="34" class="st0" width="1" height="1"/>
	<rect x="459.2" y="34" class="st0" width="1" height="1"/>
	<rect x="595.3" y="34" class="st0" width="1" height="1"/>
	<rect x="408.2" y="34" class="st0" width="1" height="1"/>
	<rect x="680.3" y="34" class="st0" width="1" height="1"/>
	<rect x="544.3" y="34" class="st0" width="1" height="1"/>
	<rect x="476.2" y="34" class="st0" width="1" height="1"/>
	<rect x="612.3" y="34" class="st0" width="1" height="1"/>
	<rect x="425.2" y="34" class="st0" width="1" height="1"/>
	<rect x="697.3" y="34" class="st0" width="1" height="1"/>
	<rect x="561.3" y="34" class="st0" width="1" height="1"/>
	<rect x="493.2" y="34" class="st0" width="1" height="1"/>
	<rect x="629.3" y="34" class="st0" width="1" height="1"/>
	<rect x="442.2" y="34" class="st0" width="1" height="1"/>
	<rect x="578.3" y="34" class="st0" width="1" height="1"/>
	<rect x="510.2" y="34" class="st0" width="1" height="1"/>
	<rect x="646.3" y="34" class="st0" width="1" height="1"/>
	<rect x="391.2" y="306.2" class="st0" width="1" height="1"/>
	<rect x="663.3" y="306.2" class="st0" width="1" height="1"/>
	<rect x="527.2" y="306.2" class="st0" width="1" height="1"/>
	<rect x="459.2" y="306.2" class="st0" width="1" height="1"/>
	<rect x="595.3" y="306.2" class="st0" width="1" height="1"/>
	<rect x="408.2" y="306.2" class="st0" width="1" height="1"/>
	<rect x="680.3" y="306.2" class="st0" width="1" height="1"/>
	<rect x="544.3" y="306.2" class="st0" width="1" height="1"/>
	<rect x="476.2" y="306.2" class="st0" width="1" height="1"/>
	<rect x="612.3" y="306.2" class="st0" width="1" height="1"/>
	<rect x="425.2" y="306.2" class="st0" width="1" height="1"/>
	<rect x="697.3" y="306.2" class="st0" width="1" height="1"/>
	<rect x="561.3" y="306.2" class="st0" width="1" height="1"/>
	<rect x="493.2" y="306.2" class="st0" width="1" height="1"/>
	<rect x="629.3" y="306.2" class="st0" width="1" height="1"/>
	<rect x="442.2" y="306.2" class="st0" width="1" height="1"/>
	<rect x="578.3" y="306.2" class="st0" width="1" height="1"/>
	<rect x="510.2" y="306.2" class="st0" width="1" height="1"/>
	<rect x="646.3" y="306.2" class="st0" width="1" height="1"/>
	<rect x="391.2" y="102.1" class="st0" width="1" height="1"/>
	<rect x="663.3" y="102.1" class="st0" width="1" height="1"/>
	<rect x="527.2" y="102.1" class="st0" width="1" height="1"/>
	<rect x="459.2" y="102.1" class="st0" width="1" height="1"/>
	<rect x="595.3" y="102.1" class="st0" width="1" height="1"/>
	<rect x="408.2" y="102.1" class="st0" width="1" height="1"/>
	<rect x="680.3" y="102.1" class="st0" width="1" height="1"/>
	<rect x="544.3" y="102.1" class="st0" width="1" height="1"/>
	<rect x="476.2" y="102.1" class="st0" width="1" height="1"/>
	<rect x="612.3" y="102.1" class="st0" width="1" height="1"/>
	<rect x="425.2" y="102.1" class="st0" width="1" height="1"/>
	<rect x="697.3" y="102.1" class="st0" width="1" height="1"/>
	<rect x="561.3" y="102.1" class="st0" width="1" height="1"/>
	<rect x="493.2" y="102.1" class="st0" width="1" height="1"/>
	<rect x="629.3" y="102.1" class="st0" width="1" height="1"/>
	<rect x="442.2" y="102.1" class="st0" width="1" height="1"/>
	<rect x="578.3" y="102.1" class="st0" width="1" height="1"/>
	<rect x="510.2" y="102.1" class="st0" width="1" height="1"/>
	<rect x="646.3" y="102.1" class="st0" width="1" height="1"/>
	<rect x="391.2" y="170.1" class="st0" width="1" height="1"/>
	<rect x="663.3" y="170.1" class="st0" width="1" height="1"/>
	<rect x="527.2" y="170.1" class="st0" width="1" height="1"/>
	<rect x="459.2" y="170.1" class="st0" width="1" height="1"/>
	<rect x="595.3" y="170.1" class="st0" width="1" height="1"/>
	<rect x="408.2" y="170.1" class="st0" width="1" height="1"/>
	<rect x="680.3" y="170.1" class="st0" width="1" height="1"/>
	<rect x="544.3" y="170.1" class="st0" width="1" height="1"/>
	<rect x="476.2" y="170.1" class="st0" width="1" height="1"/>
	<rect x="612.3" y="170.1" class="st0" width="1" height="1"/>
	<rect x="425.2" y="170.1" class="st0" width="1" height="1"/>
	<rect x="697.3" y="170.1" class="st0" width="1" height="1"/>
	<rect x="561.3" y="170.1" class="st0" width="1" height="1"/>
	<rect x="493.2" y="170.1" class="st0" width="1" height="1"/>
	<rect x="629.3" y="170.1" class="st0" width="1" height="1"/>
	<rect x="442.2" y="170.1" class="st0" width="1" height="1"/>
	<rect x="578.3" y="170.1" class="st0" width="1" height="1"/>
	<rect x="510.2" y="170.1" class="st0" width="1" height="1"/>
	<rect x="646.3" y="170.1" class="st0" width="1" height="1"/>
	<rect x="391.2" y="255.1" class="st0" width="1" height="1"/>
	<rect x="663.3" y="255.1" class="st0" width="1" height="1"/>
	<rect x="527.2" y="255.1" class="st0" width="1" height="1"/>
	<rect x="459.2" y="255.1" class="st0" width="1" height="1"/>
	<rect x="595.3" y="255.1" class="st0" width="1" height="1"/>
	<rect x="408.2" y="255.1" class="st0" width="1" height="1"/>
	<rect x="680.3" y="255.1" class="st0" width="1" height="1"/>
	<rect x="544.3" y="255.1" class="st0" width="1" height="1"/>
	<rect x="476.2" y="255.1" class="st0" width="1" height="1"/>
	<rect x="612.3" y="255.1" class="st0" width="1" height="1"/>
	<rect x="425.2" y="255.1" class="st0" width="1" height="1"/>
	<rect x="697.3" y="255.1" class="st0" width="1" height="1"/>
	<rect x="561.3" y="255.1" class="st0" width="1" height="1"/>
	<rect x="493.2" y="255.1" class="st0" width="1" height="1"/>
	<rect x="629.3" y="255.1" class="st0" width="1" height="1"/>
	<rect x="442.2" y="255.1" class="st0" width="1" height="1"/>
	<rect x="578.3" y="255.1" class="st0" width="1" height="1"/>
	<rect x="510.2" y="255.1" class="st0" width="1" height="1"/>
	<rect x="646.3" y="255.1" class="st0" width="1" height="1"/>
	<rect x="391.2" y="51" class="st0" width="1" height="1"/>
	<rect x="663.3" y="51" class="st0" width="1" height="1"/>
	<rect x="527.2" y="51" class="st0" width="1" height="1"/>
	<rect x="459.2" y="51" class="st0" width="1" height="1"/>
	<rect x="595.3" y="51" class="st0" width="1" height="1"/>
	<rect x="408.2" y="51" class="st0" width="1" height="1"/>
	<rect x="680.3" y="51" class="st0" width="1" height="1"/>
	<rect x="544.3" y="51" class="st0" width="1" height="1"/>
	<rect x="476.2" y="51" class="st0" width="1" height="1"/>
	<rect x="612.3" y="51" class="st0" width="1" height="1"/>
	<rect x="425.2" y="51" class="st0" width="1" height="1"/>
	<rect x="697.3" y="51" class="st0" width="1" height="1"/>
	<rect x="561.3" y="51" class="st0" width="1" height="1"/>
	<rect x="493.2" y="51" class="st0" width="1" height="1"/>
	<rect x="629.3" y="51" class="st0" width="1" height="1"/>
	<rect x="442.2" y="51" class="st0" width="1" height="1"/>
	<rect x="578.3" y="51" class="st0" width="1" height="1"/>
	<rect x="510.2" y="51" class="st0" width="1" height="1"/>
	<rect x="646.3" y="51" class="st0" width="1" height="1"/>
	<rect x="391.2" y="119.1" class="st0" width="1" height="1"/>
	<rect x="663.3" y="119.1" class="st0" width="1" height="1"/>
	<rect x="527.2" y="119.1" class="st0" width="1" height="1"/>
	<rect x="459.2" y="119.1" class="st0" width="1" height="1"/>
	<rect x="595.3" y="119.1" class="st0" width="1" height="1"/>
	<rect x="408.2" y="119.1" class="st0" width="1" height="1"/>
	<rect x="680.3" y="119.1" class="st0" width="1" height="1"/>
	<rect x="544.3" y="119.1" class="st0" width="1" height="1"/>
	<rect x="476.2" y="119.1" class="st0" width="1" height="1"/>
	<rect x="612.3" y="119.1" class="st0" width="1" height="1"/>
	<rect x="425.2" y="119.1" class="st0" width="1" height="1"/>
	<rect x="697.3" y="119.1" class="st0" width="1" height="1"/>
	<rect x="561.3" y="119.1" class="st0" width="1" height="1"/>
	<rect x="493.2" y="119.1" class="st0" width="1" height="1"/>
	<rect x="629.3" y="119.1" class="st0" width="1" height="1"/>
	<rect x="442.2" y="119.1" class="st0" width="1" height="1"/>
	<rect x="578.3" y="119.1" class="st0" width="1" height="1"/>
	<rect x="510.2" y="119.1" class="st0" width="1" height="1"/>
	<rect x="646.3" y="119.1" class="st0" width="1" height="1"/>
	<rect x="391.2" y="187.1" class="st0" width="1" height="1"/>
	<rect x="663.3" y="187.1" class="st0" width="1" height="1"/>
	<rect x="527.2" y="187.1" class="st0" width="1" height="1"/>
	<rect x="459.2" y="187.1" class="st0" width="1" height="1"/>
	<rect x="595.3" y="187.1" class="st0" width="1" height="1"/>
	<rect x="408.2" y="187.1" class="st0" width="1" height="1"/>
	<rect x="680.3" y="187.1" class="st0" width="1" height="1"/>
	<rect x="544.3" y="187.1" class="st0" width="1" height="1"/>
	<rect x="476.2" y="187.1" class="st0" width="1" height="1"/>
	<rect x="612.3" y="187.1" class="st0" width="1" height="1"/>
	<rect x="425.2" y="187.1" class="st0" width="1" height="1"/>
	<rect x="697.3" y="187.1" class="st0" width="1" height="1"/>
	<rect x="561.3" y="187.1" class="st0" width="1" height="1"/>
	<rect x="493.2" y="187.1" class="st0" width="1" height="1"/>
	<rect x="629.3" y="187.1" class="st0" width="1" height="1"/>
	<rect x="442.2" y="187.1" class="st0" width="1" height="1"/>
	<rect x="578.3" y="187.1" class="st0" width="1" height="1"/>
	<rect x="510.2" y="187.1" class="st0" width="1" height="1"/>
	<rect x="646.3" y="187.1" class="st0" width="1" height="1"/>
	<rect x="391.2" y="272.1" class="st0" width="1" height="1"/>
	<rect x="663.3" y="272.1" class="st0" width="1" height="1"/>
	<rect x="527.2" y="272.1" class="st0" width="1" height="1"/>
	<rect x="459.2" y="272.1" class="st0" width="1" height="1"/>
	<rect x="595.3" y="272.1" class="st0" width="1" height="1"/>
	<rect x="408.2" y="272.1" class="st0" width="1" height="1"/>
	<rect x="680.3" y="272.1" class="st0" width="1" height="1"/>
	<rect x="544.3" y="272.1" class="st0" width="1" height="1"/>
	<rect x="476.2" y="272.1" class="st0" width="1" height="1"/>
	<rect x="612.3" y="272.1" class="st0" width="1" height="1"/>
	<rect x="425.2" y="272.1" class="st0" width="1" height="1"/>
	<rect x="697.3" y="272.1" class="st0" width="1" height="1"/>
	<rect x="561.3" y="272.1" class="st0" width="1" height="1"/>
	<rect x="493.2" y="272.1" class="st0" width="1" height="1"/>
	<rect x="629.3" y="272.1" class="st0" width="1" height="1"/>
	<rect x="442.2" y="272.1" class="st0" width="1" height="1"/>
	<rect x="578.3" y="272.1" class="st0" width="1" height="1"/>
	<rect x="510.2" y="272.1" class="st0" width="1" height="1"/>
	<rect x="646.3" y="272.1" class="st0" width="1" height="1"/>
	<rect x="391.2" y="68" class="st0" width="1" height="1"/>
	<rect x="663.3" y="68" class="st0" width="1" height="1"/>
	<rect x="527.2" y="68" class="st0" width="1" height="1"/>
	<rect x="459.2" y="68" class="st0" width="1" height="1"/>
	<rect x="595.3" y="68" class="st0" width="1" height="1"/>
	<rect x="408.2" y="68" class="st0" width="1" height="1"/>
	<rect x="680.3" y="68" class="st0" width="1" height="1"/>
	<rect x="544.3" y="68" class="st0" width="1" height="1"/>
	<rect x="476.2" y="68" class="st0" width="1" height="1"/>
	<rect x="612.3" y="68" class="st0" width="1" height="1"/>
	<rect x="425.2" y="68" class="st0" width="1" height="1"/>
	<rect x="697.3" y="68" class="st0" width="1" height="1"/>
	<rect x="561.3" y="68" class="st0" width="1" height="1"/>
	<rect x="493.2" y="68" class="st0" width="1" height="1"/>
	<rect x="629.3" y="68" class="st0" width="1" height="1"/>
	<rect x="442.2" y="68" class="st0" width="1" height="1"/>
	<rect x="578.3" y="68" class="st0" width="1" height="1"/>
	<rect x="510.2" y="68" class="st0" width="1" height="1"/>
	<rect x="646.3" y="68" class="st0" width="1" height="1"/>
	<rect x="391.2" y="136.1" class="st0" width="1" height="1"/>
	<rect x="663.3" y="136.1" class="st0" width="1" height="1"/>
	<rect x="527.2" y="136.1" class="st0" width="1" height="1"/>
	<rect x="459.2" y="136.1" class="st0" width="1" height="1"/>
	<rect x="595.3" y="136.1" class="st0" width="1" height="1"/>
	<rect x="408.2" y="136.1" class="st0" width="1" height="1"/>
	<rect x="680.3" y="136.1" class="st0" width="1" height="1"/>
	<rect x="544.3" y="136.1" class="st0" width="1" height="1"/>
	<rect x="476.2" y="136.1" class="st0" width="1" height="1"/>
	<rect x="612.3" y="136.1" class="st0" width="1" height="1"/>
	<rect x="425.2" y="136.1" class="st0" width="1" height="1"/>
	<rect x="697.3" y="136.1" class="st0" width="1" height="1"/>
	<rect x="561.3" y="136.1" class="st0" width="1" height="1"/>
	<rect x="493.2" y="136.1" class="st0" width="1" height="1"/>
	<rect x="629.3" y="136.1" class="st0" width="1" height="1"/>
	<rect x="442.2" y="136.1" class="st0" width="1" height="1"/>
	<rect x="578.3" y="136.1" class="st0" width="1" height="1"/>
	<rect x="510.2" y="136.1" class="st0" width="1" height="1"/>
	<rect x="646.3" y="136.1" class="st0" width="1" height="1"/>
	<rect x="391.2" y="204.1" class="st0" width="1" height="1"/>
	<rect x="663.3" y="204.1" class="st0" width="1" height="1"/>
	<rect x="527.2" y="204.1" class="st0" width="1" height="1"/>
	<rect x="459.2" y="204.1" class="st0" width="1" height="1"/>
	<rect x="595.3" y="204.1" class="st0" width="1" height="1"/>
	<rect x="408.2" y="204.1" class="st0" width="1" height="1"/>
	<rect x="680.3" y="204.1" class="st0" width="1" height="1"/>
	<rect x="544.3" y="204.1" class="st0" width="1" height="1"/>
	<rect x="476.2" y="204.1" class="st0" width="1" height="1"/>
	<rect x="612.3" y="204.1" class="st0" width="1" height="1"/>
	<rect x="425.2" y="204.1" class="st0" width="1" height="1"/>
	<rect x="697.3" y="204.1" class="st0" width="1" height="1"/>
	<rect x="561.3" y="204.1" class="st0" width="1" height="1"/>
	<rect x="493.2" y="204.1" class="st0" width="1" height="1"/>
	<rect x="629.3" y="204.1" class="st0" width="1" height="1"/>
	<rect x="442.2" y="204.1" class="st0" width="1" height="1"/>
	<rect x="578.3" y="204.1" class="st0" width="1" height="1"/>
	<rect x="510.2" y="204.1" class="st0" width="1" height="1"/>
	<rect x="646.3" y="204.1" class="st0" width="1" height="1"/>
	<rect x="255.1" y="221.1" class="st0" width="1" height="1"/>
	<rect x="119.1" y="221.1" class="st0" width="1" height="1"/>
	<rect x="51" y="221.1" class="st0" width="1" height="1"/>
	<rect x="323.2" y="221.1" class="st0" width="1" height="1"/>
	<rect x="187.1" y="221.1" class="st0" width="1" height="1"/>
	<rect x="272.1" y="221.1" class="st0" width="1" height="1"/>
	<rect x="136.1" y="221.1" class="st0" width="1" height="1"/>
	<rect x="68" y="221.1" class="st0" width="1" height="1"/>
	<rect x="340.2" y="221.1" class="st0" width="1" height="1"/>
	<rect x="204.1" y="221.1" class="st0" width="1" height="1"/>
	<rect x="17" y="221.1" class="st0" width="1" height="1"/>
	<rect x="289.1" y="221.1" class="st0" width="1" height="1"/>
	<rect x="153.1" y="221.1" class="st0" width="1" height="1"/>
	<rect x="85" y="221.1" class="st0" width="1" height="1"/>
	<rect x="357.2" y="221.1" class="st0" width="1" height="1"/>
	<rect x="221.1" y="221.1" class="st0" width="1" height="1"/>
	<rect x="34" y="221.1" class="st0" width="1" height="1"/>
	<rect x="306.1" y="221.1" class="st0" width="1" height="1"/>
	<rect x="170.1" y="221.1" class="st0" width="1" height="1"/>
	<rect x="102.1" y="221.1" class="st0" width="1" height="1"/>
	<rect x="374.2" y="221.1" class="st0" width="1" height="1"/>
	<rect x="238.1" y="221.1" class="st0" width="1" height="1"/>
	<rect x="255.1" y="17" class="st0" width="1" height="1"/>
	<rect x="119.1" y="17" class="st0" width="1" height="1"/>
	<rect x="51" y="17" class="st0" width="1" height="1"/>
	<rect x="323.2" y="17" class="st0" width="1" height="1"/>
	<rect x="187.1" y="17" class="st0" width="1" height="1"/>
	<rect x="272.1" y="17" class="st0" width="1" height="1"/>
	<rect x="136.1" y="17" class="st0" width="1" height="1"/>
	<rect x="68" y="17" class="st0" width="1" height="1"/>
	<rect x="340.2" y="17" class="st0" width="1" height="1"/>
	<rect x="204.1" y="17" class="st0" width="1" height="1"/>
	<rect x="17" y="17" class="st0" width="1" height="1"/>
	<rect x="289.1" y="17" class="st0" width="1" height="1"/>
	<rect x="153.1" y="17" class="st0" width="1" height="1"/>
	<rect x="85" y="17" class="st0" width="1" height="1"/>
	<rect x="357.2" y="17" class="st0" width="1" height="1"/>
	<rect x="221.1" y="17" class="st0" width="1" height="1"/>
	<rect x="34" y="17" class="st0" width="1" height="1"/>
	<rect x="306.1" y="17" class="st0" width="1" height="1"/>
	<rect x="170.1" y="17" class="st0" width="1" height="1"/>
	<rect x="102.1" y="17" class="st0" width="1" height="1"/>
	<rect x="374.2" y="17" class="st0" width="1" height="1"/>
	<rect x="238.1" y="17" class="st0" width="1" height="1"/>
	<rect x="255.1" y="289.1" class="st0" width="1" height="1"/>
	<rect x="119.1" y="289.1" class="st0" width="1" height="1"/>
	<rect x="51" y="289.1" class="st0" width="1" height="1"/>
	<rect x="323.2" y="289.1" class="st0" width="1" height="1"/>
	<rect x="187.1" y="289.1" class="st0" width="1" height="1"/>
	<rect x="272.1" y="289.1" class="st0" width="1" height="1"/>
	<rect x="136.1" y="289.1" class="st0" width="1" height="1"/>
	<rect x="68" y="289.1" class="st0" width="1" height="1"/>
	<rect x="340.2" y="289.1" class="st0" width="1" height="1"/>
	<rect x="204.1" y="289.1" class="st0" width="1" height="1"/>
	<rect x="17" y="289.1" class="st0" width="1" height="1"/>
	<rect x="289.1" y="289.1" class="st0" width="1" height="1"/>
	<rect x="153.1" y="289.1" class="st0" width="1" height="1"/>
	<rect x="85" y="289.1" class="st0" width="1" height="1"/>
	<rect x="357.2" y="289.1" class="st0" width="1" height="1"/>
	<rect x="221.1" y="289.1" class="st0" width="1" height="1"/>
	<rect x="34" y="289.1" class="st0" width="1" height="1"/>
	<rect x="306.1" y="289.1" class="st0" width="1" height="1"/>
	<rect x="170.1" y="289.1" class="st0" width="1" height="1"/>
	<rect x="102.1" y="289.1" class="st0" width="1" height="1"/>
	<rect x="374.2" y="289.1" class="st0" width="1" height="1"/>
	<rect x="238.1" y="289.1" class="st0" width="1" height="1"/>
	<rect x="255.1" y="85" class="st0" width="1" height="1"/>
	<rect x="119.1" y="85" class="st0" width="1" height="1"/>
	<rect x="51" y="85" class="st0" width="1" height="1"/>
	<rect x="323.2" y="85" class="st0" width="1" height="1"/>
	<rect x="187.1" y="85" class="st0" width="1" height="1"/>
	<rect x="272.1" y="85" class="st0" width="1" height="1"/>
	<rect x="136.1" y="85" class="st0" width="1" height="1"/>
	<rect x="68" y="85" class="st0" width="1" height="1"/>
	<rect x="340.2" y="85" class="st0" width="1" height="1"/>
	<rect x="204.1" y="85" class="st0" width="1" height="1"/>
	<rect x="17" y="85" class="st0" width="1" height="1"/>
	<rect x="289.1" y="85" class="st0" width="1" height="1"/>
	<rect x="153.1" y="85" class="st0" width="1" height="1"/>
	<rect x="85" y="85" class="st0" width="1" height="1"/>
	<rect x="357.2" y="85" class="st0" width="1" height="1"/>
	<rect x="221.1" y="85" class="st0" width="1" height="1"/>
	<rect x="34" y="85" class="st0" width="1" height="1"/>
	<rect x="306.1" y="85" class="st0" width="1" height="1"/>
	<rect x="170.1" y="85" class="st0" width="1" height="1"/>
	<rect x="102.1" y="85" class="st0" width="1" height="1"/>
	<rect x="374.2" y="85" class="st0" width="1" height="1"/>
	<rect x="238.1" y="85" class="st0" width="1" height="1"/>
	<rect x="255.1" y="153.1" class="st0" width="1" height="1"/>
	<rect x="119.1" y="153.1" class="st0" width="1" height="1"/>
	<rect x="51" y="153.1" class="st0" width="1" height="1"/>
	<rect x="323.2" y="153.1" class="st0" width="1" height="1"/>
	<rect x="187.1" y="153.1" class="st0" width="1" height="1"/>
	<rect x="272.1" y="153.1" class="st0" width="1" height="1"/>
	<rect x="136.1" y="153.1" class="st0" width="1" height="1"/>
	<rect x="68" y="153.1" class="st0" width="1" height="1"/>
	<rect x="204.1" y="153.1" class="st0" width="1" height="1"/>
	<rect x="17" y="153.1" class="st0" width="1" height="1"/>
	<rect x="289.1" y="153.1" class="st0" width="1" height="1"/>
	<rect x="153.1" y="153.1" class="st0" width="1" height="1"/>
	<rect x="85" y="153.1" class="st0" width="1" height="1"/>
	<rect x="357.2" y="153.1" class="st0" width="1" height="1"/>
	<rect x="221.1" y="153.1" class="st0" width="1" height="1"/>
	<rect x="34" y="153.1" class="st0" width="1" height="1"/>
	<rect x="306.1" y="153.1" class="st0" width="1" height="1"/>
	<rect x="170.1" y="153.1" class="st0" width="1" height="1"/>
	<rect x="102.1" y="153.1" class="st0" width="1" height="1"/>
	<rect x="238.1" y="153.1" class="st0" width="1" height="1"/>
	<rect x="255.1" y="238.1" class="st0" width="1" height="1"/>
	<rect x="119.1" y="238.1" class="st0" width="1" height="1"/>
	<rect x="51" y="238.1" class="st0" width="1" height="1"/>
	<rect x="323.2" y="238.1" class="st0" width="1" height="1"/>
	<rect x="187.1" y="238.1" class="st0" width="1" height="1"/>
	<rect x="272.1" y="238.1" class="st0" width="1" height="1"/>
	<rect x="136.1" y="238.1" class="st0" width="1" height="1"/>
	<rect x="68" y="238.1" class="st0" width="1" height="1"/>
	<rect x="340.2" y="238.1" class="st0" width="1" height="1"/>
	<rect x="204.1" y="238.1" class="st0" width="1" height="1"/>
	<rect x="17" y="238.1" class="st0" width="1" height="1"/>
	<rect x="289.1" y="238.1" class="st0" width="1" height="1"/>
	<rect x="153.1" y="238.1" class="st0" width="1" height="1"/>
	<rect x="85" y="238.1" class="st0" width="1" height="1"/>
	<rect x="357.2" y="238.1" class="st0" width="1" height="1"/>
	<rect x="221.1" y="238.1" class="st0" width="1" height="1"/>
	<rect x="34" y="238.1" class="st0" width="1" height="1"/>
	<rect x="306.1" y="238.1" class="st0" width="1" height="1"/>
	<rect x="170.1" y="238.1" class="st0" width="1" height="1"/>
	<rect x="102.1" y="238.1" class="st0" width="1" height="1"/>
	<rect x="374.2" y="238.1" class="st0" width="1" height="1"/>
	<rect x="238.1" y="238.1" class="st0" width="1" height="1"/>
	<rect x="255.1" y="34" class="st0" width="1" height="1"/>
	<rect x="119.1" y="34" class="st0" width="1" height="1"/>
	<rect x="51" y="34" class="st0" width="1" height="1"/>
	<rect x="323.2" y="34" class="st0" width="1" height="1"/>
	<rect x="187.1" y="34" class="st0" width="1" height="1"/>
	<rect x="272.1" y="34" class="st0" width="1" height="1"/>
	<rect x="136.1" y="34" class="st0" width="1" height="1"/>
	<rect x="68" y="34" class="st0" width="1" height="1"/>
	<rect x="340.2" y="34" class="st0" width="1" height="1"/>
	<rect x="204.1" y="34" class="st0" width="1" height="1"/>
	<rect x="17" y="34" class="st0" width="1" height="1"/>
	<rect x="289.1" y="34" class="st0" width="1" height="1"/>
	<rect x="153.1" y="34" class="st0" width="1" height="1"/>
	<rect x="85" y="34" class="st0" width="1" height="1"/>
	<rect x="357.2" y="34" class="st0" width="1" height="1"/>
	<rect x="221.1" y="34" class="st0" width="1" height="1"/>
	<rect x="34" y="34" class="st0" width="1" height="1"/>
	<rect x="306.1" y="34" class="st0" width="1" height="1"/>
	<rect x="170.1" y="34" class="st0" width="1" height="1"/>
	<rect x="102.1" y="34" class="st0" width="1" height="1"/>
	<rect x="374.2" y="34" class="st0" width="1" height="1"/>
	<rect x="238.1" y="34" class="st0" width="1" height="1"/>
	<rect x="255.1" y="306.2" class="st0" width="1" height="1"/>
	<rect x="119.1" y="306.2" class="st0" width="1" height="1"/>
	<rect x="51" y="306.2" class="st0" width="1" height="1"/>
	<rect x="323.2" y="306.2" class="st0" width="1" height="1"/>
	<rect x="187.1" y="306.2" class="st0" width="1" height="1"/>
	<rect x="272.1" y="306.2" class="st0" width="1" height="1"/>
	<rect x="136.1" y="306.2" class="st0" width="1" height="1"/>
	<rect x="68" y="306.2" class="st0" width="1" height="1"/>
	<rect x="340.2" y="306.2" class="st0" width="1" height="1"/>
	<rect x="204.1" y="306.2" class="st0" width="1" height="1"/>
	<rect x="17" y="306.2" class="st0" width="1" height="1"/>
	<rect x="289.1" y="306.2" class="st0" width="1" height="1"/>
	<rect x="153.1" y="306.2" class="st0" width="1" height="1"/>
	<rect x="85" y="306.2" class="st0" width="1" height="1"/>
	<rect x="357.2" y="306.2" class="st0" width="1" height="1"/>
	<rect x="221.1" y="306.2" class="st0" width="1" height="1"/>
	<rect x="34" y="306.2" class="st0" width="1" height="1"/>
	<rect x="306.1" y="306.2" class="st0" width="1" height="1"/>
	<rect x="170.1" y="306.2" class="st0" width="1" height="1"/>
	<rect x="102.1" y="306.2" class="st0" width="1" height="1"/>
	<rect x="374.2" y="306.2" class="st0" width="1" height="1"/>
	<rect x="238.1" y="306.2" class="st0" width="1" height="1"/>
	<rect x="255.1" y="102.1" class="st0" width="1" height="1"/>
	<rect x="119.1" y="102.1" class="st0" width="1" height="1"/>
	<rect x="51" y="102.1" class="st0" width="1" height="1"/>
	<rect x="323.2" y="102.1" class="st0" width="1" height="1"/>
	<rect x="187.1" y="102.1" class="st0" width="1" height="1"/>
	<rect x="272.1" y="102.1" class="st0" width="1" height="1"/>
	<rect x="136.1" y="102.1" class="st0" width="1" height="1"/>
	<rect x="68" y="102.1" class="st0" width="1" height="1"/>
	<rect x="340.2" y="102.1" class="st0" width="1" height="1"/>
	<rect x="204.1" y="102.1" class="st0" width="1" height="1"/>
	<rect x="17" y="102.1" class="st0" width="1" height="1"/>
	<rect x="289.1" y="102.1" class="st0" width="1" height="1"/>
	<rect x="153.1" y="102.1" class="st0" width="1" height="1"/>
	<rect x="85" y="102.1" class="st0" width="1" height="1"/>
	<rect x="357.2" y="102.1" class="st0" width="1" height="1"/>
	<rect x="221.1" y="102.1" class="st0" width="1" height="1"/>
	<rect x="34" y="102.1" class="st0" width="1" height="1"/>
	<rect x="306.1" y="102.1" class="st0" width="1" height="1"/>
	<rect x="170.1" y="102.1" class="st0" width="1" height="1"/>
	<rect x="102.1" y="102.1" class="st0" width="1" height="1"/>
	<rect x="374.2" y="102.1" class="st0" width="1" height="1"/>
	<rect x="238.1" y="102.1" class="st0" width="1" height="1"/>
	<rect x="255.1" y="170.1" class="st0" width="1" height="1"/>
	<rect x="119.1" y="170.1" class="st0" width="1" height="1"/>
	<rect x="51" y="170.1" class="st0" width="1" height="1"/>
	<rect x="187.1" y="170.1" class="st0" width="1" height="1"/>
	<rect x="272.1" y="170.1" class="st0" width="1" height="1"/>
	<rect x="136.1" y="170.1" class="st0" width="1" height="1"/>
	<rect x="68" y="170.1" class="st0" width="1" height="1"/>
	<rect x="340.2" y="170.1" class="st0" width="1" height="1"/>
	<rect x="204.1" y="170.1" class="st0" width="1" height="1"/>
	<rect x="17" y="170.1" class="st0" width="1" height="1"/>
	<rect x="289.1" y="170.1" class="st0" width="1" height="1"/>
	<rect x="153.1" y="170.1" class="st0" width="1" height="1"/>
	<rect x="85" y="170.1" class="st0" width="1" height="1"/>
	<rect x="357.2" y="170.1" class="st0" width="1" height="1"/>
	<rect x="221.1" y="170.1" class="st0" width="1" height="1"/>
	<rect x="34" y="170.1" class="st0" width="1" height="1"/>
	<rect x="306.1" y="170.1" class="st0" width="1" height="1"/>
	<rect x="170.1" y="170.1" class="st0" width="1" height="1"/>
	<rect x="102.1" y="170.1" class="st0" width="1" height="1"/>
	<rect x="374.2" y="170.1" class="st0" width="1" height="1"/>
	<rect x="238.1" y="170.1" class="st0" width="1" height="1"/>
	<rect x="255.1" y="255.1" class="st0" width="1" height="1"/>
	<rect x="119.1" y="255.1" class="st0" width="1" height="1"/>
	<rect x="51" y="255.1" class="st0" width="1" height="1"/>
	<rect x="187.1" y="255.1" class="st0" width="1" height="1"/>
	<rect x="272.1" y="255.1" class="st0" width="1" height="1"/>
	<rect x="136.1" y="255.1" class="st0" width="1" height="1"/>
	<rect x="68" y="255.1" class="st1" width="1" height="1"/>
	<rect x="340.2" y="255.1" class="st0" width="1" height="1"/>
	<rect x="323.2" y="255.1" class="st0" width="1" height="1"/>
	<rect x="204.1" y="255.1" class="st0" width="1" height="1"/>
	<rect x="17" y="255.1" class="st0" width="1" height="1"/>
	<rect x="289.1" y="255.1" class="st0" width="1" height="1"/>
	<rect x="153.1" y="255.1" class="st0" width="1" height="1"/>
	<rect x="85" y="255.1" class="st0" width="1" height="1"/>
	<rect x="357.2" y="255.1" class="st0" width="1" height="1"/>
	<rect x="221.1" y="255.1" class="st0" width="1" height="1"/>
	<rect x="34" y="255.1" class="st0" width="1" height="1"/>
	<rect x="306.1" y="255.1" class="st0" width="1" height="1"/>
	<rect x="170.1" y="255.1" class="st0" width="1" height="1"/>
	<rect x="102.1" y="255.1" class="st0" width="1" height="1"/>
	<rect x="374.2" y="255.1" class="st0" width="1" height="1"/>
	<rect x="238.1" y="255.1" class="st0" width="1" height="1"/>
	<rect x="255.1" y="51" class="st0" width="1" height="1"/>
	<rect x="119.1" y="51" class="st1" width="1" height="1"/>
	<rect x="51" y="51" class="st1" width="1" height="1"/>
	<rect x="323.2" y="51" class="st0" width="1" height="1"/>
	<rect x="187.1" y="51" class="st0" width="1" height="1"/>
	<rect x="272.1" y="51" class="st0" width="1" height="1"/>
	<rect x="136.1" y="51" class="st1" width="1" height="1"/>
	<rect x="68" y="51" class="st1" width="1" height="1"/>
	<rect x="340.2" y="51" class="st0" width="1" height="1"/>
	<rect x="204.1" y="51" class="st0" width="1" height="1"/>
	<rect x="17" y="51" class="st0" width="1" height="1"/>
	<rect x="289.1" y="51" class="st0" width="1" height="1"/>
	<rect x="153.1" y="51" class="st1" width="1" height="1"/>
	<rect x="85" y="51" class="st1" width="1" height="1"/>
	<rect x="357.2" y="51" class="st0" width="1" height="1"/>
	<rect x="221.1" y="51" class="st0" width="1" height="1"/>
	<rect x="34" y="51" class="st0" width="1" height="1"/>
	<rect x="306.1" y="51" class="st0" width="1" height="1"/>
	<rect x="170.1" y="51" class="st0" width="1" height="1"/>
	<rect x="102.1" y="51" class="st1" width="1" height="1"/>
	<rect x="374.2" y="51" class="st0" width="1" height="1"/>
	<rect x="238.1" y="51" class="st0" width="1" height="1"/>
	<rect x="255.1" y="119.1" class="st0" width="1" height="1"/>
	<rect x="119.1" y="119.1" class="st0" width="1" height="1"/>
	<rect x="51" y="119.1" class="st0" width="1" height="1"/>
	<rect x="323.2" y="119.1" class="st0" width="1" height="1"/>
	<rect x="187.1" y="119.1" class="st0" width="1" height="1"/>
	<rect x="272.1" y="119.1" class="st0" width="1" height="1"/>
	<rect x="136.1" y="119.1" class="st0" width="1" height="1"/>
	<rect x="68" y="119.1" class="st0" width="1" height="1"/>
	<rect x="340.2" y="119.1" class="st0" width="1" height="1"/>
	<rect x="204.1" y="119.1" class="st0" width="1" height="1"/>
	<rect x="17" y="119.1" class="st0" width="1" height="1"/>
	<rect x="289.1" y="119.1" class="st0" width="1" height="1"/>
	<rect x="153.1" y="119.1" class="st0" width="1" height="1"/>
	<rect x="85" y="119.1" class="st0" width="1" height="1"/>
	<rect x="357.2" y="119.1" class="st0" width="1" height="1"/>
	<rect x="221.1" y="119.1" class="st0" width="1" height="1"/>
	<rect x="34" y="119.1" class="st0" width="1" height="1"/>
	<rect x="306.1" y="119.1" class="st0" width="1" height="1"/>
	<rect x="170.1" y="119.1" class="st0" width="1" height="1"/>
	<rect x="102.1" y="119.1" class="st0" width="1" height="1"/>
	<rect x="374.2" y="119.1" class="st0" width="1" height="1"/>
	<rect x="238.1" y="119.1" class="st0" width="1" height="1"/>
	<rect x="255.1" y="187.1" class="st0" width="1" height="1"/>
	<rect x="119.1" y="187.1" class="st0" width="1" height="1"/>
	<rect x="51" y="187.1" class="st0" width="1" height="1"/>
	<rect x="323.2" y="187.1" class="st0" width="1" height="1"/>
	<rect x="187.1" y="187.1" class="st0" width="1" height="1"/>
	<rect x="272.1" y="187.1" class="st0" width="1" height="1"/>
	<rect x="136.1" y="187.1" class="st0" width="1" height="1"/>
	<rect x="68" y="187.1" class="st0" width="1" height="1"/>
	<rect x="340.2" y="187.1" class="st0" width="1" height="1"/>
	<rect x="204.1" y="187.1" class="st0" width="1" height="1"/>
	<rect x="17" y="187.1" class="st0" width="1" height="1"/>
	<rect x="289.1" y="187.1" class="st0" width="1" height="1"/>
	<rect x="153.1" y="187.1" class="st0" width="1" height="1"/>
	<rect x="85" y="187.1" class="st0" width="1" height="1"/>
	<rect x="357.2" y="187.1" class="st0" width="1" height="1"/>
	<rect x="221.1" y="187.1" class="st0" width="1" height="1"/>
	<rect x="34" y="187.1" class="st0" width="1" height="1"/>
	<rect x="306.1" y="187.1" class="st0" width="1" height="1"/>
	<rect x="170.1" y="187.1" class="st0" width="1" height="1"/>
	<rect x="102.1" y="187.1" class="st0" width="1" height="1"/>
	<rect x="374.2" y="187.1" class="st0" width="1" height="1"/>
	<rect x="238.1" y="187.1" class="st0" width="1" height="1"/>
	<rect x="255.1" y="272.1" class="st0" width="1" height="1"/>
	<rect x="119.1" y="272.1" class="st0" width="1" height="1"/>
	<rect x="51" y="272.1" class="st0" width="1" height="1"/>
	<rect x="323.2" y="272.1" class="st0" width="1" height="1"/>
	<rect x="187.1" y="272.1" class="st0" width="1" height="1"/>
	<rect x="272.1" y="272.1" class="st0" width="1" height="1"/>
	<rect x="136.1" y="272.1" class="st0" width="1" height="1"/>
	<rect x="68" y="272.1" class="st1" width="1" height="1"/>
	<rect x="340.2" y="272.1" class="st0" width="1" height="1"/>
	<rect x="204.1" y="272.1" class="st0" width="1" height="1"/>
	<rect x="17" y="272.1" class="st0" width="1" height="1"/>
	<rect x="289.1" y="272.1" class="st0" width="1" height="1"/>
	<rect x="153.1" y="272.1" class="st0" width="1" height="1"/>
	<rect x="85" y="272.1" class="st0" width="1" height="1"/>
	<rect x="357.2" y="272.1" class="st0" width="1" height="1"/>
	<rect x="221.1" y="272.1" class="st0" width="1" height="1"/>
	<rect x="34" y="272.1" class="st0" width="1" height="1"/>
	<rect x="306.1" y="272.1" class="st0" width="1" height="1"/>
	<rect x="170.1" y="272.1" class="st0" width="1" height="1"/>
	<rect x="102.1" y="272.1" class="st0" width="1" height="1"/>
	<rect x="374.2" y="272.1" class="st0" width="1" height="1"/>
	<rect x="238.1" y="272.1" class="st0" width="1" height="1"/>
	<rect x="255.1" y="68" class="st1" width="1" height="1"/>
	<rect x="119.1" y="68" class="st1" width="1" height="1"/>
	<rect x="51" y="68" class="st1" width="1" height="1"/>
	<rect x="323.2" y="68" class="st0" width="1" height="1"/>
	<rect x="187.1" y="68" class="st1" width="1" height="1"/>
	<rect x="272.1" y="68" class="st1" width="1" height="1"/>
	<rect x="136.1" y="68" class="st1" width="1" height="1"/>
	<rect x="68" y="68" class="st1" width="1" height="1"/>
	<rect x="340.2" y="68" class="st0" width="1" height="1"/>
	<rect x="204.1" y="68" class="st1" width="1" height="1"/>
	<rect x="17" y="68" class="st0" width="1" height="1"/>
	<rect x="289.1" y="68" class="st0" width="1" height="1"/>
	<rect x="153.1" y="68" class="st1" width="1" height="1"/>
	<rect x="85" y="68" class="st1" width="1" height="1"/>
	<rect x="357.2" y="68" class="st0" width="1" height="1"/>
	<rect x="221.1" y="68" class="st1" width="1" height="1"/>
	<rect x="34" y="68" class="st0" width="1" height="1"/>
	<rect x="306.1" y="68" class="st0" width="1" height="1"/>
	<rect x="170.1" y="68" class="st1" width="1" height="1"/>
	<rect x="102.1" y="68" class="st1" width="1" height="1"/>
	<rect x="374.2" y="68" class="st0" width="1" height="1"/>
	<rect x="238.1" y="68" class="st1" width="1" height="1"/>
	<rect x="255.1" y="136.1" class="st0" width="1" height="1"/>
	<rect x="119.1" y="136.1" class="st0" width="1" height="1"/>
	<rect x="51" y="136.1" class="st0" width="1" height="1"/>
	<rect x="323.2" y="136.1" class="st0" width="1" height="1"/>
	<rect x="187.1" y="136.1" class="st0" width="1" height="1"/>
	<rect x="272.1" y="136.1" class="st0" width="1" height="1"/>
	<rect x="136.1" y="136.1" class="st0" width="1" height="1"/>
	<rect x="68" y="136.1" class="st0" width="1" height="1"/>
	<rect x="204.1" y="136.1" class="st0" width="1" height="1"/>
	<rect x="17" y="136.1" class="st0" width="1" height="1"/>
	<rect x="289.1" y="136.1" class="st0" width="1" height="1"/>
	<rect x="153.1" y="136.1" class="st0" width="1" height="1"/>
	<rect x="85" y="136.1" class="st0" width="1" height="1"/>
	<rect x="357.2" y="136.1" class="st0" width="1" height="1"/>
	<rect x="221.1" y="136.1" class="st0" width="1" height="1"/>
	<rect x="34" y="136.1" class="st0" width="1" height="1"/>
	<rect x="306.1" y="136.1" class="st0" width="1" height="1"/>
	<rect x="170.1" y="136.1" class="st0" width="1" height="1"/>
	<rect x="102.1" y="136.1" class="st0" width="1" height="1"/>
	<rect x="238.1" y="136.1" class="st0" width="1" height="1"/>
	<rect x="255.1" y="204.1" class="st0" width="1" height="1"/>
	<rect x="119.1" y="204.1" class="st0" width="1" height="1"/>
	<rect x="51" y="204.1" class="st0" width="1" height="1"/>
	<rect x="323.2" y="204.1" class="st0" width="1" height="1"/>
	<rect x="187.1" y="204.1" class="st0" width="1" height="1"/>
	<rect x="272.1" y="204.1" class="st0" width="1" height="1"/>
	<rect x="136.1" y="204.1" class="st0" width="1" height="1"/>
	<rect x="68" y="204.1" class="st0" width="1" height="1"/>
	<rect x="340.2" y="204.1" class="st0" width="1" height="1"/>
	<rect x="204.1" y="204.1" class="st0" width="1" height="1"/>
	<rect x="17" y="204.1" class="st0" width="1" height="1"/>
	<rect x="289.1" y="204.1" class="st0" width="1" height="1"/>
	<rect x="153.1" y="204.1" class="st0" width="1" height="1"/>
	<rect x="85" y="204.1" class="st0" width="1" height="1"/>
	<rect x="357.2" y="204.1" class="st0" width="1" height="1"/>
	<rect x="221.1" y="204.1" class="st0" width="1" height="1"/>
	<rect x="34" y="204.1" class="st0" width="1" height="1"/>
	<rect x="306.1" y="204.1" class="st0" width="1" height="1"/>
	<rect x="170.1" y="204.1" class="st0" width="1" height="1"/>
	<rect x="102.1" y="204.1" class="st0" width="1" height="1"/>
	<rect x="374.2" y="204.1" class="st0" width="1" height="1"/>
	<rect x="238.1" y="204.1" class="st0" width="1" height="1"/>
</g>
<path id="Logo" class="st2" d="M86.3,272.6c-5-8.6-10.4-17.9-15.6-27h-4.4c-5,8.7-10.5,18.2-15.8,27.4c0.4,0.8,1.2,2.2,2.1,3.8h31.6
	l2.3-3.8L86.3,272.6z M77.5,259.9c2.4,4.1,4.8,8.3,7.1,12.4H59.5l1-1.7h21l-13.7-23.6H70C72.5,251.2,75,255.5,77.5,259.9z
	 M75.6,269.2H61.3l7.2-12.4L75.6,269.2z M59.5,259.9c2.4-4.1,4.7-8.2,7.1-12.3l12.5,21.6h-2l-10.5-18.1L53,274.7
	c-0.3-0.6-0.7-1.2-1-1.8C54.5,268.6,57,264.2,59.5,259.9z M83.5,275.4H54.1l12.5-21.7l1,1.8l-10.5,18.1h27.4L83.5,275.4z"/>
<g id="Aleph.js">
	<path d="M60.2,51.6c0,0.1,0.1,0.3,0.1,0.5c0,0.2,0.1,0.5,0.1,0.7c0.1,0.3,0.1,0.6,0.1,0.8c0,0.4,0,0.7,0,0.9v2.6h-2.4v-2.9l0,0
		h-4.7l0,0v2.9H51v-2.6c0-0.5,0-1,0.1-1.5c0.1-0.6,0.2-0.9,0.2-1.2c0.1-0.3,0.1-0.5,0.1-0.5l1.8-6.4c0.2-0.6,0.5-1,0.9-1.4
		s1-0.6,1.6-0.6s1.1,0.2,1.6,0.6c0.5,0.4,0.8,0.8,0.9,1.4l1.8,6.4L60.2,51.6z M53.9,51.9h3.9l-1.7-6.1c0-0.1-0.1-0.2-0.3-0.2
		c-0.2,0-0.2,0.1-0.3,0.2L53.9,51.9z"/>
	<path d="M72.3,56.6c-0.7,0.6-1.5,0.8-2.3,0.8c-1.1,0-2-0.4-2.8-1.1c-0.7-0.7-1.1-1.7-1.1-2.8v-7.8H63v-2.4h5.5v10.2
		c0,0.4,0.2,0.7,0.5,1c0.3,0.3,0.7,0.5,1,0.5s0.7-0.1,0.9-0.4c0.3-0.3,0.5-0.5,0.5-0.8l2.3,0.7C73.5,55.4,73.1,56.1,72.3,56.6z"/>
	<path d="M80.5,46.6c1.1,0,2,0.4,2.8,1.1s1.1,1.7,1.1,2.8v2.4h-6.1v0.5c0,0.4,0.2,0.7,0.5,1c0.3,0.3,0.7,0.5,1,0.5h0.8
		c0.4,0,0.7-0.1,0.9-0.4c0.3-0.3,0.5-0.5,0.6-0.8l2.3,0.7c-0.3,0.8-0.7,1.6-1.4,2c-0.7,0.6-1.5,0.8-2.4,0.8h-0.8
		c-1.1,0-2-0.4-2.8-1.1c-0.7-0.7-1.1-1.7-1.1-2.8v-3c0-1.1,0.4-2,1.1-2.8c0.7-0.7,1.7-1.1,2.8-1.1L80.5,46.6L80.5,46.6z M82,50.8
		v-0.4c0-0.4-0.2-0.7-0.5-1c-0.3-0.3-0.7-0.5-1-0.5h-0.7c-0.4,0-0.7,0.2-1,0.5c-0.3,0.3-0.5,0.7-0.5,1v0.4H82z"/>
	<path d="M95.5,47.8c0.7,0.7,1.1,1.7,1.1,2.8v3c0,1.1-0.4,2-1.1,2.8c-0.7,0.7-1.7,1.1-2.8,1.1h-0.1c-0.7,0-1.5-0.2-2-0.7v4h-2.4v-14
		h2.4v0.5c0.7-0.5,1.3-0.7,2-0.7h0.1C93.8,46.6,94.8,46.9,95.5,47.8z M94.2,50.6c0-0.4-0.2-0.7-0.5-1c-0.3-0.3-0.7-0.5-1-0.5H92
		c-0.4,0-0.7,0.2-1,0.5c-0.3,0.3-0.5,0.7-0.5,1v3c0,0.4,0.2,0.7,0.5,1c0.3,0.3,0.7,0.5,1,0.5h0.7c0.4,0,0.7-0.2,1-0.5
		c0.3-0.3,0.5-0.7,0.5-1V50.6z"/>
	<path d="M107.6,47.8c0.7,0.7,1.1,1.7,1.1,2.8v6.7h-2.4v-6.7c0-0.4-0.2-0.7-0.5-1s-0.7-0.5-1-0.5h-0.7c-0.4,0-0.7,0.2-1,0.5
		c-0.3,0.3-0.5,0.7-0.5,1v6.7h-2.4v-14h2.4v4c0.7-0.5,1.3-0.7,2-0.7h0.1C106,46.6,106.9,46.9,107.6,47.8z"/>
	<path d="M115.4,53.7h2.4v3.5h-2.4V53.7z"/>
	<path d="M131.3,56.2v1.2c0,1-0.4,1.9-1,2.6c-0.7,0.7-1.6,1-2.6,1c-1,0-1.9-0.4-2.6-1.1c-0.7-0.7-1.1-1.6-1.1-2.6c0-1,0.4-1.9,1-2.6
		c0.7-0.7,1.6-1,2.6-1h1.2v-4.5h-4v-2.4h6.4v6.9h2.2v2.4L131.3,56.2L131.3,56.2z M127.7,56.2c-0.4,0-0.7,0.1-0.8,0.4
		c-0.3,0.3-0.4,0.6-0.4,0.8s0.1,0.7,0.4,0.8c0.3,0.3,0.6,0.4,0.8,0.4c0.3,0,0.7-0.1,0.8-0.4c0.3-0.3,0.4-0.6,0.4-0.8v-1.2H127.7z
		 M128.9,42h2.4v3.5h-2.4V42z"/>
	<path d="M138.9,54.3c0,0.2,0.1,0.4,0.3,0.5c0.2,0.1,0.4,0.2,0.6,0.2h2.2c0.2,0,0.4-0.1,0.6-0.3c0.2-0.2,0.3-0.4,0.3-0.6
		c0-0.6-0.4-0.8-1-0.8l-1.8-0.2c-0.9-0.1-1.7-0.5-2.2-1c-0.6-0.7-0.9-1.3-0.9-2.2s0.3-1.7,0.9-2.3c0.7-0.7,1.4-0.9,2.3-0.9h1.9
		c0.7,0,1.4,0.2,2,0.7c0.6,0.5,0.9,1,1.1,1.8l-2.3,0.7c0-0.2-0.1-0.4-0.3-0.5c-0.2-0.1-0.3-0.2-0.6-0.2H140c-0.2,0-0.4,0.1-0.6,0.3
		s-0.3,0.4-0.3,0.6c0,0.5,0.4,0.7,1,0.8l1.9,0.2c0.9,0.1,1.7,0.5,2.2,1.1c0.6,0.7,0.9,1.4,0.9,2.2c0,0.9-0.3,1.7-0.9,2.3
		s-1.4,0.9-2.3,0.9h-2.2c-0.7,0-1.4-0.2-2-0.7c-0.6-0.5-0.9-1-1.1-1.8L138.9,54.3z"/>
</g>
<g id="The_Full-stack_Framework_in_Deno.">
	<path class="st3" d="M54.1,68.2H51v-1.1h7.5v1.1h-3.1v9.1h-1.3V68.2z"/>
	<path class="st3" d="M60.2,66.3h1.3v3l0,1.6c0.7-0.7,1.5-1.3,2.5-1.3c1.6,0,2.3,1,2.3,3v4.8h-1.3v-4.6c0-1.4-0.4-2-1.4-2
		c-0.8,0-1.3,0.4-2.1,1.2v5.5h-1.3V66.3z"/>
	<path class="st3" d="M68,73.6c0-2.4,1.7-4,3.4-4c1.9,0,3,1.4,3,3.5c0,0.3,0,0.5-0.1,0.7h-5.1c0.1,1.6,1.1,2.6,2.5,2.6
		c0.7,0,1.3-0.2,1.9-0.6l0.5,0.8c-0.7,0.4-1.5,0.8-2.5,0.8C69.6,77.5,68,76,68,73.6z M73.3,72.9c0-1.5-0.7-2.3-1.9-2.3
		c-1.1,0-2,0.9-2.2,2.3H73.3z"/>
	<path class="st3" d="M79.5,67.1h5.9v1.1h-4.6v3.4h3.9v1.1h-3.9v4.6h-1.3V67.1z"/>
	<path class="st3" d="M86.7,74.6v-4.8H88v4.6c0,1.4,0.4,2,1.4,2c0.8,0,1.3-0.4,2-1.3v-5.4h1.3v7.5h-1.1l-0.1-1.2h0
		c-0.7,0.8-1.5,1.4-2.5,1.4C87.4,77.5,86.7,76.5,86.7,74.6z"/>
	<path class="st3" d="M95.3,75.8v-9.6h1.3v9.6c0,0.4,0.2,0.5,0.4,0.5c0.1,0,0.1,0,0.3,0l0.2,1c-0.2,0.1-0.4,0.1-0.7,0.1
		C95.7,77.5,95.3,76.9,95.3,75.8z"/>
	<path class="st3" d="M99.2,75.8v-9.6h1.3v9.6c0,0.4,0.2,0.5,0.4,0.5c0.1,0,0.1,0,0.3,0l0.2,1c-0.2,0.1-0.4,0.1-0.7,0.1
		C99.6,77.5,99.2,76.9,99.2,75.8z"/>
	<path class="st3" d="M102.6,72.9h3.6v1h-3.6V72.9z"/>
	<path class="st3" d="M107.2,76.5l0.6-0.8c0.7,0.5,1.3,0.9,2.2,0.9c1,0,1.5-0.5,1.5-1.2c0-0.8-0.9-1.1-1.7-1.4
		c-1.1-0.4-2.2-0.9-2.2-2.2c0-1.2,1-2.1,2.6-2.1c0.9,0,1.8,0.4,2.3,0.8l-0.6,0.8c-0.5-0.4-1-0.7-1.7-0.7c-1,0-1.4,0.5-1.4,1.1
		c0,0.7,0.8,1,1.6,1.3c1.1,0.4,2.3,0.9,2.3,2.3c0,1.2-1,2.2-2.8,2.2C108.9,77.5,107.9,77.1,107.2,76.5z"/>
	<path class="st3" d="M114.4,75v-4.2h-1.1v-1l1.2-0.1l0.2-2.1h1.1v2.1h2v1h-2V75c0,0.9,0.3,1.5,1.2,1.5c0.3,0,0.6-0.1,0.9-0.2
		l0.3,0.9c-0.4,0.1-0.9,0.3-1.4,0.3C115,77.5,114.4,76.5,114.4,75z"/>
	<path class="st3" d="M118.6,75.4c0-1.6,1.4-2.5,4.6-2.8c0-1-0.3-1.9-1.6-1.9c-0.9,0-1.7,0.4-2.3,0.8l-0.5-0.9c0.7-0.4,1.8-1,3-1
		c1.8,0,2.6,1.2,2.6,3.1v4.6h-1l-0.1-0.9h0c-0.7,0.6-1.6,1.1-2.5,1.1C119.6,77.5,118.6,76.7,118.6,75.4z M123.3,75.5v-2.1
		c-2.5,0.3-3.4,0.9-3.4,1.9c0,0.9,0.6,1.2,1.3,1.2C122,76.5,122.5,76.1,123.3,75.5z"/>
	<path class="st3" d="M126.4,73.6c0-2.5,1.7-4,3.6-4c1,0,1.7,0.4,2.2,0.9l-0.7,0.8c-0.4-0.4-0.9-0.7-1.5-0.7c-1.4,0-2.4,1.2-2.4,2.9
		c0,1.7,0.9,2.9,2.3,2.9c0.7,0,1.3-0.3,1.8-0.8l0.6,0.8c-0.7,0.6-1.5,1-2.4,1C127.9,77.5,126.4,76.1,126.4,73.6z"/>
	<path class="st3" d="M134,66.3h1.3v7.5h0l3.2-4h1.4l-2.5,3l2.8,4.5h-1.4l-2.2-3.6l-1.4,1.7v2H134V66.3z"/>
	<path class="st3" d="M144.9,67.1h5.9v1.1h-4.6v3.4h3.9v1.1h-3.9v4.6h-1.3V67.1z"/>
	<path class="st3" d="M152.2,69.8h1l0.1,1.4h0c0.5-1,1.3-1.6,2.1-1.6c0.3,0,0.6,0,0.8,0.2l-0.2,1.1c-0.3-0.1-0.4-0.1-0.7-0.1
		c-0.6,0-1.4,0.4-1.9,1.7v4.9h-1.3V69.8z"/>
	<path class="st3" d="M156.7,75.4c0-1.6,1.4-2.5,4.6-2.8c0-1-0.3-1.9-1.6-1.9c-0.9,0-1.7,0.4-2.3,0.8l-0.5-0.9c0.7-0.4,1.8-1,3-1
		c1.8,0,2.6,1.2,2.6,3.1v4.6h-1l-0.1-0.9h0c-0.7,0.6-1.6,1.1-2.5,1.1C157.7,77.5,156.7,76.7,156.7,75.4z M161.4,75.5v-2.1
		c-2.5,0.3-3.4,0.9-3.4,1.9c0,0.9,0.6,1.2,1.3,1.2C160,76.5,160.6,76.1,161.4,75.5z"/>
	<path class="st3" d="M165,69.8h1l0.1,1.1h0c0.7-0.7,1.4-1.3,2.3-1.3c1.2,0,1.8,0.6,2.1,1.4c0.8-0.8,1.6-1.4,2.5-1.4
		c1.6,0,2.3,1,2.3,3v4.8h-1.3v-4.6c0-1.4-0.4-2-1.4-2c-0.6,0-1.2,0.4-1.9,1.2v5.5h-1.3v-4.6c0-1.4-0.4-2-1.4-2
		c-0.6,0-1.2,0.4-1.9,1.2v5.5H165V69.8z"/>
	<path class="st3" d="M177.3,73.6c0-2.4,1.7-4,3.4-4c1.9,0,3,1.4,3,3.5c0,0.3,0,0.5-0.1,0.7h-5.1c0.1,1.6,1.1,2.6,2.5,2.6
		c0.7,0,1.3-0.2,1.9-0.6l0.5,0.8c-0.7,0.4-1.5,0.8-2.5,0.8C178.9,77.5,177.3,76,177.3,73.6z M182.6,72.9c0-1.5-0.7-2.3-1.9-2.3
		c-1.1,0-2,0.9-2.2,2.3H182.6z"/>
	<path class="st3" d="M184.8,69.8h1.3l1.1,4.4c0.2,0.7,0.3,1.4,0.4,2.1h0.1c0.2-0.7,0.3-1.4,0.5-2.1l1.2-4.4h1.2l1.2,4.4
		c0.2,0.7,0.3,1.4,0.5,2.1h0.1c0.2-0.7,0.3-1.4,0.5-2.1l1.1-4.4h1.2l-2,7.5h-1.5l-1.1-4.1c-0.2-0.7-0.3-1.4-0.5-2.2h-0.1
		c-0.2,0.8-0.3,1.5-0.5,2.2l-1.1,4h-1.5L184.8,69.8z"/>
	<path class="st3" d="M196.2,73.6c0-2.5,1.7-4,3.5-4c1.8,0,3.5,1.5,3.5,4c0,2.5-1.7,3.9-3.5,3.9C197.8,77.5,196.2,76.1,196.2,73.6z
		 M201.9,73.6c0-1.7-0.9-2.9-2.2-2.9c-1.3,0-2.2,1.2-2.2,2.9c0,1.7,0.9,2.9,2.2,2.9C201,76.5,201.9,75.3,201.9,73.6z"/>
	<path class="st3" d="M205.2,69.8h1l0.1,1.4h0c0.5-1,1.3-1.6,2.1-1.6c0.3,0,0.6,0,0.8,0.2l-0.2,1.1c-0.3-0.1-0.4-0.1-0.7-0.1
		c-0.6,0-1.4,0.4-1.9,1.7v4.9h-1.3V69.8z"/>
	<path class="st3" d="M210.6,66.3h1.3v7.5h0l3.2-4h1.4l-2.5,3l2.8,4.5h-1.4l-2.2-3.6l-1.4,1.7v2h-1.3V66.3z"/>
	<path class="st3" d="M221.1,67.4c0-0.5,0.3-0.8,0.8-0.8s0.8,0.3,0.8,0.8c0,0.5-0.3,0.8-0.8,0.8S221.1,67.9,221.1,67.4z M221.3,69.8
		h1.3v7.5h-1.3V69.8z"/>
	<path class="st3" d="M225.2,69.8h1l0.1,1.1h0c0.7-0.7,1.5-1.3,2.5-1.3c1.6,0,2.3,1,2.3,3v4.8h-1.3v-4.6c0-1.4-0.4-2-1.4-2
		c-0.8,0-1.3,0.4-2.1,1.2v5.5h-1.3V69.8z"/>
	<path class="st3" d="M236.8,67.1h2.7c3.1,0,4.9,1.8,4.9,5.1c0,3.3-1.8,5.2-4.9,5.2h-2.7V67.1z M239.4,76c2.2,0,3.4-1.3,3.4-3.8
		c0-2.6-1.2-3.8-3.4-3.8h-0.9V76H239.4z"/>
	<path class="st3" d="M245.9,73.5c0-2.5,1.7-4,3.5-4c2,0,3.1,1.5,3.1,3.6c0,0.3,0,0.6-0.1,0.8h-5c0.1,1.5,1,2.3,2.4,2.3
		c0.7,0,1.3-0.2,1.8-0.6l0.6,1c-0.7,0.5-1.6,0.8-2.6,0.8C247.5,77.5,245.9,76,245.9,73.5z M251.1,72.8c0-1.3-0.6-2.1-1.7-2.1
		c-1,0-1.8,0.7-2,2.1H251.1z"/>
	<path class="st3" d="M254.3,69.7h1.3l0.1,1.1h0c0.7-0.7,1.5-1.3,2.5-1.3c1.6,0,2.3,1.1,2.3,3v4.8H259v-4.6c0-1.3-0.4-1.8-1.3-1.8
		c-0.7,0-1.2,0.4-1.9,1v5.4h-1.6V69.7z"/>
	<path class="st3" d="M262.4,73.5c0-2.5,1.7-4,3.6-4c1.9,0,3.6,1.5,3.6,4c0,2.5-1.7,4-3.6,4C264.1,77.5,262.4,76,262.4,73.5z
		 M267.9,73.5c0-1.6-0.8-2.7-2-2.7c-1.2,0-1.9,1.1-1.9,2.7c0,1.6,0.8,2.7,1.9,2.7C267.2,76.2,267.9,75.1,267.9,73.5z"/>
	<path class="st3" d="M271.3,76.5c0-0.6,0.4-1,0.9-1s0.9,0.4,0.9,1c0,0.6-0.4,1-0.9,1S271.3,77.1,271.3,76.5z"/>
</g>
<g id="Deno">
	<path class="st4" d="M620.5,50c0,0-0.2,0-0.3,0c-1.9,0.2-3.8,1-5.4,2.3c-0.3,0.2-0.9,0.9-1.2,1.2c-1.3,1.5-2,3.2-2.3,5.3
		c-0.1,0.5-0.1,2,0,2.4c0.3,2,1,3.7,2.3,5.3c0.2,0.3,0.9,0.9,1.2,1.2c1.5,1.3,3.2,2,5.3,2.3c0.5,0.1,2,0.1,2.4,0
		c2-0.3,3.7-1,5.3-2.3c0.3-0.2,0.9-0.9,1.2-1.2c1.3-1.5,2-3.2,2.3-5.3c0.1-0.5,0.1-2,0-2.4c-0.3-2-1-3.7-2.3-5.3
		c-0.2-0.3-0.9-0.9-1.2-1.2c-1.5-1.3-3.3-2-5.3-2.3c-0.2,0-0.5,0-1.1,0C620.9,50,620.5,50,620.5,50L620.5,50z M620.6,51.1
		c0,0.3,0,0.9,0,1.5c0,0.3,0,0.7,0,0.9c0,0.8,0.1,2.8,0.1,3l0,0.2l-0.1,0c-0.1,0-0.1,0-0.1,0c0,0,0-0.2,0-0.4c0-0.9-0.2-4.3-0.2-4.8
		l0-0.5l0.1,0c0,0,0.1,0,0.1,0l0.1,0V51.1z M622.9,51c0,0,0,0.7,0,1.7c0,0.9,0,1.7,0,1.8c0,0.1,0,0.2,0,0.2c0,0-0.1,0-0.1,0l-0.1,0
		l0-0.7c0-0.4,0-0.8,0-1c0-0.4,0-1.9,0-2c0,0,0,0,0.1,0C622.9,51,622.9,51,622.9,51L622.9,51z M617.2,51.8c0,0,0.1,1.4,0.3,3.2
		c0,0.6,0.1,1.2,0.1,1.2c0,0.1,0,0.1-0.1,0.2c0,0-0.1,0-0.1,0c0,0,0-0.1,0-0.1c0-0.3-0.2-1.9-0.3-3c-0.1-0.7-0.1-1.2-0.1-1.3
		c0-0.1,0-0.1,0.1-0.2C617.2,51.8,617.2,51.8,617.2,51.8L617.2,51.8z M624,52.3c0.1,0,0.1,0,0.1,0.2c0,0.2,0,1.4,0,1.4
		c-0.1,0-0.2-0.1-0.2-0.1c0,0,0-0.4,0-0.8C623.9,52.2,623.8,52.3,624,52.3L624,52.3z M619.5,52.4c0,0.1,0,0.4,0,0.8
		c0,0.4,0,0.9,0.1,1.1c0,0.4,0,0.4-0.1,0.4c-0.1,0-0.1,0-0.1-0.1c0-0.1,0-0.3,0-0.5c0-0.2,0-0.6-0.1-0.9c0-0.3,0-0.6-0.1-0.7
		c0-0.1,0-0.1,0.1-0.2c0,0,0.1,0,0.2,0C619.5,52.3,619.5,52.3,619.5,52.4L619.5,52.4z M626.3,52.8L626.3,52.8l0.1,0.4
		c0,0.2,0,0.6,0,0.9l0,0.5l-0.1-0.1l-0.1,0l0-0.8c0-0.5,0-0.8,0-0.8C626.2,52.7,626.2,52.7,626.3,52.8L626.3,52.8z M621.8,53.1
		c0,0,0,1.2,0.1,1.8l0,0.4l-0.1,0c-0.1,0-0.1,0-0.1,0c0,0-0.1-1.8-0.1-2v-0.2l0.1,0C621.7,53.1,621.8,53.1,621.8,53.1L621.8,53.1z
		 M627.5,53.3c0,0,0,0.6,0,3.5c0,3.4,0,3.5,0,3.5c0,0-0.1,0-0.1,0c0,0,0-0.3-0.1-3.2c0-1.8,0-3.4,0-3.6l0-0.4l0.1,0.1
		C627.4,53.2,627.4,53.3,627.5,53.3L627.5,53.3z M625.3,53.8c0,0,0,0.2,0,0.3c0,0.5,0,3.9,0,3.9c0,0,0,0-0.1,0l-0.1,0v-4.2
		L625.3,53.8C625.2,53.8,625.3,53.8,625.3,53.8L625.3,53.8z M618.5,53.9c0,0.1,0,0.2,0,0.3c0,0.1,0,0.4,0,0.6c0,0.4,0,0.5-0.1,0.5
		c-0.1,0-0.1,0-0.1-0.1c0-0.1-0.1-1.4-0.1-1.4c0,0,0.1-0.1,0.2-0.1C618.4,53.8,618.5,53.9,618.5,53.9L618.5,53.9z M614.4,54.5
		c0,0.3,0.1,0.8,0.1,1.2c0,0.4,0.1,0.8,0.1,0.8c0,0-0.2,0.1-0.2,0.1c0,0-0.3-2.2-0.3-2.3c0-0.1,0.2-0.3,0.2-0.3
		C614.4,54.1,614.4,54.3,614.4,54.5L614.4,54.5z M624.1,54.8L624.1,54.8l0.1,0.6c0,0.3,0,0.6,0,0.7c0,0.2,0,0.3-0.2,0.2l-0.1,0v-0.2
		c0-0.1,0-0.5,0-0.8l0-0.5h0.1C624,54.8,624,54.8,624.1,54.8L624.1,54.8z M615.5,55.8c0,0.5,0.1,1.3,0.2,1.8l0.1,0.9l-0.1,0.1
		l-0.1,0.1l0-0.2c0-0.1-0.1-0.6-0.1-1.1c-0.1-0.5-0.1-1.2-0.2-1.6l-0.1-0.7l0.1-0.1c0.1-0.1,0.1-0.1,0.1,0
		C615.4,54.9,615.4,55.3,615.5,55.8L615.5,55.8z M613.6,56.1c0.1,0.5,0.2,1.8,0.3,2.9c0.1,1.1,0.2,2.1,0.3,2.3
		c0,0.2,0.1,0.5,0.1,0.7c0,0.3,0,0.3,0,0.3c-0.1,0-0.1,0-0.1,0c0,0,0-0.2,0-0.4c0-0.3-0.1-0.9-0.3-2.2c0-0.3-0.1-0.8-0.1-1.1
		c0-0.4-0.1-0.9-0.2-1.2c0-0.3-0.1-0.8-0.1-1.2c0-0.3-0.1-0.6-0.1-0.7c0-0.1,0.2-0.3,0.2-0.3C613.5,55.2,613.6,55.6,613.6,56.1
		L613.6,56.1z M612.9,57.1c0,0.3,0.1,0.8,0.2,1.2c0,0.4,0.1,0.8,0.1,1l0,0.3l-0.1,0c0,0-0.1,0-0.1,0c0,0,0-0.1,0-0.2
		c0-0.1-0.1-0.7-0.2-1.4l-0.2-1.2l0.1-0.2c0-0.1,0.1-0.2,0.1-0.2C612.8,56.6,612.9,56.8,612.9,57.1L612.9,57.1z M626.4,56.8
		c0,0,0,0.2,0,1.3v1.3h-0.1c-0.2,0-0.1,0-0.2-1.4l0-1.3h0.1C626.3,56.8,626.4,56.8,626.4,56.8L626.4,56.8z M621,57.2
		c0.6,0.1,1,0.2,1.5,0.5c0.3,0.2,0.5,0.3,0.8,0.6c0.5,0.5,0.8,0.9,1.1,1.5c0.4,0.9,0.6,1.7,0.8,3.8c0.1,0.9,0.2,2.6,0.2,3.3
		c0,0.2,0,0.5,0,0.7c0,0.4,0.1,0.4-0.3,0.6c-0.5,0.3-1,0.4-1.7,0.6c-0.8,0.2-1.4,0.3-2.2,0.3l-0.6,0l0-0.3c0-0.2,0-0.5,0-0.8
		c0.1-1.4,0.1-3.1,0-4.1c-0.1-0.6-0.2-1.2-0.2-1.4c0,0,0-0.1,0.3-0.1c0.4-0.2,0.8-0.3,0.9-0.4c0.1-0.2-0.1-0.4-0.3-0.4
		c0,0-0.2,0-0.3,0.1c-0.6,0.3-1.7,0.6-2.3,0.6c-0.4,0-1.1,0-1.6-0.1c-0.3,0-0.7-0.2-1.1-0.4c-0.4-0.2-0.7-0.5-0.8-0.9
		c0-0.2,0-0.6,0-0.8c0.1-0.2,0.2-0.6,0.4-0.8c0.7-0.9,2.1-1.7,3.6-2C619.8,57.2,620.5,57.2,621,57.2L621,57.2z M628.6,57.3
		c0.1,0,0.1,0,0.1,0.1c0,0.7,0,2.2,0,2.3c0,0-0.1,0-0.2,0c0,0,0-0.1,0-1.2c0-0.8,0-1.2,0-1.2C628.5,57.3,628.5,57.3,628.6,57.3
		L628.6,57.3z M629.7,58.7L629.7,58.7l0.1,2.1c0,2.6,0,2.7-0.1,2.9c-0.2,0.4-0.1,0.4-0.1-1.2c0-0.8,0-1.6,0-1.8s0-0.7,0-1.2
		c0-0.6,0-0.8,0-0.8C629.6,58.6,629.6,58.6,629.7,58.7L629.7,58.7z M614.9,59.3c0,0.2,0,0.2-0.1,0.4l-0.1,0.2l0-0.2
		c0-0.4,0-0.4,0-0.5c0,0,0.1,0,0.1,0C614.9,59.1,614.9,59.2,614.9,59.3L614.9,59.3z M613.4,60.8c0,0.2,0.2,1.5,0.3,2.2
		c0.1,1,0.1,1.2,0.1,1.1c0,0-0.1-0.3-0.1-0.8c-0.4-2.7-0.4-2.6-0.3-2.7C613.3,60.6,613.3,60.6,613.4,60.8L613.4,60.8z M615.1,61.9
		c0,0.1,0.1,0.7,0.1,0.8c0,0.1-0.1,0.1-0.1,0.1c0,0,0-0.2-0.1-0.5c0-0.2-0.1-0.5-0.1-0.6l0-0.1l0.1,0.1
		C615.1,61.8,615.1,61.9,615.1,61.9L615.1,61.9z M617.1,62.8c0,0,0,0.1,0.1,0.4c0,0.5,0,0.4-0.1,0.4c-0.1,0-0.1,0-0.1-0.4
		C617,62.8,617,62.8,617.1,62.8C617.1,62.8,617.1,62.8,617.1,62.8L617.1,62.8z M619.1,62.8c0,0,0,0.2,0,0.3c0,0.2,0,0.5,0,0.8
		c0.1,1,0.1,1.1,0,1.1c0,0-0.1,0-0.1-0.7c0-0.3-0.1-0.7-0.1-1c0-0.3,0-0.5,0-0.5C619,62.8,619.1,62.8,619.1,62.8z M614.4,63.3
		c0,0,0.1,0.8,0.2,1.9c0,0.3,0.1,0.6,0.1,0.7l0,0.1l-0.1,0c0,0-0.1-0.1-0.1-0.1c0-0.2-0.1-1.2-0.2-1.8
		C614.4,63.7,614.4,63.4,614.4,63.3C614.4,63.3,614.4,63.3,614.4,63.3L614.4,63.3z M628.6,64.3l0,1l-0.1,0.1
		c-0.1,0.2-0.1,0.2-0.1-0.9l0-1.1l0.1-0.1c0,0,0.1-0.1,0.1-0.1C628.6,63.3,628.6,63.8,628.6,64.3L628.6,64.3z M626.4,66
		c0,1.4,0,1.5,0,1.6c0,0,0,0-0.1,0c0,0,0-3.1,0-3.2c0,0,0,0,0.1,0C626.3,64.4,626.4,64.6,626.4,66L626.4,66z M618.3,65
		c0,0.2,0.1,0.9,0.1,1.2c0,0.2,0,0.2,0,0.3c0,0-0.1,0-0.1,0c0,0-0.1-0.6-0.1-1.4l0-0.2h0.1C618.3,64.9,618.3,64.9,618.3,65L618.3,65
		z M616.4,65.9c0,0,0,0.1,0,0.1c0,0.1,0,0.4,0.1,0.7c0.1,0.9,0.1,1.1,0.1,1c-0.1,0-0.1-0.1-0.1-0.1c0,0,0-0.1,0-0.3
		c0-0.1,0-0.4,0-0.5c0-0.1,0-0.4-0.1-0.6C616.3,65.9,616.3,65.8,616.4,65.9C616.3,65.8,616.4,65.8,616.4,65.9L616.4,65.9z
		 M617.6,67.5c0,0.1,0,0.3,0,0.4c0,0.4,0,0.4-0.1,0.3c0,0,0-0.1-0.1-0.4c-0.1-0.5-0.1-0.5,0-0.5C617.5,67.4,617.5,67.4,617.6,67.5z"
		/>
	<path class="st4" d="M616.7,58.4c-0.3,0.1-0.3,0.5,0,0.6c0.2,0.1,0.4,0,0.4-0.1C617.3,58.6,617,58.3,616.7,58.4L616.7,58.4z
		 M618.3,58.6c-0.2,0.1-0.2,0.5,0,0.6c0.2,0.1,0.5,0,0.5-0.3C618.9,58.7,618.6,58.5,618.3,58.6L618.3,58.6z"/>
</g>
<path id="PostUI" class="st4" d="M589,49.5h-3.4L579.9,60l5.7,10.5h3.4l5.7-10.5L589,49.5z M587.3,67.9l-4.2-7.9l4.2-7.9l4.2,7.9
	L587.3,67.9z"/>
<g>
	<circle class="st5" cx="655.3" cy="60" r="2"/>
	<g>
		<ellipse class="st6" cx="655.3" cy="60" rx="9.6" ry="3.7"/>
		<ellipse transform="matrix(0.866 -0.5 0.5 0.866 57.7929 335.6859)" class="st6" cx="655.3" cy="60" rx="3.7" ry="9.6"/>
		<ellipse transform="matrix(0.5 -0.866 0.866 0.5 275.6859 597.502)" class="st6" cx="655.3" cy="60" rx="9.6" ry="3.7"/>
	</g>
</g>
</svg>
