<?xml version="1.0" encoding="utf-8"?>
<!-- Generator: Adobe Illustrator 24.0.1, SVG Export Plug-In . SVG Version: 6.00 Build 0)  -->
<svg version="1.1" id="Layer_1" xmlns="http://www.w3.org/2000/svg" xmlns:xlink="http://www.w3.org/1999/xlink" x="0px" y="0px"
	 viewBox="0 0 715.3 324.2" style="enable-background:new 0 0 715.3 324.2;" xml:space="preserve">
<style type="text/css">
	.st0{fill:#AAAAAA;}
	.st1{fill:none;}
	.st2{fill:none;stroke:#D63369;stroke-width:3;stroke-miterlimit:10;}
</style>
<g id="Grid">
	<rect x="391.2" y="221.1" class="st0" width="1" height="1"/>
	<rect x="663.3" y="221.1" class="st0" width="1" height="1"/>
	<rect x="527.2" y="221.1" class="st0" width="1" height="1"/>
	<rect x="459.2" y="221.1" class="st0" width="1" height="1"/>
	<rect x="595.3" y="221.1" class="st0" width="1" height="1"/>
	<rect x="408.2" y="221.1" class="st0" width="1" height="1"/>
	<rect x="680.3" y="221.1" class="st0" width="1" height="1"/>
	<rect x="544.3" y="221.1" class="st0" width="1" height="1"/>
	<rect x="476.2" y="221.1" class="st0" width="1" height="1"/>
	<rect x="612.3" y="221.1" class="st0" width="1" height="1"/>
	<rect x="425.2" y="221.1" class="st0" width="1" height="1"/>
	<rect x="697.3" y="221.1" class="st0" width="1" height="1"/>
	<rect x="561.3" y="221.1" class="st0" width="1" height="1"/>
	<rect x="493.2" y="221.1" class="st0" width="1" height="1"/>
	<rect x="629.3" y="221.1" class="st0" width="1" height="1"/>
	<rect x="442.2" y="221.1" class="st0" width="1" height="1"/>
	<rect x="578.3" y="221.1" class="st0" width="1" height="1"/>
	<rect x="510.2" y="221.1" class="st0" width="1" height="1"/>
	<rect x="646.3" y="221.1" class="st0" width="1" height="1"/>
	<rect x="391.2" y="17" class="st0" width="1" height="1"/>
	<rect x="663.3" y="17" class="st0" width="1" height="1"/>
	<rect x="527.2" y="17" class="st0" width="1" height="1"/>
	<rect x="459.2" y="17" class="st0" width="1" height="1"/>
	<rect x="595.3" y="17" class="st0" width="1" height="1"/>
	<rect x="408.2" y="17" class="st0" width="1" height="1"/>
	<rect x="680.3" y="17" class="st0" width="1" height="1"/>
	<rect x="544.3" y="17" class="st0" width="1" height="1"/>
	<rect x="476.2" y="17" class="st0" width="1" height="1"/>
	<rect x="612.3" y="17" class="st0" width="1" height="1"/>
	<rect x="425.2" y="17" class="st0" width="1" height="1"/>
	<rect x="697.3" y="17" class="st0" width="1" height="1"/>
	<rect x="561.3" y="17" class="st0" width="1" height="1"/>
	<rect x="493.2" y="17" class="st0" width="1" height="1"/>
	<rect x="629.3" y="17" class="st0" width="1" height="1"/>
	<rect x="442.2" y="17" class="st0" width="1" height="1"/>
	<rect x="578.3" y="17" class="st0" width="1" height="1"/>
	<rect x="510.2" y="17" class="st0" width="1" height="1"/>
	<rect x="646.3" y="17" class="st0" width="1" height="1"/>
	<rect x="391.2" y="289.1" class="st0" width="1" height="1"/>
	<rect x="663.3" y="289.1" class="st0" width="1" height="1"/>
	<rect x="527.2" y="289.1" class="st0" width="1" height="1"/>
	<rect x="459.2" y="289.1" class="st0" width="1" height="1"/>
	<rect x="595.3" y="289.1" class="st0" width="1" height="1"/>
	<rect x="408.2" y="289.1" class="st0" width="1" height="1"/>
	<rect x="680.3" y="289.1" class="st0" width="1" height="1"/>
	<rect x="544.3" y="289.1" class="st0" width="1" height="1"/>
	<rect x="476.2" y="289.1" class="st0" width="1" height="1"/>
	<rect x="612.3" y="289.1" class="st0" width="1" height="1"/>
	<rect x="425.2" y="289.1" class="st0" width="1" height="1"/>
	<rect x="697.3" y="289.1" class="st0" width="1" height="1"/>
	<rect x="561.3" y="289.1" class="st0" width="1" height="1"/>
	<rect x="493.2" y="289.1" class="st0" width="1" height="1"/>
	<rect x="629.3" y="289.1" class="st0" width="1" height="1"/>
	<rect x="442.2" y="289.1" class="st0" width="1" height="1"/>
	<rect x="578.3" y="289.1" class="st0" width="1" height="1"/>
	<rect x="510.2" y="289.1" class="st0" width="1" height="1"/>
	<rect x="646.3" y="289.1" class="st0" width="1" height="1"/>
	<rect x="391.2" y="85" class="st0" width="1" height="1"/>
	<rect x="663.3" y="85" class="st0" width="1" height="1"/>
	<rect x="527.2" y="85" class="st0" width="1" height="1"/>
	<rect x="459.2" y="85" class="st0" width="1" height="1"/>
	<rect x="595.3" y="85" class="st0" width="1" height="1"/>
	<rect x="408.2" y="85" class="st0" width="1" height="1"/>
	<rect x="680.3" y="85" class="st0" width="1" height="1"/>
	<rect x="544.3" y="85" class="st0" width="1" height="1"/>
	<rect x="476.2" y="85" class="st0" width="1" height="1"/>
	<rect x="612.3" y="85" class="st0" width="1" height="1"/>
	<rect x="425.2" y="85" class="st0" width="1" height="1"/>
	<rect x="697.3" y="85" class="st0" width="1" height="1"/>
	<rect x="561.3" y="85" class="st0" width="1" height="1"/>
	<rect x="493.2" y="85" class="st0" width="1" height="1"/>
	<rect x="629.3" y="85" class="st0" width="1" height="1"/>
	<rect x="442.2" y="85" class="st0" width="1" height="1"/>
	<rect x="578.3" y="85" class="st0" width="1" height="1"/>
	<rect x="510.2" y="85" class="st0" width="1" height="1"/>
	<rect x="646.3" y="85" class="st0" width="1" height="1"/>
	<rect x="391.2" y="153.1" class="st0" width="1" height="1"/>
	<rect x="663.3" y="153.1" class="st0" width="1" height="1"/>
	<rect x="527.2" y="153.1" class="st0" width="1" height="1"/>
	<rect x="459.2" y="153.1" class="st0" width="1" height="1"/>
	<rect x="595.3" y="153.1" class="st0" width="1" height="1"/>
	<rect x="408.2" y="153.1" class="st0" width="1" height="1"/>
	<rect x="680.3" y="153.1" class="st0" width="1" height="1"/>
	<rect x="544.3" y="153.1" class="st0" width="1" height="1"/>
	<rect x="476.2" y="153.1" class="st0" width="1" height="1"/>
	<rect x="612.3" y="153.1" class="st0" width="1" height="1"/>
	<rect x="425.2" y="153.1" class="st0" width="1" height="1"/>
	<rect x="697.3" y="153.1" class="st0" width="1" height="1"/>
	<rect x="561.3" y="153.1" class="st0" width="1" height="1"/>
	<rect x="493.2" y="153.1" class="st0" width="1" height="1"/>
	<rect x="629.3" y="153.1" class="st0" width="1" height="1"/>
	<rect x="442.2" y="153.1" class="st0" width="1" height="1"/>
	<rect x="578.3" y="153.1" class="st0" width="1" height="1"/>
	<rect x="510.2" y="153.1" class="st0" width="1" height="1"/>
	<rect x="646.3" y="153.1" class="st0" width="1" height="1"/>
	<rect x="391.2" y="238.1" class="st0" width="1" height="1"/>
	<rect x="663.3" y="238.1" class="st0" width="1" height="1"/>
	<rect x="527.2" y="238.1" class="st0" width="1" height="1"/>
	<rect x="459.2" y="238.1" class="st0" width="1" height="1"/>
	<rect x="595.3" y="238.1" class="st0" width="1" height="1"/>
	<rect x="408.2" y="238.1" class="st0" width="1" height="1"/>
	<rect x="680.3" y="238.1" class="st0" width="1" height="1"/>
	<rect x="544.3" y="238.1" class="st0" width="1" height="1"/>
	<rect x="476.2" y="238.1" class="st0" width="1" height="1"/>
	<rect x="612.3" y="238.1" class="st0" width="1" height="1"/>
	<rect x="425.2" y="238.1" class="st0" width="1" height="1"/>
	<rect x="697.3" y="238.1" class="st0" width="1" height="1"/>
	<rect x="561.3" y="238.1" class="st0" width="1" height="1"/>
	<rect x="493.2" y="238.1" class="st0" width="1" height="1"/>
	<rect x="629.3" y="238.1" class="st0" width="1" height="1"/>
	<rect x="442.2" y="238.1" class="st0" width="1" height="1"/>
	<rect x="578.3" y="238.1" class="st0" width="1" height="1"/>
	<rect x="510.2" y="238.1" class="st0" width="1" height="1"/>
	<rect x="646.3" y="238.1" class="st0" width="1" height="1"/>
	<rect x="391.2" y="34" class="st0" width="1" height="1"/>
	<rect x="663.3" y="34" class="st0" width="1" height="1"/>
	<rect x="527.2" y="34" class="st0" width="1" height="1"/>
	<rect x="459.2" y="34" class="st0" width="1" height="1"/>
	<rect x="595.3" y="34" class="st0" width="1" height="1"/>
	<rect x="408.2" y="34" class="st0" width="1" height="1"/>
	<rect x="680.3" y="34" class="st0" width="1" height="1"/>
	<rect x="544.3" y="34" class="st0" width="1" height="1"/>
	<rect x="476.2" y="34" class="st0" width="1" height="1"/>
	<rect x="612.3" y="34" class="st0" width="1" height="1"/>
	<rect x="425.2" y="34" class="st0" width="1" height="1"/>
	<rect x="697.3" y="34" class="st0" width="1" height="1"/>
	<rect x="561.3" y="34" class="st0" width="1" height="1"/>
	<rect x="493.2" y="34" class="st0" width="1" height="1"/>
	<rect x="629.3" y="34" class="st0" width="1" height="1"/>
	<rect x="442.2" y="34" class="st0" width="1" height="1"/>
	<rect x="578.3" y="34" class="st0" width="1" height="1"/>
	<rect x="510.2" y="34" class="st0" width="1" height="1"/>
	<rect x="646.3" y="34" class="st0" width="1" height="1"/>
	<rect x="391.2" y="306.2" class="st0" width="1" height="1"/>
	<rect x="663.3" y="306.2" class="st0" width="1" height="1"/>
	<rect x="527.2" y="306.2" class="st0" width="1" height="1"/>
	<rect x="459.2" y="306.2" class="st0" width="1" height="1"/>
	<rect x="595.3" y="306.2" class="st0" width="1" height="1"/>
	<rect x="408.2" y="306.2" class="st0" width="1" height="1"/>
	<rect x="680.3" y="306.2" class="st0" width="1" height="1"/>
	<rect x="544.3" y="306.2" class="st0" width="1" height="1"/>
	<rect x="476.2" y="306.2" class="st0" width="1" height="1"/>
	<rect x="612.3" y="306.2" class="st0" width="1" height="1"/>
	<rect x="425.2" y="306.2" class="st0" width="1" height="1"/>
	<rect x="697.3" y="306.2" class="st0" width="1" height="1"/>
	<rect x="561.3" y="306.2" class="st0" width="1" height="1"/>
	<rect x="493.2" y="306.2" class="st0" width="1" height="1"/>
	<rect x="629.3" y="306.2" class="st0" width="1" height="1"/>
	<rect x="442.2" y="306.2" class="st0" width="1" height="1"/>
	<rect x="578.3" y="306.2" class="st0" width="1" height="1"/>
	<rect x="510.2" y="306.2" class="st0" width="1" height="1"/>
	<rect x="646.3" y="306.2" class="st0" width="1" height="1"/>
	<rect x="391.2" y="102.1" class="st0" width="1" height="1"/>
	<rect x="663.3" y="102.1" class="st0" width="1" height="1"/>
	<rect x="527.2" y="102.1" class="st0" width="1" height="1"/>
	<rect x="459.2" y="102.1" class="st0" width="1" height="1"/>
	<rect x="595.3" y="102.1" class="st0" width="1" height="1"/>
	<rect x="408.2" y="102.1" class="st0" width="1" height="1"/>
	<rect x="680.3" y="102.1" class="st0" width="1" height="1"/>
	<rect x="544.3" y="102.1" class="st0" width="1" height="1"/>
	<rect x="476.2" y="102.1" class="st0" width="1" height="1"/>
	<rect x="612.3" y="102.1" class="st0" width="1" height="1"/>
	<rect x="425.2" y="102.1" class="st0" width="1" height="1"/>
	<rect x="697.3" y="102.1" class="st0" width="1" height="1"/>
	<rect x="561.3" y="102.1" class="st0" width="1" height="1"/>
	<rect x="493.2" y="102.1" class="st0" width="1" height="1"/>
	<rect x="629.3" y="102.1" class="st0" width="1" height="1"/>
	<rect x="442.2" y="102.1" class="st0" width="1" height="1"/>
	<rect x="578.3" y="102.1" class="st0" width="1" height="1"/>
	<rect x="510.2" y="102.1" class="st0" width="1" height="1"/>
	<rect x="646.3" y="102.1" class="st0" width="1" height="1"/>
	<rect x="391.2" y="170.1" class="st0" width="1" height="1"/>
	<rect x="663.3" y="170.1" class="st0" width="1" height="1"/>
	<rect x="527.2" y="170.1" class="st0" width="1" height="1"/>
	<rect x="459.2" y="170.1" class="st0" width="1" height="1"/>
	<rect x="595.3" y="170.1" class="st0" width="1" height="1"/>
	<rect x="408.2" y="170.1" class="st0" width="1" height="1"/>
	<rect x="680.3" y="170.1" class="st0" width="1" height="1"/>
	<rect x="544.3" y="170.1" class="st0" width="1" height="1"/>
	<rect x="476.2" y="170.1" class="st0" width="1" height="1"/>
	<rect x="612.3" y="170.1" class="st0" width="1" height="1"/>
	<rect x="425.2" y="170.1" class="st0" width="1" height="1"/>
	<rect x="697.3" y="170.1" class="st0" width="1" height="1"/>
	<rect x="561.3" y="170.1" class="st0" width="1" height="1"/>
	<rect x="493.2" y="170.1" class="st0" width="1" height="1"/>
	<rect x="629.3" y="170.1" class="st0" width="1" height="1"/>
	<rect x="442.2" y="170.1" class="st0" width="1" height="1"/>
	<rect x="578.3" y="170.1" class="st0" width="1" height="1"/>
	<rect x="510.2" y="170.1" class="st0" width="1" height="1"/>
	<rect x="646.3" y="170.1" class="st0" width="1" height="1"/>
	<rect x="391.2" y="255.1" class="st0" width="1" height="1"/>
	<rect x="663.3" y="255.1" class="st0" width="1" height="1"/>
	<rect x="527.2" y="255.1" class="st0" width="1" height="1"/>
	<rect x="459.2" y="255.1" class="st0" width="1" height="1"/>
	<rect x="595.3" y="255.1" class="st0" width="1" height="1"/>
	<rect x="408.2" y="255.1" class="st0" width="1" height="1"/>
	<rect x="680.3" y="255.1" class="st0" width="1" height="1"/>
	<rect x="544.3" y="255.1" class="st0" width="1" height="1"/>
	<rect x="476.2" y="255.1" class="st0" width="1" height="1"/>
	<rect x="612.3" y="255.1" class="st0" width="1" height="1"/>
	<rect x="425.2" y="255.1" class="st0" width="1" height="1"/>
	<rect x="697.3" y="255.1" class="st0" width="1" height="1"/>
	<rect x="561.3" y="255.1" class="st0" width="1" height="1"/>
	<rect x="493.2" y="255.1" class="st0" width="1" height="1"/>
	<rect x="629.3" y="255.1" class="st0" width="1" height="1"/>
	<rect x="442.2" y="255.1" class="st0" width="1" height="1"/>
	<rect x="578.3" y="255.1" class="st0" width="1" height="1"/>
	<rect x="510.2" y="255.1" class="st0" width="1" height="1"/>
	<rect x="646.3" y="255.1" class="st0" width="1" height="1"/>
	<rect x="391.2" y="51" class="st0" width="1" height="1"/>
	<rect x="663.3" y="51" class="st0" width="1" height="1"/>
	<rect x="527.2" y="51" class="st0" width="1" height="1"/>
	<rect x="459.2" y="51" class="st0" width="1" height="1"/>
	<rect x="595.3" y="51" class="st0" width="1" height="1"/>
	<rect x="408.2" y="51" class="st0" width="1" height="1"/>
	<rect x="680.3" y="51" class="st0" width="1" height="1"/>
	<rect x="544.3" y="51" class="st0" width="1" height="1"/>
	<rect x="476.2" y="51" class="st0" width="1" height="1"/>
	<rect x="612.3" y="51" class="st0" width="1" height="1"/>
	<rect x="425.2" y="51" class="st0" width="1" height="1"/>
	<rect x="697.3" y="51" class="st0" width="1" height="1"/>
	<rect x="561.3" y="51" class="st0" width="1" height="1"/>
	<rect x="493.2" y="51" class="st0" width="1" height="1"/>
	<rect x="629.3" y="51" class="st0" width="1" height="1"/>
	<rect x="442.2" y="51" class="st0" width="1" height="1"/>
	<rect x="578.3" y="51" class="st0" width="1" height="1"/>
	<rect x="510.2" y="51" class="st0" width="1" height="1"/>
	<rect x="646.3" y="51" class="st0" width="1" height="1"/>
	<rect x="391.2" y="119.1" class="st0" width="1" height="1"/>
	<rect x="663.3" y="119.1" class="st0" width="1" height="1"/>
	<rect x="527.2" y="119.1" class="st0" width="1" height="1"/>
	<rect x="459.2" y="119.1" class="st0" width="1" height="1"/>
	<rect x="595.3" y="119.1" class="st0" width="1" height="1"/>
	<rect x="408.2" y="119.1" class="st0" width="1" height="1"/>
	<rect x="680.3" y="119.1" class="st0" width="1" height="1"/>
	<rect x="544.3" y="119.1" class="st0" width="1" height="1"/>
	<rect x="476.2" y="119.1" class="st0" width="1" height="1"/>
	<rect x="612.3" y="119.1" class="st0" width="1" height="1"/>
	<rect x="425.2" y="119.1" class="st0" width="1" height="1"/>
	<rect x="697.3" y="119.1" class="st0" width="1" height="1"/>
	<rect x="561.3" y="119.1" class="st0" width="1" height="1"/>
	<rect x="493.2" y="119.1" class="st0" width="1" height="1"/>
	<rect x="629.3" y="119.1" class="st0" width="1" height="1"/>
	<rect x="442.2" y="119.1" class="st0" width="1" height="1"/>
	<rect x="578.3" y="119.1" class="st0" width="1" height="1"/>
	<rect x="510.2" y="119.1" class="st0" width="1" height="1"/>
	<rect x="646.3" y="119.1" class="st0" width="1" height="1"/>
	<rect x="391.2" y="187.1" class="st0" width="1" height="1"/>
	<rect x="663.3" y="187.1" class="st0" width="1" height="1"/>
	<rect x="527.2" y="187.1" class="st0" width="1" height="1"/>
	<rect x="459.2" y="187.1" class="st0" width="1" height="1"/>
	<rect x="595.3" y="187.1" class="st0" width="1" height="1"/>
	<rect x="408.2" y="187.1" class="st0" width="1" height="1"/>
	<rect x="680.3" y="187.1" class="st0" width="1" height="1"/>
	<rect x="544.3" y="187.1" class="st0" width="1" height="1"/>
	<rect x="476.2" y="187.1" class="st0" width="1" height="1"/>
	<rect x="612.3" y="187.1" class="st0" width="1" height="1"/>
	<rect x="425.2" y="187.1" class="st0" width="1" height="1"/>
	<rect x="697.3" y="187.1" class="st0" width="1" height="1"/>
	<rect x="561.3" y="187.1" class="st0" width="1" height="1"/>
	<rect x="493.2" y="187.1" class="st0" width="1" height="1"/>
	<rect x="629.3" y="187.1" class="st0" width="1" height="1"/>
	<rect x="442.2" y="187.1" class="st0" width="1" height="1"/>
	<rect x="578.3" y="187.1" class="st0" width="1" height="1"/>
	<rect x="510.2" y="187.1" class="st0" width="1" height="1"/>
	<rect x="646.3" y="187.1" class="st0" width="1" height="1"/>
	<rect x="391.2" y="272.1" class="st0" width="1" height="1"/>
	<rect x="663.3" y="272.1" class="st0" width="1" height="1"/>
	<rect x="527.2" y="272.1" class="st0" width="1" height="1"/>
	<rect x="459.2" y="272.1" class="st0" width="1" height="1"/>
	<rect x="595.3" y="272.1" class="st0" width="1" height="1"/>
	<rect x="408.2" y="272.1" class="st0" width="1" height="1"/>
	<rect x="680.3" y="272.1" class="st0" width="1" height="1"/>
	<rect x="544.3" y="272.1" class="st0" width="1" height="1"/>
	<rect x="476.2" y="272.1" class="st0" width="1" height="1"/>
	<rect x="612.3" y="272.1" class="st0" width="1" height="1"/>
	<rect x="425.2" y="272.1" class="st0" width="1" height="1"/>
	<rect x="697.3" y="272.1" class="st0" width="1" height="1"/>
	<rect x="561.3" y="272.1" class="st0" width="1" height="1"/>
	<rect x="493.2" y="272.1" class="st0" width="1" height="1"/>
	<rect x="629.3" y="272.1" class="st0" width="1" height="1"/>
	<rect x="442.2" y="272.1" class="st0" width="1" height="1"/>
	<rect x="578.3" y="272.1" class="st0" width="1" height="1"/>
	<rect x="510.2" y="272.1" class="st0" width="1" height="1"/>
	<rect x="646.3" y="272.1" class="st0" width="1" height="1"/>
	<rect x="391.2" y="68" class="st0" width="1" height="1"/>
	<rect x="663.3" y="68" class="st0" width="1" height="1"/>
	<rect x="527.2" y="68" class="st0" width="1" height="1"/>
	<rect x="459.2" y="68" class="st0" width="1" height="1"/>
	<rect x="595.3" y="68" class="st0" width="1" height="1"/>
	<rect x="408.2" y="68" class="st0" width="1" height="1"/>
	<rect x="680.3" y="68" class="st0" width="1" height="1"/>
	<rect x="544.3" y="68" class="st0" width="1" height="1"/>
	<rect x="476.2" y="68" class="st0" width="1" height="1"/>
	<rect x="612.3" y="68" class="st0" width="1" height="1"/>
	<rect x="425.2" y="68" class="st0" width="1" height="1"/>
	<rect x="697.3" y="68" class="st0" width="1" height="1"/>
	<rect x="561.3" y="68" class="st0" width="1" height="1"/>
	<rect x="493.2" y="68" class="st0" width="1" height="1"/>
	<rect x="629.3" y="68" class="st0" width="1" height="1"/>
	<rect x="442.2" y="68" class="st0" width="1" height="1"/>
	<rect x="578.3" y="68" class="st0" width="1" height="1"/>
	<rect x="510.2" y="68" class="st0" width="1" height="1"/>
	<rect x="646.3" y="68" class="st0" width="1" height="1"/>
	<rect x="391.2" y="136.1" class="st0" width="1" height="1"/>
	<rect x="663.3" y="136.1" class="st0" width="1" height="1"/>
	<rect x="527.2" y="136.1" class="st0" width="1" height="1"/>
	<rect x="459.2" y="136.1" class="st0" width="1" height="1"/>
	<rect x="595.3" y="136.1" class="st0" width="1" height="1"/>
	<rect x="408.2" y="136.1" class="st0" width="1" height="1"/>
	<rect x="680.3" y="136.1" class="st0" width="1" height="1"/>
	<rect x="544.3" y="136.1" class="st0" width="1" height="1"/>
	<rect x="476.2" y="136.1" class="st0" width="1" height="1"/>
	<rect x="612.3" y="136.1" class="st0" width="1" height="1"/>
	<rect x="425.2" y="136.1" class="st0" width="1" height="1"/>
	<rect x="697.3" y="136.1" class="st0" width="1" height="1"/>
	<rect x="561.3" y="136.1" class="st0" width="1" height="1"/>
	<rect x="493.2" y="136.1" class="st0" width="1" height="1"/>
	<rect x="629.3" y="136.1" class="st0" width="1" height="1"/>
	<rect x="442.2" y="136.1" class="st0" width="1" height="1"/>
	<rect x="578.3" y="136.1" class="st0" width="1" height="1"/>
	<rect x="510.2" y="136.1" class="st0" width="1" height="1"/>
	<rect x="646.3" y="136.1" class="st0" width="1" height="1"/>
	<rect x="391.2" y="204.1" class="st0" width="1" height="1"/>
	<rect x="663.3" y="204.1" class="st0" width="1" height="1"/>
	<rect x="527.2" y="204.1" class="st0" width="1" height="1"/>
	<rect x="459.2" y="204.1" class="st0" width="1" height="1"/>
	<rect x="595.3" y="204.1" class="st0" width="1" height="1"/>
	<rect x="408.2" y="204.1" class="st0" width="1" height="1"/>
	<rect x="680.3" y="204.1" class="st0" width="1" height="1"/>
	<rect x="544.3" y="204.1" class="st0" width="1" height="1"/>
	<rect x="476.2" y="204.1" class="st0" width="1" height="1"/>
	<rect x="612.3" y="204.1" class="st0" width="1" height="1"/>
	<rect x="425.2" y="204.1" class="st0" width="1" height="1"/>
	<rect x="697.3" y="204.1" class="st0" width="1" height="1"/>
	<rect x="561.3" y="204.1" class="st0" width="1" height="1"/>
	<rect x="493.2" y="204.1" class="st0" width="1" height="1"/>
	<rect x="629.3" y="204.1" class="st0" width="1" height="1"/>
	<rect x="442.2" y="204.1" class="st0" width="1" height="1"/>
	<rect x="578.3" y="204.1" class="st0" width="1" height="1"/>
	<rect x="510.2" y="204.1" class="st0" width="1" height="1"/>
	<rect x="646.3" y="204.1" class="st0" width="1" height="1"/>
	<rect x="255.1" y="221.1" class="st0" width="1" height="1"/>
	<rect x="119.1" y="221.1" class="st0" width="1" height="1"/>
	<rect x="51" y="221.1" class="st0" width="1" height="1"/>
	<rect x="323.2" y="221.1" class="st0" width="1" height="1"/>
	<rect x="187.1" y="221.1" class="st0" width="1" height="1"/>
	<rect x="272.1" y="221.1" class="st0" width="1" height="1"/>
	<rect x="136.1" y="221.1" class="st0" width="1" height="1"/>
	<rect x="68" y="221.1" class="st0" width="1" height="1"/>
	<rect x="340.2" y="221.1" class="st0" width="1" height="1"/>
	<rect x="204.1" y="221.1" class="st0" width="1" height="1"/>
	<rect x="17" y="221.1" class="st0" width="1" height="1"/>
	<rect x="289.1" y="221.1" class="st0" width="1" height="1"/>
	<rect x="153.1" y="221.1" class="st0" width="1" height="1"/>
	<rect x="85" y="221.1" class="st0" width="1" height="1"/>
	<rect x="357.2" y="221.1" class="st0" width="1" height="1"/>
	<rect x="221.1" y="221.1" class="st0" width="1" height="1"/>
	<rect x="34" y="221.1" class="st0" width="1" height="1"/>
	<rect x="306.1" y="221.1" class="st0" width="1" height="1"/>
	<rect x="170.1" y="221.1" class="st0" width="1" height="1"/>
	<rect x="102.1" y="221.1" class="st0" width="1" height="1"/>
	<rect x="374.2" y="221.1" class="st0" width="1" height="1"/>
	<rect x="238.1" y="221.1" class="st0" width="1" height="1"/>
	<rect x="255.1" y="17" class="st0" width="1" height="1"/>
	<rect x="119.1" y="17" class="st0" width="1" height="1"/>
	<rect x="51" y="17" class="st0" width="1" height="1"/>
	<rect x="323.2" y="17" class="st0" width="1" height="1"/>
	<rect x="187.1" y="17" class="st0" width="1" height="1"/>
	<rect x="272.1" y="17" class="st0" width="1" height="1"/>
	<rect x="136.1" y="17" class="st0" width="1" height="1"/>
	<rect x="68" y="17" class="st0" width="1" height="1"/>
	<rect x="340.2" y="17" class="st0" width="1" height="1"/>
	<rect x="204.1" y="17" class="st0" width="1" height="1"/>
	<rect x="17" y="17" class="st0" width="1" height="1"/>
	<rect x="289.1" y="17" class="st0" width="1" height="1"/>
	<rect x="153.1" y="17" class="st0" width="1" height="1"/>
	<rect x="85" y="17" class="st0" width="1" height="1"/>
	<rect x="357.2" y="17" class="st0" width="1" height="1"/>
	<rect x="221.1" y="17" class="st0" width="1" height="1"/>
	<rect x="34" y="17" class="st0" width="1" height="1"/>
	<rect x="306.1" y="17" class="st0" width="1" height="1"/>
	<rect x="170.1" y="17" class="st0" width="1" height="1"/>
	<rect x="102.1" y="17" class="st0" width="1" height="1"/>
	<rect x="374.2" y="17" class="st0" width="1" height="1"/>
	<rect x="238.1" y="17" class="st0" width="1" height="1"/>
	<rect x="255.1" y="289.1" class="st0" width="1" height="1"/>
	<rect x="119.1" y="289.1" class="st0" width="1" height="1"/>
	<rect x="51" y="289.1" class="st0" width="1" height="1"/>
	<rect x="323.2" y="289.1" class="st0" width="1" height="1"/>
	<rect x="187.1" y="289.1" class="st0" width="1" height="1"/>
	<rect x="272.1" y="289.1" class="st0" width="1" height="1"/>
	<rect x="136.1" y="289.1" class="st0" width="1" height="1"/>
	<rect x="68" y="289.1" class="st0" width="1" height="1"/>
	<rect x="340.2" y="289.1" class="st0" width="1" height="1"/>
	<rect x="204.1" y="289.1" class="st0" width="1" height="1"/>
	<rect x="17" y="289.1" class="st0" width="1" height="1"/>
	<rect x="289.1" y="289.1" class="st0" width="1" height="1"/>
	<rect x="153.1" y="289.1" class="st0" width="1" height="1"/>
	<rect x="85" y="289.1" class="st0" width="1" height="1"/>
	<rect x="357.2" y="289.1" class="st0" width="1" height="1"/>
	<rect x="221.1" y="289.1" class="st0" width="1" height="1"/>
	<rect x="34" y="289.1" class="st0" width="1" height="1"/>
	<rect x="306.1" y="289.1" class="st0" width="1" height="1"/>
	<rect x="170.1" y="289.1" class="st0" width="1" height="1"/>
	<rect x="102.1" y="289.1" class="st0" width="1" height="1"/>
	<rect x="374.2" y="289.1" class="st0" width="1" height="1"/>
	<rect x="238.1" y="289.1" class="st0" width="1" height="1"/>
	<rect x="255.1" y="85" class="st0" width="1" height="1"/>
	<rect x="119.1" y="85" class="st0" width="1" height="1"/>
	<rect x="51" y="85" class="st0" width="1" height="1"/>
	<rect x="323.2" y="85" class="st0" width="1" height="1"/>
	<rect x="187.1" y="85" class="st0" width="1" height="1"/>
	<rect x="272.1" y="85" class="st0" width="1" height="1"/>
	<rect x="136.1" y="85" class="st0" width="1" height="1"/>
	<rect x="68" y="85" class="st0" width="1" height="1"/>
	<rect x="340.2" y="85" class="st0" width="1" height="1"/>
	<rect x="204.1" y="85" class="st0" width="1" height="1"/>
	<rect x="17" y="85" class="st0" width="1" height="1"/>
	<rect x="289.1" y="85" class="st0" width="1" height="1"/>
	<rect x="153.1" y="85" class="st0" width="1" height="1"/>
	<rect x="85" y="85" class="st0" width="1" height="1"/>
	<rect x="357.2" y="85" class="st0" width="1" height="1"/>
	<rect x="221.1" y="85" class="st0" width="1" height="1"/>
	<rect x="34" y="85" class="st0" width="1" height="1"/>
	<rect x="306.1" y="85" class="st0" width="1" height="1"/>
	<rect x="170.1" y="85" class="st0" width="1" height="1"/>
	<rect x="102.1" y="85" class="st0" width="1" height="1"/>
	<rect x="374.2" y="85" class="st0" width="1" height="1"/>
	<rect x="238.1" y="85" class="st0" width="1" height="1"/>
	<rect x="255.1" y="153.1" class="st0" width="1" height="1"/>
	<rect x="119.1" y="153.1" class="st0" width="1" height="1"/>
	<rect x="51" y="153.1" class="st0" width="1" height="1"/>
	<rect x="323.2" y="153.1" class="st0" width="1" height="1"/>
	<rect x="187.1" y="153.1" class="st0" width="1" height="1"/>
	<rect x="272.1" y="153.1" class="st0" width="1" height="1"/>
	<rect x="136.1" y="153.1" class="st0" width="1" height="1"/>
	<rect x="68" y="153.1" class="st0" width="1" height="1"/>
	<rect x="340.2" y="153.1" class="st1" width="1" height="1"/>
	<rect x="204.1" y="153.1" class="st0" width="1" height="1"/>
	<rect x="17" y="153.1" class="st0" width="1" height="1"/>
	<rect x="289.1" y="153.1" class="st0" width="1" height="1"/>
	<rect x="153.1" y="153.1" class="st0" width="1" height="1"/>
	<rect x="85" y="153.1" class="st0" width="1" height="1"/>
	<rect x="357.2" y="153.1" class="st0" width="1" height="1"/>
	<rect x="221.1" y="153.1" class="st0" width="1" height="1"/>
	<rect x="34" y="153.1" class="st0" width="1" height="1"/>
	<rect x="306.1" y="153.1" class="st0" width="1" height="1"/>
	<rect x="170.1" y="153.1" class="st0" width="1" height="1"/>
	<rect x="102.1" y="153.1" class="st0" width="1" height="1"/>
	<rect x="374.2" y="153.1" class="st1" width="1" height="1"/>
	<rect x="238.1" y="153.1" class="st0" width="1" height="1"/>
	<rect x="255.1" y="238.1" class="st0" width="1" height="1"/>
	<rect x="119.1" y="238.1" class="st0" width="1" height="1"/>
	<rect x="51" y="238.1" class="st0" width="1" height="1"/>
	<rect x="323.2" y="238.1" class="st0" width="1" height="1"/>
	<rect x="187.1" y="238.1" class="st0" width="1" height="1"/>
	<rect x="272.1" y="238.1" class="st0" width="1" height="1"/>
	<rect x="136.1" y="238.1" class="st0" width="1" height="1"/>
	<rect x="68" y="238.1" class="st0" width="1" height="1"/>
	<rect x="340.2" y="238.1" class="st0" width="1" height="1"/>
	<rect x="204.1" y="238.1" class="st0" width="1" height="1"/>
	<rect x="17" y="238.1" class="st0" width="1" height="1"/>
	<rect x="289.1" y="238.1" class="st0" width="1" height="1"/>
	<rect x="153.1" y="238.1" class="st0" width="1" height="1"/>
	<rect x="85" y="238.1" class="st0" width="1" height="1"/>
	<rect x="357.2" y="238.1" class="st0" width="1" height="1"/>
	<rect x="221.1" y="238.1" class="st0" width="1" height="1"/>
	<rect x="34" y="238.1" class="st0" width="1" height="1"/>
	<rect x="306.1" y="238.1" class="st0" width="1" height="1"/>
	<rect x="170.1" y="238.1" class="st0" width="1" height="1"/>
	<rect x="102.1" y="238.1" class="st0" width="1" height="1"/>
	<rect x="374.2" y="238.1" class="st0" width="1" height="1"/>
	<rect x="238.1" y="238.1" class="st0" width="1" height="1"/>
	<rect x="255.1" y="34" class="st0" width="1" height="1"/>
	<rect x="119.1" y="34" class="st0" width="1" height="1"/>
	<rect x="51" y="34" class="st0" width="1" height="1"/>
	<rect x="323.2" y="34" class="st0" width="1" height="1"/>
	<rect x="187.1" y="34" class="st0" width="1" height="1"/>
	<rect x="272.1" y="34" class="st0" width="1" height="1"/>
	<rect x="136.1" y="34" class="st0" width="1" height="1"/>
	<rect x="68" y="34" class="st0" width="1" height="1"/>
	<rect x="340.2" y="34" class="st0" width="1" height="1"/>
	<rect x="204.1" y="34" class="st0" width="1" height="1"/>
	<rect x="17" y="34" class="st0" width="1" height="1"/>
	<rect x="289.1" y="34" class="st0" width="1" height="1"/>
	<rect x="153.1" y="34" class="st0" width="1" height="1"/>
	<rect x="85" y="34" class="st0" width="1" height="1"/>
	<rect x="357.2" y="34" class="st0" width="1" height="1"/>
	<rect x="221.1" y="34" class="st0" width="1" height="1"/>
	<rect x="34" y="34" class="st0" width="1" height="1"/>
	<rect x="306.1" y="34" class="st0" width="1" height="1"/>
	<rect x="170.1" y="34" class="st0" width="1" height="1"/>
	<rect x="102.1" y="34" class="st0" width="1" height="1"/>
	<rect x="374.2" y="34" class="st0" width="1" height="1"/>
	<rect x="238.1" y="34" class="st0" width="1" height="1"/>
	<rect x="255.1" y="306.2" class="st0" width="1" height="1"/>
	<rect x="119.1" y="306.2" class="st0" width="1" height="1"/>
	<rect x="51" y="306.2" class="st0" width="1" height="1"/>
	<rect x="323.2" y="306.2" class="st0" width="1" height="1"/>
	<rect x="187.1" y="306.2" class="st0" width="1" height="1"/>
	<rect x="272.1" y="306.2" class="st0" width="1" height="1"/>
	<rect x="136.1" y="306.2" class="st0" width="1" height="1"/>
	<rect x="68" y="306.2" class="st0" width="1" height="1"/>
	<rect x="340.2" y="306.2" class="st0" width="1" height="1"/>
	<rect x="204.1" y="306.2" class="st0" width="1" height="1"/>
	<rect x="17" y="306.2" class="st0" width="1" height="1"/>
	<rect x="289.1" y="306.2" class="st0" width="1" height="1"/>
	<rect x="153.1" y="306.2" class="st0" width="1" height="1"/>
	<rect x="85" y="306.2" class="st0" width="1" height="1"/>
	<rect x="357.2" y="306.2" class="st0" width="1" height="1"/>
	<rect x="221.1" y="306.2" class="st0" width="1" height="1"/>
	<rect x="34" y="306.2" class="st0" width="1" height="1"/>
	<rect x="306.1" y="306.2" class="st0" width="1" height="1"/>
	<rect x="170.1" y="306.2" class="st0" width="1" height="1"/>
	<rect x="102.1" y="306.2" class="st0" width="1" height="1"/>
	<rect x="374.2" y="306.2" class="st0" width="1" height="1"/>
	<rect x="238.1" y="306.2" class="st0" width="1" height="1"/>
	<rect x="255.1" y="102.1" class="st0" width="1" height="1"/>
	<rect x="119.1" y="102.1" class="st0" width="1" height="1"/>
	<rect x="51" y="102.1" class="st0" width="1" height="1"/>
	<rect x="323.2" y="102.1" class="st0" width="1" height="1"/>
	<rect x="187.1" y="102.1" class="st0" width="1" height="1"/>
	<rect x="272.1" y="102.1" class="st0" width="1" height="1"/>
	<rect x="136.1" y="102.1" class="st0" width="1" height="1"/>
	<rect x="68" y="102.1" class="st0" width="1" height="1"/>
	<rect x="340.2" y="102.1" class="st0" width="1" height="1"/>
	<rect x="204.1" y="102.1" class="st0" width="1" height="1"/>
	<rect x="17" y="102.1" class="st0" width="1" height="1"/>
	<rect x="289.1" y="102.1" class="st0" width="1" height="1"/>
	<rect x="153.1" y="102.1" class="st0" width="1" height="1"/>
	<rect x="85" y="102.1" class="st0" width="1" height="1"/>
	<rect x="357.2" y="102.1" class="st0" width="1" height="1"/>
	<rect x="221.1" y="102.1" class="st0" width="1" height="1"/>
	<rect x="34" y="102.1" class="st0" width="1" height="1"/>
	<rect x="306.1" y="102.1" class="st0" width="1" height="1"/>
	<rect x="170.1" y="102.1" class="st0" width="1" height="1"/>
	<rect x="102.1" y="102.1" class="st0" width="1" height="1"/>
	<rect x="374.2" y="102.1" class="st0" width="1" height="1"/>
	<rect x="238.1" y="102.1" class="st0" width="1" height="1"/>
	<rect x="255.1" y="170.1" class="st0" width="1" height="1"/>
	<rect x="119.1" y="170.1" class="st0" width="1" height="1"/>
	<rect x="51" y="170.1" class="st0" width="1" height="1"/>
	<rect x="323.2" y="170.1" class="st1" width="1" height="1"/>
	<rect x="187.1" y="170.1" class="st0" width="1" height="1"/>
	<rect x="272.1" y="170.1" class="st0" width="1" height="1"/>
	<rect x="136.1" y="170.1" class="st0" width="1" height="1"/>
	<rect x="68" y="170.1" class="st0" width="1" height="1"/>
	<rect x="340.2" y="170.1" class="st0" width="1" height="1"/>
	<rect x="204.1" y="170.1" class="st0" width="1" height="1"/>
	<rect x="17" y="170.1" class="st0" width="1" height="1"/>
	<rect x="289.1" y="170.1" class="st0" width="1" height="1"/>
	<rect x="153.1" y="170.1" class="st0" width="1" height="1"/>
	<rect x="85" y="170.1" class="st0" width="1" height="1"/>
	<rect x="357.2" y="170.1" class="st0" width="1" height="1"/>
	<rect x="221.1" y="170.1" class="st0" width="1" height="1"/>
	<rect x="34" y="170.1" class="st0" width="1" height="1"/>
	<rect x="306.1" y="170.1" class="st0" width="1" height="1"/>
	<rect x="170.1" y="170.1" class="st0" width="1" height="1"/>
	<rect x="102.1" y="170.1" class="st0" width="1" height="1"/>
	<rect x="374.2" y="170.1" class="st0" width="1" height="1"/>
	<rect x="238.1" y="170.1" class="st0" width="1" height="1"/>
	<rect x="255.1" y="255.1" class="st0" width="1" height="1"/>
	<rect x="119.1" y="255.1" class="st0" width="1" height="1"/>
	<rect x="51" y="255.1" class="st0" width="1" height="1"/>
	<rect x="187.1" y="255.1" class="st0" width="1" height="1"/>
	<rect x="272.1" y="255.1" class="st0" width="1" height="1"/>
	<rect x="136.1" y="255.1" class="st0" width="1" height="1"/>
	<rect x="68" y="255.1" class="st0" width="1" height="1"/>
	<rect x="340.2" y="255.1" class="st0" width="1" height="1"/>
	<rect x="323.2" y="255.1" class="st0" width="1" height="1"/>
	<rect x="204.1" y="255.1" class="st0" width="1" height="1"/>
	<rect x="17" y="255.1" class="st0" width="1" height="1"/>
	<rect x="289.1" y="255.1" class="st0" width="1" height="1"/>
	<rect x="153.1" y="255.1" class="st0" width="1" height="1"/>
	<rect x="85" y="255.1" class="st0" width="1" height="1"/>
	<rect x="357.2" y="255.1" class="st0" width="1" height="1"/>
	<rect x="221.1" y="255.1" class="st0" width="1" height="1"/>
	<rect x="34" y="255.1" class="st0" width="1" height="1"/>
	<rect x="306.1" y="255.1" class="st0" width="1" height="1"/>
	<rect x="170.1" y="255.1" class="st0" width="1" height="1"/>
	<rect x="102.1" y="255.1" class="st0" width="1" height="1"/>
	<rect x="374.2" y="255.1" class="st0" width="1" height="1"/>
	<rect x="238.1" y="255.1" class="st0" width="1" height="1"/>
	<rect x="255.1" y="51" class="st0" width="1" height="1"/>
	<rect x="119.1" y="51" class="st0" width="1" height="1"/>
	<rect x="51" y="51" class="st0" width="1" height="1"/>
	<rect x="323.2" y="51" class="st0" width="1" height="1"/>
	<rect x="187.1" y="51" class="st0" width="1" height="1"/>
	<rect x="272.1" y="51" class="st0" width="1" height="1"/>
	<rect x="136.1" y="51" class="st0" width="1" height="1"/>
	<rect x="68" y="51" class="st0" width="1" height="1"/>
	<rect x="340.2" y="51" class="st0" width="1" height="1"/>
	<rect x="204.1" y="51" class="st0" width="1" height="1"/>
	<rect x="17" y="51" class="st0" width="1" height="1"/>
	<rect x="289.1" y="51" class="st0" width="1" height="1"/>
	<rect x="153.1" y="51" class="st0" width="1" height="1"/>
	<rect x="85" y="51" class="st0" width="1" height="1"/>
	<rect x="357.2" y="51" class="st0" width="1" height="1"/>
	<rect x="221.1" y="51" class="st0" width="1" height="1"/>
	<rect x="34" y="51" class="st0" width="1" height="1"/>
	<rect x="306.1" y="51" class="st0" width="1" height="1"/>
	<rect x="170.1" y="51" class="st0" width="1" height="1"/>
	<rect x="102.1" y="51" class="st0" width="1" height="1"/>
	<rect x="374.2" y="51" class="st0" width="1" height="1"/>
	<rect x="238.1" y="51" class="st0" width="1" height="1"/>
	<rect x="255.1" y="119.1" class="st0" width="1" height="1"/>
	<rect x="119.1" y="119.1" class="st0" width="1" height="1"/>
	<rect x="51" y="119.1" class="st0" width="1" height="1"/>
	<rect x="323.2" y="119.1" class="st0" width="1" height="1"/>
	<rect x="187.1" y="119.1" class="st0" width="1" height="1"/>
	<rect x="272.1" y="119.1" class="st0" width="1" height="1"/>
	<rect x="136.1" y="119.1" class="st0" width="1" height="1"/>
	<rect x="68" y="119.1" class="st0" width="1" height="1"/>
	<rect x="340.2" y="119.1" class="st0" width="1" height="1"/>
	<rect x="204.1" y="119.1" class="st0" width="1" height="1"/>
	<rect x="17" y="119.1" class="st0" width="1" height="1"/>
	<rect x="289.1" y="119.1" class="st0" width="1" height="1"/>
	<rect x="153.1" y="119.1" class="st0" width="1" height="1"/>
	<rect x="85" y="119.1" class="st0" width="1" height="1"/>
	<rect x="357.2" y="119.1" class="st0" width="1" height="1"/>
	<rect x="221.1" y="119.1" class="st0" width="1" height="1"/>
	<rect x="34" y="119.1" class="st0" width="1" height="1"/>
	<rect x="306.1" y="119.1" class="st0" width="1" height="1"/>
	<rect x="170.1" y="119.1" class="st0" width="1" height="1"/>
	<rect x="102.1" y="119.1" class="st0" width="1" height="1"/>
	<rect x="374.2" y="119.1" class="st0" width="1" height="1"/>
	<rect x="238.1" y="119.1" class="st0" width="1" height="1"/>
	<rect x="255.1" y="187.1" class="st0" width="1" height="1"/>
	<rect x="119.1" y="187.1" class="st0" width="1" height="1"/>
	<rect x="51" y="187.1" class="st0" width="1" height="1"/>
	<rect x="323.2" y="187.1" class="st0" width="1" height="1"/>
	<rect x="187.1" y="187.1" class="st0" width="1" height="1"/>
	<rect x="272.1" y="187.1" class="st0" width="1" height="1"/>
	<rect x="136.1" y="187.1" class="st0" width="1" height="1"/>
	<rect x="68" y="187.1" class="st0" width="1" height="1"/>
	<rect x="340.2" y="187.1" class="st0" width="1" height="1"/>
	<rect x="204.1" y="187.1" class="st0" width="1" height="1"/>
	<rect x="17" y="187.1" class="st0" width="1" height="1"/>
	<rect x="289.1" y="187.1" class="st0" width="1" height="1"/>
	<rect x="153.1" y="187.1" class="st0" width="1" height="1"/>
	<rect x="85" y="187.1" class="st0" width="1" height="1"/>
	<rect x="357.2" y="187.1" class="st0" width="1" height="1"/>
	<rect x="221.1" y="187.1" class="st0" width="1" height="1"/>
	<rect x="34" y="187.1" class="st0" width="1" height="1"/>
	<rect x="306.1" y="187.1" class="st0" width="1" height="1"/>
	<rect x="170.1" y="187.1" class="st0" width="1" height="1"/>
	<rect x="102.1" y="187.1" class="st0" width="1" height="1"/>
	<rect x="374.2" y="187.1" class="st0" width="1" height="1"/>
	<rect x="238.1" y="187.1" class="st0" width="1" height="1"/>
	<rect x="255.1" y="272.1" class="st0" width="1" height="1"/>
	<rect x="119.1" y="272.1" class="st0" width="1" height="1"/>
	<rect x="51" y="272.1" class="st0" width="1" height="1"/>
	<rect x="323.2" y="272.1" class="st0" width="1" height="1"/>
	<rect x="187.1" y="272.1" class="st0" width="1" height="1"/>
	<rect x="272.1" y="272.1" class="st0" width="1" height="1"/>
	<rect x="136.1" y="272.1" class="st0" width="1" height="1"/>
	<rect x="68" y="272.1" class="st0" width="1" height="1"/>
	<rect x="340.2" y="272.1" class="st0" width="1" height="1"/>
	<rect x="204.1" y="272.1" class="st0" width="1" height="1"/>
	<rect x="17" y="272.1" class="st0" width="1" height="1"/>
	<rect x="289.1" y="272.1" class="st0" width="1" height="1"/>
	<rect x="153.1" y="272.1" class="st0" width="1" height="1"/>
	<rect x="85" y="272.1" class="st0" width="1" height="1"/>
	<rect x="357.2" y="272.1" class="st0" width="1" height="1"/>
	<rect x="221.1" y="272.1" class="st0" width="1" height="1"/>
	<rect x="34" y="272.1" class="st0" width="1" height="1"/>
	<rect x="306.1" y="272.1" class="st0" width="1" height="1"/>
	<rect x="170.1" y="272.1" class="st0" width="1" height="1"/>
	<rect x="102.1" y="272.1" class="st0" width="1" height="1"/>
	<rect x="374.2" y="272.1" class="st0" width="1" height="1"/>
	<rect x="238.1" y="272.1" class="st0" width="1" height="1"/>
	<rect x="255.1" y="68" class="st0" width="1" height="1"/>
	<rect x="119.1" y="68" class="st0" width="1" height="1"/>
	<rect x="51" y="68" class="st0" width="1" height="1"/>
	<rect x="323.2" y="68" class="st0" width="1" height="1"/>
	<rect x="187.1" y="68" class="st0" width="1" height="1"/>
	<rect x="272.1" y="68" class="st0" width="1" height="1"/>
	<rect x="136.1" y="68" class="st0" width="1" height="1"/>
	<rect x="68" y="68" class="st0" width="1" height="1"/>
	<rect x="340.2" y="68" class="st0" width="1" height="1"/>
	<rect x="204.1" y="68" class="st0" width="1" height="1"/>
	<rect x="17" y="68" class="st0" width="1" height="1"/>
	<rect x="289.1" y="68" class="st0" width="1" height="1"/>
	<rect x="153.1" y="68" class="st0" width="1" height="1"/>
	<rect x="85" y="68" class="st0" width="1" height="1"/>
	<rect x="357.2" y="68" class="st0" width="1" height="1"/>
	<rect x="221.1" y="68" class="st0" width="1" height="1"/>
	<rect x="34" y="68" class="st0" width="1" height="1"/>
	<rect x="306.1" y="68" class="st0" width="1" height="1"/>
	<rect x="170.1" y="68" class="st0" width="1" height="1"/>
	<rect x="102.1" y="68" class="st0" width="1" height="1"/>
	<rect x="374.2" y="68" class="st0" width="1" height="1"/>
	<rect x="238.1" y="68" class="st0" width="1" height="1"/>
	<rect x="255.1" y="136.1" class="st0" width="1" height="1"/>
	<rect x="119.1" y="136.1" class="st0" width="1" height="1"/>
	<rect x="51" y="136.1" class="st0" width="1" height="1"/>
	<rect x="323.2" y="136.1" class="st0" width="1" height="1"/>
	<rect x="187.1" y="136.1" class="st0" width="1" height="1"/>
	<rect x="272.1" y="136.1" class="st0" width="1" height="1"/>
	<rect x="136.1" y="136.1" class="st0" width="1" height="1"/>
	<rect x="68" y="136.1" class="st0" width="1" height="1"/>
	<rect x="340.2" y="136.1" class="st1" width="1" height="1"/>
	<rect x="204.1" y="136.1" class="st0" width="1" height="1"/>
	<rect x="17" y="136.1" class="st0" width="1" height="1"/>
	<rect x="289.1" y="136.1" class="st0" width="1" height="1"/>
	<rect x="153.1" y="136.1" class="st0" width="1" height="1"/>
	<rect x="85" y="136.1" class="st0" width="1" height="1"/>
	<rect x="357.2" y="136.1" class="st0" width="1" height="1"/>
	<rect x="221.1" y="136.1" class="st0" width="1" height="1"/>
	<rect x="34" y="136.1" class="st0" width="1" height="1"/>
	<rect x="306.1" y="136.1" class="st0" width="1" height="1"/>
	<rect x="170.1" y="136.1" class="st0" width="1" height="1"/>
	<rect x="102.1" y="136.1" class="st0" width="1" height="1"/>
	<rect x="374.2" y="136.1" class="st1" width="1" height="1"/>
	<rect x="238.1" y="136.1" class="st0" width="1" height="1"/>
	<rect x="255.1" y="204.1" class="st0" width="1" height="1"/>
	<rect x="119.1" y="204.1" class="st0" width="1" height="1"/>
	<rect x="51" y="204.1" class="st0" width="1" height="1"/>
	<rect x="323.2" y="204.1" class="st0" width="1" height="1"/>
	<rect x="187.1" y="204.1" class="st0" width="1" height="1"/>
	<rect x="272.1" y="204.1" class="st0" width="1" height="1"/>
	<rect x="136.1" y="204.1" class="st0" width="1" height="1"/>
	<rect x="68" y="204.1" class="st0" width="1" height="1"/>
	<rect x="340.2" y="204.1" class="st0" width="1" height="1"/>
	<rect x="204.1" y="204.1" class="st0" width="1" height="1"/>
	<rect x="17" y="204.1" class="st0" width="1" height="1"/>
	<rect x="289.1" y="204.1" class="st0" width="1" height="1"/>
	<rect x="153.1" y="204.1" class="st0" width="1" height="1"/>
	<rect x="85" y="204.1" class="st0" width="1" height="1"/>
	<rect x="357.2" y="204.1" class="st0" width="1" height="1"/>
	<rect x="221.1" y="204.1" class="st0" width="1" height="1"/>
	<rect x="34" y="204.1" class="st0" width="1" height="1"/>
	<rect x="306.1" y="204.1" class="st0" width="1" height="1"/>
	<rect x="170.1" y="204.1" class="st0" width="1" height="1"/>
	<rect x="102.1" y="204.1" class="st0" width="1" height="1"/>
	<rect x="374.2" y="204.1" class="st0" width="1" height="1"/>
	<rect x="238.1" y="204.1" class="st0" width="1" height="1"/>
</g>
<g>
	<g id="Aleph">
		<path class="st2" d="M361.8,110.1c11.6,20.2,23.3,40.4,34.9,60.6c-1.4,2.4-2.8,4.7-4.3,7.1c-23.3,0-46.7,0-70,0
			c-1.3-2.4-2.7-4.7-4-7c11.7-20.2,23.3-40.4,35-60.6C356.3,110.1,359.1,110.1,361.8,110.1z"/>
		<polyline class="st2" points="338.7,163.7 384.4,163.7 353.4,110.1 		"/>
		<polyline class="st2" points="376.4,163.6 353.5,124.1 322.5,177.7 		"/>
		<polyline class="st2" points="357.5,131.2 334.6,170.7 396.6,170.7 		"/>
	</g>
	<g id="Aleph.js">
		<path d="M325.1,206c0,0.1,0.1,0.2,0.1,0.4s0.1,0.4,0.1,0.6c0.1,0.2,0.1,0.5,0.1,0.7c0,0.3,0,0.6,0,0.8v2.2h-2.1v-2.5l0,0h-4l0,0
			v2.5h-2.1v-2.2c0-0.4,0-0.9,0.1-1.3c0.1-0.5,0.2-0.8,0.2-1c0.1-0.2,0.1-0.4,0.1-0.4l1.5-5.5c0.2-0.5,0.4-0.9,0.8-1.2
			c0.4-0.3,0.9-0.5,1.4-0.5c0.5,0,1,0.2,1.4,0.5c0.4,0.3,0.7,0.7,0.8,1.2l1.5,5.5L325.1,206z M319.6,206.3h3.4l-1.4-5.3
			c0-0.1-0.1-0.2-0.2-0.2s-0.2,0.1-0.2,0.2L319.6,206.3z"/>
		<path d="M335.5,210.4c-0.6,0.5-1.3,0.7-2,0.7c-1,0-1.7-0.3-2.4-1c-0.6-0.6-1-1.4-1-2.4V201h-2.6v-2.1h4.7v8.8
			c0,0.3,0.2,0.6,0.4,0.9c0.2,0.2,0.6,0.4,0.9,0.4c0.3,0,0.6-0.1,0.8-0.3c0.2-0.2,0.4-0.4,0.4-0.7l2,0.6
			C336.5,209.3,336.1,209.9,335.5,210.4z"/>
		<path d="M342.5,201.7c1,0,1.8,0.3,2.4,1c0.6,0.6,1,1.4,1,2.4v2.1h-5.3v0.4c0,0.3,0.2,0.6,0.4,0.9c0.2,0.2,0.6,0.4,0.9,0.4h0.7
			c0.3,0,0.6-0.1,0.8-0.3c0.2-0.2,0.4-0.4,0.5-0.7l2,0.6c-0.2,0.7-0.6,1.4-1.2,1.8c-0.6,0.5-1.3,0.7-2.1,0.7h-0.7
			c-1,0-1.8-0.3-2.4-1c-0.6-0.6-1-1.4-1-2.4V205c0-1,0.3-1.8,1-2.4c0.6-0.6,1.4-1,2.4-1L342.5,201.7L342.5,201.7z M343.8,205.4v-0.3
			c0-0.3-0.2-0.6-0.4-0.9c-0.2-0.2-0.6-0.4-0.9-0.4h-0.6c-0.3,0-0.6,0.2-0.9,0.4s-0.4,0.6-0.4,0.9v0.3H343.8z"/>
		<path d="M355.4,202.8c0.6,0.6,1,1.4,1,2.4v2.6c0,1-0.3,1.8-1,2.4c-0.6,0.6-1.4,1-2.4,1h-0.1c-0.6,0-1.3-0.2-1.8-0.6v3.4h-2.1v-12
			h2.1v0.4c0.6-0.4,1.1-0.6,1.8-0.6h0.1C354,201.7,354.8,202,355.4,202.8z M354.3,205.2c0-0.3-0.2-0.6-0.4-0.9
			c-0.2-0.2-0.6-0.4-0.9-0.4h-0.6c-0.3,0-0.6,0.2-0.9,0.4c-0.2,0.2-0.4,0.6-0.4,0.9v2.6c0,0.3,0.2,0.6,0.4,0.9
			c0.2,0.2,0.6,0.4,0.9,0.4h0.6c0.3,0,0.6-0.2,0.9-0.4c0.2-0.2,0.4-0.6,0.4-0.9V205.2z"/>
		<path d="M365.8,202.8c0.6,0.6,1,1.4,1,2.4v5.8h-2.1v-5.8c0-0.3-0.2-0.6-0.4-0.9s-0.6-0.4-0.9-0.4h-0.6c-0.3,0-0.6,0.2-0.9,0.4
			c-0.2,0.2-0.4,0.6-0.4,0.9v5.8h-2.1v-12h2.1v3.4c0.6-0.4,1.1-0.6,1.8-0.6h0.1C364.4,201.7,365.2,202,365.8,202.8z"/>
		<path d="M372.5,207.9h2.1v3h-2.1V207.9z"/>
		<path d="M386.2,210v1c0,0.9-0.3,1.6-0.9,2.2c-0.6,0.6-1.4,0.9-2.2,0.9c-0.9,0-1.6-0.3-2.2-1c-0.6-0.6-1-1.4-1-2.2
			c0-0.9,0.3-1.6,0.9-2.2c0.6-0.6,1.4-0.9,2.2-0.9h1V204h-3.4v-2.1h5.5v5.9h1.9v2.1L386.2,210L386.2,210z M383,210
			c-0.3,0-0.6,0.1-0.7,0.3c-0.2,0.2-0.3,0.5-0.3,0.7s0.1,0.6,0.3,0.7c0.2,0.2,0.5,0.3,0.7,0.3s0.6-0.1,0.7-0.3
			c0.2-0.2,0.3-0.5,0.3-0.7v-1H383z M384.1,197.8h2.1v3h-2.1V197.8z"/>
		<path d="M392.7,208.4c0,0.2,0.1,0.3,0.2,0.4c0.2,0.1,0.3,0.2,0.5,0.2h1.9c0.2,0,0.3-0.1,0.5-0.2c0.2-0.2,0.2-0.3,0.2-0.5
			c0-0.5-0.3-0.7-0.9-0.7l-1.5-0.2c-0.8-0.1-1.4-0.4-1.9-0.9c-0.5-0.6-0.8-1.1-0.8-1.9c0-0.8,0.2-1.4,0.8-2c0.6-0.6,1.2-0.8,2-0.8
			h1.6c0.6,0,1.2,0.2,1.7,0.6c0.5,0.4,0.8,0.9,1,1.5l-2,0.6c0-0.2-0.1-0.3-0.2-0.4c-0.2-0.1-0.2-0.2-0.5-0.2h-1.6
			c-0.2,0-0.3,0.1-0.5,0.2c-0.2,0.2-0.2,0.3-0.2,0.5c0,0.4,0.3,0.6,0.9,0.7l1.6,0.2c0.8,0.1,1.4,0.4,1.9,1c0.5,0.6,0.8,1.2,0.8,1.9
			c0,0.8-0.2,1.4-0.8,2c-0.6,0.6-1.2,0.8-2,0.8h-1.9c-0.6,0-1.2-0.2-1.7-0.6c-0.5-0.4-0.8-0.9-1-1.5L392.7,208.4z"/>
	</g>
</g>
</svg>
