<?xml version="1.0" encoding="utf-8"?>
<!-- Generator: Adobe Illustrator 24.0.1, SVG Export Plug-In . SVG Version: 6.00 Build 0)  -->
<svg version="1.1" id="Layer_1" xmlns="http://www.w3.org/2000/svg" xmlns:xlink="http://www.w3.org/1999/xlink" x="0px" y="0px"
	 viewBox="0 0 715.3 324.2" enable-background="new 0 0 715.3 324.2" xml:space="preserve">
<g id="Grid">
	<rect x="391.2" y="221.1" fill="#AAAAAA" width="1" height="1"/>
	<rect x="663.3" y="221.1" fill="#AAAAAA" width="1" height="1"/>
	<rect x="527.2" y="221.1" fill="#AAAAAA" width="1" height="1"/>
	<rect x="459.2" y="221.1" fill="#AAAAAA" width="1" height="1"/>
	<rect x="595.3" y="221.1" fill="#AAAAAA" width="1" height="1"/>
	<rect x="408.2" y="221.1" fill="#AAAAAA" width="1" height="1"/>
	<rect x="680.3" y="221.1" fill="#AAAAAA" width="1" height="1"/>
	<rect x="544.3" y="221.1" fill="#AAAAAA" width="1" height="1"/>
	<rect x="476.2" y="221.1" fill="#AAAAAA" width="1" height="1"/>
	<rect x="612.3" y="221.1" fill="#AAAAAA" width="1" height="1"/>
	<rect x="425.2" y="221.1" fill="#AAAAAA" width="1" height="1"/>
	<rect x="697.3" y="221.1" fill="#AAAAAA" width="1" height="1"/>
	<rect x="561.3" y="221.1" fill="#AAAAAA" width="1" height="1"/>
	<rect x="493.2" y="221.1" fill="#AAAAAA" width="1" height="1"/>
	<rect x="629.3" y="221.1" fill="#AAAAAA" width="1" height="1"/>
	<rect x="442.2" y="221.1" fill="#AAAAAA" width="1" height="1"/>
	<rect x="578.3" y="221.1" fill="#AAAAAA" width="1" height="1"/>
	<rect x="510.2" y="221.1" fill="#AAAAAA" width="1" height="1"/>
	<rect x="646.3" y="221.1" fill="#AAAAAA" width="1" height="1"/>
	<rect x="391.2" y="17" fill="#AAAAAA" width="1" height="1"/>
	<rect x="663.3" y="17" fill="#AAAAAA" width="1" height="1"/>
	<rect x="527.2" y="17" fill="#AAAAAA" width="1" height="1"/>
	<rect x="459.2" y="17" fill="#AAAAAA" width="1" height="1"/>
	<rect x="595.3" y="17" fill="#AAAAAA" width="1" height="1"/>
	<rect x="408.2" y="17" fill="#AAAAAA" width="1" height="1"/>
	<rect x="680.3" y="17" fill="#AAAAAA" width="1" height="1"/>
	<rect x="544.3" y="17" fill="#AAAAAA" width="1" height="1"/>
	<rect x="476.2" y="17" fill="#AAAAAA" width="1" height="1"/>
	<rect x="612.3" y="17" fill="#AAAAAA" width="1" height="1"/>
	<rect x="425.2" y="17" fill="#AAAAAA" width="1" height="1"/>
	<rect x="697.3" y="17" fill="#AAAAAA" width="1" height="1"/>
	<rect x="561.3" y="17" fill="#AAAAAA" width="1" height="1"/>
	<rect x="493.2" y="17" fill="#AAAAAA" width="1" height="1"/>
	<rect x="629.3" y="17" fill="#AAAAAA" width="1" height="1"/>
	<rect x="442.2" y="17" fill="#AAAAAA" width="1" height="1"/>
	<rect x="578.3" y="17" fill="#AAAAAA" width="1" height="1"/>
	<rect x="510.2" y="17" fill="#AAAAAA" width="1" height="1"/>
	<rect x="646.3" y="17" fill="#AAAAAA" width="1" height="1"/>
	<rect x="391.2" y="289.1" fill="#AAAAAA" width="1" height="1"/>
	<rect x="663.3" y="289.1" fill="#AAAAAA" width="1" height="1"/>
	<rect x="527.2" y="289.1" fill="#AAAAAA" width="1" height="1"/>
	<rect x="459.2" y="289.1" fill="#AAAAAA" width="1" height="1"/>
	<rect x="595.3" y="289.1" fill="#AAAAAA" width="1" height="1"/>
	<rect x="408.2" y="289.1" fill="#AAAAAA" width="1" height="1"/>
	<rect x="680.3" y="289.1" fill="#AAAAAA" width="1" height="1"/>
	<rect x="544.3" y="289.1" fill="#AAAAAA" width="1" height="1"/>
	<rect x="476.2" y="289.1" fill="#AAAAAA" width="1" height="1"/>
	<rect x="612.3" y="289.1" fill="#AAAAAA" width="1" height="1"/>
	<rect x="425.2" y="289.1" fill="#AAAAAA" width="1" height="1"/>
	<rect x="697.3" y="289.1" fill="#AAAAAA" width="1" height="1"/>
	<rect x="561.3" y="289.1" fill="#AAAAAA" width="1" height="1"/>
	<rect x="493.2" y="289.1" fill="#AAAAAA" width="1" height="1"/>
	<rect x="629.3" y="289.1" fill="#AAAAAA" width="1" height="1"/>
	<rect x="442.2" y="289.1" fill="#AAAAAA" width="1" height="1"/>
	<rect x="578.3" y="289.1" fill="#AAAAAA" width="1" height="1"/>
	<rect x="510.2" y="289.1" fill="#AAAAAA" width="1" height="1"/>
	<rect x="646.3" y="289.1" fill="#AAAAAA" width="1" height="1"/>
	<rect x="391.2" y="85" fill="#AAAAAA" width="1" height="1"/>
	<rect x="663.3" y="85" fill="#AAAAAA" width="1" height="1"/>
	<rect x="527.2" y="85" fill="#AAAAAA" width="1" height="1"/>
	<rect x="459.2" y="85" fill="#AAAAAA" width="1" height="1"/>
	<rect x="595.3" y="85" fill="#AAAAAA" width="1" height="1"/>
	<rect x="408.2" y="85" fill="#AAAAAA" width="1" height="1"/>
	<rect x="680.3" y="85" fill="#AAAAAA" width="1" height="1"/>
	<rect x="544.3" y="85" fill="#AAAAAA" width="1" height="1"/>
	<rect x="476.2" y="85" fill="#AAAAAA" width="1" height="1"/>
	<rect x="612.3" y="85" fill="#AAAAAA" width="1" height="1"/>
	<rect x="425.2" y="85" fill="#AAAAAA" width="1" height="1"/>
	<rect x="697.3" y="85" fill="#AAAAAA" width="1" height="1"/>
	<rect x="561.3" y="85" fill="#AAAAAA" width="1" height="1"/>
	<rect x="493.2" y="85" fill="#AAAAAA" width="1" height="1"/>
	<rect x="629.3" y="85" fill="#AAAAAA" width="1" height="1"/>
	<rect x="442.2" y="85" fill="#AAAAAA" width="1" height="1"/>
	<rect x="578.3" y="85" fill="#AAAAAA" width="1" height="1"/>
	<rect x="510.2" y="85" fill="#AAAAAA" width="1" height="1"/>
	<rect x="646.3" y="85" fill="#AAAAAA" width="1" height="1"/>
	<rect x="391.2" y="153.1" fill="#AAAAAA" width="1" height="1"/>
	<rect x="374.7" y="153.1" fill="#AAAAAA" width="1" height="1"/>
	<rect x="374.7" y="136.1" fill="#AAAAAA" width="1" height="1"/>
	<rect x="340.2" y="136.1" fill="#AAAAAA" width="1" height="1"/>
	<rect x="340.2" y="153.1" fill="#AAAAAA" width="1" height="1"/>
	<rect x="323.2" y="170.1" fill="#AAAAAA" width="1" height="1"/>
	<rect x="663.3" y="153.1" fill="#AAAAAA" width="1" height="1"/>
	<rect x="527.2" y="153.1" fill="#AAAAAA" width="1" height="1"/>
	<rect x="459.2" y="153.1" fill="#AAAAAA" width="1" height="1"/>
	<rect x="595.3" y="153.1" fill="#AAAAAA" width="1" height="1"/>
	<rect x="408.2" y="153.1" fill="#AAAAAA" width="1" height="1"/>
	<rect x="680.3" y="153.1" fill="#AAAAAA" width="1" height="1"/>
	<rect x="544.3" y="153.1" fill="#AAAAAA" width="1" height="1"/>
	<rect x="476.2" y="153.1" fill="#AAAAAA" width="1" height="1"/>
	<rect x="612.3" y="153.1" fill="#AAAAAA" width="1" height="1"/>
	<rect x="425.2" y="153.1" fill="#AAAAAA" width="1" height="1"/>
	<rect x="697.3" y="153.1" fill="#AAAAAA" width="1" height="1"/>
	<rect x="561.3" y="153.1" fill="#AAAAAA" width="1" height="1"/>
	<rect x="493.2" y="153.1" fill="#AAAAAA" width="1" height="1"/>
	<rect x="629.3" y="153.1" fill="#AAAAAA" width="1" height="1"/>
	<rect x="442.2" y="153.1" fill="#AAAAAA" width="1" height="1"/>
	<rect x="578.3" y="153.1" fill="#AAAAAA" width="1" height="1"/>
	<rect x="510.2" y="153.1" fill="#AAAAAA" width="1" height="1"/>
	<rect x="646.3" y="153.1" fill="#AAAAAA" width="1" height="1"/>
	<rect x="391.2" y="238.1" fill="#AAAAAA" width="1" height="1"/>
	<rect x="663.3" y="238.1" fill="#AAAAAA" width="1" height="1"/>
	<rect x="527.2" y="238.1" fill="#AAAAAA" width="1" height="1"/>
	<rect x="459.2" y="238.1" fill="#AAAAAA" width="1" height="1"/>
	<rect x="595.3" y="238.1" fill="#AAAAAA" width="1" height="1"/>
	<rect x="408.2" y="238.1" fill="#AAAAAA" width="1" height="1"/>
	<rect x="680.3" y="238.1" fill="#AAAAAA" width="1" height="1"/>
	<rect x="544.3" y="238.1" fill="#AAAAAA" width="1" height="1"/>
	<rect x="476.2" y="238.1" fill="#AAAAAA" width="1" height="1"/>
	<rect x="612.3" y="238.1" fill="#AAAAAA" width="1" height="1"/>
	<rect x="425.2" y="238.1" fill="#AAAAAA" width="1" height="1"/>
	<rect x="697.3" y="238.1" fill="#AAAAAA" width="1" height="1"/>
	<rect x="561.3" y="238.1" fill="#AAAAAA" width="1" height="1"/>
	<rect x="493.2" y="238.1" fill="#AAAAAA" width="1" height="1"/>
	<rect x="629.3" y="238.1" fill="#AAAAAA" width="1" height="1"/>
	<rect x="442.2" y="238.1" fill="#AAAAAA" width="1" height="1"/>
	<rect x="578.3" y="238.1" fill="#AAAAAA" width="1" height="1"/>
	<rect x="510.2" y="238.1" fill="#AAAAAA" width="1" height="1"/>
	<rect x="646.3" y="238.1" fill="#AAAAAA" width="1" height="1"/>
	<rect x="391.2" y="34" fill="#AAAAAA" width="1" height="1"/>
	<rect x="663.3" y="34" fill="#AAAAAA" width="1" height="1"/>
	<rect x="527.2" y="34" fill="#AAAAAA" width="1" height="1"/>
	<rect x="459.2" y="34" fill="#AAAAAA" width="1" height="1"/>
	<rect x="595.3" y="34" fill="#AAAAAA" width="1" height="1"/>
	<rect x="408.2" y="34" fill="#AAAAAA" width="1" height="1"/>
	<rect x="680.3" y="34" fill="#AAAAAA" width="1" height="1"/>
	<rect x="544.3" y="34" fill="#AAAAAA" width="1" height="1"/>
	<rect x="476.2" y="34" fill="#AAAAAA" width="1" height="1"/>
	<rect x="612.3" y="34" fill="#AAAAAA" width="1" height="1"/>
	<rect x="425.2" y="34" fill="#AAAAAA" width="1" height="1"/>
	<rect x="697.3" y="34" fill="#AAAAAA" width="1" height="1"/>
	<rect x="561.3" y="34" fill="#AAAAAA" width="1" height="1"/>
	<rect x="493.2" y="34" fill="#AAAAAA" width="1" height="1"/>
	<rect x="629.3" y="34" fill="#AAAAAA" width="1" height="1"/>
	<rect x="442.2" y="34" fill="#AAAAAA" width="1" height="1"/>
	<rect x="578.3" y="34" fill="#AAAAAA" width="1" height="1"/>
	<rect x="510.2" y="34" fill="#AAAAAA" width="1" height="1"/>
	<rect x="646.3" y="34" fill="#AAAAAA" width="1" height="1"/>
	<rect x="391.2" y="306.2" fill="#AAAAAA" width="1" height="1"/>
	<rect x="663.3" y="306.2" fill="#AAAAAA" width="1" height="1"/>
	<rect x="527.2" y="306.2" fill="#AAAAAA" width="1" height="1"/>
	<rect x="459.2" y="306.2" fill="#AAAAAA" width="1" height="1"/>
	<rect x="595.3" y="306.2" fill="#AAAAAA" width="1" height="1"/>
	<rect x="408.2" y="306.2" fill="#AAAAAA" width="1" height="1"/>
	<rect x="680.3" y="306.2" fill="#AAAAAA" width="1" height="1"/>
	<rect x="544.3" y="306.2" fill="#AAAAAA" width="1" height="1"/>
	<rect x="476.2" y="306.2" fill="#AAAAAA" width="1" height="1"/>
	<rect x="612.3" y="306.2" fill="#AAAAAA" width="1" height="1"/>
	<rect x="425.2" y="306.2" fill="#AAAAAA" width="1" height="1"/>
	<rect x="697.3" y="306.2" fill="#AAAAAA" width="1" height="1"/>
	<rect x="561.3" y="306.2" fill="#AAAAAA" width="1" height="1"/>
	<rect x="493.2" y="306.2" fill="#AAAAAA" width="1" height="1"/>
	<rect x="629.3" y="306.2" fill="#AAAAAA" width="1" height="1"/>
	<rect x="442.2" y="306.2" fill="#AAAAAA" width="1" height="1"/>
	<rect x="578.3" y="306.2" fill="#AAAAAA" width="1" height="1"/>
	<rect x="510.2" y="306.2" fill="#AAAAAA" width="1" height="1"/>
	<rect x="646.3" y="306.2" fill="#AAAAAA" width="1" height="1"/>
	<rect x="391.2" y="102.1" fill="#AAAAAA" width="1" height="1"/>
	<rect x="663.3" y="102.1" fill="#AAAAAA" width="1" height="1"/>
	<rect x="527.2" y="102.1" fill="#AAAAAA" width="1" height="1"/>
	<rect x="459.2" y="102.1" fill="#AAAAAA" width="1" height="1"/>
	<rect x="595.3" y="102.1" fill="#AAAAAA" width="1" height="1"/>
	<rect x="408.2" y="102.1" fill="#AAAAAA" width="1" height="1"/>
	<rect x="680.3" y="102.1" fill="#AAAAAA" width="1" height="1"/>
	<rect x="544.3" y="102.1" fill="#AAAAAA" width="1" height="1"/>
	<rect x="476.2" y="102.1" fill="#AAAAAA" width="1" height="1"/>
	<rect x="612.3" y="102.1" fill="#AAAAAA" width="1" height="1"/>
	<rect x="425.2" y="102.1" fill="#AAAAAA" width="1" height="1"/>
	<rect x="697.3" y="102.1" fill="#AAAAAA" width="1" height="1"/>
	<rect x="561.3" y="102.1" fill="#AAAAAA" width="1" height="1"/>
	<rect x="493.2" y="102.1" fill="#AAAAAA" width="1" height="1"/>
	<rect x="629.3" y="102.1" fill="#AAAAAA" width="1" height="1"/>
	<rect x="442.2" y="102.1" fill="#AAAAAA" width="1" height="1"/>
	<rect x="578.3" y="102.1" fill="#AAAAAA" width="1" height="1"/>
	<rect x="510.2" y="102.1" fill="#AAAAAA" width="1" height="1"/>
	<rect x="646.3" y="102.1" fill="#AAAAAA" width="1" height="1"/>
	<rect x="391.2" y="170.1" fill="#AAAAAA" width="1" height="1"/>
	<rect x="663.3" y="170.1" fill="#AAAAAA" width="1" height="1"/>
	<rect x="527.2" y="170.1" fill="#AAAAAA" width="1" height="1"/>
	<rect x="459.2" y="170.1" fill="#AAAAAA" width="1" height="1"/>
	<rect x="595.3" y="170.1" fill="#AAAAAA" width="1" height="1"/>
	<rect x="408.2" y="170.1" fill="#AAAAAA" width="1" height="1"/>
	<rect x="680.3" y="170.1" fill="#AAAAAA" width="1" height="1"/>
	<rect x="544.3" y="170.1" fill="#AAAAAA" width="1" height="1"/>
	<rect x="476.2" y="170.1" fill="#AAAAAA" width="1" height="1"/>
	<rect x="612.3" y="170.1" fill="#AAAAAA" width="1" height="1"/>
	<rect x="425.2" y="170.1" fill="#AAAAAA" width="1" height="1"/>
	<rect x="697.3" y="170.1" fill="#AAAAAA" width="1" height="1"/>
	<rect x="561.3" y="170.1" fill="#AAAAAA" width="1" height="1"/>
	<rect x="493.2" y="170.1" fill="#AAAAAA" width="1" height="1"/>
	<rect x="629.3" y="170.1" fill="#AAAAAA" width="1" height="1"/>
	<rect x="442.2" y="170.1" fill="#AAAAAA" width="1" height="1"/>
	<rect x="578.3" y="170.1" fill="#AAAAAA" width="1" height="1"/>
	<rect x="510.2" y="170.1" fill="#AAAAAA" width="1" height="1"/>
	<rect x="646.3" y="170.1" fill="#AAAAAA" width="1" height="1"/>
	<rect x="391.2" y="255.1" fill="#AAAAAA" width="1" height="1"/>
	<rect x="663.3" y="255.1" fill="#AAAAAA" width="1" height="1"/>
	<rect x="527.2" y="255.1" fill="#AAAAAA" width="1" height="1"/>
	<rect x="459.2" y="255.1" fill="#AAAAAA" width="1" height="1"/>
	<rect x="595.3" y="255.1" fill="#AAAAAA" width="1" height="1"/>
	<rect x="408.2" y="255.1" fill="#AAAAAA" width="1" height="1"/>
	<rect x="680.3" y="255.1" fill="#AAAAAA" width="1" height="1"/>
	<rect x="544.3" y="255.1" fill="#AAAAAA" width="1" height="1"/>
	<rect x="476.2" y="255.1" fill="#AAAAAA" width="1" height="1"/>
	<rect x="612.3" y="255.1" fill="#AAAAAA" width="1" height="1"/>
	<rect x="425.2" y="255.1" fill="#AAAAAA" width="1" height="1"/>
	<rect x="697.3" y="255.1" fill="#AAAAAA" width="1" height="1"/>
	<rect x="561.3" y="255.1" fill="#AAAAAA" width="1" height="1"/>
	<rect x="493.2" y="255.1" fill="#AAAAAA" width="1" height="1"/>
	<rect x="629.3" y="255.1" fill="#AAAAAA" width="1" height="1"/>
	<rect x="442.2" y="255.1" fill="#AAAAAA" width="1" height="1"/>
	<rect x="578.3" y="255.1" fill="#AAAAAA" width="1" height="1"/>
	<rect x="510.2" y="255.1" fill="#AAAAAA" width="1" height="1"/>
	<rect x="646.3" y="255.1" fill="#AAAAAA" width="1" height="1"/>
	<rect x="391.2" y="51" fill="#AAAAAA" width="1" height="1"/>
	<rect x="663.3" y="51" fill="#AAAAAA" width="1" height="1"/>
	<rect x="527.2" y="51" fill="#AAAAAA" width="1" height="1"/>
	<rect x="459.2" y="51" fill="#AAAAAA" width="1" height="1"/>
	<rect x="595.3" y="51" fill="#AAAAAA" width="1" height="1"/>
	<rect x="408.2" y="51" fill="#AAAAAA" width="1" height="1"/>
	<rect x="680.3" y="51" fill="#AAAAAA" width="1" height="1"/>
	<rect x="544.3" y="51" fill="#AAAAAA" width="1" height="1"/>
	<rect x="476.2" y="51" fill="#AAAAAA" width="1" height="1"/>
	<rect x="612.3" y="51" fill="#AAAAAA" width="1" height="1"/>
	<rect x="425.2" y="51" fill="#AAAAAA" width="1" height="1"/>
	<rect x="697.3" y="51" fill="#AAAAAA" width="1" height="1"/>
	<rect x="561.3" y="51" fill="#AAAAAA" width="1" height="1"/>
	<rect x="493.2" y="51" fill="#AAAAAA" width="1" height="1"/>
	<rect x="629.3" y="51" fill="#AAAAAA" width="1" height="1"/>
	<rect x="442.2" y="51" fill="#AAAAAA" width="1" height="1"/>
	<rect x="578.3" y="51" fill="#AAAAAA" width="1" height="1"/>
	<rect x="510.2" y="51" fill="#AAAAAA" width="1" height="1"/>
	<rect x="646.3" y="51" fill="#AAAAAA" width="1" height="1"/>
	<rect x="391.2" y="119.1" fill="#AAAAAA" width="1" height="1"/>
	<rect x="663.3" y="119.1" fill="#AAAAAA" width="1" height="1"/>
	<rect x="527.2" y="119.1" fill="#AAAAAA" width="1" height="1"/>
	<rect x="459.2" y="119.1" fill="#AAAAAA" width="1" height="1"/>
	<rect x="595.3" y="119.1" fill="#AAAAAA" width="1" height="1"/>
	<rect x="408.2" y="119.1" fill="#AAAAAA" width="1" height="1"/>
	<rect x="680.3" y="119.1" fill="#AAAAAA" width="1" height="1"/>
	<rect x="544.3" y="119.1" fill="#AAAAAA" width="1" height="1"/>
	<rect x="476.2" y="119.1" fill="#AAAAAA" width="1" height="1"/>
	<rect x="612.3" y="119.1" fill="#AAAAAA" width="1" height="1"/>
	<rect x="425.2" y="119.1" fill="#AAAAAA" width="1" height="1"/>
	<rect x="697.3" y="119.1" fill="#AAAAAA" width="1" height="1"/>
	<rect x="561.3" y="119.1" fill="#AAAAAA" width="1" height="1"/>
	<rect x="493.2" y="119.1" fill="#AAAAAA" width="1" height="1"/>
	<rect x="629.3" y="119.1" fill="#AAAAAA" width="1" height="1"/>
	<rect x="442.2" y="119.1" fill="#AAAAAA" width="1" height="1"/>
	<rect x="578.3" y="119.1" fill="#AAAAAA" width="1" height="1"/>
	<rect x="510.2" y="119.1" fill="#AAAAAA" width="1" height="1"/>
	<rect x="646.3" y="119.1" fill="#AAAAAA" width="1" height="1"/>
	<rect x="391.2" y="187.1" fill="#AAAAAA" width="1" height="1"/>
	<rect x="663.3" y="187.1" fill="#AAAAAA" width="1" height="1"/>
	<rect x="527.2" y="187.1" fill="#AAAAAA" width="1" height="1"/>
	<rect x="459.2" y="187.1" fill="#AAAAAA" width="1" height="1"/>
	<rect x="595.3" y="187.1" fill="#AAAAAA" width="1" height="1"/>
	<rect x="408.2" y="187.1" fill="#AAAAAA" width="1" height="1"/>
	<rect x="680.3" y="187.1" fill="#AAAAAA" width="1" height="1"/>
	<rect x="544.3" y="187.1" fill="#AAAAAA" width="1" height="1"/>
	<rect x="476.2" y="187.1" fill="#AAAAAA" width="1" height="1"/>
	<rect x="612.3" y="187.1" fill="#AAAAAA" width="1" height="1"/>
	<rect x="425.2" y="187.1" fill="#AAAAAA" width="1" height="1"/>
	<rect x="697.3" y="187.1" fill="#AAAAAA" width="1" height="1"/>
	<rect x="561.3" y="187.1" fill="#AAAAAA" width="1" height="1"/>
	<rect x="493.2" y="187.1" fill="#AAAAAA" width="1" height="1"/>
	<rect x="629.3" y="187.1" fill="#AAAAAA" width="1" height="1"/>
	<rect x="442.2" y="187.1" fill="#AAAAAA" width="1" height="1"/>
	<rect x="578.3" y="187.1" fill="#AAAAAA" width="1" height="1"/>
	<rect x="510.2" y="187.1" fill="#AAAAAA" width="1" height="1"/>
	<rect x="646.3" y="187.1" fill="#AAAAAA" width="1" height="1"/>
	<rect x="391.2" y="272.1" fill="#AAAAAA" width="1" height="1"/>
	<rect x="663.3" y="272.1" fill="#AAAAAA" width="1" height="1"/>
	<rect x="527.2" y="272.1" fill="#AAAAAA" width="1" height="1"/>
	<rect x="459.2" y="272.1" fill="#AAAAAA" width="1" height="1"/>
	<rect x="595.3" y="272.1" fill="#AAAAAA" width="1" height="1"/>
	<rect x="408.2" y="272.1" fill="#AAAAAA" width="1" height="1"/>
	<rect x="680.3" y="272.1" fill="#AAAAAA" width="1" height="1"/>
	<rect x="544.3" y="272.1" fill="#AAAAAA" width="1" height="1"/>
	<rect x="476.2" y="272.1" fill="#AAAAAA" width="1" height="1"/>
	<rect x="612.3" y="272.1" fill="#AAAAAA" width="1" height="1"/>
	<rect x="425.2" y="272.1" fill="#AAAAAA" width="1" height="1"/>
	<rect x="697.3" y="272.1" fill="#AAAAAA" width="1" height="1"/>
	<rect x="561.3" y="272.1" fill="#AAAAAA" width="1" height="1"/>
	<rect x="493.2" y="272.1" fill="#AAAAAA" width="1" height="1"/>
	<rect x="629.3" y="272.1" fill="#AAAAAA" width="1" height="1"/>
	<rect x="442.2" y="272.1" fill="#AAAAAA" width="1" height="1"/>
	<rect x="578.3" y="272.1" fill="#AAAAAA" width="1" height="1"/>
	<rect x="510.2" y="272.1" fill="#AAAAAA" width="1" height="1"/>
	<rect x="646.3" y="272.1" fill="#AAAAAA" width="1" height="1"/>
	<rect x="391.2" y="68" fill="#AAAAAA" width="1" height="1"/>
	<rect x="663.3" y="68" fill="#AAAAAA" width="1" height="1"/>
	<rect x="527.2" y="68" fill="#AAAAAA" width="1" height="1"/>
	<rect x="459.2" y="68" fill="#AAAAAA" width="1" height="1"/>
	<rect x="595.3" y="68" fill="#AAAAAA" width="1" height="1"/>
	<rect x="408.2" y="68" fill="#AAAAAA" width="1" height="1"/>
	<rect x="680.3" y="68" fill="#AAAAAA" width="1" height="1"/>
	<rect x="544.3" y="68" fill="#AAAAAA" width="1" height="1"/>
	<rect x="476.2" y="68" fill="#AAAAAA" width="1" height="1"/>
	<rect x="612.3" y="68" fill="#AAAAAA" width="1" height="1"/>
	<rect x="425.2" y="68" fill="#AAAAAA" width="1" height="1"/>
	<rect x="697.3" y="68" fill="#AAAAAA" width="1" height="1"/>
	<rect x="561.3" y="68" fill="#AAAAAA" width="1" height="1"/>
	<rect x="493.2" y="68" fill="#AAAAAA" width="1" height="1"/>
	<rect x="629.3" y="68" fill="#AAAAAA" width="1" height="1"/>
	<rect x="442.2" y="68" fill="#AAAAAA" width="1" height="1"/>
	<rect x="578.3" y="68" fill="#AAAAAA" width="1" height="1"/>
	<rect x="510.2" y="68" fill="#AAAAAA" width="1" height="1"/>
	<rect x="646.3" y="68" fill="#AAAAAA" width="1" height="1"/>
	<rect x="391.2" y="136.1" fill="#AAAAAA" width="1" height="1"/>
	<rect x="663.3" y="136.1" fill="#AAAAAA" width="1" height="1"/>
	<rect x="527.2" y="136.1" fill="#AAAAAA" width="1" height="1"/>
	<rect x="459.2" y="136.1" fill="#AAAAAA" width="1" height="1"/>
	<rect x="595.3" y="136.1" fill="#AAAAAA" width="1" height="1"/>
	<rect x="408.2" y="136.1" fill="#AAAAAA" width="1" height="1"/>
	<rect x="680.3" y="136.1" fill="#AAAAAA" width="1" height="1"/>
	<rect x="544.3" y="136.1" fill="#AAAAAA" width="1" height="1"/>
	<rect x="476.2" y="136.1" fill="#AAAAAA" width="1" height="1"/>
	<rect x="612.3" y="136.1" fill="#AAAAAA" width="1" height="1"/>
	<rect x="425.2" y="136.1" fill="#AAAAAA" width="1" height="1"/>
	<rect x="697.3" y="136.1" fill="#AAAAAA" width="1" height="1"/>
	<rect x="561.3" y="136.1" fill="#AAAAAA" width="1" height="1"/>
	<rect x="493.2" y="136.1" fill="#AAAAAA" width="1" height="1"/>
	<rect x="629.3" y="136.1" fill="#AAAAAA" width="1" height="1"/>
	<rect x="442.2" y="136.1" fill="#AAAAAA" width="1" height="1"/>
	<rect x="578.3" y="136.1" fill="#AAAAAA" width="1" height="1"/>
	<rect x="510.2" y="136.1" fill="#AAAAAA" width="1" height="1"/>
	<rect x="646.3" y="136.1" fill="#AAAAAA" width="1" height="1"/>
	<rect x="391.2" y="204.1" fill="#AAAAAA" width="1" height="1"/>
	<rect x="663.3" y="204.1" fill="#AAAAAA" width="1" height="1"/>
	<rect x="527.2" y="204.1" fill="#AAAAAA" width="1" height="1"/>
	<rect x="459.2" y="204.1" fill="#AAAAAA" width="1" height="1"/>
	<rect x="595.3" y="204.1" fill="#AAAAAA" width="1" height="1"/>
	<rect x="408.2" y="204.1" fill="#AAAAAA" width="1" height="1"/>
	<rect x="680.3" y="204.1" fill="#AAAAAA" width="1" height="1"/>
	<rect x="544.3" y="204.1" fill="#AAAAAA" width="1" height="1"/>
	<rect x="476.2" y="204.1" fill="#AAAAAA" width="1" height="1"/>
	<rect x="612.3" y="204.1" fill="#AAAAAA" width="1" height="1"/>
	<rect x="425.2" y="204.1" fill="#AAAAAA" width="1" height="1"/>
	<rect x="697.3" y="204.1" fill="#AAAAAA" width="1" height="1"/>
	<rect x="561.3" y="204.1" fill="#AAAAAA" width="1" height="1"/>
	<rect x="493.2" y="204.1" fill="#AAAAAA" width="1" height="1"/>
	<rect x="629.3" y="204.1" fill="#AAAAAA" width="1" height="1"/>
	<rect x="442.2" y="204.1" fill="#AAAAAA" width="1" height="1"/>
	<rect x="578.3" y="204.1" fill="#AAAAAA" width="1" height="1"/>
	<rect x="510.2" y="204.1" fill="#AAAAAA" width="1" height="1"/>
	<rect x="646.3" y="204.1" fill="#AAAAAA" width="1" height="1"/>
	<rect x="255.1" y="221.1" fill="#AAAAAA" width="1" height="1"/>
	<rect x="119.1" y="221.1" fill="#AAAAAA" width="1" height="1"/>
	<rect x="51" y="221.1" fill="#AAAAAA" width="1" height="1"/>
	<rect x="323.2" y="221.1" fill="#AAAAAA" width="1" height="1"/>
	<rect x="187.1" y="221.1" fill="#AAAAAA" width="1" height="1"/>
	<rect x="272.1" y="221.1" fill="#AAAAAA" width="1" height="1"/>
	<rect x="136.1" y="221.1" fill="#AAAAAA" width="1" height="1"/>
	<rect x="68" y="221.1" fill="#AAAAAA" width="1" height="1"/>
	<rect x="340.2" y="221.1" fill="#AAAAAA" width="1" height="1"/>
	<rect x="204.1" y="221.1" fill="#AAAAAA" width="1" height="1"/>
	<rect x="17" y="221.1" fill="#AAAAAA" width="1" height="1"/>
	<rect x="289.1" y="221.1" fill="#AAAAAA" width="1" height="1"/>
	<rect x="153.1" y="221.1" fill="#AAAAAA" width="1" height="1"/>
	<rect x="85" y="221.1" fill="#AAAAAA" width="1" height="1"/>
	<rect x="357.2" y="221.1" fill="#AAAAAA" width="1" height="1"/>
	<rect x="221.1" y="221.1" fill="#AAAAAA" width="1" height="1"/>
	<rect x="34" y="221.1" fill="#AAAAAA" width="1" height="1"/>
	<rect x="306.1" y="221.1" fill="#AAAAAA" width="1" height="1"/>
	<rect x="170.1" y="221.1" fill="#AAAAAA" width="1" height="1"/>
	<rect x="102.1" y="221.1" fill="#AAAAAA" width="1" height="1"/>
	<rect x="374.2" y="221.1" fill="#AAAAAA" width="1" height="1"/>
	<rect x="238.1" y="221.1" fill="#AAAAAA" width="1" height="1"/>
	<rect x="255.1" y="17" fill="#AAAAAA" width="1" height="1"/>
	<rect x="119.1" y="17" fill="#AAAAAA" width="1" height="1"/>
	<rect x="51" y="17" fill="#AAAAAA" width="1" height="1"/>
	<rect x="323.2" y="17" fill="#AAAAAA" width="1" height="1"/>
	<rect x="187.1" y="17" fill="#AAAAAA" width="1" height="1"/>
	<rect x="272.1" y="17" fill="#AAAAAA" width="1" height="1"/>
	<rect x="136.1" y="17" fill="#AAAAAA" width="1" height="1"/>
	<rect x="68" y="17" fill="#AAAAAA" width="1" height="1"/>
	<rect x="340.2" y="17" fill="#AAAAAA" width="1" height="1"/>
	<rect x="204.1" y="17" fill="#AAAAAA" width="1" height="1"/>
	<rect x="17" y="17" fill="#AAAAAA" width="1" height="1"/>
	<rect x="289.1" y="17" fill="#AAAAAA" width="1" height="1"/>
	<rect x="153.1" y="17" fill="#AAAAAA" width="1" height="1"/>
	<rect x="85" y="17" fill="#AAAAAA" width="1" height="1"/>
	<rect x="357.2" y="17" fill="#AAAAAA" width="1" height="1"/>
	<rect x="221.1" y="17" fill="#AAAAAA" width="1" height="1"/>
	<rect x="34" y="17" fill="#AAAAAA" width="1" height="1"/>
	<rect x="306.1" y="17" fill="#AAAAAA" width="1" height="1"/>
	<rect x="170.1" y="17" fill="#AAAAAA" width="1" height="1"/>
	<rect x="102.1" y="17" fill="#AAAAAA" width="1" height="1"/>
	<rect x="374.2" y="17" fill="#AAAAAA" width="1" height="1"/>
	<rect x="238.1" y="17" fill="#AAAAAA" width="1" height="1"/>
	<rect x="255.1" y="289.1" fill="#AAAAAA" width="1" height="1"/>
	<rect x="119.1" y="289.1" fill="#AAAAAA" width="1" height="1"/>
	<rect x="51" y="289.1" fill="#AAAAAA" width="1" height="1"/>
	<rect x="323.2" y="289.1" fill="#AAAAAA" width="1" height="1"/>
	<rect x="187.1" y="289.1" fill="#AAAAAA" width="1" height="1"/>
	<rect x="272.1" y="289.1" fill="#AAAAAA" width="1" height="1"/>
	<rect x="136.1" y="289.1" fill="#AAAAAA" width="1" height="1"/>
	<rect x="68" y="289.1" fill="#AAAAAA" width="1" height="1"/>
	<rect x="340.2" y="289.1" fill="#AAAAAA" width="1" height="1"/>
	<rect x="204.1" y="289.1" fill="#AAAAAA" width="1" height="1"/>
	<rect x="17" y="289.1" fill="#AAAAAA" width="1" height="1"/>
	<rect x="289.1" y="289.1" fill="#AAAAAA" width="1" height="1"/>
	<rect x="153.1" y="289.1" fill="#AAAAAA" width="1" height="1"/>
	<rect x="85" y="289.1" fill="#AAAAAA" width="1" height="1"/>
	<rect x="357.2" y="289.1" fill="#AAAAAA" width="1" height="1"/>
	<rect x="221.1" y="289.1" fill="#AAAAAA" width="1" height="1"/>
	<rect x="34" y="289.1" fill="#AAAAAA" width="1" height="1"/>
	<rect x="306.1" y="289.1" fill="#AAAAAA" width="1" height="1"/>
	<rect x="170.1" y="289.1" fill="#AAAAAA" width="1" height="1"/>
	<rect x="102.1" y="289.1" fill="#AAAAAA" width="1" height="1"/>
	<rect x="374.2" y="289.1" fill="#AAAAAA" width="1" height="1"/>
	<rect x="238.1" y="289.1" fill="#AAAAAA" width="1" height="1"/>
	<rect x="255.1" y="85" fill="#AAAAAA" width="1" height="1"/>
	<rect x="119.1" y="85" fill="#AAAAAA" width="1" height="1"/>
	<rect x="51" y="85" fill="#AAAAAA" width="1" height="1"/>
	<rect x="323.2" y="85" fill="#AAAAAA" width="1" height="1"/>
	<rect x="187.1" y="85" fill="#AAAAAA" width="1" height="1"/>
	<rect x="272.1" y="85" fill="#AAAAAA" width="1" height="1"/>
	<rect x="136.1" y="85" fill="#AAAAAA" width="1" height="1"/>
	<rect x="68" y="85" fill="#AAAAAA" width="1" height="1"/>
	<rect x="340.2" y="85" fill="#AAAAAA" width="1" height="1"/>
	<rect x="204.1" y="85" fill="#AAAAAA" width="1" height="1"/>
	<rect x="17" y="85" fill="#AAAAAA" width="1" height="1"/>
	<rect x="289.1" y="85" fill="#AAAAAA" width="1" height="1"/>
	<rect x="153.1" y="85" fill="#AAAAAA" width="1" height="1"/>
	<rect x="85" y="85" fill="#AAAAAA" width="1" height="1"/>
	<rect x="357.2" y="85" fill="#AAAAAA" width="1" height="1"/>
	<rect x="221.1" y="85" fill="#AAAAAA" width="1" height="1"/>
	<rect x="34" y="85" fill="#AAAAAA" width="1" height="1"/>
	<rect x="306.1" y="85" fill="#AAAAAA" width="1" height="1"/>
	<rect x="170.1" y="85" fill="#AAAAAA" width="1" height="1"/>
	<rect x="102.1" y="85" fill="#AAAAAA" width="1" height="1"/>
	<rect x="374.2" y="85" fill="#AAAAAA" width="1" height="1"/>
	<rect x="238.1" y="85" fill="#AAAAAA" width="1" height="1"/>
	<rect x="255.1" y="153.1" fill="#AAAAAA" width="1" height="1"/>
	<rect x="119.1" y="153.1" fill="#AAAAAA" width="1" height="1"/>
	<rect x="51" y="153.1" fill="#AAAAAA" width="1" height="1"/>
	<rect x="323.2" y="153.1" fill="#AAAAAA" width="1" height="1"/>
	<rect x="187.1" y="153.1" fill="#AAAAAA" width="1" height="1"/>
	<rect x="272.1" y="153.1" fill="#AAAAAA" width="1" height="1"/>
	<rect x="136.1" y="153.1" fill="#AAAAAA" width="1" height="1"/>
	<rect x="68" y="153.1" fill="#AAAAAA" width="1" height="1"/>
	<rect x="204.1" y="153.1" fill="#AAAAAA" width="1" height="1"/>
	<rect x="17" y="153.1" fill="#AAAAAA" width="1" height="1"/>
	<rect x="289.1" y="153.1" fill="#AAAAAA" width="1" height="1"/>
	<rect x="153.1" y="153.1" fill="#AAAAAA" width="1" height="1"/>
	<rect x="85" y="153.1" fill="#AAAAAA" width="1" height="1"/>
	<rect x="357.2" y="153.1" fill="#AAAAAA" width="1" height="1"/>
	<rect x="221.1" y="153.1" fill="#AAAAAA" width="1" height="1"/>
	<rect x="34" y="153.1" fill="#AAAAAA" width="1" height="1"/>
	<rect x="306.1" y="153.1" fill="#AAAAAA" width="1" height="1"/>
	<rect x="170.1" y="153.1" fill="#AAAAAA" width="1" height="1"/>
	<rect x="102.1" y="153.1" fill="#AAAAAA" width="1" height="1"/>
	<rect x="238.1" y="153.1" fill="#AAAAAA" width="1" height="1"/>
	<rect x="255.1" y="238.1" fill="#AAAAAA" width="1" height="1"/>
	<rect x="119.1" y="238.1" fill="#AAAAAA" width="1" height="1"/>
	<rect x="51" y="238.1" fill="#AAAAAA" width="1" height="1"/>
	<rect x="323.2" y="238.1" fill="#AAAAAA" width="1" height="1"/>
	<rect x="187.1" y="238.1" fill="#AAAAAA" width="1" height="1"/>
	<rect x="272.1" y="238.1" fill="#AAAAAA" width="1" height="1"/>
	<rect x="136.1" y="238.1" fill="#AAAAAA" width="1" height="1"/>
	<rect x="68" y="238.1" fill="#AAAAAA" width="1" height="1"/>
	<rect x="340.2" y="238.1" fill="#AAAAAA" width="1" height="1"/>
	<rect x="204.1" y="238.1" fill="#AAAAAA" width="1" height="1"/>
	<rect x="17" y="238.1" fill="#AAAAAA" width="1" height="1"/>
	<rect x="289.1" y="238.1" fill="#AAAAAA" width="1" height="1"/>
	<rect x="153.1" y="238.1" fill="#AAAAAA" width="1" height="1"/>
	<rect x="85" y="238.1" fill="#AAAAAA" width="1" height="1"/>
	<rect x="357.2" y="238.1" fill="#AAAAAA" width="1" height="1"/>
	<rect x="221.1" y="238.1" fill="#AAAAAA" width="1" height="1"/>
	<rect x="34" y="238.1" fill="#AAAAAA" width="1" height="1"/>
	<rect x="306.1" y="238.1" fill="#AAAAAA" width="1" height="1"/>
	<rect x="170.1" y="238.1" fill="#AAAAAA" width="1" height="1"/>
	<rect x="102.1" y="238.1" fill="#AAAAAA" width="1" height="1"/>
	<rect x="374.2" y="238.1" fill="#AAAAAA" width="1" height="1"/>
	<rect x="238.1" y="238.1" fill="#AAAAAA" width="1" height="1"/>
	<rect x="255.1" y="34" fill="#AAAAAA" width="1" height="1"/>
	<rect x="119.1" y="34" fill="#AAAAAA" width="1" height="1"/>
	<rect x="51" y="34" fill="#AAAAAA" width="1" height="1"/>
	<rect x="323.2" y="34" fill="#AAAAAA" width="1" height="1"/>
	<rect x="187.1" y="34" fill="#AAAAAA" width="1" height="1"/>
	<rect x="272.1" y="34" fill="#AAAAAA" width="1" height="1"/>
	<rect x="136.1" y="34" fill="#AAAAAA" width="1" height="1"/>
	<rect x="68" y="34" fill="#AAAAAA" width="1" height="1"/>
	<rect x="340.2" y="34" fill="#AAAAAA" width="1" height="1"/>
	<rect x="204.1" y="34" fill="#AAAAAA" width="1" height="1"/>
	<rect x="17" y="34" fill="#AAAAAA" width="1" height="1"/>
	<rect x="289.1" y="34" fill="#AAAAAA" width="1" height="1"/>
	<rect x="153.1" y="34" fill="#AAAAAA" width="1" height="1"/>
	<rect x="85" y="34" fill="#AAAAAA" width="1" height="1"/>
	<rect x="357.2" y="34" fill="#AAAAAA" width="1" height="1"/>
	<rect x="221.1" y="34" fill="#AAAAAA" width="1" height="1"/>
	<rect x="34" y="34" fill="#AAAAAA" width="1" height="1"/>
	<rect x="306.1" y="34" fill="#AAAAAA" width="1" height="1"/>
	<rect x="170.1" y="34" fill="#AAAAAA" width="1" height="1"/>
	<rect x="102.1" y="34" fill="#AAAAAA" width="1" height="1"/>
	<rect x="374.2" y="34" fill="#AAAAAA" width="1" height="1"/>
	<rect x="238.1" y="34" fill="#AAAAAA" width="1" height="1"/>
	<rect x="255.1" y="306.2" fill="#AAAAAA" width="1" height="1"/>
	<rect x="119.1" y="306.2" fill="#AAAAAA" width="1" height="1"/>
	<rect x="51" y="306.2" fill="#AAAAAA" width="1" height="1"/>
	<rect x="323.2" y="306.2" fill="#AAAAAA" width="1" height="1"/>
	<rect x="187.1" y="306.2" fill="#AAAAAA" width="1" height="1"/>
	<rect x="272.1" y="306.2" fill="#AAAAAA" width="1" height="1"/>
	<rect x="136.1" y="306.2" fill="#AAAAAA" width="1" height="1"/>
	<rect x="68" y="306.2" fill="#AAAAAA" width="1" height="1"/>
	<rect x="340.2" y="306.2" fill="#AAAAAA" width="1" height="1"/>
	<rect x="204.1" y="306.2" fill="#AAAAAA" width="1" height="1"/>
	<rect x="17" y="306.2" fill="#AAAAAA" width="1" height="1"/>
	<rect x="289.1" y="306.2" fill="#AAAAAA" width="1" height="1"/>
	<rect x="153.1" y="306.2" fill="#AAAAAA" width="1" height="1"/>
	<rect x="85" y="306.2" fill="#AAAAAA" width="1" height="1"/>
	<rect x="357.2" y="306.2" fill="#AAAAAA" width="1" height="1"/>
	<rect x="221.1" y="306.2" fill="#AAAAAA" width="1" height="1"/>
	<rect x="34" y="306.2" fill="#AAAAAA" width="1" height="1"/>
	<rect x="306.1" y="306.2" fill="#AAAAAA" width="1" height="1"/>
	<rect x="170.1" y="306.2" fill="#AAAAAA" width="1" height="1"/>
	<rect x="102.1" y="306.2" fill="#AAAAAA" width="1" height="1"/>
	<rect x="374.2" y="306.2" fill="#AAAAAA" width="1" height="1"/>
	<rect x="238.1" y="306.2" fill="#AAAAAA" width="1" height="1"/>
	<rect x="255.1" y="102.1" fill="#AAAAAA" width="1" height="1"/>
	<rect x="119.1" y="102.1" fill="#AAAAAA" width="1" height="1"/>
	<rect x="51" y="102.1" fill="#AAAAAA" width="1" height="1"/>
	<rect x="323.2" y="102.1" fill="#AAAAAA" width="1" height="1"/>
	<rect x="187.1" y="102.1" fill="#AAAAAA" width="1" height="1"/>
	<rect x="272.1" y="102.1" fill="#AAAAAA" width="1" height="1"/>
	<rect x="136.1" y="102.1" fill="#AAAAAA" width="1" height="1"/>
	<rect x="68" y="102.1" fill="#AAAAAA" width="1" height="1"/>
	<rect x="340.2" y="102.1" fill="#AAAAAA" width="1" height="1"/>
	<rect x="204.1" y="102.1" fill="#AAAAAA" width="1" height="1"/>
	<rect x="17" y="102.1" fill="#AAAAAA" width="1" height="1"/>
	<rect x="289.1" y="102.1" fill="#AAAAAA" width="1" height="1"/>
	<rect x="153.1" y="102.1" fill="#AAAAAA" width="1" height="1"/>
	<rect x="85" y="102.1" fill="#AAAAAA" width="1" height="1"/>
	<rect x="357.2" y="102.1" fill="#AAAAAA" width="1" height="1"/>
	<rect x="221.1" y="102.1" fill="#AAAAAA" width="1" height="1"/>
	<rect x="34" y="102.1" fill="#AAAAAA" width="1" height="1"/>
	<rect x="306.1" y="102.1" fill="#AAAAAA" width="1" height="1"/>
	<rect x="170.1" y="102.1" fill="#AAAAAA" width="1" height="1"/>
	<rect x="102.1" y="102.1" fill="#AAAAAA" width="1" height="1"/>
	<rect x="374.2" y="102.1" fill="#AAAAAA" width="1" height="1"/>
	<rect x="238.1" y="102.1" fill="#AAAAAA" width="1" height="1"/>
	<rect x="255.1" y="170.1" fill="#AAAAAA" width="1" height="1"/>
	<rect x="119.1" y="170.1" fill="#AAAAAA" width="1" height="1"/>
	<rect x="51" y="170.1" fill="#AAAAAA" width="1" height="1"/>
	<rect x="187.1" y="170.1" fill="#AAAAAA" width="1" height="1"/>
	<rect x="272.1" y="170.1" fill="#AAAAAA" width="1" height="1"/>
	<rect x="136.1" y="170.1" fill="#AAAAAA" width="1" height="1"/>
	<rect x="68" y="170.1" fill="#AAAAAA" width="1" height="1"/>
	<rect x="340.2" y="170.1" fill="#AAAAAA" width="1" height="1"/>
	<rect x="204.1" y="170.1" fill="#AAAAAA" width="1" height="1"/>
	<rect x="17" y="170.1" fill="#AAAAAA" width="1" height="1"/>
	<rect x="289.1" y="170.1" fill="#AAAAAA" width="1" height="1"/>
	<rect x="153.1" y="170.1" fill="#AAAAAA" width="1" height="1"/>
	<rect x="85" y="170.1" fill="#AAAAAA" width="1" height="1"/>
	<rect x="357.2" y="170.1" fill="#AAAAAA" width="1" height="1"/>
	<rect x="221.1" y="170.1" fill="#AAAAAA" width="1" height="1"/>
	<rect x="34" y="170.1" fill="#AAAAAA" width="1" height="1"/>
	<rect x="306.1" y="170.1" fill="#AAAAAA" width="1" height="1"/>
	<rect x="170.1" y="170.1" fill="#AAAAAA" width="1" height="1"/>
	<rect x="102.1" y="170.1" fill="#AAAAAA" width="1" height="1"/>
	<rect x="374.2" y="170.1" fill="#AAAAAA" width="1" height="1"/>
	<rect x="238.1" y="170.1" fill="#AAAAAA" width="1" height="1"/>
	<rect x="255.1" y="255.1" fill="#AAAAAA" width="1" height="1"/>
	<rect x="119.1" y="255.1" fill="#AAAAAA" width="1" height="1"/>
	<rect x="51" y="255.1" fill="#AAAAAA" width="1" height="1"/>
	<rect x="187.1" y="255.1" fill="#AAAAAA" width="1" height="1"/>
	<rect x="272.1" y="255.1" fill="#AAAAAA" width="1" height="1"/>
	<rect x="136.1" y="255.1" fill="#AAAAAA" width="1" height="1"/>
	<rect x="68" y="255.1" fill="none" width="1" height="1"/>
	<rect x="340.2" y="255.1" fill="#AAAAAA" width="1" height="1"/>
	<rect x="323.2" y="255.1" fill="#AAAAAA" width="1" height="1"/>
	<rect x="204.1" y="255.1" fill="#AAAAAA" width="1" height="1"/>
	<rect x="17" y="255.1" fill="#AAAAAA" width="1" height="1"/>
	<rect x="289.1" y="255.1" fill="#AAAAAA" width="1" height="1"/>
	<rect x="153.1" y="255.1" fill="#AAAAAA" width="1" height="1"/>
	<rect x="85" y="255.1" fill="#AAAAAA" width="1" height="1"/>
	<rect x="357.2" y="255.1" fill="#AAAAAA" width="1" height="1"/>
	<rect x="221.1" y="255.1" fill="#AAAAAA" width="1" height="1"/>
	<rect x="34" y="255.1" fill="#AAAAAA" width="1" height="1"/>
	<rect x="306.1" y="255.1" fill="#AAAAAA" width="1" height="1"/>
	<rect x="170.1" y="255.1" fill="#AAAAAA" width="1" height="1"/>
	<rect x="102.1" y="255.1" fill="#AAAAAA" width="1" height="1"/>
	<rect x="374.2" y="255.1" fill="#AAAAAA" width="1" height="1"/>
	<rect x="238.1" y="255.1" fill="#AAAAAA" width="1" height="1"/>
	<rect x="255.1" y="51" fill="#AAAAAA" width="1" height="1"/>
	<rect x="119.1" y="51" fill="none" width="1" height="1"/>
	<rect x="51" y="51" fill="none" width="1" height="1"/>
	<rect x="323.2" y="51" fill="#AAAAAA" width="1" height="1"/>
	<rect x="187.1" y="51" fill="#AAAAAA" width="1" height="1"/>
	<rect x="272.1" y="51" fill="#AAAAAA" width="1" height="1"/>
	<rect x="136.1" y="51" fill="none" width="1" height="1"/>
	<rect x="68" y="51" fill="none" width="1" height="1"/>
	<rect x="340.2" y="51" fill="#AAAAAA" width="1" height="1"/>
	<rect x="204.1" y="51" fill="#AAAAAA" width="1" height="1"/>
	<rect x="17" y="51" fill="#AAAAAA" width="1" height="1"/>
	<rect x="289.1" y="51" fill="#AAAAAA" width="1" height="1"/>
	<rect x="153.1" y="51" width="1" height="1"/>
	<rect x="85" y="51" fill="none" width="1" height="1"/>
	<rect x="357.2" y="51" fill="#AAAAAA" width="1" height="1"/>
	<rect x="221.1" y="51" fill="#AAAAAA" width="1" height="1"/>
	<rect x="34" y="51" fill="#AAAAAA" width="1" height="1"/>
	<rect x="306.1" y="51" fill="#AAAAAA" width="1" height="1"/>
	<rect x="170.1" y="51" fill="#AAAAAA" width="1" height="1"/>
	<rect x="102.1" y="51" fill="none" width="1" height="1"/>
	<rect x="374.2" y="51" fill="#AAAAAA" width="1" height="1"/>
	<rect x="238.1" y="51" fill="#AAAAAA" width="1" height="1"/>
	<rect x="255.1" y="119.1" fill="#AAAAAA" width="1" height="1"/>
	<rect x="119.1" y="119.1" fill="#AAAAAA" width="1" height="1"/>
	<rect x="51" y="119.1" fill="#AAAAAA" width="1" height="1"/>
	<rect x="323.2" y="119.1" fill="#AAAAAA" width="1" height="1"/>
	<rect x="187.1" y="119.1" fill="#AAAAAA" width="1" height="1"/>
	<rect x="272.1" y="119.1" fill="#AAAAAA" width="1" height="1"/>
	<rect x="136.1" y="119.1" fill="#AAAAAA" width="1" height="1"/>
	<rect x="68" y="119.1" fill="#AAAAAA" width="1" height="1"/>
	<rect x="340.2" y="119.1" fill="#AAAAAA" width="1" height="1"/>
	<rect x="204.1" y="119.1" fill="#AAAAAA" width="1" height="1"/>
	<rect x="17" y="119.1" fill="#AAAAAA" width="1" height="1"/>
	<rect x="289.1" y="119.1" fill="#AAAAAA" width="1" height="1"/>
	<rect x="153.1" y="119.1" fill="#AAAAAA" width="1" height="1"/>
	<rect x="85" y="119.1" fill="#AAAAAA" width="1" height="1"/>
	<rect x="357.2" y="119.1" fill="#AAAAAA" width="1" height="1"/>
	<rect x="221.1" y="119.1" fill="#AAAAAA" width="1" height="1"/>
	<rect x="34" y="119.1" fill="#AAAAAA" width="1" height="1"/>
	<rect x="306.1" y="119.1" fill="#AAAAAA" width="1" height="1"/>
	<rect x="170.1" y="119.1" fill="#AAAAAA" width="1" height="1"/>
	<rect x="102.1" y="119.1" fill="#AAAAAA" width="1" height="1"/>
	<rect x="374.2" y="119.1" fill="#AAAAAA" width="1" height="1"/>
	<rect x="238.1" y="119.1" fill="#AAAAAA" width="1" height="1"/>
	<rect x="255.1" y="187.1" fill="#AAAAAA" width="1" height="1"/>
	<rect x="119.1" y="187.1" fill="#AAAAAA" width="1" height="1"/>
	<rect x="51" y="187.1" fill="#AAAAAA" width="1" height="1"/>
	<rect x="323.2" y="187.1" fill="#AAAAAA" width="1" height="1"/>
	<rect x="187.1" y="187.1" fill="#AAAAAA" width="1" height="1"/>
	<rect x="272.1" y="187.1" fill="#AAAAAA" width="1" height="1"/>
	<rect x="136.1" y="187.1" fill="#AAAAAA" width="1" height="1"/>
	<rect x="68" y="187.1" fill="#AAAAAA" width="1" height="1"/>
	<rect x="340.2" y="187.1" fill="#AAAAAA" width="1" height="1"/>
	<rect x="204.1" y="187.1" fill="#AAAAAA" width="1" height="1"/>
	<rect x="17" y="187.1" fill="#AAAAAA" width="1" height="1"/>
	<rect x="289.1" y="187.1" fill="#AAAAAA" width="1" height="1"/>
	<rect x="153.1" y="187.1" fill="#AAAAAA" width="1" height="1"/>
	<rect x="85" y="187.1" fill="#AAAAAA" width="1" height="1"/>
	<rect x="357.2" y="187.1" fill="#AAAAAA" width="1" height="1"/>
	<rect x="221.1" y="187.1" fill="#AAAAAA" width="1" height="1"/>
	<rect x="34" y="187.1" fill="#AAAAAA" width="1" height="1"/>
	<rect x="306.1" y="187.1" fill="#AAAAAA" width="1" height="1"/>
	<rect x="170.1" y="187.1" fill="#AAAAAA" width="1" height="1"/>
	<rect x="102.1" y="187.1" fill="#AAAAAA" width="1" height="1"/>
	<rect x="374.2" y="187.1" fill="#AAAAAA" width="1" height="1"/>
	<rect x="238.1" y="187.1" fill="#AAAAAA" width="1" height="1"/>
	<rect x="255.1" y="272.1" fill="#AAAAAA" width="1" height="1"/>
	<rect x="119.1" y="272.1" fill="#AAAAAA" width="1" height="1"/>
	<rect x="51" y="272.1" fill="#AAAAAA" width="1" height="1"/>
	<rect x="323.2" y="272.1" fill="#AAAAAA" width="1" height="1"/>
	<rect x="187.1" y="272.1" fill="#AAAAAA" width="1" height="1"/>
	<rect x="272.1" y="272.1" fill="#AAAAAA" width="1" height="1"/>
	<rect x="136.1" y="272.1" fill="#AAAAAA" width="1" height="1"/>
	<rect x="68" y="272.1" fill="none" width="1" height="1"/>
	<rect x="340.2" y="272.1" fill="#AAAAAA" width="1" height="1"/>
	<rect x="204.1" y="272.1" fill="#AAAAAA" width="1" height="1"/>
	<rect x="17" y="272.1" fill="#AAAAAA" width="1" height="1"/>
	<rect x="289.1" y="272.1" fill="#AAAAAA" width="1" height="1"/>
	<rect x="153.1" y="272.1" fill="#AAAAAA" width="1" height="1"/>
	<rect x="85" y="272.1" fill="#AAAAAA" width="1" height="1"/>
	<rect x="357.2" y="272.1" fill="#AAAAAA" width="1" height="1"/>
	<rect x="221.1" y="272.1" fill="#AAAAAA" width="1" height="1"/>
	<rect x="34" y="272.1" fill="#AAAAAA" width="1" height="1"/>
	<rect x="306.1" y="272.1" fill="#AAAAAA" width="1" height="1"/>
	<rect x="170.1" y="272.1" fill="#AAAAAA" width="1" height="1"/>
	<rect x="102.1" y="272.1" fill="#AAAAAA" width="1" height="1"/>
	<rect x="374.2" y="272.1" fill="#AAAAAA" width="1" height="1"/>
	<rect x="238.1" y="272.1" fill="#AAAAAA" width="1" height="1"/>
	<rect x="255.1" y="68" fill="none" width="1" height="1"/>
	<rect x="119.1" y="68" fill="none" width="1" height="1"/>
	<rect x="51" y="68" fill="none" width="1" height="1"/>
	<rect x="323.2" y="68" fill="#AAAAAA" width="1" height="1"/>
	<rect x="187.1" y="68" fill="none" width="1" height="1"/>
	<rect x="272.1" y="68" fill="none" width="1" height="1"/>
	<rect x="136.1" y="68" fill="none" width="1" height="1"/>
	<rect x="68" y="68" fill="none" width="1" height="1"/>
	<rect x="340.2" y="68" fill="#AAAAAA" width="1" height="1"/>
	<rect x="204.1" y="68" fill="none" width="1" height="1"/>
	<rect x="17" y="68" fill="#AAAAAA" width="1" height="1"/>
	<rect x="289.1" y="68" fill="#AAAAAA" width="1" height="1"/>
	<rect x="153.1" y="68" fill="none" width="1" height="1"/>
	<rect x="85" y="68" fill="none" width="1" height="1"/>
	<rect x="357.2" y="68" fill="#AAAAAA" width="1" height="1"/>
	<rect x="221.1" y="68" fill="none" width="1" height="1"/>
	<rect x="34" y="68" fill="#AAAAAA" width="1" height="1"/>
	<rect x="306.1" y="68" fill="#AAAAAA" width="1" height="1"/>
	<rect x="170.1" y="68" fill="none" width="1" height="1"/>
	<rect x="102.1" y="68" fill="none" width="1" height="1"/>
	<rect x="374.2" y="68" fill="#AAAAAA" width="1" height="1"/>
	<rect x="238.1" y="68" fill="none" width="1" height="1"/>
	<rect x="255.1" y="136.1" fill="#AAAAAA" width="1" height="1"/>
	<rect x="119.1" y="136.1" fill="#AAAAAA" width="1" height="1"/>
	<rect x="51" y="136.1" fill="#AAAAAA" width="1" height="1"/>
	<rect x="323.2" y="136.1" fill="#AAAAAA" width="1" height="1"/>
	<rect x="187.1" y="136.1" fill="#AAAAAA" width="1" height="1"/>
	<rect x="272.1" y="136.1" fill="#AAAAAA" width="1" height="1"/>
	<rect x="136.1" y="136.1" fill="#AAAAAA" width="1" height="1"/>
	<rect x="68" y="136.1" fill="#AAAAAA" width="1" height="1"/>
	<rect x="204.1" y="136.1" fill="#AAAAAA" width="1" height="1"/>
	<rect x="17" y="136.1" fill="#AAAAAA" width="1" height="1"/>
	<rect x="289.1" y="136.1" fill="#AAAAAA" width="1" height="1"/>
	<rect x="153.1" y="136.1" fill="#AAAAAA" width="1" height="1"/>
	<rect x="85" y="136.1" fill="#AAAAAA" width="1" height="1"/>
	<rect x="357.2" y="136.1" fill="#AAAAAA" width="1" height="1"/>
	<rect x="221.1" y="136.1" fill="#AAAAAA" width="1" height="1"/>
	<rect x="34" y="136.1" fill="#AAAAAA" width="1" height="1"/>
	<rect x="306.1" y="136.1" fill="#AAAAAA" width="1" height="1"/>
	<rect x="170.1" y="136.1" fill="#AAAAAA" width="1" height="1"/>
	<rect x="102.1" y="136.1" fill="#AAAAAA" width="1" height="1"/>
	<rect x="238.1" y="136.1" fill="#AAAAAA" width="1" height="1"/>
	<rect x="255.1" y="204.1" fill="#AAAAAA" width="1" height="1"/>
	<rect x="119.1" y="204.1" fill="#AAAAAA" width="1" height="1"/>
	<rect x="51" y="204.1" fill="#AAAAAA" width="1" height="1"/>
	<rect x="323.2" y="204.1" fill="#AAAAAA" width="1" height="1"/>
	<rect x="187.1" y="204.1" fill="#AAAAAA" width="1" height="1"/>
	<rect x="272.1" y="204.1" fill="#AAAAAA" width="1" height="1"/>
	<rect x="136.1" y="204.1" fill="#AAAAAA" width="1" height="1"/>
	<rect x="68" y="204.1" fill="#AAAAAA" width="1" height="1"/>
	<rect x="340.2" y="204.1" fill="#AAAAAA" width="1" height="1"/>
	<rect x="204.1" y="204.1" fill="#AAAAAA" width="1" height="1"/>
	<rect x="17" y="204.1" fill="#AAAAAA" width="1" height="1"/>
	<rect x="289.1" y="204.1" fill="#AAAAAA" width="1" height="1"/>
	<rect x="153.1" y="204.1" fill="#AAAAAA" width="1" height="1"/>
	<rect x="85" y="204.1" fill="#AAAAAA" width="1" height="1"/>
	<rect x="357.2" y="204.1" fill="#AAAAAA" width="1" height="1"/>
	<rect x="221.1" y="204.1" fill="#AAAAAA" width="1" height="1"/>
	<rect x="34" y="204.1" fill="#AAAAAA" width="1" height="1"/>
	<rect x="306.1" y="204.1" fill="#AAAAAA" width="1" height="1"/>
	<rect x="170.1" y="204.1" fill="#AAAAAA" width="1" height="1"/>
	<rect x="102.1" y="204.1" fill="#AAAAAA" width="1" height="1"/>
	<rect x="374.2" y="204.1" fill="#AAAAAA" width="1" height="1"/>
	<rect x="238.1" y="204.1" fill="#AAAAAA" width="1" height="1"/>
</g>
<path fill="#D63369" d="M83.2,271.4c-4.5-7.7-9.3-16.1-14-24.3h-4c-4.5,7.8-9.4,16.3-14.2,24.6c0.4,0.7,1.1,2,1.9,3.4h28.4l2-3.4
	L83.2,271.4z M75.2,260c2.1,3.7,4.3,7.4,6.4,11.1H59.1l0.9-1.6h18.8l-12.3-21.2h2C70.7,252.2,73,256.1,75.2,260z M73.6,268.4H60.7
	l6.5-11.2L73.6,268.4z M59.1,260c2.1-3.7,4.3-7.4,6.4-11.1l11.2,19.4H75l-9.4-16.3l-12.3,21.2c-0.3-0.5-0.6-1.1-0.9-1.6
	C54.6,267.8,56.9,263.9,59.1,260z M80.6,273.9H54.3l11.3-19.5l0.9,1.6L57,272.3h24.6L80.6,273.9z"/>
<g id="Aleph.js">
	<path d="M61.1,51.6c0,0.1,0.1,0.3,0.1,0.5c0,0.2,0.1,0.5,0.1,0.7c0.1,0.3,0.1,0.6,0.1,0.9c0,0.4,0,0.7,0,1v2.9h-2.7v-3.2l0,0h-5.1
		l0,0v3.2H51v-2.9c0-0.5,0-1.1,0.1-1.6c0.1-0.6,0.2-1,0.2-1.3c0.1-0.3,0.1-0.5,0.1-0.5l1.9-7c0.2-0.6,0.5-1.1,1-1.5
		c0.5-0.4,1.1-0.6,1.7-0.6c0.6,0,1.2,0.2,1.7,0.6c0.5,0.4,0.9,0.9,1,1.5l1.9,7L61.1,51.6z M54.2,51.9h4.3l-1.8-6.7
		c0-0.1-0.1-0.2-0.3-0.2c-0.2,0-0.2,0.1-0.3,0.2L54.2,51.9z"/>
	<path d="M74.4,57.1c-0.7,0.6-1.6,0.9-2.6,0.9c-1.2,0-2.1-0.4-3.1-1.2C68,56,67.5,55,67.5,53.7v-8.6h-3.4v-2.7h6v11.2
		c0,0.4,0.2,0.8,0.5,1.1c0.3,0.3,0.7,0.5,1.1,0.5s0.7-0.1,1-0.4c0.3-0.3,0.5-0.5,0.5-0.9l2.6,0.8C75.7,55.8,75.2,56.5,74.4,57.1z"/>
	<path d="M83.4,46.1c1.2,0,2.2,0.4,3.1,1.2c0.8,0.8,1.2,1.8,1.2,3.1V53h-6.7v0.5c0,0.4,0.2,0.8,0.5,1.1c0.3,0.3,0.7,0.5,1.1,0.5h0.9
		c0.4,0,0.7-0.1,1-0.4c0.3-0.3,0.5-0.5,0.6-0.9l2.6,0.8c-0.3,0.9-0.7,1.7-1.5,2.2c-0.7,0.6-1.6,0.9-2.7,0.9h-0.9
		c-1.2,0-2.2-0.4-3.1-1.2c-0.8-0.8-1.2-1.8-1.2-3.1v-3.3c0-1.2,0.4-2.2,1.2-3.1c0.8-0.8,1.8-1.2,3.1-1.2h0.8V46.1z M85,50.8v-0.4
		c0-0.4-0.2-0.8-0.5-1.1c-0.3-0.3-0.7-0.5-1.1-0.5h-0.8c-0.4,0-0.8,0.2-1.1,0.5c-0.3,0.3-0.5,0.7-0.5,1.1v0.4H85z"/>
	<path d="M99.8,47.4c0.8,0.8,1.2,1.8,1.2,3.1v3.3c0,1.2-0.4,2.2-1.2,3.1C99,57.6,98,58,96.8,58h-0.1c-0.8,0-1.6-0.2-2.2-0.7v4.4
		h-2.7V46.4h2.7v0.5c0.7-0.5,1.4-0.7,2.2-0.7h0.1C98,46.1,99,46.5,99.8,47.4z M98.4,50.5c0-0.4-0.2-0.8-0.5-1.1
		c-0.3-0.3-0.7-0.5-1.1-0.5h-0.8c-0.4,0-0.8,0.2-1.1,0.5c-0.3,0.3-0.5,0.7-0.5,1.1v3.3c0,0.4,0.2,0.8,0.5,1.1
		c0.3,0.3,0.7,0.5,1.1,0.5h0.8c0.4,0,0.8-0.2,1.1-0.5c0.3-0.3,0.5-0.7,0.5-1.1V50.5z"/>
	<path d="M113.1,47.4c0.8,0.8,1.2,1.8,1.2,3.1v7.4h-2.7v-7.4c0-0.4-0.2-0.8-0.5-1.1c-0.3-0.3-0.7-0.5-1.1-0.5h-0.8
		c-0.4,0-0.8,0.2-1.1,0.5c-0.3,0.3-0.5,0.7-0.5,1.1v7.4h-2.7V42.5h2.7v4.4c0.7-0.5,1.4-0.7,2.2-0.7h0.1
		C111.3,46.1,112.3,46.5,113.1,47.4z"/>
	<path d="M121.6,54h2.7v3.9h-2.7V54z"/>
	<path d="M139.1,56.6v1.3c0,1.1-0.4,2-1.1,2.9c-0.8,0.8-1.7,1.1-2.9,1.1c-1.1,0-2-0.4-2.9-1.2c-0.8-0.8-1.2-1.7-1.2-2.9
		c0-1.1,0.4-2,1.1-2.9c0.8-0.8,1.7-1.1,2.9-1.1h1.3v-4.9h-4.4v-2.7h7v7.6h2.5v2.7h-2.3V56.6z M135.1,56.6c-0.4,0-0.7,0.1-0.9,0.4
		c-0.3,0.3-0.4,0.6-0.4,0.9s0.1,0.7,0.4,0.9c0.3,0.3,0.6,0.4,0.9,0.4s0.7-0.1,0.9-0.4c0.3-0.3,0.4-0.6,0.4-0.9v-1.3H135.1z
		 M136.4,41.1h2.7V45h-2.7V41.1z"/>
	<path d="M147.4,54.6c0,0.2,0.1,0.4,0.3,0.5c0.2,0.1,0.4,0.2,0.6,0.2h2.5c0.2,0,0.4-0.1,0.6-0.3c0.2-0.2,0.3-0.4,0.3-0.6
		c0-0.6-0.4-0.9-1.1-0.9l-1.9-0.2c-1-0.1-1.8-0.5-2.5-1.1c-0.6-0.7-1-1.4-1-2.5c0-1,0.3-1.8,1-2.6c0.7-0.7,1.5-1,2.6-1h2
		c0.8,0,1.5,0.2,2.1,0.7c0.6,0.5,1,1.1,1.2,1.9l-2.6,0.7c0-0.2-0.1-0.4-0.3-0.5c-0.2-0.1-0.3-0.2-0.6-0.2h-2c-0.2,0-0.4,0.1-0.6,0.3
		c-0.2,0.2-0.3,0.4-0.3,0.6c0,0.5,0.4,0.8,1.1,0.9l2,0.2c1,0.1,1.8,0.5,2.5,1.2c0.6,0.7,1,1.5,1,2.5c0,1-0.3,1.8-1,2.6
		c-0.7,0.7-1.5,1-2.6,1h-2.5c-0.8,0-1.5-0.2-2.1-0.7c-0.6-0.5-1-1.1-1.2-1.9L147.4,54.6z"/>
</g>
<g id="The_Full-stack_Framework_in_Deno.">
	<path fill="#333333" d="M54.2,68.3H51v-1.1h7.8v1.1h-3.2v9.5h-1.4V68.3z"/>
	<path fill="#333333" d="M60.6,66.3h1.3v3.2l0,1.6c0.7-0.7,1.5-1.3,2.6-1.3c1.7,0,2.4,1.1,2.4,3.1v5h-1.3V73c0-1.5-0.5-2.1-1.5-2.1
		c-0.8,0-1.4,0.4-2.2,1.2v5.7h-1.3V66.3z"/>
	<path fill="#333333" d="M68.8,73.9c0-2.6,1.7-4.2,3.6-4.2c2,0,3.1,1.5,3.1,3.7c0,0.3,0,0.6-0.1,0.8h-5.3c0.1,1.7,1.1,2.8,2.6,2.8
		c0.8,0,1.4-0.2,2-0.6l0.5,0.9c-0.7,0.5-1.5,0.8-2.6,0.8C70.5,78,68.8,76.5,68.8,73.9z M74.4,73.2c0-1.6-0.7-2.4-2-2.4
		c-1.1,0-2.1,0.9-2.3,2.4H74.4z"/>
	<path fill="#333333" d="M80.9,67.2H87v1.1h-4.8v3.6h4.1v1.1h-4.1v4.8h-1.4V67.2z"/>
	<path fill="#333333" d="M88.4,75v-5h1.3v4.8c0,1.5,0.4,2.1,1.5,2.1c0.8,0,1.4-0.4,2.1-1.3v-5.6h1.3v7.9h-1.1l-0.1-1.2h0
		c-0.7,0.9-1.5,1.4-2.6,1.4C89.2,78,88.4,77,88.4,75z"/>
	<path fill="#333333" d="M97.4,76.3v-10h1.3v10.1c0,0.4,0.2,0.6,0.4,0.6c0.1,0,0.1,0,0.3,0l0.2,1C99.3,78,99.1,78,98.8,78
		C97.8,78,97.4,77.4,97.4,76.3z"/>
	<path fill="#333333" d="M101.5,76.3v-10h1.3v10.1c0,0.4,0.2,0.6,0.4,0.6c0.1,0,0.1,0,0.3,0l0.2,1c-0.2,0.1-0.4,0.1-0.8,0.1
		C101.9,78,101.5,77.4,101.5,76.3z"/>
	<path fill="#333333" d="M105,73.3h3.7v1H105V73.3z"/>
	<path fill="#333333" d="M109.8,76.9l0.7-0.9c0.7,0.6,1.4,0.9,2.3,0.9c1,0,1.6-0.6,1.6-1.2c0-0.8-0.9-1.2-1.8-1.5
		c-1.1-0.4-2.3-0.9-2.3-2.3c0-1.3,1-2.2,2.7-2.2c1,0,1.8,0.4,2.4,0.9l-0.6,0.9c-0.5-0.4-1.1-0.7-1.8-0.7c-1,0-1.5,0.5-1.5,1.1
		c0,0.8,0.8,1,1.7,1.4c1.1,0.4,2.4,0.9,2.4,2.4c0,1.3-1,2.3-2.9,2.3C111.7,78,110.6,77.6,109.8,76.9z"/>
	<path fill="#333333" d="M117.4,75.4V71h-1.2v-1l1.2-0.1l0.2-2.2h1.1v2.2h2.1V71h-2.1v4.4c0,1,0.3,1.5,1.2,1.5
		c0.3,0,0.6-0.1,0.9-0.2l0.3,1c-0.5,0.1-1,0.3-1.5,0.3C118,78,117.4,77,117.4,75.4z"/>
	<path fill="#333333" d="M121.8,75.8c0-1.7,1.5-2.6,4.9-3c0-1-0.3-2-1.6-2c-0.9,0-1.7,0.4-2.4,0.8l-0.5-0.9c0.7-0.5,1.8-1,3.1-1
		c1.9,0,2.7,1.3,2.7,3.2v4.9h-1.1l-0.1-0.9h0c-0.8,0.6-1.6,1.1-2.6,1.1C122.8,78,121.8,77.2,121.8,75.8z M126.7,75.9v-2.2
		c-2.7,0.3-3.6,1-3.6,2c0,0.9,0.6,1.3,1.4,1.3C125.3,77,125.9,76.6,126.7,75.9z"/>
	<path fill="#333333" d="M129.9,73.9c0-2.6,1.8-4.2,3.8-4.2c1,0,1.7,0.4,2.3,0.9l-0.7,0.9c-0.5-0.4-0.9-0.7-1.6-0.7
		c-1.4,0-2.5,1.2-2.5,3.1c0,1.8,1,3,2.4,3c0.7,0,1.4-0.3,1.9-0.8l0.6,0.9c-0.7,0.6-1.6,1-2.6,1C131.6,78,129.9,76.5,129.9,73.9z"/>
	<path fill="#333333" d="M137.9,66.3h1.3v7.9h0l3.4-4.2h1.5l-2.6,3.2l3,4.7h-1.4l-2.3-3.8l-1.5,1.7v2.1h-1.3V66.3z"/>
	<path fill="#333333" d="M149.4,67.2h6.2v1.1h-4.8v3.6h4.1v1.1h-4.1v4.8h-1.4V67.2z"/>
	<path fill="#333333" d="M157,69.9h1.1l0.1,1.4h0c0.6-1,1.4-1.6,2.2-1.6c0.3,0,0.6,0,0.8,0.2l-0.2,1.2c-0.3-0.1-0.5-0.1-0.8-0.1
		c-0.7,0-1.5,0.5-2,1.8v5.1H157V69.9z"/>
	<path fill="#333333" d="M161.7,75.8c0-1.7,1.5-2.6,4.9-3c0-1-0.3-2-1.6-2c-0.9,0-1.7,0.4-2.4,0.8l-0.5-0.9c0.7-0.5,1.8-1,3.1-1
		c1.9,0,2.7,1.3,2.7,3.2v4.9h-1.1l-0.1-0.9h0c-0.8,0.6-1.6,1.1-2.6,1.1C162.7,78,161.7,77.2,161.7,75.8z M166.6,75.9v-2.2
		c-2.7,0.3-3.6,1-3.6,2c0,0.9,0.6,1.3,1.4,1.3C165.2,77,165.8,76.6,166.6,75.9z"/>
	<path fill="#333333" d="M170.4,69.9h1.1l0.1,1.1h0c0.7-0.8,1.5-1.4,2.5-1.4c1.2,0,1.9,0.6,2.2,1.5c0.8-0.9,1.6-1.5,2.6-1.5
		c1.6,0,2.4,1.1,2.4,3.1v5H180V73c0-1.5-0.5-2.1-1.5-2.1c-0.6,0-1.3,0.4-2,1.2v5.7h-1.3V73c0-1.5-0.5-2.1-1.5-2.1
		c-0.6,0-1.3,0.4-2,1.2v5.7h-1.3V69.9z"/>
	<path fill="#333333" d="M183.3,73.9c0-2.6,1.7-4.2,3.6-4.2c2,0,3.1,1.5,3.1,3.7c0,0.3,0,0.6-0.1,0.8h-5.3c0.1,1.7,1.1,2.8,2.6,2.8
		c0.8,0,1.4-0.2,2-0.6l0.5,0.9c-0.7,0.5-1.5,0.8-2.6,0.8C185,78,183.3,76.5,183.3,73.9z M188.8,73.2c0-1.6-0.7-2.4-2-2.4
		c-1.1,0-2.1,0.9-2.3,2.4H188.8z"/>
	<path fill="#333333" d="M191.1,69.9h1.4l1.2,4.6c0.2,0.8,0.3,1.5,0.5,2.2h0.1c0.2-0.7,0.3-1.5,0.5-2.2l1.2-4.6h1.3l1.2,4.6
		c0.2,0.8,0.4,1.5,0.6,2.2h0.1c0.2-0.7,0.3-1.5,0.5-2.2l1.2-4.6h1.3l-2.1,7.9h-1.6l-1.1-4.3c-0.2-0.7-0.3-1.5-0.5-2.3h-0.1
		c-0.2,0.8-0.3,1.5-0.5,2.3l-1.1,4.2h-1.6L191.1,69.9z"/>
	<path fill="#333333" d="M203,73.9c0-2.6,1.7-4.2,3.7-4.2s3.7,1.5,3.7,4.2c0,2.6-1.7,4.1-3.7,4.1S203,76.5,203,73.9z M209,73.9
		c0-1.8-0.9-3.1-2.3-3.1c-1.4,0-2.3,1.2-2.3,3.1c0,1.8,0.9,3,2.3,3C208.1,76.9,209,75.7,209,73.9z"/>
	<path fill="#333333" d="M212.5,69.9h1.1l0.1,1.4h0c0.6-1,1.4-1.6,2.2-1.6c0.3,0,0.6,0,0.8,0.2l-0.2,1.2c-0.3-0.1-0.5-0.1-0.8-0.1
		c-0.7,0-1.5,0.5-2,1.8v5.1h-1.3V69.9z"/>
	<path fill="#333333" d="M218.1,66.3h1.3v7.9h0l3.4-4.2h1.5l-2.6,3.2l3,4.7h-1.4l-2.3-3.8l-1.5,1.7v2.1h-1.3V66.3z"/>
	<path fill="#333333" d="M229.2,67.4c0-0.5,0.4-0.9,0.9-0.9s0.9,0.3,0.9,0.9c0,0.5-0.4,0.9-0.9,0.9S229.2,68,229.2,67.4z
		 M229.4,69.9h1.3v7.9h-1.3V69.9z"/>
	<path fill="#333333" d="M233.4,69.9h1.1l0.1,1.1h0c0.8-0.7,1.6-1.3,2.6-1.3c1.7,0,2.4,1.1,2.4,3.1v5h-1.3V73c0-1.5-0.5-2.1-1.5-2.1
		c-0.8,0-1.4,0.4-2.2,1.2v5.7h-1.3V69.9z"/>
	<path fill="#333333" d="M245.6,67.1h2.8c3.3,0,5.2,1.8,5.2,5.3c0,3.5-1.9,5.4-5.1,5.4h-2.9V67.1z M248.3,76.5c2.3,0,3.5-1.4,3.5-4
		c0-2.7-1.2-3.9-3.5-3.9h-1v8H248.3z"/>
	<path fill="#333333" d="M255.1,73.8c0-2.6,1.8-4.2,3.7-4.2c2.1,0,3.3,1.5,3.3,3.8c0,0.3,0,0.7-0.1,0.9h-5.2
		c0.1,1.5,1.1,2.4,2.5,2.4c0.7,0,1.3-0.2,1.9-0.6l0.6,1.1c-0.7,0.5-1.7,0.8-2.7,0.8C256.8,78,255.1,76.5,255.1,73.8z M260.6,73.1
		c0-1.4-0.6-2.2-1.8-2.2c-1,0-1.9,0.8-2.1,2.2H260.6z"/>
	<path fill="#333333" d="M263.9,69.8h1.4l0.1,1.1h0c0.7-0.7,1.6-1.3,2.6-1.3c1.7,0,2.5,1.1,2.5,3.2v5h-1.7V73c0-1.4-0.4-1.9-1.4-1.9
		c-0.7,0-1.3,0.4-2,1.1v5.7h-1.7V69.8z"/>
	<path fill="#333333" d="M272.4,73.8c0-2.7,1.8-4.2,3.8-4.2c2,0,3.8,1.5,3.8,4.2c0,2.7-1.8,4.2-3.8,4.2
		C274.2,78,272.4,76.5,272.4,73.8z M278.2,73.8c0-1.7-0.8-2.8-2.1-2.8c-1.3,0-2,1.1-2,2.8c0,1.7,0.8,2.8,2,2.8
		C277.4,76.7,278.2,75.6,278.2,73.8z"/>
	<path fill="#333333" d="M281.7,77c0-0.6,0.4-1,1-1s1,0.4,1,1c0,0.6-0.4,1-1,1S281.7,77.6,281.7,77z"/>
</g>
<g>
	<path fill="#111111" d="M654.1,51c0,0-0.2,0-0.3,0c-1.6,0.2-3.2,0.9-4.6,2c-0.2,0.2-0.8,0.8-1,1c-1.1,1.3-1.7,2.8-2,4.5
		c-0.1,0.4-0.1,1.7,0,2.1c0.2,1.7,0.9,3.2,2,4.5c0.2,0.2,0.8,0.8,1,1c1.3,1.1,2.8,1.7,4.5,2c0.4,0.1,1.7,0.1,2.1,0
		c1.7-0.2,3.2-0.9,4.5-2c0.2-0.2,0.8-0.8,1-1c1.1-1.3,1.7-2.8,2-4.5c0.1-0.4,0.1-1.7,0-2.1c-0.2-1.7-0.9-3.2-2-4.5
		c-0.2-0.2-0.8-0.8-1-1c-1.3-1.1-2.8-1.7-4.5-2c-0.2,0-0.5,0-0.9,0C654.5,51,654.2,51,654.1,51L654.1,51z M654.2,51.9
		c0,0.2,0,0.8,0,1.3c0,0.2,0,0.6,0,0.8c0,0.7,0.1,2.4,0.1,2.5l0,0.2l-0.1,0c-0.1,0-0.1,0-0.1,0c0,0,0-0.2,0-0.3
		c0-0.7-0.2-3.6-0.2-4.1l0-0.5l0.1,0c0,0,0.1,0,0.1,0l0.1,0V51.9z M656.2,51.9c0,0,0,0.6,0,1.4c0,0.8,0,1.5,0,1.5c0,0.1,0,0.1,0,0.1
		c0,0-0.1,0-0.1,0l-0.1,0l0-0.6c0-0.3,0-0.7,0-0.8c0-0.4,0-1.6,0-1.7c0,0,0,0,0.1,0C656.2,51.8,656.2,51.9,656.2,51.9L656.2,51.9z
		 M651.4,52.6c0,0,0.1,1.2,0.2,2.7c0,0.5,0.1,1,0.1,1c0,0.1,0,0.1-0.1,0.2c0,0-0.1,0-0.1,0c0,0,0-0.1,0-0.1c0-0.3-0.1-1.6-0.2-2.5
		c0-0.6-0.1-1.1-0.1-1.1c0-0.1,0-0.1,0-0.1C651.3,52.5,651.4,52.5,651.4,52.6L651.4,52.6z M657.2,53c0.1,0,0.1,0,0.1,0.2
		c0,0.2,0,1.2,0,1.2c-0.1,0-0.2-0.1-0.2-0.1c0,0,0-0.3,0-0.7C657,52.9,657,52.9,657.2,53L657.2,53z M653.3,53.1c0,0.1,0,0.4,0,0.7
		c0,0.3,0,0.7,0,0.9c0,0.4,0,0.4-0.1,0.4c-0.1,0-0.1,0-0.1-0.1c0-0.1,0-0.2,0-0.4c0-0.2,0-0.5-0.1-0.8s0-0.5,0-0.6
		c0-0.1,0-0.1,0-0.1C653.1,53,653.2,53,653.3,53.1C653.3,53,653.3,53,653.3,53.1L653.3,53.1z M659.1,53.4L659.1,53.4l0.1,0.3
		c0,0.2,0,0.5,0,0.7l0,0.5l-0.1,0l-0.1,0l0-0.7C659,53.7,659,53.4,659.1,53.4C659,53.3,659,53.3,659.1,53.4L659.1,53.4z M655.3,53.6
		c0,0,0,1,0,1.5l0,0.3l-0.1,0c-0.1,0-0.1,0-0.1,0c0,0-0.1-1.6-0.1-1.7v-0.2l0.1,0C655.2,53.6,655.3,53.6,655.3,53.6L655.3,53.6z
		 M660.1,53.8c0,0,0,0.5,0,3c0,2.9,0,3,0,3c0,0-0.1,0-0.1,0c0,0,0-0.3,0-2.8c0-1.5,0-2.9,0-3l0-0.3L660.1,53.8
		C660,53.7,660.1,53.8,660.1,53.8L660.1,53.8z M658.2,54.2c0,0,0,0.1,0,0.3c0,0.5,0,3.3,0,3.3c0,0,0,0-0.1,0l-0.1,0v-3.6L658.2,54.2
		C658.2,54.2,658.2,54.2,658.2,54.2L658.2,54.2z M652.4,54.3c0,0.1,0,0.2,0,0.3c0,0.1,0,0.3,0,0.5c0,0.4,0,0.4-0.1,0.4
		c-0.1,0-0.1,0-0.1-0.1c0-0.1-0.1-1.2-0.1-1.2C652.3,54.3,652.4,54.2,652.4,54.3C652.4,54.2,652.4,54.3,652.4,54.3L652.4,54.3z
		 M649,54.9c0,0.2,0.1,0.7,0.1,1c0,0.3,0.1,0.6,0.1,0.7c0,0-0.2,0.1-0.2,0.1c0,0-0.2-1.9-0.2-1.9c0-0.1,0.2-0.3,0.2-0.2
		C648.9,54.5,649,54.6,649,54.9L649,54.9z M657.2,55.1L657.2,55.1l0.1,0.5c0,0.2,0,0.5,0,0.6c0,0.2,0,0.2-0.1,0.2l-0.1,0v-0.2
		c0-0.1,0-0.4,0-0.6l0-0.5h0C657.1,55,657.2,55.1,657.2,55.1L657.2,55.1z M649.9,55.9c0,0.4,0.1,1.1,0.1,1.5l0.1,0.8l-0.1,0.1
		l-0.1,0.1l0-0.2c0-0.1-0.1-0.5-0.1-0.9c0-0.4-0.1-1.1-0.1-1.4l-0.1-0.6l0.1-0.1c0.1-0.1,0.1-0.1,0.1,0
		C649.8,55.1,649.9,55.5,649.9,55.9L649.9,55.9z M648.3,56.1c0,0.4,0.2,1.5,0.3,2.4c0.1,0.9,0.2,1.8,0.2,2c0,0.2,0,0.4,0.1,0.6
		c0,0.2,0,0.3,0,0.3c-0.1,0-0.1,0-0.1,0c0,0,0-0.2,0-0.3c0-0.3-0.1-0.8-0.2-1.9c0-0.2-0.1-0.7-0.1-1c0-0.3-0.1-0.8-0.1-1
		s-0.1-0.7-0.1-1c0-0.3-0.1-0.5-0.1-0.6c0-0.1,0.1-0.3,0.2-0.2C648.3,55.4,648.3,55.7,648.3,56.1L648.3,56.1z M647.7,57
		c0,0.3,0.1,0.7,0.1,1c0,0.3,0.1,0.7,0.1,0.9l0,0.3l0,0c0,0-0.1,0-0.1,0c0,0,0-0.1,0-0.2c0-0.1-0.1-0.6-0.2-1.2l-0.1-1l0-0.1
		c0-0.1,0.1-0.1,0.1-0.1C647.6,56.6,647.7,56.8,647.7,57L647.7,57z M659.2,56.8c0,0,0,0.2,0,1.1V59h-0.1c-0.1,0-0.1,0-0.1-1.2l0-1.1
		L659.2,56.8C659.1,56.7,659.2,56.8,659.2,56.8L659.2,56.8z M654.6,57.1c0.5,0.1,0.9,0.2,1.3,0.4c0.3,0.1,0.4,0.2,0.7,0.5
		c0.4,0.4,0.7,0.8,1,1.3c0.4,0.7,0.5,1.4,0.7,3.2c0.1,0.8,0.2,2.2,0.2,2.8c0,0.2,0,0.5,0,0.6c0,0.4,0.1,0.3-0.3,0.5
		c-0.4,0.2-0.9,0.4-1.5,0.5c-0.7,0.2-1.1,0.2-1.8,0.2l-0.5,0l0-0.2c0-0.1,0-0.4,0-0.7c0.1-1.2,0.1-2.6,0-3.4c0-0.5-0.1-1-0.2-1.2
		c0,0,0-0.1,0.2-0.1c0.4-0.1,0.7-0.3,0.8-0.4c0.1-0.2-0.1-0.4-0.3-0.4c0,0-0.1,0-0.2,0.1c-0.5,0.2-1.4,0.5-1.9,0.5
		c-0.4,0-1,0-1.4-0.1c-0.2,0-0.6-0.2-0.9-0.4c-0.4-0.2-0.6-0.5-0.7-0.8c0-0.2,0-0.5,0-0.7c0.1-0.2,0.2-0.5,0.3-0.7
		c0.6-0.8,1.8-1.5,3.1-1.7C653.6,57.1,654.2,57.1,654.6,57.1L654.6,57.1z M661.1,57.2c0.1,0,0.1,0,0.1,0.1c0,0.6,0,1.9,0,1.9
		c0,0-0.1,0-0.2,0c0,0,0-0.1,0-1c0-0.7,0-1,0-1C661,57.2,661,57.2,661.1,57.2L661.1,57.2z M662,58.4L662,58.4l0.1,1.8
		c0,2.2,0,2.3-0.1,2.5c-0.1,0.3-0.1,0.4-0.1-1c0-0.7,0-1.4,0-1.5c0-0.2,0-0.6,0-1C661.8,58.6,661.9,58.3,662,58.4
		C661.9,58.3,661.9,58.3,662,58.4L662,58.4z M649.4,58.9c0,0.2,0,0.2-0.1,0.3l-0.1,0.1l0-0.2c0-0.3,0-0.3,0-0.4c0,0,0.1,0,0.1,0
		C649.4,58.7,649.4,58.8,649.4,58.9L649.4,58.9z M648.1,60.1c0,0.2,0.2,1.3,0.2,1.9c0.1,0.9,0.1,1,0.1,0.9c0,0-0.1-0.3-0.1-0.6
		C648,60,648,60.1,648,60C648.1,60,648.1,60,648.1,60.1L648.1,60.1z M649.6,61.1c0,0.1,0.1,0.6,0.1,0.7c0,0.1-0.1,0.1-0.1,0.1
		c0,0,0-0.2-0.1-0.4c0-0.2,0-0.4-0.1-0.5l0-0.1l0.1,0.1C649.6,61,649.6,61.1,649.6,61.1L649.6,61.1z M651.3,61.9c0,0,0,0.1,0.1,0.3
		c0,0.4,0,0.4-0.1,0.4c-0.1,0-0.1,0-0.1-0.4C651.2,61.9,651.2,61.9,651.3,61.9C651.2,61.9,651.3,61.9,651.3,61.9L651.3,61.9z
		 M652.9,61.9c0,0,0,0.1,0,0.3c0,0.1,0,0.4,0,0.7c0.1,0.8,0.1,1,0,1c0,0,0,0-0.1-0.6c0-0.2,0-0.6-0.1-0.9
		C652.9,62.1,652.8,61.9,652.9,61.9C652.9,61.9,652.9,61.9,652.9,61.9z M649,62.3c0,0,0.1,0.7,0.2,1.6c0,0.3,0.1,0.5,0.1,0.6l0,0.1
		l-0.1,0c0,0-0.1-0.1-0.1-0.1c0-0.1-0.1-1-0.2-1.5C649,62.6,648.9,62.4,649,62.3C648.9,62.3,649,62.3,649,62.3L649,62.3z
		 M661.1,63.2l0,0.9l-0.1,0.1c-0.1,0.2-0.1,0.2-0.1-0.8l0-0.9l0.1-0.1c0,0,0.1-0.1,0.1-0.1C661.1,62.3,661.1,62.7,661.1,63.2
		L661.1,63.2z M659.1,64.6c0,1.2,0,1.3,0,1.3c0,0,0,0,0,0c0,0,0-2.7,0-2.7c0,0,0,0,0,0C659.1,63.3,659.1,63.4,659.1,64.6L659.1,64.6
		z M652.3,63.7c0,0.1,0.1,0.8,0.1,1c0,0.2,0,0.2,0,0.2c0,0-0.1,0-0.1,0c0,0-0.1-0.5-0.1-1.2l0-0.2h0.1
		C652.3,63.6,652.3,63.6,652.3,63.7L652.3,63.7z M650.7,64.5c0,0,0,0.1,0,0.1c0,0.1,0,0.3,0.1,0.6c0.1,0.8,0.1,0.9,0.1,0.9
		c-0.1,0-0.1-0.1-0.1-0.1c0,0,0-0.1,0-0.2c0-0.1,0-0.3,0-0.4c0-0.1,0-0.3,0-0.5C650.6,64.5,650.6,64.5,650.7,64.5
		C650.6,64.5,650.7,64.5,650.7,64.5L650.7,64.5z M651.7,65.9c0,0,0,0.2,0,0.4c0,0.3,0,0.3-0.1,0.3c0,0,0-0.1-0.1-0.3
		C651.5,65.8,651.5,65.8,651.7,65.9C651.6,65.8,651.7,65.8,651.7,65.9z"/>
	<path fill="#111111" d="M650.9,58.1c-0.2,0.1-0.2,0.4,0,0.5c0.1,0.1,0.3,0,0.4-0.1C651.4,58.3,651.2,58,650.9,58.1L650.9,58.1z
		 M652.3,58.4c-0.2,0.1-0.2,0.4,0,0.5c0.2,0.1,0.5,0,0.5-0.3C652.8,58.4,652.5,58.2,652.3,58.4L652.3,58.4z"/>
</g>
<path fill="#111111" d="M622.7,51h-2.9l-4.9,9l4.9,9h2.9l4.9-9L622.7,51z M621.2,66.7l-3.6-6.7l3.6-6.7l3.6,6.7L621.2,66.7z"/>
</svg>
