<?xml version="1.0" encoding="utf-8"?>
<!-- Generator: Adobe Illustrator 24.0.1, SVG Export Plug-In . SVG Version: 6.00 Build 0)  -->
<svg version="1.1" id="Poster" xmlns="http://www.w3.org/2000/svg" xmlns:xlink="http://www.w3.org/1999/xlink" x="0px" y="0px"
	 viewBox="0 0 681.3 290.2" style="enable-background:new 0 0 681.3 290.2;" xml:space="preserve">
<style type="text/css">
	.st0{fill:#AAAAAA;}
	.st1{fill:none;}
	.st2{fill:#D63369;}
	.st3{fill:#222222;}
	.st4{fill:#111111;}
	.st5{fill:#61DAFB;}
	.st6{fill:none;stroke:#61DAFB;}
</style>
<g id="Dots">
	<rect x="374.2" y="204.1" class="st0" width="1" height="1"/>
	<rect x="646.3" y="204.1" class="st0" width="1" height="1"/>
	<rect x="510.2" y="204.1" class="st0" width="1" height="1"/>
	<rect x="442.2" y="204.1" class="st0" width="1" height="1"/>
	<rect x="578.3" y="204.1" class="st0" width="1" height="1"/>
	<rect x="391.2" y="204.1" class="st0" width="1" height="1"/>
	<rect x="663.3" y="204.1" class="st0" width="1" height="1"/>
	<rect x="527.3" y="204.1" class="st0" width="1" height="1"/>
	<rect x="459.2" y="204.1" class="st0" width="1" height="1"/>
	<rect x="595.3" y="204.1" class="st0" width="1" height="1"/>
	<rect x="408.2" y="204.1" class="st0" width="1" height="1"/>
	<rect x="680.3" y="204.1" class="st0" width="1" height="1"/>
	<rect x="544.3" y="204.1" class="st0" width="1" height="1"/>
	<rect x="476.2" y="204.1" class="st0" width="1" height="1"/>
	<rect x="612.3" y="204.1" class="st0" width="1" height="1"/>
	<rect x="425.2" y="204.1" class="st0" width="1" height="1"/>
	<rect x="561.3" y="204.1" class="st0" width="1" height="1"/>
	<rect x="493.2" y="204.1" class="st0" width="1" height="1"/>
	<rect x="629.3" y="204.1" class="st0" width="1" height="1"/>
	<rect x="374.2" class="st0" width="1" height="1"/>
	<rect x="646.3" class="st0" width="1" height="1"/>
	<rect x="510.2" class="st0" width="1" height="1"/>
	<rect x="442.2" class="st0" width="1" height="1"/>
	<rect x="578.3" class="st0" width="1" height="1"/>
	<rect x="391.2" class="st0" width="1" height="1"/>
	<rect x="663.3" class="st0" width="1" height="1"/>
	<rect x="527.3" class="st0" width="1" height="1"/>
	<rect x="459.2" class="st0" width="1" height="1"/>
	<rect x="595.3" class="st0" width="1" height="1"/>
	<rect x="408.2" class="st0" width="1" height="1"/>
	<rect x="680.3" class="st0" width="1" height="1"/>
	<rect x="544.3" class="st0" width="1" height="1"/>
	<rect x="476.2" class="st0" width="1" height="1"/>
	<rect x="612.3" class="st0" width="1" height="1"/>
	<rect x="425.2" class="st0" width="1" height="1"/>
	<rect x="561.3" class="st0" width="1" height="1"/>
	<rect x="493.2" class="st0" width="1" height="1"/>
	<rect x="629.3" class="st0" width="1" height="1"/>
	<rect x="374.2" y="272.1" class="st0" width="1" height="1"/>
	<rect x="646.3" y="272.1" class="st0" width="1" height="1"/>
	<rect x="510.2" y="272.1" class="st0" width="1" height="1"/>
	<rect x="442.2" y="272.1" class="st0" width="1" height="1"/>
	<rect x="578.3" y="272.1" class="st0" width="1" height="1"/>
	<rect x="391.2" y="272.1" class="st0" width="1" height="1"/>
	<rect x="663.3" y="272.1" class="st0" width="1" height="1"/>
	<rect x="527.3" y="272.1" class="st0" width="1" height="1"/>
	<rect x="459.2" y="272.1" class="st0" width="1" height="1"/>
	<rect x="595.3" y="272.1" class="st0" width="1" height="1"/>
	<rect x="408.2" y="272.1" class="st0" width="1" height="1"/>
	<rect x="680.3" y="272.1" class="st0" width="1" height="1"/>
	<rect x="544.3" y="272.1" class="st0" width="1" height="1"/>
	<rect x="476.2" y="272.1" class="st0" width="1" height="1"/>
	<rect x="612.3" y="272.1" class="st0" width="1" height="1"/>
	<rect x="425.2" y="272.1" class="st0" width="1" height="1"/>
	<rect x="561.3" y="272.1" class="st0" width="1" height="1"/>
	<rect x="493.2" y="272.1" class="st0" width="1" height="1"/>
	<rect x="629.3" y="272.1" class="st0" width="1" height="1"/>
	<rect x="374.2" y="68" class="st0" width="1" height="1"/>
	<rect x="646.3" y="68" class="st0" width="1" height="1"/>
	<rect x="510.2" y="68" class="st0" width="1" height="1"/>
	<rect x="442.2" y="68" class="st0" width="1" height="1"/>
	<rect x="578.3" y="68" class="st0" width="1" height="1"/>
	<rect x="391.2" y="68" class="st0" width="1" height="1"/>
	<rect x="663.3" y="68" class="st0" width="1" height="1"/>
	<rect x="527.3" y="68" class="st0" width="1" height="1"/>
	<rect x="459.2" y="68" class="st0" width="1" height="1"/>
	<rect x="595.3" y="68" class="st0" width="1" height="1"/>
	<rect x="408.2" y="68" class="st0" width="1" height="1"/>
	<rect x="680.3" y="68" class="st0" width="1" height="1"/>
	<rect x="544.3" y="68" class="st0" width="1" height="1"/>
	<rect x="476.2" y="68" class="st0" width="1" height="1"/>
	<rect x="612.3" y="68" class="st0" width="1" height="1"/>
	<rect x="425.2" y="68" class="st0" width="1" height="1"/>
	<rect x="561.3" y="68" class="st0" width="1" height="1"/>
	<rect x="493.2" y="68" class="st0" width="1" height="1"/>
	<rect x="629.3" y="68" class="st0" width="1" height="1"/>
	<rect x="374.2" y="136.1" class="st0" width="1" height="1"/>
	<rect x="357.7" y="136.1" class="st0" width="1" height="1"/>
	<rect x="357.7" y="119.1" class="st0" width="1" height="1"/>
	<rect x="323.2" y="119.1" class="st0" width="1" height="1"/>
	<rect x="323.2" y="136.1" class="st0" width="1" height="1"/>
	<rect x="306.2" y="153.1" class="st0" width="1" height="1"/>
	<rect x="646.3" y="136.1" class="st0" width="1" height="1"/>
	<rect x="510.2" y="136.1" class="st0" width="1" height="1"/>
	<rect x="442.2" y="136.1" class="st0" width="1" height="1"/>
	<rect x="578.3" y="136.1" class="st0" width="1" height="1"/>
	<rect x="391.2" y="136.1" class="st0" width="1" height="1"/>
	<rect x="663.3" y="136.1" class="st0" width="1" height="1"/>
	<rect x="527.3" y="136.1" class="st0" width="1" height="1"/>
	<rect x="459.2" y="136.1" class="st0" width="1" height="1"/>
	<rect x="595.3" y="136.1" class="st0" width="1" height="1"/>
	<rect x="408.2" y="136.1" class="st0" width="1" height="1"/>
	<rect x="680.3" y="136.1" class="st0" width="1" height="1"/>
	<rect x="544.3" y="136.1" class="st0" width="1" height="1"/>
	<rect x="476.2" y="136.1" class="st0" width="1" height="1"/>
	<rect x="612.3" y="136.1" class="st0" width="1" height="1"/>
	<rect x="425.2" y="136.1" class="st0" width="1" height="1"/>
	<rect x="561.3" y="136.1" class="st0" width="1" height="1"/>
	<rect x="493.2" y="136.1" class="st0" width="1" height="1"/>
	<rect x="629.3" y="136.1" class="st0" width="1" height="1"/>
	<rect x="374.2" y="221.1" class="st0" width="1" height="1"/>
	<rect x="646.3" y="221.1" class="st0" width="1" height="1"/>
	<rect x="510.2" y="221.1" class="st0" width="1" height="1"/>
	<rect x="442.2" y="221.1" class="st0" width="1" height="1"/>
	<rect x="578.3" y="221.1" class="st0" width="1" height="1"/>
	<rect x="391.2" y="221.1" class="st0" width="1" height="1"/>
	<rect x="663.3" y="221.1" class="st0" width="1" height="1"/>
	<rect x="527.3" y="221.1" class="st0" width="1" height="1"/>
	<rect x="459.2" y="221.1" class="st0" width="1" height="1"/>
	<rect x="595.3" y="221.1" class="st0" width="1" height="1"/>
	<rect x="408.2" y="221.1" class="st0" width="1" height="1"/>
	<rect x="680.3" y="221.1" class="st0" width="1" height="1"/>
	<rect x="544.3" y="221.1" class="st0" width="1" height="1"/>
	<rect x="476.2" y="221.1" class="st0" width="1" height="1"/>
	<rect x="612.3" y="221.1" class="st0" width="1" height="1"/>
	<rect x="425.2" y="221.1" class="st0" width="1" height="1"/>
	<rect x="561.3" y="221.1" class="st0" width="1" height="1"/>
	<rect x="493.2" y="221.1" class="st0" width="1" height="1"/>
	<rect x="629.3" y="221.1" class="st0" width="1" height="1"/>
	<rect x="374.2" y="17" class="st0" width="1" height="1"/>
	<rect x="646.3" y="17" class="st0" width="1" height="1"/>
	<rect x="510.2" y="17" class="st0" width="1" height="1"/>
	<rect x="442.2" y="17" class="st0" width="1" height="1"/>
	<rect x="578.3" y="17" class="st0" width="1" height="1"/>
	<rect x="391.2" y="17" class="st0" width="1" height="1"/>
	<rect x="663.3" y="17" class="st0" width="1" height="1"/>
	<rect x="527.3" y="17" class="st0" width="1" height="1"/>
	<rect x="459.2" y="17" class="st0" width="1" height="1"/>
	<rect x="595.3" y="17" class="st0" width="1" height="1"/>
	<rect x="408.2" y="17" class="st0" width="1" height="1"/>
	<rect x="680.3" y="17" class="st0" width="1" height="1"/>
	<rect x="544.3" y="17" class="st0" width="1" height="1"/>
	<rect x="476.2" y="17" class="st0" width="1" height="1"/>
	<rect x="612.3" y="17" class="st0" width="1" height="1"/>
	<rect x="425.2" y="17" class="st0" width="1" height="1"/>
	<rect x="561.3" y="17" class="st0" width="1" height="1"/>
	<rect x="493.2" y="17" class="st0" width="1" height="1"/>
	<rect x="629.3" y="17" class="st0" width="1" height="1"/>
	<rect x="374.2" y="289.2" class="st0" width="1" height="1"/>
	<rect x="646.3" y="289.2" class="st0" width="1" height="1"/>
	<rect x="510.2" y="289.2" class="st0" width="1" height="1"/>
	<rect x="442.2" y="289.2" class="st0" width="1" height="1"/>
	<rect x="578.3" y="289.2" class="st0" width="1" height="1"/>
	<rect x="391.2" y="289.2" class="st0" width="1" height="1"/>
	<rect x="663.3" y="289.2" class="st0" width="1" height="1"/>
	<rect x="527.3" y="289.2" class="st0" width="1" height="1"/>
	<rect x="459.2" y="289.2" class="st0" width="1" height="1"/>
	<rect x="595.3" y="289.2" class="st0" width="1" height="1"/>
	<rect x="408.2" y="289.2" class="st0" width="1" height="1"/>
	<rect x="680.3" y="289.2" class="st0" width="1" height="1"/>
	<rect x="544.3" y="289.2" class="st0" width="1" height="1"/>
	<rect x="476.2" y="289.2" class="st0" width="1" height="1"/>
	<rect x="612.3" y="289.2" class="st0" width="1" height="1"/>
	<rect x="425.2" y="289.2" class="st0" width="1" height="1"/>
	<rect x="561.3" y="289.2" class="st0" width="1" height="1"/>
	<rect x="493.2" y="289.2" class="st0" width="1" height="1"/>
	<rect x="629.3" y="289.2" class="st0" width="1" height="1"/>
	<rect x="374.2" y="85.1" class="st0" width="1" height="1"/>
	<rect x="646.3" y="85.1" class="st0" width="1" height="1"/>
	<rect x="510.2" y="85.1" class="st0" width="1" height="1"/>
	<rect x="442.2" y="85.1" class="st0" width="1" height="1"/>
	<rect x="578.3" y="85.1" class="st0" width="1" height="1"/>
	<rect x="391.2" y="85.1" class="st0" width="1" height="1"/>
	<rect x="663.3" y="85.1" class="st0" width="1" height="1"/>
	<rect x="527.3" y="85.1" class="st0" width="1" height="1"/>
	<rect x="459.2" y="85.1" class="st0" width="1" height="1"/>
	<rect x="595.3" y="85.1" class="st0" width="1" height="1"/>
	<rect x="408.2" y="85.1" class="st0" width="1" height="1"/>
	<rect x="680.3" y="85.1" class="st0" width="1" height="1"/>
	<rect x="544.3" y="85.1" class="st0" width="1" height="1"/>
	<rect x="476.2" y="85.1" class="st0" width="1" height="1"/>
	<rect x="612.3" y="85.1" class="st0" width="1" height="1"/>
	<rect x="425.2" y="85.1" class="st0" width="1" height="1"/>
	<rect x="561.3" y="85.1" class="st0" width="1" height="1"/>
	<rect x="493.2" y="85.1" class="st0" width="1" height="1"/>
	<rect x="629.3" y="85.1" class="st0" width="1" height="1"/>
	<rect x="374.2" y="153.1" class="st0" width="1" height="1"/>
	<rect x="646.3" y="153.1" class="st0" width="1" height="1"/>
	<rect x="510.2" y="153.1" class="st0" width="1" height="1"/>
	<rect x="442.2" y="153.1" class="st0" width="1" height="1"/>
	<rect x="578.3" y="153.1" class="st0" width="1" height="1"/>
	<rect x="391.2" y="153.1" class="st0" width="1" height="1"/>
	<rect x="663.3" y="153.1" class="st0" width="1" height="1"/>
	<rect x="527.3" y="153.1" class="st0" width="1" height="1"/>
	<rect x="459.2" y="153.1" class="st0" width="1" height="1"/>
	<rect x="595.3" y="153.1" class="st0" width="1" height="1"/>
	<rect x="408.2" y="153.1" class="st0" width="1" height="1"/>
	<rect x="680.3" y="153.1" class="st0" width="1" height="1"/>
	<rect x="544.3" y="153.1" class="st0" width="1" height="1"/>
	<rect x="476.2" y="153.1" class="st0" width="1" height="1"/>
	<rect x="612.3" y="153.1" class="st0" width="1" height="1"/>
	<rect x="425.2" y="153.1" class="st0" width="1" height="1"/>
	<rect x="561.3" y="153.1" class="st0" width="1" height="1"/>
	<rect x="493.2" y="153.1" class="st0" width="1" height="1"/>
	<rect x="629.3" y="153.1" class="st0" width="1" height="1"/>
	<rect x="374.2" y="238.1" class="st0" width="1" height="1"/>
	<rect x="646.3" y="238.1" class="st0" width="1" height="1"/>
	<rect x="510.2" y="238.1" class="st0" width="1" height="1"/>
	<rect x="442.2" y="238.1" class="st0" width="1" height="1"/>
	<rect x="578.3" y="238.1" class="st0" width="1" height="1"/>
	<rect x="391.2" y="238.1" class="st0" width="1" height="1"/>
	<rect x="663.3" y="238.1" class="st0" width="1" height="1"/>
	<rect x="527.3" y="238.1" class="st0" width="1" height="1"/>
	<rect x="459.2" y="238.1" class="st0" width="1" height="1"/>
	<rect x="595.3" y="238.1" class="st0" width="1" height="1"/>
	<rect x="408.2" y="238.1" class="st0" width="1" height="1"/>
	<rect x="680.3" y="238.1" class="st0" width="1" height="1"/>
	<rect x="544.3" y="238.1" class="st0" width="1" height="1"/>
	<rect x="476.2" y="238.1" class="st0" width="1" height="1"/>
	<rect x="612.3" y="238.1" class="st0" width="1" height="1"/>
	<rect x="425.2" y="238.1" class="st0" width="1" height="1"/>
	<rect x="561.3" y="238.1" class="st0" width="1" height="1"/>
	<rect x="493.2" y="238.1" class="st0" width="1" height="1"/>
	<rect x="629.3" y="238.1" class="st0" width="1" height="1"/>
	<rect x="374.2" y="34" class="st0" width="1" height="1"/>
	<rect x="646.3" y="34" class="st0" width="1" height="1"/>
	<rect x="510.2" y="34" class="st0" width="1" height="1"/>
	<rect x="442.2" y="34" class="st0" width="1" height="1"/>
	<rect x="578.3" y="34" class="st0" width="1" height="1"/>
	<rect x="391.2" y="34" class="st0" width="1" height="1"/>
	<rect x="663.3" y="34" class="st0" width="1" height="1"/>
	<rect x="527.3" y="34" class="st0" width="1" height="1"/>
	<rect x="459.2" y="34" class="st0" width="1" height="1"/>
	<rect x="595.3" y="34" class="st0" width="1" height="1"/>
	<rect x="408.2" y="34" class="st0" width="1" height="1"/>
	<rect x="680.3" y="34" class="st0" width="1" height="1"/>
	<rect x="544.3" y="34" class="st0" width="1" height="1"/>
	<rect x="476.2" y="34" class="st0" width="1" height="1"/>
	<rect x="612.3" y="34" class="st0" width="1" height="1"/>
	<rect x="425.2" y="34" class="st0" width="1" height="1"/>
	<rect x="561.3" y="34" class="st0" width="1" height="1"/>
	<rect x="493.2" y="34" class="st0" width="1" height="1"/>
	<rect x="629.3" y="34" class="st0" width="1" height="1"/>
	<rect x="374.2" y="102.1" class="st0" width="1" height="1"/>
	<rect x="646.3" y="102.1" class="st0" width="1" height="1"/>
	<rect x="510.2" y="102.1" class="st0" width="1" height="1"/>
	<rect x="442.2" y="102.1" class="st0" width="1" height="1"/>
	<rect x="578.3" y="102.1" class="st0" width="1" height="1"/>
	<rect x="391.2" y="102.1" class="st0" width="1" height="1"/>
	<rect x="663.3" y="102.1" class="st0" width="1" height="1"/>
	<rect x="527.3" y="102.1" class="st0" width="1" height="1"/>
	<rect x="459.2" y="102.1" class="st0" width="1" height="1"/>
	<rect x="595.3" y="102.1" class="st0" width="1" height="1"/>
	<rect x="408.2" y="102.1" class="st0" width="1" height="1"/>
	<rect x="680.3" y="102.1" class="st0" width="1" height="1"/>
	<rect x="544.3" y="102.1" class="st0" width="1" height="1"/>
	<rect x="476.2" y="102.1" class="st0" width="1" height="1"/>
	<rect x="612.3" y="102.1" class="st0" width="1" height="1"/>
	<rect x="425.2" y="102.1" class="st0" width="1" height="1"/>
	<rect x="561.3" y="102.1" class="st0" width="1" height="1"/>
	<rect x="493.2" y="102.1" class="st0" width="1" height="1"/>
	<rect x="629.3" y="102.1" class="st0" width="1" height="1"/>
	<rect x="374.2" y="170.1" class="st0" width="1" height="1"/>
	<rect x="646.3" y="170.1" class="st0" width="1" height="1"/>
	<rect x="510.2" y="170.1" class="st0" width="1" height="1"/>
	<rect x="442.2" y="170.1" class="st0" width="1" height="1"/>
	<rect x="578.3" y="170.1" class="st0" width="1" height="1"/>
	<rect x="391.2" y="170.1" class="st0" width="1" height="1"/>
	<rect x="663.3" y="170.1" class="st0" width="1" height="1"/>
	<rect x="527.3" y="170.1" class="st0" width="1" height="1"/>
	<rect x="459.2" y="170.1" class="st0" width="1" height="1"/>
	<rect x="595.3" y="170.1" class="st0" width="1" height="1"/>
	<rect x="408.2" y="170.1" class="st0" width="1" height="1"/>
	<rect x="680.3" y="170.1" class="st0" width="1" height="1"/>
	<rect x="544.3" y="170.1" class="st0" width="1" height="1"/>
	<rect x="476.2" y="170.1" class="st0" width="1" height="1"/>
	<rect x="612.3" y="170.1" class="st0" width="1" height="1"/>
	<rect x="425.2" y="170.1" class="st0" width="1" height="1"/>
	<rect x="561.3" y="170.1" class="st0" width="1" height="1"/>
	<rect x="493.2" y="170.1" class="st0" width="1" height="1"/>
	<rect x="629.3" y="170.1" class="st0" width="1" height="1"/>
	<rect x="374.2" y="255.1" class="st0" width="1" height="1"/>
	<rect x="646.3" y="255.1" class="st0" width="1" height="1"/>
	<rect x="510.2" y="255.1" class="st0" width="1" height="1"/>
	<rect x="442.2" y="255.1" class="st0" width="1" height="1"/>
	<rect x="578.3" y="255.1" class="st0" width="1" height="1"/>
	<rect x="391.2" y="255.1" class="st0" width="1" height="1"/>
	<rect x="663.3" y="255.1" class="st0" width="1" height="1"/>
	<rect x="527.3" y="255.1" class="st0" width="1" height="1"/>
	<rect x="459.2" y="255.1" class="st0" width="1" height="1"/>
	<rect x="595.3" y="255.1" class="st0" width="1" height="1"/>
	<rect x="408.2" y="255.1" class="st0" width="1" height="1"/>
	<rect x="680.3" y="255.1" class="st0" width="1" height="1"/>
	<rect x="544.3" y="255.1" class="st0" width="1" height="1"/>
	<rect x="476.2" y="255.1" class="st0" width="1" height="1"/>
	<rect x="612.3" y="255.1" class="st0" width="1" height="1"/>
	<rect x="425.2" y="255.1" class="st0" width="1" height="1"/>
	<rect x="561.3" y="255.1" class="st0" width="1" height="1"/>
	<rect x="493.2" y="255.1" class="st0" width="1" height="1"/>
	<rect x="629.3" y="255.1" class="st0" width="1" height="1"/>
	<rect x="374.2" y="51" class="st0" width="1" height="1"/>
	<rect x="646.3" y="51" class="st0" width="1" height="1"/>
	<rect x="510.2" y="51" class="st0" width="1" height="1"/>
	<rect x="442.2" y="51" class="st0" width="1" height="1"/>
	<rect x="578.3" y="51" class="st0" width="1" height="1"/>
	<rect x="391.2" y="51" class="st0" width="1" height="1"/>
	<rect x="663.3" y="51" class="st0" width="1" height="1"/>
	<rect x="527.3" y="51" class="st0" width="1" height="1"/>
	<rect x="459.2" y="51" class="st0" width="1" height="1"/>
	<rect x="595.3" y="51" class="st0" width="1" height="1"/>
	<rect x="408.2" y="51" class="st0" width="1" height="1"/>
	<rect x="680.3" y="51" class="st0" width="1" height="1"/>
	<rect x="544.3" y="51" class="st0" width="1" height="1"/>
	<rect x="476.2" y="51" class="st0" width="1" height="1"/>
	<rect x="612.3" y="51" class="st0" width="1" height="1"/>
	<rect x="425.2" y="51" class="st0" width="1" height="1"/>
	<rect x="561.3" y="51" class="st0" width="1" height="1"/>
	<rect x="493.2" y="51" class="st0" width="1" height="1"/>
	<rect x="629.3" y="51" class="st0" width="1" height="1"/>
	<rect x="374.2" y="119.1" class="st0" width="1" height="1"/>
	<rect x="646.3" y="119.1" class="st0" width="1" height="1"/>
	<rect x="510.2" y="119.1" class="st0" width="1" height="1"/>
	<rect x="442.2" y="119.1" class="st0" width="1" height="1"/>
	<rect x="578.3" y="119.1" class="st0" width="1" height="1"/>
	<rect x="391.2" y="119.1" class="st0" width="1" height="1"/>
	<rect x="663.3" y="119.1" class="st0" width="1" height="1"/>
	<rect x="527.3" y="119.1" class="st0" width="1" height="1"/>
	<rect x="459.2" y="119.1" class="st0" width="1" height="1"/>
	<rect x="595.3" y="119.1" class="st0" width="1" height="1"/>
	<rect x="408.2" y="119.1" class="st0" width="1" height="1"/>
	<rect x="680.3" y="119.1" class="st0" width="1" height="1"/>
	<rect x="544.3" y="119.1" class="st0" width="1" height="1"/>
	<rect x="476.2" y="119.1" class="st0" width="1" height="1"/>
	<rect x="612.3" y="119.1" class="st0" width="1" height="1"/>
	<rect x="425.2" y="119.1" class="st0" width="1" height="1"/>
	<rect x="561.3" y="119.1" class="st0" width="1" height="1"/>
	<rect x="493.2" y="119.1" class="st0" width="1" height="1"/>
	<rect x="629.3" y="119.1" class="st0" width="1" height="1"/>
	<rect x="374.2" y="187.1" class="st0" width="1" height="1"/>
	<rect x="646.3" y="187.1" class="st0" width="1" height="1"/>
	<rect x="510.2" y="187.1" class="st0" width="1" height="1"/>
	<rect x="442.2" y="187.1" class="st0" width="1" height="1"/>
	<rect x="578.3" y="187.1" class="st0" width="1" height="1"/>
	<rect x="391.2" y="187.1" class="st0" width="1" height="1"/>
	<rect x="663.3" y="187.1" class="st0" width="1" height="1"/>
	<rect x="527.3" y="187.1" class="st0" width="1" height="1"/>
	<rect x="459.2" y="187.1" class="st0" width="1" height="1"/>
	<rect x="595.3" y="187.1" class="st0" width="1" height="1"/>
	<rect x="408.2" y="187.1" class="st0" width="1" height="1"/>
	<rect x="680.3" y="187.1" class="st0" width="1" height="1"/>
	<rect x="544.3" y="187.1" class="st0" width="1" height="1"/>
	<rect x="476.2" y="187.1" class="st0" width="1" height="1"/>
	<rect x="612.3" y="187.1" class="st0" width="1" height="1"/>
	<rect x="425.2" y="187.1" class="st0" width="1" height="1"/>
	<rect x="561.3" y="187.1" class="st0" width="1" height="1"/>
	<rect x="493.2" y="187.1" class="st0" width="1" height="1"/>
	<rect x="629.3" y="187.1" class="st0" width="1" height="1"/>
	<rect x="238.1" y="204.1" class="st0" width="1" height="1"/>
	<rect x="102.1" y="204.1" class="st0" width="1" height="1"/>
	<rect x="34" y="204.1" class="st0" width="1" height="1"/>
	<rect x="306.2" y="204.1" class="st0" width="1" height="1"/>
	<rect x="170.1" y="204.1" class="st0" width="1" height="1"/>
	<rect x="255.1" y="204.1" class="st0" width="1" height="1"/>
	<rect x="119.1" y="204.1" class="st0" width="1" height="1"/>
	<rect x="51" y="204.1" class="st0" width="1" height="1"/>
	<rect x="323.2" y="204.1" class="st0" width="1" height="1"/>
	<rect x="187.1" y="204.1" class="st0" width="1" height="1"/>
	<rect y="204.1" class="st0" width="1" height="1"/>
	<rect x="272.1" y="204.1" class="st0" width="1" height="1"/>
	<rect x="136.1" y="204.1" class="st0" width="1" height="1"/>
	<rect x="68" y="204.1" class="st0" width="1" height="1"/>
	<rect x="340.2" y="204.1" class="st0" width="1" height="1"/>
	<rect x="204.1" y="204.1" class="st0" width="1" height="1"/>
	<rect x="17" y="204.1" class="st0" width="1" height="1"/>
	<rect x="289.1" y="204.1" class="st0" width="1" height="1"/>
	<rect x="153.1" y="204.1" class="st0" width="1" height="1"/>
	<rect x="85.1" y="204.1" class="st0" width="1" height="1"/>
	<rect x="357.2" y="204.1" class="st0" width="1" height="1"/>
	<rect x="221.1" y="204.1" class="st0" width="1" height="1"/>
	<rect x="238.1" class="st0" width="1" height="1"/>
	<rect x="102.1" class="st0" width="1" height="1"/>
	<rect x="34" class="st0" width="1" height="1"/>
	<rect x="306.2" class="st0" width="1" height="1"/>
	<rect x="170.1" class="st0" width="1" height="1"/>
	<rect x="255.1" class="st0" width="1" height="1"/>
	<rect x="119.1" class="st0" width="1" height="1"/>
	<rect x="51" class="st0" width="1" height="1"/>
	<rect x="323.2" class="st0" width="1" height="1"/>
	<rect x="187.1" class="st0" width="1" height="1"/>
	<rect class="st0" width="1" height="1"/>
	<rect x="272.1" class="st0" width="1" height="1"/>
	<rect x="136.1" class="st0" width="1" height="1"/>
	<rect x="68" class="st0" width="1" height="1"/>
	<rect x="340.2" class="st0" width="1" height="1"/>
	<rect x="204.1" class="st0" width="1" height="1"/>
	<rect x="17" class="st0" width="1" height="1"/>
	<rect x="289.1" class="st0" width="1" height="1"/>
	<rect x="153.1" class="st0" width="1" height="1"/>
	<rect x="85.1" class="st0" width="1" height="1"/>
	<rect x="357.2" class="st0" width="1" height="1"/>
	<rect x="221.1" class="st0" width="1" height="1"/>
	<rect x="238.1" y="272.1" class="st0" width="1" height="1"/>
	<rect x="102.1" y="272.1" class="st0" width="1" height="1"/>
	<rect x="34" y="272.1" class="st0" width="1" height="1"/>
	<rect x="306.2" y="272.1" class="st0" width="1" height="1"/>
	<rect x="170.1" y="272.1" class="st0" width="1" height="1"/>
	<rect x="255.1" y="272.1" class="st0" width="1" height="1"/>
	<rect x="119.1" y="272.1" class="st0" width="1" height="1"/>
	<rect x="51" y="272.1" class="st0" width="1" height="1"/>
	<rect x="323.2" y="272.1" class="st0" width="1" height="1"/>
	<rect x="187.1" y="272.1" class="st0" width="1" height="1"/>
	<rect y="272.1" class="st0" width="1" height="1"/>
	<rect x="272.1" y="272.1" class="st0" width="1" height="1"/>
	<rect x="136.1" y="272.1" class="st0" width="1" height="1"/>
	<rect x="68" y="272.1" class="st0" width="1" height="1"/>
	<rect x="340.2" y="272.1" class="st0" width="1" height="1"/>
	<rect x="204.1" y="272.1" class="st0" width="1" height="1"/>
	<rect x="17" y="272.1" class="st0" width="1" height="1"/>
	<rect x="289.1" y="272.1" class="st0" width="1" height="1"/>
	<rect x="153.1" y="272.1" class="st0" width="1" height="1"/>
	<rect x="85.1" y="272.1" class="st0" width="1" height="1"/>
	<rect x="357.2" y="272.1" class="st0" width="1" height="1"/>
	<rect x="221.1" y="272.1" class="st0" width="1" height="1"/>
	<rect x="238.1" y="68" class="st0" width="1" height="1"/>
	<rect x="102.1" y="68" class="st0" width="1" height="1"/>
	<rect x="34" y="68" class="st0" width="1" height="1"/>
	<rect x="306.2" y="68" class="st0" width="1" height="1"/>
	<rect x="170.1" y="68" class="st0" width="1" height="1"/>
	<rect x="255.1" y="68" class="st0" width="1" height="1"/>
	<rect x="119.1" y="68" class="st0" width="1" height="1"/>
	<rect x="51" y="68" class="st0" width="1" height="1"/>
	<rect x="323.2" y="68" class="st0" width="1" height="1"/>
	<rect x="187.1" y="68" class="st0" width="1" height="1"/>
	<rect y="68" class="st0" width="1" height="1"/>
	<rect x="272.1" y="68" class="st0" width="1" height="1"/>
	<rect x="136.1" y="68" class="st0" width="1" height="1"/>
	<rect x="68" y="68" class="st0" width="1" height="1"/>
	<rect x="340.2" y="68" class="st0" width="1" height="1"/>
	<rect x="204.1" y="68" class="st0" width="1" height="1"/>
	<rect x="17" y="68" class="st0" width="1" height="1"/>
	<rect x="289.1" y="68" class="st0" width="1" height="1"/>
	<rect x="153.1" y="68" class="st0" width="1" height="1"/>
	<rect x="85.1" y="68" class="st0" width="1" height="1"/>
	<rect x="357.2" y="68" class="st0" width="1" height="1"/>
	<rect x="221.1" y="68" class="st0" width="1" height="1"/>
	<rect x="238.1" y="136.1" class="st0" width="1" height="1"/>
	<rect x="102.1" y="136.1" class="st0" width="1" height="1"/>
	<rect x="34" y="136.1" class="st0" width="1" height="1"/>
	<rect x="306.2" y="136.1" class="st0" width="1" height="1"/>
	<rect x="170.1" y="136.1" class="st0" width="1" height="1"/>
	<rect x="255.1" y="136.1" class="st0" width="1" height="1"/>
	<rect x="119.1" y="136.1" class="st0" width="1" height="1"/>
	<rect x="51" y="136.1" class="st0" width="1" height="1"/>
	<rect x="187.1" y="136.1" class="st0" width="1" height="1"/>
	<rect y="136.1" class="st0" width="1" height="1"/>
	<rect x="272.1" y="136.1" class="st0" width="1" height="1"/>
	<rect x="136.1" y="136.1" class="st0" width="1" height="1"/>
	<rect x="68" y="136.1" class="st0" width="1" height="1"/>
	<rect x="340.2" y="136.1" class="st0" width="1" height="1"/>
	<rect x="204.1" y="136.1" class="st0" width="1" height="1"/>
	<rect x="17" y="136.1" class="st0" width="1" height="1"/>
	<rect x="289.1" y="136.1" class="st0" width="1" height="1"/>
	<rect x="153.1" y="136.1" class="st0" width="1" height="1"/>
	<rect x="85.1" y="136.1" class="st0" width="1" height="1"/>
	<rect x="221.1" y="136.1" class="st0" width="1" height="1"/>
	<rect x="238.1" y="221.1" class="st0" width="1" height="1"/>
	<rect x="102.1" y="221.1" class="st0" width="1" height="1"/>
	<rect x="34" y="221.1" class="st0" width="1" height="1"/>
	<rect x="306.2" y="221.1" class="st0" width="1" height="1"/>
	<rect x="170.1" y="221.1" class="st0" width="1" height="1"/>
	<rect x="255.1" y="221.1" class="st0" width="1" height="1"/>
	<rect x="119.1" y="221.1" class="st0" width="1" height="1"/>
	<rect x="51" y="221.1" class="st0" width="1" height="1"/>
	<rect x="323.2" y="221.1" class="st0" width="1" height="1"/>
	<rect x="187.1" y="221.1" class="st0" width="1" height="1"/>
	<rect y="221.1" class="st0" width="1" height="1"/>
	<rect x="272.1" y="221.1" class="st0" width="1" height="1"/>
	<rect x="136.1" y="221.1" class="st0" width="1" height="1"/>
	<rect x="68" y="221.1" class="st0" width="1" height="1"/>
	<rect x="340.2" y="221.1" class="st0" width="1" height="1"/>
	<rect x="204.1" y="221.1" class="st0" width="1" height="1"/>
	<rect x="17" y="221.1" class="st0" width="1" height="1"/>
	<rect x="289.1" y="221.1" class="st0" width="1" height="1"/>
	<rect x="153.1" y="221.1" class="st0" width="1" height="1"/>
	<rect x="85.1" y="221.1" class="st0" width="1" height="1"/>
	<rect x="357.2" y="221.1" class="st0" width="1" height="1"/>
	<rect x="221.1" y="221.1" class="st0" width="1" height="1"/>
	<rect x="238.1" y="17" class="st0" width="1" height="1"/>
	<rect x="102.1" y="17" class="st0" width="1" height="1"/>
	<rect x="34" y="17" class="st0" width="1" height="1"/>
	<rect x="306.2" y="17" class="st0" width="1" height="1"/>
	<rect x="170.1" y="17" class="st0" width="1" height="1"/>
	<rect x="255.1" y="17" class="st0" width="1" height="1"/>
	<rect x="119.1" y="17" class="st0" width="1" height="1"/>
	<rect x="51" y="17" class="st0" width="1" height="1"/>
	<rect x="323.2" y="17" class="st0" width="1" height="1"/>
	<rect x="187.1" y="17" class="st0" width="1" height="1"/>
	<rect y="17" class="st0" width="1" height="1"/>
	<rect x="272.1" y="17" class="st0" width="1" height="1"/>
	<rect x="136.1" y="17" class="st0" width="1" height="1"/>
	<rect x="68" y="17" class="st0" width="1" height="1"/>
	<rect x="340.2" y="17" class="st0" width="1" height="1"/>
	<rect x="204.1" y="17" class="st0" width="1" height="1"/>
	<rect x="17" y="17" class="st0" width="1" height="1"/>
	<rect x="289.1" y="17" class="st0" width="1" height="1"/>
	<rect x="153.1" y="17" class="st0" width="1" height="1"/>
	<rect x="85.1" y="17" class="st0" width="1" height="1"/>
	<rect x="357.2" y="17" class="st0" width="1" height="1"/>
	<rect x="221.1" y="17" class="st0" width="1" height="1"/>
	<rect x="238.1" y="289.2" class="st0" width="1" height="1"/>
	<rect x="102.1" y="289.2" class="st0" width="1" height="1"/>
	<rect x="34" y="289.2" class="st0" width="1" height="1"/>
	<rect x="306.2" y="289.2" class="st0" width="1" height="1"/>
	<rect x="170.1" y="289.2" class="st0" width="1" height="1"/>
	<rect x="255.1" y="289.2" class="st0" width="1" height="1"/>
	<rect x="119.1" y="289.2" class="st0" width="1" height="1"/>
	<rect x="51" y="289.2" class="st0" width="1" height="1"/>
	<rect x="323.2" y="289.2" class="st0" width="1" height="1"/>
	<rect x="187.1" y="289.2" class="st0" width="1" height="1"/>
	<rect y="289.2" class="st0" width="1" height="1"/>
	<rect x="272.1" y="289.2" class="st0" width="1" height="1"/>
	<rect x="136.1" y="289.2" class="st0" width="1" height="1"/>
	<rect x="68" y="289.2" class="st0" width="1" height="1"/>
	<rect x="340.2" y="289.2" class="st0" width="1" height="1"/>
	<rect x="204.1" y="289.2" class="st0" width="1" height="1"/>
	<rect x="17" y="289.2" class="st0" width="1" height="1"/>
	<rect x="289.1" y="289.2" class="st0" width="1" height="1"/>
	<rect x="153.1" y="289.2" class="st0" width="1" height="1"/>
	<rect x="85.1" y="289.2" class="st0" width="1" height="1"/>
	<rect x="357.2" y="289.2" class="st0" width="1" height="1"/>
	<rect x="221.1" y="289.2" class="st0" width="1" height="1"/>
	<rect x="238.1" y="85.1" class="st0" width="1" height="1"/>
	<rect x="102.1" y="85.1" class="st0" width="1" height="1"/>
	<rect x="34" y="85.1" class="st0" width="1" height="1"/>
	<rect x="306.2" y="85.1" class="st0" width="1" height="1"/>
	<rect x="170.1" y="85.1" class="st0" width="1" height="1"/>
	<rect x="255.1" y="85.1" class="st0" width="1" height="1"/>
	<rect x="119.1" y="85.1" class="st0" width="1" height="1"/>
	<rect x="51" y="85.1" class="st0" width="1" height="1"/>
	<rect x="323.2" y="85.1" class="st0" width="1" height="1"/>
	<rect x="187.1" y="85.1" class="st0" width="1" height="1"/>
	<rect y="85.1" class="st0" width="1" height="1"/>
	<rect x="272.1" y="85.1" class="st0" width="1" height="1"/>
	<rect x="136.1" y="85.1" class="st0" width="1" height="1"/>
	<rect x="68" y="85.1" class="st0" width="1" height="1"/>
	<rect x="340.2" y="85.1" class="st0" width="1" height="1"/>
	<rect x="204.1" y="85.1" class="st0" width="1" height="1"/>
	<rect x="17" y="85.1" class="st0" width="1" height="1"/>
	<rect x="289.1" y="85.1" class="st0" width="1" height="1"/>
	<rect x="153.1" y="85.1" class="st0" width="1" height="1"/>
	<rect x="85.1" y="85.1" class="st0" width="1" height="1"/>
	<rect x="357.2" y="85.1" class="st0" width="1" height="1"/>
	<rect x="221.1" y="85.1" class="st0" width="1" height="1"/>
	<rect x="238.1" y="153.1" class="st0" width="1" height="1"/>
	<rect x="102.1" y="153.1" class="st0" width="1" height="1"/>
	<rect x="34" y="153.1" class="st0" width="1" height="1"/>
	<rect x="170.1" y="153.1" class="st0" width="1" height="1"/>
	<rect x="255.1" y="153.1" class="st0" width="1" height="1"/>
	<rect x="119.1" y="153.1" class="st0" width="1" height="1"/>
	<rect x="51" y="153.1" class="st0" width="1" height="1"/>
	<rect x="323.2" y="153.1" class="st0" width="1" height="1"/>
	<rect x="187.1" y="153.1" class="st0" width="1" height="1"/>
	<rect y="153.1" class="st0" width="1" height="1"/>
	<rect x="272.1" y="153.1" class="st0" width="1" height="1"/>
	<rect x="136.1" y="153.1" class="st0" width="1" height="1"/>
	<rect x="68" y="153.1" class="st0" width="1" height="1"/>
	<rect x="340.2" y="153.1" class="st0" width="1" height="1"/>
	<rect x="204.1" y="153.1" class="st0" width="1" height="1"/>
	<rect x="17" y="153.1" class="st0" width="1" height="1"/>
	<rect x="289.1" y="153.1" class="st0" width="1" height="1"/>
	<rect x="153.1" y="153.1" class="st0" width="1" height="1"/>
	<rect x="85.1" y="153.1" class="st0" width="1" height="1"/>
	<rect x="357.2" y="153.1" class="st0" width="1" height="1"/>
	<rect x="221.1" y="153.1" class="st0" width="1" height="1"/>
	<rect x="238.1" y="238.1" class="st0" width="1" height="1"/>
	<rect x="102.1" y="238.1" class="st0" width="1" height="1"/>
	<rect x="34" y="238.1" class="st0" width="1" height="1"/>
	<rect x="170.1" y="238.1" class="st0" width="1" height="1"/>
	<rect x="255.1" y="238.1" class="st0" width="1" height="1"/>
	<rect x="119.1" y="238.1" class="st0" width="1" height="1"/>
	<rect x="51" y="238.1" class="st1" width="1" height="1"/>
	<rect x="323.2" y="238.1" class="st0" width="1" height="1"/>
	<rect x="306.2" y="238.1" class="st0" width="1" height="1"/>
	<rect x="187.1" y="238.1" class="st0" width="1" height="1"/>
	<rect y="238.1" class="st0" width="1" height="1"/>
	<rect x="272.1" y="238.1" class="st0" width="1" height="1"/>
	<rect x="136.1" y="238.1" class="st0" width="1" height="1"/>
	<rect x="68" y="238.1" class="st0" width="1" height="1"/>
	<rect x="340.2" y="238.1" class="st0" width="1" height="1"/>
	<rect x="204.1" y="238.1" class="st0" width="1" height="1"/>
	<rect x="17" y="238.1" class="st0" width="1" height="1"/>
	<rect x="289.1" y="238.1" class="st0" width="1" height="1"/>
	<rect x="153.1" y="238.1" class="st0" width="1" height="1"/>
	<rect x="85.1" y="238.1" class="st0" width="1" height="1"/>
	<rect x="357.2" y="238.1" class="st0" width="1" height="1"/>
	<rect x="221.1" y="238.1" class="st0" width="1" height="1"/>
	<rect x="238.1" y="34" class="st0" width="1" height="1"/>
	<rect x="102.1" y="34" class="st1" width="1" height="1"/>
	<rect x="34" y="34" class="st1" width="1" height="1"/>
	<rect x="306.2" y="34" class="st0" width="1" height="1"/>
	<rect x="170.1" y="34" class="st0" width="1" height="1"/>
	<rect x="255.1" y="34" class="st0" width="1" height="1"/>
	<rect x="119.1" y="34" class="st1" width="1" height="1"/>
	<rect x="51" y="34" class="st1" width="1" height="1"/>
	<rect x="323.2" y="34" class="st0" width="1" height="1"/>
	<rect x="187.1" y="34" class="st0" width="1" height="1"/>
	<rect y="34" class="st0" width="1" height="1"/>
	<rect x="272.1" y="34" class="st0" width="1" height="1"/>
	<rect x="136.1" y="34" class="st1" width="1" height="1"/>
	<rect x="68" y="34" class="st1" width="1" height="1"/>
	<rect x="340.2" y="34" class="st0" width="1" height="1"/>
	<rect x="204.1" y="34" class="st0" width="1" height="1"/>
	<rect x="17" y="34" class="st0" width="1" height="1"/>
	<rect x="289.1" y="34" class="st0" width="1" height="1"/>
	<rect x="153.1" y="34" class="st0" width="1" height="1"/>
	<rect x="85.1" y="34" class="st1" width="1" height="1"/>
	<rect x="357.2" y="34" class="st0" width="1" height="1"/>
	<rect x="221.1" y="34" class="st0" width="1" height="1"/>
	<rect x="238.1" y="102.1" class="st0" width="1" height="1"/>
	<rect x="102.1" y="102.1" class="st0" width="1" height="1"/>
	<rect x="34" y="102.1" class="st0" width="1" height="1"/>
	<rect x="306.2" y="102.1" class="st0" width="1" height="1"/>
	<rect x="170.1" y="102.1" class="st0" width="1" height="1"/>
	<rect x="255.1" y="102.1" class="st0" width="1" height="1"/>
	<rect x="119.1" y="102.1" class="st0" width="1" height="1"/>
	<rect x="51" y="102.1" class="st0" width="1" height="1"/>
	<rect x="323.2" y="102.1" class="st0" width="1" height="1"/>
	<rect x="187.1" y="102.1" class="st0" width="1" height="1"/>
	<rect y="102.1" class="st0" width="1" height="1"/>
	<rect x="272.1" y="102.1" class="st0" width="1" height="1"/>
	<rect x="136.1" y="102.1" class="st0" width="1" height="1"/>
	<rect x="68" y="102.1" class="st0" width="1" height="1"/>
	<rect x="340.2" y="102.1" class="st0" width="1" height="1"/>
	<rect x="204.1" y="102.1" class="st0" width="1" height="1"/>
	<rect x="17" y="102.1" class="st0" width="1" height="1"/>
	<rect x="289.1" y="102.1" class="st0" width="1" height="1"/>
	<rect x="153.1" y="102.1" class="st0" width="1" height="1"/>
	<rect x="85.1" y="102.1" class="st0" width="1" height="1"/>
	<rect x="357.2" y="102.1" class="st0" width="1" height="1"/>
	<rect x="221.1" y="102.1" class="st0" width="1" height="1"/>
	<rect x="238.1" y="170.1" class="st0" width="1" height="1"/>
	<rect x="102.1" y="170.1" class="st0" width="1" height="1"/>
	<rect x="34" y="170.1" class="st0" width="1" height="1"/>
	<rect x="306.2" y="170.1" class="st0" width="1" height="1"/>
	<rect x="170.1" y="170.1" class="st0" width="1" height="1"/>
	<rect x="255.1" y="170.1" class="st0" width="1" height="1"/>
	<rect x="119.1" y="170.1" class="st0" width="1" height="1"/>
	<rect x="51" y="170.1" class="st0" width="1" height="1"/>
	<rect x="323.2" y="170.1" class="st0" width="1" height="1"/>
	<rect x="187.1" y="170.1" class="st0" width="1" height="1"/>
	<rect y="170.1" class="st0" width="1" height="1"/>
	<rect x="272.1" y="170.1" class="st0" width="1" height="1"/>
	<rect x="136.1" y="170.1" class="st0" width="1" height="1"/>
	<rect x="68" y="170.1" class="st0" width="1" height="1"/>
	<rect x="340.2" y="170.1" class="st0" width="1" height="1"/>
	<rect x="204.1" y="170.1" class="st0" width="1" height="1"/>
	<rect x="17" y="170.1" class="st0" width="1" height="1"/>
	<rect x="289.1" y="170.1" class="st0" width="1" height="1"/>
	<rect x="153.1" y="170.1" class="st0" width="1" height="1"/>
	<rect x="85.1" y="170.1" class="st0" width="1" height="1"/>
	<rect x="357.2" y="170.1" class="st0" width="1" height="1"/>
	<rect x="221.1" y="170.1" class="st0" width="1" height="1"/>
	<rect x="238.1" y="255.1" class="st0" width="1" height="1"/>
	<rect x="102.1" y="255.1" class="st0" width="1" height="1"/>
	<rect x="34" y="255.1" class="st0" width="1" height="1"/>
	<rect x="306.2" y="255.1" class="st0" width="1" height="1"/>
	<rect x="170.1" y="255.1" class="st0" width="1" height="1"/>
	<rect x="255.1" y="255.1" class="st0" width="1" height="1"/>
	<rect x="119.1" y="255.1" class="st0" width="1" height="1"/>
	<rect x="51" y="255.1" class="st1" width="1" height="1"/>
	<rect x="323.2" y="255.1" class="st0" width="1" height="1"/>
	<rect x="187.1" y="255.1" class="st0" width="1" height="1"/>
	<rect y="255.1" class="st0" width="1" height="1"/>
	<rect x="272.1" y="255.1" class="st0" width="1" height="1"/>
	<rect x="136.1" y="255.1" class="st0" width="1" height="1"/>
	<rect x="68" y="255.1" class="st0" width="1" height="1"/>
	<rect x="340.2" y="255.1" class="st0" width="1" height="1"/>
	<rect x="204.1" y="255.1" class="st0" width="1" height="1"/>
	<rect x="17" y="255.1" class="st0" width="1" height="1"/>
	<rect x="289.1" y="255.1" class="st0" width="1" height="1"/>
	<rect x="153.1" y="255.1" class="st0" width="1" height="1"/>
	<rect x="85.1" y="255.1" class="st0" width="1" height="1"/>
	<rect x="357.2" y="255.1" class="st0" width="1" height="1"/>
	<rect x="221.1" y="255.1" class="st0" width="1" height="1"/>
	<rect x="238.1" y="51" class="st1" width="1" height="1"/>
	<rect x="102.1" y="51" class="st1" width="1" height="1"/>
	<rect x="34" y="51" class="st1" width="1" height="1"/>
	<rect x="306.2" y="51" class="st0" width="1" height="1"/>
	<rect x="170.1" y="51" class="st1" width="1" height="1"/>
	<rect x="255.1" y="51" class="st1" width="1" height="1"/>
	<rect x="119.1" y="51" class="st1" width="1" height="1"/>
	<rect x="51" y="51" class="st1" width="1" height="1"/>
	<rect x="323.2" y="51" class="st0" width="1" height="1"/>
	<rect x="187.1" y="51" class="st1" width="1" height="1"/>
	<rect y="51" class="st0" width="1" height="1"/>
	<rect x="272.1" y="51" class="st0" width="1" height="1"/>
	<rect x="136.1" y="51" class="st1" width="1" height="1"/>
	<rect x="68" y="51" class="st1" width="1" height="1"/>
	<rect x="340.2" y="51" class="st0" width="1" height="1"/>
	<rect x="204.1" y="51" class="st1" width="1" height="1"/>
	<rect x="17" y="51" class="st0" width="1" height="1"/>
	<rect x="289.1" y="51" class="st0" width="1" height="1"/>
	<rect x="153.1" y="51" class="st1" width="1" height="1"/>
	<rect x="85.1" y="51" class="st1" width="1" height="1"/>
	<rect x="357.2" y="51" class="st0" width="1" height="1"/>
	<rect x="221.1" y="51" class="st1" width="1" height="1"/>
	<rect x="238.1" y="119.1" class="st0" width="1" height="1"/>
	<rect x="102.1" y="119.1" class="st0" width="1" height="1"/>
	<rect x="34" y="119.1" class="st0" width="1" height="1"/>
	<rect x="306.2" y="119.1" class="st0" width="1" height="1"/>
	<rect x="170.1" y="119.1" class="st0" width="1" height="1"/>
	<rect x="255.1" y="119.1" class="st0" width="1" height="1"/>
	<rect x="119.1" y="119.1" class="st0" width="1" height="1"/>
	<rect x="51" y="119.1" class="st0" width="1" height="1"/>
	<rect x="187.1" y="119.1" class="st0" width="1" height="1"/>
	<rect y="119.1" class="st0" width="1" height="1"/>
	<rect x="272.1" y="119.1" class="st0" width="1" height="1"/>
	<rect x="136.1" y="119.1" class="st0" width="1" height="1"/>
	<rect x="68" y="119.1" class="st0" width="1" height="1"/>
	<rect x="340.2" y="119.1" class="st0" width="1" height="1"/>
	<rect x="204.1" y="119.1" class="st0" width="1" height="1"/>
	<rect x="17" y="119.1" class="st0" width="1" height="1"/>
	<rect x="289.1" y="119.1" class="st0" width="1" height="1"/>
	<rect x="153.1" y="119.1" class="st0" width="1" height="1"/>
	<rect x="85.1" y="119.1" class="st0" width="1" height="1"/>
	<rect x="221.1" y="119.1" class="st0" width="1" height="1"/>
	<rect x="238.1" y="187.1" class="st0" width="1" height="1"/>
	<rect x="102.1" y="187.1" class="st0" width="1" height="1"/>
	<rect x="34" y="187.1" class="st0" width="1" height="1"/>
	<rect x="306.2" y="187.1" class="st0" width="1" height="1"/>
	<rect x="170.1" y="187.1" class="st0" width="1" height="1"/>
	<rect x="255.1" y="187.1" class="st0" width="1" height="1"/>
	<rect x="119.1" y="187.1" class="st0" width="1" height="1"/>
	<rect x="51" y="187.1" class="st0" width="1" height="1"/>
	<rect x="323.2" y="187.1" class="st0" width="1" height="1"/>
	<rect x="187.1" y="187.1" class="st0" width="1" height="1"/>
	<rect y="187.1" class="st0" width="1" height="1"/>
	<rect x="272.1" y="187.1" class="st0" width="1" height="1"/>
	<rect x="136.1" y="187.1" class="st0" width="1" height="1"/>
	<rect x="68" y="187.1" class="st0" width="1" height="1"/>
	<rect x="340.2" y="187.1" class="st0" width="1" height="1"/>
	<rect x="204.1" y="187.1" class="st0" width="1" height="1"/>
	<rect x="17" y="187.1" class="st0" width="1" height="1"/>
	<rect x="289.1" y="187.1" class="st0" width="1" height="1"/>
	<rect x="153.1" y="187.1" class="st0" width="1" height="1"/>
	<rect x="85.1" y="187.1" class="st0" width="1" height="1"/>
	<rect x="357.2" y="187.1" class="st0" width="1" height="1"/>
	<rect x="221.1" y="187.1" class="st0" width="1" height="1"/>
</g>
<path id="Logo" class="st2" d="M69.3,255.6c-5-8.6-10.4-17.9-15.6-27h-4.4c-5,8.7-10.5,18.2-15.8,27.4c0.4,0.8,1.2,2.2,2.1,3.8h31.6
	l2.3-3.8L69.3,255.6z M60.5,242.9c2.4,4.1,4.8,8.3,7.1,12.4H42.5l1-1.7h21l-13.7-23.6H53C55.5,234.2,58,238.5,60.5,242.9z
	 M58.6,252.2H44.3l7.2-12.4L58.6,252.2z M42.5,242.9c2.4-4.1,4.7-8.2,7.1-12.3l12.5,21.6h-2l-10.5-18.1L36,257.7
	c-0.3-0.6-0.7-1.2-1-1.8C37.5,251.6,40,247.2,42.5,242.9z M66.5,258.4H37.1l12.5-21.7l1,1.8l-10.5,18.1h27.4L66.5,258.4z"/>
<g id="Aleph.js">
	<path d="M43.2,34.6c0,0.1,0.1,0.3,0.1,0.5c0,0.2,0.1,0.5,0.1,0.7c0.1,0.3,0.1,0.6,0.1,0.8c0,0.4,0,0.7,0,0.9v2.6h-2.4v-2.9l0,0
		h-4.7l0,0v2.9H34v-2.6c0-0.5,0-1,0.1-1.5c0.1-0.6,0.2-0.9,0.2-1.2c0.1-0.3,0.1-0.5,0.1-0.5l1.8-6.4c0.2-0.6,0.5-1,0.9-1.4
		s1-0.6,1.6-0.6s1.1,0.2,1.6,0.6c0.5,0.4,0.8,0.8,0.9,1.4l1.8,6.4L43.2,34.6z M36.9,34.9h3.9l-1.7-6.1c0-0.1-0.1-0.2-0.3-0.2
		c-0.2,0-0.2,0.1-0.3,0.2L36.9,34.9z"/>
	<path d="M55.3,39.6c-0.7,0.6-1.5,0.8-2.3,0.8c-1.1,0-2-0.4-2.8-1.1c-0.7-0.7-1.1-1.7-1.1-2.8v-7.8H46v-2.4h5.5v10.2
		c0,0.4,0.2,0.7,0.5,1c0.3,0.3,0.7,0.5,1,0.5s0.7-0.1,0.9-0.4c0.3-0.3,0.5-0.5,0.5-0.8l2.3,0.7C56.5,38.4,56.1,39.1,55.3,39.6z"/>
	<path d="M63.5,29.6c1.1,0,2,0.4,2.8,1.1s1.1,1.7,1.1,2.8v2.4h-6.1v0.5c0,0.4,0.2,0.7,0.5,1c0.3,0.3,0.7,0.5,1,0.5h0.8
		c0.4,0,0.7-0.1,0.9-0.4c0.3-0.3,0.5-0.5,0.6-0.8l2.3,0.7c-0.3,0.8-0.7,1.6-1.4,2c-0.7,0.6-1.5,0.8-2.4,0.8h-0.8
		c-1.1,0-2-0.4-2.8-1.1c-0.7-0.7-1.1-1.7-1.1-2.8v-3c0-1.1,0.4-2,1.1-2.8c0.7-0.7,1.7-1.1,2.8-1.1L63.5,29.6L63.5,29.6z M65,33.8
		v-0.4c0-0.4-0.2-0.7-0.5-1c-0.3-0.3-0.7-0.5-1-0.5h-0.7c-0.4,0-0.7,0.2-1,0.5c-0.3,0.3-0.5,0.7-0.5,1v0.4H65z"/>
	<path d="M78.5,30.8c0.7,0.7,1.1,1.7,1.1,2.8v3c0,1.1-0.4,2-1.1,2.8c-0.7,0.7-1.7,1.1-2.8,1.1h-0.1c-0.7,0-1.5-0.2-2-0.7v4h-2.4v-14
		h2.4v0.5c0.7-0.5,1.3-0.7,2-0.7h0.1C76.8,29.6,77.8,29.9,78.5,30.8z M77.2,33.6c0-0.4-0.2-0.7-0.5-1c-0.3-0.3-0.7-0.5-1-0.5H75
		c-0.4,0-0.7,0.2-1,0.5c-0.3,0.3-0.5,0.7-0.5,1v3c0,0.4,0.2,0.7,0.5,1c0.3,0.3,0.7,0.5,1,0.5h0.7c0.4,0,0.7-0.2,1-0.5
		c0.3-0.3,0.5-0.7,0.5-1V33.6z"/>
	<path d="M90.6,30.8c0.7,0.7,1.1,1.7,1.1,2.8v6.7h-2.4v-6.7c0-0.4-0.2-0.7-0.5-1s-0.7-0.5-1-0.5h-0.7c-0.4,0-0.7,0.2-1,0.5
		c-0.3,0.3-0.5,0.7-0.5,1v6.7h-2.4v-14h2.4v4c0.7-0.5,1.3-0.7,2-0.7h0.1C89,29.6,89.9,29.9,90.6,30.8z"/>
	<path d="M98.4,36.7h2.4v3.5h-2.4V36.7z"/>
	<path d="M114.3,39.2v1.2c0,1-0.4,1.9-1,2.6c-0.7,0.7-1.6,1-2.6,1c-1,0-1.9-0.4-2.6-1.1c-0.7-0.7-1.1-1.6-1.1-2.6c0-1,0.4-1.9,1-2.6
		c0.7-0.7,1.6-1,2.6-1h1.2v-4.5h-4v-2.4h6.4v6.9h2.2v2.4L114.3,39.2L114.3,39.2z M110.7,39.2c-0.4,0-0.7,0.1-0.8,0.4
		c-0.3,0.3-0.4,0.6-0.4,0.8s0.1,0.7,0.4,0.8c0.3,0.3,0.6,0.4,0.8,0.4c0.3,0,0.7-0.1,0.8-0.4c0.3-0.3,0.4-0.6,0.4-0.8v-1.2H110.7z
		 M111.9,25h2.4v3.5h-2.4V25z"/>
	<path d="M121.9,37.3c0,0.2,0.1,0.4,0.3,0.5c0.2,0.1,0.4,0.2,0.6,0.2h2.2c0.2,0,0.4-0.1,0.6-0.3c0.2-0.2,0.3-0.4,0.3-0.6
		c0-0.6-0.4-0.8-1-0.8l-1.8-0.2c-0.9-0.1-1.7-0.5-2.2-1c-0.6-0.7-0.9-1.3-0.9-2.2c0-0.9,0.3-1.7,0.9-2.3c0.7-0.7,1.4-0.9,2.3-0.9
		h1.9c0.7,0,1.4,0.2,2,0.7s0.9,1,1.1,1.8l-2.3,0.7c0-0.2-0.1-0.4-0.3-0.5c-0.2-0.1-0.3-0.2-0.6-0.2H123c-0.2,0-0.4,0.1-0.6,0.3
		s-0.3,0.4-0.3,0.6c0,0.5,0.4,0.7,1,0.8l1.9,0.2c0.9,0.1,1.7,0.5,2.2,1.1c0.6,0.7,0.9,1.4,0.9,2.2c0,0.9-0.3,1.7-0.9,2.3
		s-1.4,0.9-2.3,0.9h-2.2c-0.7,0-1.4-0.2-2-0.7s-0.9-1-1.1-1.8L121.9,37.3z"/>
</g>
<g id="The_Full-stack_Framework_in_Deno.">
	<path class="st3" d="M37.1,51.2H34v-1.1h7.5v1.1h-3.1v9.1h-1.3V51.2z"/>
	<path class="st3" d="M43.2,49.3h1.3v3l0,1.6c0.7-0.7,1.5-1.3,2.5-1.3c1.6,0,2.3,1,2.3,3v4.8h-1.3v-4.6c0-1.4-0.4-2-1.4-2
		c-0.8,0-1.3,0.4-2.1,1.2v5.5h-1.3V49.3z"/>
	<path class="st3" d="M51,56.6c0-2.4,1.7-4,3.4-4c1.9,0,3,1.4,3,3.5c0,0.3,0,0.5-0.1,0.7h-5.1c0.1,1.6,1.1,2.6,2.5,2.6
		c0.7,0,1.3-0.2,1.9-0.6l0.5,0.8c-0.7,0.4-1.5,0.8-2.5,0.8C52.6,60.5,51,59,51,56.6z M56.3,55.9c0-1.5-0.7-2.3-1.9-2.3
		c-1.1,0-2,0.9-2.2,2.3H56.3z"/>
	<path class="st3" d="M62.5,50.1h5.9v1.1h-4.6v3.4h3.9v1.1h-3.9v4.6h-1.3V50.1z"/>
	<path class="st3" d="M69.7,57.6v-4.8H71v4.6c0,1.4,0.4,2,1.4,2c0.8,0,1.3-0.4,2-1.3v-5.4h1.3v7.5h-1.1l-0.1-1.2h0
		c-0.7,0.8-1.5,1.4-2.5,1.4C70.4,60.5,69.7,59.5,69.7,57.6z"/>
	<path class="st3" d="M78.3,58.8v-9.6h1.3v9.6c0,0.4,0.2,0.5,0.4,0.5c0.1,0,0.1,0,0.3,0l0.2,1c-0.2,0.1-0.4,0.1-0.7,0.1
		C78.7,60.5,78.3,59.9,78.3,58.8z"/>
	<path class="st3" d="M82.2,58.8v-9.6h1.3v9.6c0,0.4,0.2,0.5,0.4,0.5c0.1,0,0.1,0,0.3,0l0.2,1c-0.2,0.1-0.4,0.1-0.7,0.1
		C82.6,60.5,82.2,59.9,82.2,58.8z"/>
	<path class="st3" d="M85.6,55.9h3.6v1h-3.6V55.9z"/>
	<path class="st3" d="M90.2,59.5l0.6-0.8c0.7,0.5,1.3,0.9,2.2,0.9c1,0,1.5-0.5,1.5-1.2c0-0.8-0.9-1.1-1.7-1.4
		c-1.1-0.4-2.2-0.9-2.2-2.2c0-1.2,1-2.1,2.6-2.1c0.9,0,1.8,0.4,2.3,0.8l-0.6,0.8c-0.5-0.4-1-0.7-1.7-0.7c-1,0-1.4,0.5-1.4,1.1
		c0,0.7,0.8,1,1.6,1.3c1.1,0.4,2.3,0.9,2.3,2.3c0,1.2-1,2.2-2.8,2.2C91.9,60.5,90.9,60.1,90.2,59.5z"/>
	<path class="st3" d="M97.4,58v-4.2h-1.1v-1l1.2-0.1l0.2-2.1h1.1v2.1h2v1h-2V58c0,0.9,0.3,1.5,1.2,1.5c0.3,0,0.6-0.1,0.9-0.2
		l0.3,0.9c-0.4,0.1-0.9,0.3-1.4,0.3C98,60.5,97.4,59.5,97.4,58z"/>
	<path class="st3" d="M101.6,58.4c0-1.6,1.4-2.5,4.6-2.8c0-1-0.3-1.9-1.6-1.9c-0.9,0-1.7,0.4-2.3,0.8l-0.5-0.9c0.7-0.4,1.8-1,3-1
		c1.8,0,2.6,1.2,2.6,3.1v4.6h-1l-0.1-0.9h0c-0.7,0.6-1.6,1.1-2.5,1.1C102.6,60.5,101.6,59.7,101.6,58.4z M106.3,58.5v-2.1
		c-2.5,0.3-3.4,0.9-3.4,1.9c0,0.9,0.6,1.2,1.3,1.2C105,59.5,105.5,59.1,106.3,58.5z"/>
	<path class="st3" d="M109.4,56.6c0-2.5,1.7-4,3.6-4c1,0,1.7,0.4,2.2,0.9l-0.7,0.8c-0.4-0.4-0.9-0.7-1.5-0.7c-1.4,0-2.4,1.2-2.4,2.9
		c0,1.7,0.9,2.9,2.3,2.9c0.7,0,1.3-0.3,1.8-0.8l0.6,0.8c-0.7,0.6-1.5,1-2.4,1C110.9,60.5,109.4,59.1,109.4,56.6z"/>
	<path class="st3" d="M117,49.3h1.3v7.5h0l3.2-4h1.4l-2.5,3l2.8,4.5h-1.4l-2.2-3.6l-1.4,1.7v2H117V49.3z"/>
	<path class="st3" d="M127.9,50.1h5.9v1.1h-4.6v3.4h3.9v1.1h-3.9v4.6h-1.3V50.1z"/>
	<path class="st3" d="M135.2,52.8h1l0.1,1.4h0c0.5-1,1.3-1.6,2.1-1.6c0.3,0,0.6,0,0.8,0.2l-0.2,1.1c-0.3-0.1-0.4-0.1-0.7-0.1
		c-0.6,0-1.4,0.4-1.9,1.7v4.9h-1.3V52.8z"/>
	<path class="st3" d="M139.7,58.4c0-1.6,1.4-2.5,4.6-2.8c0-1-0.3-1.9-1.6-1.9c-0.9,0-1.7,0.4-2.3,0.8l-0.5-0.9c0.7-0.4,1.8-1,3-1
		c1.8,0,2.6,1.2,2.6,3.1v4.6h-1l-0.1-0.9h0c-0.7,0.6-1.6,1.1-2.5,1.1C140.7,60.5,139.7,59.7,139.7,58.4z M144.4,58.5v-2.1
		c-2.5,0.3-3.4,0.9-3.4,1.9c0,0.9,0.6,1.2,1.3,1.2C143,59.5,143.6,59.1,144.4,58.5z"/>
	<path class="st3" d="M148,52.8h1l0.1,1.1h0c0.7-0.7,1.4-1.3,2.3-1.3c1.2,0,1.8,0.6,2.1,1.4c0.8-0.8,1.6-1.4,2.5-1.4
		c1.6,0,2.3,1,2.3,3v4.8h-1.3v-4.6c0-1.4-0.4-2-1.4-2c-0.6,0-1.2,0.4-1.9,1.2v5.5h-1.3v-4.6c0-1.4-0.4-2-1.4-2
		c-0.6,0-1.2,0.4-1.9,1.2v5.5H148V52.8z"/>
	<path class="st3" d="M160.3,56.6c0-2.4,1.7-4,3.4-4c1.9,0,3,1.4,3,3.5c0,0.3,0,0.5-0.1,0.7h-5.1c0.1,1.6,1.1,2.6,2.5,2.6
		c0.7,0,1.3-0.2,1.9-0.6l0.5,0.8c-0.7,0.4-1.5,0.8-2.5,0.8C161.9,60.5,160.3,59,160.3,56.6z M165.6,55.9c0-1.5-0.7-2.3-1.9-2.3
		c-1.1,0-2,0.9-2.2,2.3H165.6z"/>
	<path class="st3" d="M167.8,52.8h1.3l1.1,4.4c0.2,0.7,0.3,1.4,0.4,2.1h0.1c0.2-0.7,0.3-1.4,0.5-2.1l1.2-4.4h1.2l1.2,4.4
		c0.2,0.7,0.3,1.4,0.5,2.1h0.1c0.2-0.7,0.3-1.4,0.5-2.1l1.1-4.4h1.2l-2,7.5h-1.5l-1.1-4.1c-0.2-0.7-0.3-1.4-0.5-2.2h-0.1
		c-0.2,0.8-0.3,1.5-0.5,2.2l-1.1,4h-1.5L167.8,52.8z"/>
	<path class="st3" d="M179.2,56.6c0-2.5,1.7-4,3.5-4c1.8,0,3.5,1.5,3.5,4c0,2.5-1.7,3.9-3.5,3.9C180.8,60.5,179.2,59.1,179.2,56.6z
		 M184.9,56.6c0-1.7-0.9-2.9-2.2-2.9c-1.3,0-2.2,1.2-2.2,2.9c0,1.7,0.9,2.9,2.2,2.9C184,59.5,184.9,58.3,184.9,56.6z"/>
	<path class="st3" d="M188.2,52.8h1l0.1,1.4h0c0.5-1,1.3-1.6,2.1-1.6c0.3,0,0.6,0,0.8,0.2l-0.2,1.1c-0.3-0.1-0.4-0.1-0.7-0.1
		c-0.6,0-1.4,0.4-1.9,1.7v4.9h-1.3V52.8z"/>
	<path class="st3" d="M193.6,49.3h1.3v7.5h0l3.2-4h1.4l-2.5,3l2.8,4.5h-1.4l-2.2-3.6l-1.4,1.7v2h-1.3V49.3z"/>
	<path class="st3" d="M204.1,50.4c0-0.5,0.3-0.8,0.8-0.8s0.8,0.3,0.8,0.8c0,0.5-0.3,0.8-0.8,0.8S204.1,50.9,204.1,50.4z M204.3,52.8
		h1.3v7.5h-1.3V52.8z"/>
	<path class="st3" d="M208.2,52.8h1l0.1,1.1h0c0.7-0.7,1.5-1.3,2.5-1.3c1.6,0,2.3,1,2.3,3v4.8h-1.3v-4.6c0-1.4-0.4-2-1.4-2
		c-0.8,0-1.3,0.4-2.1,1.2v5.5h-1.3V52.8z"/>
	<path class="st3" d="M219.8,50.1h2.7c3.1,0,4.9,1.8,4.9,5.1c0,3.3-1.8,5.2-4.9,5.2h-2.7V50.1z M222.4,59c2.2,0,3.4-1.3,3.4-3.8
		c0-2.6-1.2-3.8-3.4-3.8h-0.9V59H222.4z"/>
	<path class="st3" d="M228.9,56.5c0-2.5,1.7-4,3.5-4c2,0,3.1,1.5,3.1,3.6c0,0.3,0,0.6-0.1,0.8h-5c0.1,1.5,1,2.3,2.4,2.3
		c0.7,0,1.3-0.2,1.8-0.6l0.6,1c-0.7,0.5-1.6,0.8-2.6,0.8C230.5,60.5,228.9,59,228.9,56.5z M234.1,55.8c0-1.3-0.6-2.1-1.7-2.1
		c-1,0-1.8,0.7-2,2.1H234.1z"/>
	<path class="st3" d="M237.3,52.7h1.3l0.1,1.1h0c0.7-0.7,1.5-1.3,2.5-1.3c1.6,0,2.3,1.1,2.3,3v4.8H242v-4.6c0-1.3-0.4-1.8-1.3-1.8
		c-0.7,0-1.2,0.4-1.9,1v5.4h-1.6V52.7z"/>
	<path class="st3" d="M245.4,56.5c0-2.5,1.7-4,3.6-4c1.9,0,3.6,1.5,3.6,4c0,2.5-1.7,4-3.6,4C247.1,60.5,245.4,59,245.4,56.5z
		 M250.9,56.5c0-1.6-0.8-2.7-2-2.7c-1.2,0-1.9,1.1-1.9,2.7c0,1.6,0.8,2.7,1.9,2.7C250.2,59.2,250.9,58.1,250.9,56.5z"/>
	<path class="st3" d="M254.3,59.5c0-0.6,0.4-1,0.9-1s0.9,0.4,0.9,1c0,0.6-0.4,1-0.9,1S254.3,60.1,254.3,59.5z"/>
</g>
<g id="Deno">
	<path class="st4" d="M603.5,33c0,0-0.2,0-0.3,0c-1.9,0.2-3.8,1-5.4,2.3c-0.3,0.2-0.9,0.9-1.2,1.2c-1.3,1.5-2,3.2-2.3,5.3
		c-0.1,0.5-0.1,2,0,2.4c0.3,2,1,3.7,2.3,5.3c0.2,0.3,0.9,0.9,1.2,1.2c1.5,1.3,3.2,2,5.3,2.3c0.5,0.1,2,0.1,2.4,0
		c2-0.3,3.7-1,5.3-2.3c0.3-0.2,0.9-0.9,1.2-1.2c1.3-1.5,2-3.2,2.3-5.3c0.1-0.5,0.1-2,0-2.4c-0.3-2-1-3.7-2.3-5.3
		c-0.2-0.3-0.9-0.9-1.2-1.2c-1.5-1.3-3.3-2-5.3-2.3c-0.2,0-0.5,0-1.1,0C603.9,33,603.5,33,603.5,33L603.5,33z M603.6,34.1
		c0,0.3,0,0.9,0,1.5c0,0.3,0,0.7,0,0.9c0,0.8,0.1,2.8,0.1,3l0,0.2l-0.1,0c-0.1,0-0.1,0-0.1,0c0,0,0-0.2,0-0.4c0-0.9-0.2-4.3-0.2-4.8
		l0-0.5l0.1,0c0,0,0.1,0,0.1,0l0.1,0V34.1z M605.9,34c0,0,0,0.7,0,1.7c0,0.9,0,1.7,0,1.8c0,0.1,0,0.2,0,0.2c0,0-0.1,0-0.1,0l-0.1,0
		l0-0.7c0-0.4,0-0.8,0-1c0-0.4,0-1.9,0-2c0,0,0,0,0.1,0C605.9,34,605.9,34,605.9,34L605.9,34z M600.2,34.8c0,0,0.1,1.4,0.3,3.2
		c0,0.6,0.1,1.2,0.1,1.2c0,0.1,0,0.1-0.1,0.2c0,0-0.1,0-0.1,0c0,0,0-0.1,0-0.1c0-0.3-0.2-1.9-0.3-3c-0.1-0.7-0.1-1.2-0.1-1.3
		c0-0.1,0-0.1,0.1-0.2C600.2,34.8,600.2,34.8,600.2,34.8L600.2,34.8z M607,35.3c0.1,0,0.1,0,0.1,0.2c0,0.2,0,1.4,0,1.4
		c-0.1,0-0.2-0.1-0.2-0.1c0,0,0-0.4,0-0.8C606.9,35.2,606.8,35.3,607,35.3L607,35.3z M602.5,35.4c0,0.1,0,0.4,0,0.8
		c0,0.4,0,0.9,0.1,1.1c0,0.4,0,0.4-0.1,0.4c-0.1,0-0.1,0-0.1-0.1c0-0.1,0-0.3,0-0.5c0-0.2,0-0.6-0.1-0.9c0-0.3,0-0.6-0.1-0.7
		c0-0.1,0-0.1,0.1-0.2c0,0,0.1,0,0.2,0C602.5,35.3,602.5,35.3,602.5,35.4L602.5,35.4z M609.3,35.8L609.3,35.8l0.1,0.4
		c0,0.2,0,0.6,0,0.9l0,0.5l-0.1-0.1l-0.1,0l0-0.8c0-0.5,0-0.8,0-0.8C609.2,35.7,609.2,35.7,609.3,35.8L609.3,35.8z M604.8,36.1
		c0,0,0,1.2,0.1,1.8l0,0.4l-0.1,0c-0.1,0-0.1,0-0.1,0c0,0-0.1-1.8-0.1-2v-0.2l0.1,0C604.7,36.1,604.8,36.1,604.8,36.1L604.8,36.1z
		 M610.5,36.3c0,0,0,0.6,0,3.5c0,3.4,0,3.5,0,3.5c0,0-0.1,0-0.1,0c0,0,0-0.3-0.1-3.2c0-1.8,0-3.4,0-3.6l0-0.4l0.1,0.1
		C610.4,36.2,610.4,36.3,610.5,36.3L610.5,36.3z M608.3,36.8c0,0,0,0.2,0,0.3c0,0.5,0,3.9,0,3.9c0,0,0,0-0.1,0l-0.1,0v-4.2
		L608.3,36.8C608.2,36.8,608.3,36.8,608.3,36.8L608.3,36.8z M601.5,36.9c0,0.1,0,0.2,0,0.3c0,0.1,0,0.4,0,0.6c0,0.4,0,0.5-0.1,0.5
		c-0.1,0-0.1,0-0.1-0.1c0-0.1-0.1-1.4-0.1-1.4c0,0,0.1-0.1,0.2-0.1C601.4,36.8,601.5,36.9,601.5,36.9L601.5,36.9z M597.4,37.5
		c0,0.3,0.1,0.8,0.1,1.2c0,0.4,0.1,0.8,0.1,0.8c0,0-0.2,0.1-0.2,0.1c0,0-0.3-2.2-0.3-2.3c0-0.1,0.2-0.3,0.2-0.3
		C597.4,37.1,597.4,37.3,597.4,37.5L597.4,37.5z M607.1,37.8L607.1,37.8l0.1,0.6c0,0.3,0,0.6,0,0.7c0,0.2,0,0.3-0.2,0.2l-0.1,0v-0.2
		c0-0.1,0-0.5,0-0.8l0-0.5h0.1C607,37.8,607,37.8,607.1,37.8L607.1,37.8z M598.5,38.8c0,0.5,0.1,1.3,0.2,1.8l0.1,0.9l-0.1,0.1
		l-0.1,0.1l0-0.2c0-0.1-0.1-0.6-0.1-1.1c-0.1-0.5-0.1-1.2-0.2-1.6l-0.1-0.7l0.1-0.1c0.1-0.1,0.1-0.1,0.1,0
		C598.4,37.9,598.4,38.3,598.5,38.8L598.5,38.8z M596.6,39.1c0.1,0.5,0.2,1.8,0.3,2.9c0.1,1.1,0.2,2.1,0.3,2.3
		c0,0.2,0.1,0.5,0.1,0.7c0,0.3,0,0.3,0,0.3c-0.1,0-0.1,0-0.1,0c0,0,0-0.2,0-0.4c0-0.3-0.1-0.9-0.3-2.2c0-0.3-0.1-0.8-0.1-1.1
		c0-0.4-0.1-0.9-0.2-1.2c0-0.3-0.1-0.8-0.1-1.2c0-0.3-0.1-0.6-0.1-0.7c0-0.1,0.2-0.3,0.2-0.3C596.5,38.2,596.6,38.6,596.6,39.1
		L596.6,39.1z M595.9,40.1c0,0.3,0.1,0.8,0.2,1.2c0,0.4,0.1,0.8,0.1,1l0,0.3l-0.1,0c0,0-0.1,0-0.1,0c0,0,0-0.1,0-0.2
		c0-0.1-0.1-0.7-0.2-1.4l-0.2-1.2l0.1-0.2c0-0.1,0.1-0.2,0.1-0.2C595.8,39.6,595.9,39.8,595.9,40.1L595.9,40.1z M609.4,39.8
		c0,0,0,0.2,0,1.3v1.3h-0.1c-0.2,0-0.1,0-0.2-1.4l0-1.3h0.1C609.3,39.8,609.4,39.8,609.4,39.8L609.4,39.8z M604,40.2
		c0.6,0.1,1,0.2,1.5,0.5c0.3,0.2,0.5,0.3,0.8,0.6c0.5,0.5,0.8,0.9,1.1,1.5c0.4,0.9,0.6,1.7,0.8,3.8c0.1,0.9,0.2,2.6,0.2,3.3
		c0,0.2,0,0.5,0,0.7c0,0.4,0.1,0.4-0.3,0.6c-0.5,0.3-1,0.4-1.7,0.6c-0.8,0.2-1.4,0.3-2.2,0.3l-0.6,0l0-0.3c0-0.2,0-0.5,0-0.8
		c0.1-1.4,0.1-3.1,0-4.1c-0.1-0.6-0.2-1.2-0.2-1.4c0,0,0-0.1,0.3-0.1c0.4-0.2,0.8-0.3,0.9-0.4c0.1-0.2-0.1-0.4-0.3-0.4
		c0,0-0.2,0-0.3,0.1c-0.6,0.3-1.7,0.6-2.3,0.6c-0.4,0-1.1,0-1.6-0.1c-0.3,0-0.7-0.2-1.1-0.4c-0.4-0.2-0.7-0.5-0.8-0.9
		c0-0.2,0-0.6,0-0.8c0.1-0.2,0.2-0.6,0.4-0.8c0.7-0.9,2.1-1.7,3.6-2C602.8,40.2,603.5,40.2,604,40.2L604,40.2z M611.6,40.3
		c0.1,0,0.1,0,0.1,0.1c0,0.7,0,2.2,0,2.3c0,0-0.1,0-0.2,0c0,0,0-0.1,0-1.2c0-0.8,0-1.2,0-1.2C611.5,40.3,611.5,40.3,611.6,40.3
		L611.6,40.3z M612.7,41.7L612.7,41.7l0.1,2.1c0,2.6,0,2.7-0.1,2.9c-0.2,0.4-0.1,0.4-0.1-1.2c0-0.8,0-1.6,0-1.8s0-0.7,0-1.2
		c0-0.6,0-0.8,0-0.8C612.6,41.6,612.6,41.6,612.7,41.7L612.7,41.7z M597.9,42.3c0,0.2,0,0.2-0.1,0.4l-0.1,0.2l0-0.2
		c0-0.4,0-0.4,0-0.5c0,0,0.1,0,0.1,0C597.9,42.1,597.9,42.2,597.9,42.3L597.9,42.3z M596.4,43.8c0,0.2,0.2,1.5,0.3,2.2
		c0.1,1,0.1,1.2,0.1,1.1c0,0-0.1-0.3-0.1-0.8c-0.4-2.7-0.4-2.6-0.3-2.7C596.3,43.6,596.3,43.6,596.4,43.8L596.4,43.8z M598.1,44.9
		c0,0.1,0.1,0.7,0.1,0.8c0,0.1-0.1,0.1-0.1,0.1c0,0,0-0.2-0.1-0.5c0-0.2-0.1-0.5-0.1-0.6l0-0.1l0.1,0.1
		C598.1,44.8,598.1,44.9,598.1,44.9L598.1,44.9z M600.1,45.8c0,0,0,0.1,0.1,0.4c0,0.5,0,0.4-0.1,0.4c-0.1,0-0.1,0-0.1-0.4
		C600,45.8,600,45.8,600.1,45.8C600.1,45.8,600.1,45.8,600.1,45.8L600.1,45.8z M602.1,45.8c0,0,0,0.2,0,0.3c0,0.2,0,0.5,0,0.8
		c0.1,1,0.1,1.1,0,1.1c0,0-0.1,0-0.1-0.7c0-0.3-0.1-0.7-0.1-1c0-0.3,0-0.5,0-0.5C602,45.8,602.1,45.8,602.1,45.8z M597.4,46.3
		c0,0,0.1,0.8,0.2,1.9c0,0.3,0.1,0.6,0.1,0.7l0,0.1l-0.1,0c0,0-0.1-0.1-0.1-0.1c0-0.2-0.1-1.2-0.2-1.8
		C597.4,46.7,597.4,46.4,597.4,46.3C597.4,46.3,597.4,46.3,597.4,46.3L597.4,46.3z M611.6,47.3l0,1l-0.1,0.1
		c-0.1,0.2-0.1,0.2-0.1-0.9l0-1.1l0.1-0.1c0,0,0.1-0.1,0.1-0.1C611.6,46.3,611.6,46.8,611.6,47.3L611.6,47.3z M609.4,49
		c0,1.4,0,1.5,0,1.6c0,0,0,0-0.1,0c0,0,0-3.1,0-3.2c0,0,0,0,0.1,0C609.3,47.4,609.4,47.6,609.4,49L609.4,49z M601.3,48
		c0,0.2,0.1,0.9,0.1,1.2c0,0.2,0,0.2,0,0.3c0,0-0.1,0-0.1,0c0,0-0.1-0.6-0.1-1.4l0-0.2h0.1C601.3,47.9,601.3,47.9,601.3,48L601.3,48
		z M599.4,48.9c0,0,0,0.1,0,0.1c0,0.1,0,0.4,0.1,0.7c0.1,0.9,0.1,1.1,0.1,1c-0.1,0-0.1-0.1-0.1-0.1c0,0,0-0.1,0-0.3
		c0-0.1,0-0.4,0-0.5c0-0.1,0-0.4-0.1-0.6C599.3,48.9,599.3,48.8,599.4,48.9C599.3,48.8,599.4,48.8,599.4,48.9L599.4,48.9z
		 M600.6,50.5c0,0.1,0,0.3,0,0.4c0,0.4,0,0.4-0.1,0.3c0,0,0-0.1-0.1-0.4c-0.1-0.5-0.1-0.5,0-0.5C600.5,50.4,600.5,50.4,600.6,50.5z"
		/>
	<path class="st4" d="M599.7,41.4c-0.3,0.1-0.3,0.5,0,0.6c0.2,0.1,0.4,0,0.4-0.1C600.3,41.6,600,41.3,599.7,41.4L599.7,41.4z
		 M601.3,41.6c-0.2,0.1-0.2,0.5,0,0.6c0.2,0.1,0.5,0,0.5-0.3C601.9,41.7,601.6,41.5,601.3,41.6L601.3,41.6z"/>
</g>
<path id="PostUI" class="st4" d="M572,32.5h-3.4L562.9,43l5.7,10.5h3.4l5.7-10.5L572,32.5z M570.3,50.9l-4.2-7.9l4.2-7.9l4.2,7.9
	L570.3,50.9z"/>
<g>
	<circle class="st5" cx="638.3" cy="43" r="2"/>
	<g>
		<ellipse class="st6" cx="638.3" cy="43" rx="9.6" ry="3.7"/>
		<ellipse transform="matrix(0.866 -0.5 0.5 0.866 64.0153 324.9084)" class="st6" cx="638.3" cy="43" rx="3.7" ry="9.6"/>
		<ellipse transform="matrix(0.5 -0.866 0.866 0.5 281.9084 574.2796)" class="st6" cx="638.3" cy="43" rx="9.6" ry="3.7"/>
	</g>
</g>
</svg>
